<svg version="1.1" id="Layer_1" xmlns="http://www.w3.org/2000/svg" xmlns:xlink="http://www.w3.org/1999/xlink" x="0px" y="0px"
	 width="100%" viewBox="0 0 95 159" enable-background="new 0 0 95 159" xml:space="preserve">
<path fill="#ffffff" opacity="000000" stroke="none" 
	d="
M1.000000,11.000000 
	C1.000000,7.670513 1.000000,4.341025 0.999999,1.008654 
	C32.626282,1.005769 64.252563,1.005769 95.939423,1.005769 
	C95.939423,53.898403 95.939423,106.796898 95.939423,159.847687 
	C64.333870,159.847687 32.667034,159.847687 1.000000,159.847687 
	C1.000000,153.255814 1.000000,146.596817 1.368827,139.491699 
	C2.470848,138.966797 3.204042,138.888031 4.311210,138.891602 
	C5.444552,138.923752 6.203922,138.873550 7.300315,138.977463 
	C12.793515,140.621140 16.550474,144.037659 20.062187,148.380066 
	C24.737339,151.719711 28.469910,149.192184 32.525810,146.916580 
	C33.550220,146.137802 34.305386,145.494202 35.374695,144.915497 
	C36.091682,144.643524 36.494526,144.306656 36.951851,143.761444 
	C37.006329,143.553116 37.019188,143.122604 37.354080,142.957321 
	C40.068882,141.539566 43.898422,142.231262 44.047604,138.035522 
	C44.016998,138.042953 44.058445,138.090744 44.407089,138.038193 
	C47.807140,134.989349 50.858547,131.993073 53.961529,128.763809 
	C54.013100,128.530823 54.120800,128.065872 54.389782,127.927483 
	C54.809132,127.211868 54.959496,126.634636 55.074036,126.041679 
	C55.038216,126.025948 55.058712,126.101463 55.334503,125.953140 
	C55.790573,125.215630 55.970856,124.626442 56.375275,123.943344 
	C56.896969,123.627251 56.996075,123.337273 56.978634,122.609970 
	C58.947277,113.962685 65.115562,108.112724 69.415924,100.875580 
	C70.192146,99.198845 70.645531,97.667053 71.311234,96.067329 
	C71.523560,95.999405 71.942032,95.845612 72.354446,95.901688 
	C77.171486,96.923248 79.761208,94.398079 82.235184,91.061310 
	C82.344139,90.587074 82.201195,90.217354 82.032532,89.621826 
	C82.006813,89.396011 81.864166,88.964447 82.045410,88.659256 
	C83.431206,87.231445 84.635757,86.108826 85.855995,84.725540 
	C85.594437,84.269623 85.317184,84.074371 85.025909,83.506325 
	C85.961830,81.772911 86.911797,80.412300 87.865311,79.054001 
	C87.278938,77.382027 86.689011,75.707733 86.416977,73.876633 
	C89.802010,66.807739 87.776482,60.384342 84.801727,53.702217 
	C82.861275,51.862404 80.966255,50.368042 78.878265,48.566689 
	C75.121407,46.883953 71.557533,45.508213 67.761261,44.059586 
	C67.528877,43.986706 67.051743,43.888725 66.979935,43.664467 
	C66.726997,43.154430 66.468399,42.991959 65.953568,42.609932 
	C63.524754,41.895607 61.274704,41.524143 58.646637,41.087051 
	C57.504620,41.059464 56.740623,41.097507 55.559414,41.079285 
	C53.459961,41.005219 51.777718,40.987427 49.884430,40.615154 
	C47.461758,40.230984 45.250141,40.201294 42.700298,40.012291 
	C39.917519,38.539799 37.472958,37.226620 34.875374,35.608051 
	C32.253510,32.011845 29.462587,29.214874 25.060783,28.672764 
	C24.773651,27.530861 24.434523,26.683794 24.073212,25.867493 
	C24.051033,25.898256 24.122396,25.923960 24.006315,25.624977 
	C23.239014,25.544659 22.587795,25.763323 21.708324,25.978432 
	C21.480076,25.974876 21.033600,25.879473 21.021461,25.560276 
	C20.945702,24.821131 20.882080,24.401182 20.808271,23.681675 
	C19.911953,22.639645 19.025822,21.897177 17.897720,20.967400 
	C17.460337,20.838638 17.264921,20.897190 17.251837,20.648006 
	C17.256041,20.181730 17.077913,20.023190 16.881325,19.813438 
	C16.834333,19.568701 16.718885,19.474070 16.688128,19.289528 
	C16.408773,18.899614 15.957806,18.698505 15.482628,18.459692 
	C15.458418,18.421988 15.284020,18.387583 15.012726,18.358541 
	C14.683905,18.502062 14.626379,18.674623 14.543360,18.821270 
	C14.517866,18.795355 14.518077,18.722651 14.449827,18.362127 
	C11.262362,16.393642 8.143148,14.785680 4.781532,13.115416 
	C4.373362,13.034109 4.207594,13.015102 3.932727,12.693583 
	C2.882419,11.927379 1.941209,11.463690 1.000000,11.000000 
z"/>
<path fill="#EDD7A8" opacity="1.000000" stroke="none" 
	d="
M1.000001,79.000000 
	C1.000000,66.312439 1.000000,53.624878 1.313532,40.536209 
	C3.089175,40.754333 4.551285,41.373566 6.257920,41.992645 
	C6.502445,41.992493 6.991010,41.966000 7.213521,42.191383 
	C8.241839,41.872185 9.047647,41.327606 9.964258,40.467384 
	C12.712823,36.086975 15.350584,32.022209 18.295269,28.010303 
	C19.016478,28.087687 19.430763,28.112209 19.899738,28.471479 
	C21.207499,30.827696 22.460571,32.849163 23.396223,34.948441 
	C13.609031,43.596817 11.019284,51.673798 15.091802,56.227558 
	C15.847443,54.640564 16.460455,53.353119 17.382526,51.977516 
	C18.787718,51.258175 19.883848,50.626984 20.994698,50.330399 
	C21.011145,51.111580 21.012875,51.558147 20.764271,52.298134 
	C20.033579,55.835159 19.540171,59.076912 19.076267,62.322880 
	C18.538010,66.089111 20.119879,67.589516 23.754257,67.062790 
	C23.049721,69.149712 22.449656,70.912415 21.516571,73.653366 
	C19.596752,72.189484 17.951389,70.934875 15.169125,68.813370 
	C15.505955,72.544212 15.752466,75.274658 15.769506,78.238007 
	C15.358347,79.313118 15.176660,80.155342 14.690120,81.063034 
	C13.923132,81.750717 13.460999,82.372917 12.634312,82.932709 
	C8.513173,81.580185 4.756588,80.290092 1.000001,79.000000 
M9.093423,57.268753 
	C9.315018,55.687531 9.536612,54.106312 9.758206,52.525093 
	C9.108951,52.275517 8.459695,52.025940 7.810439,51.776363 
	C6.946971,53.476128 6.083504,55.175888 5.220038,56.875652 
	C6.346331,57.184486 7.472623,57.493320 9.093423,57.268753 
z"/>
<path fill="#EBD19F" opacity="1.000000" stroke="none" 
	d="
M1.000000,134.000000 
	C1.000000,125.979103 1.000000,117.958199 1.330281,109.586906 
	C4.057106,109.069458 6.453650,108.902412 8.891590,109.142731 
	C9.081089,110.802277 9.229193,112.054459 9.370067,113.245529 
	C13.634414,113.830109 17.459417,113.944916 20.353893,109.988998 
	C21.917521,109.218666 23.131754,108.466400 24.693165,107.499046 
	C24.832298,109.121956 24.938465,110.360329 24.769094,111.894524 
	C23.918839,115.791237 23.344118,119.392120 22.460571,123.105011 
	C20.453497,126.226135 18.142572,129.053909 21.417704,132.670059 
	C21.896959,133.199219 20.179636,135.717789 19.107323,137.202179 
	C14.491199,136.392197 10.246434,135.695908 5.749946,134.960236 
	C5.331143,134.951340 5.164061,134.981827 4.756733,134.797729 
	C3.696758,134.343750 2.877028,134.104355 1.784694,133.833893 
	C1.341393,133.868546 1.170697,133.934280 1.000000,134.000000 
M6.982274,122.042038 
	C7.565860,122.769356 8.524996,123.438484 8.648714,124.237038 
	C8.856066,125.575386 8.530936,126.996223 8.429887,128.382339 
	C8.853580,128.493439 9.277271,128.604538 9.700964,128.715637 
	C10.629786,127.413567 11.986676,126.230980 12.390942,124.782501 
	C13.061440,122.380127 13.119258,119.806755 13.435172,117.305405 
	C11.482196,117.491669 9.524652,117.641029 7.578430,117.881874 
	C6.768330,117.982124 5.821144,118.067436 5.220051,118.529037 
	C4.081549,119.403374 3.147909,120.544479 2.129160,121.574753 
	C3.527553,121.817101 4.925946,122.059448 6.982274,122.042038 
z"/>
<path fill="#EAD19D" opacity="1.000000" stroke="none" 
	d="
M1.000001,79.333328 
	C4.756588,80.290092 8.513173,81.580185 12.635195,83.309975 
	C13.002784,84.503922 13.004936,85.258171 12.775442,86.289833 
	C11.365380,88.710983 10.186967,90.854729 8.757452,93.003769 
	C8.339748,92.992340 8.173147,92.975616 7.924724,92.637070 
	C6.867083,91.167114 5.891266,90.018974 5.078212,88.580864 
	C8.547569,83.114906 4.486487,82.224571 1.000000,81.000000 
	C1.000000,80.555557 1.000000,80.111107 1.000001,79.333328 
z"/>
<path fill="#CDAC3F" opacity="1.000000" stroke="none" 
	d="
M1.000000,35.000000 
	C1.000000,32.629440 1.000000,30.258884 1.268913,27.202515 
	C1.715322,23.683865 1.892818,20.851027 2.318399,17.993668 
	C2.566484,17.969151 3.061665,17.910959 3.339934,18.067890 
	C4.417490,18.486231 5.216778,18.747641 6.141041,19.218246 
	C6.476064,19.685064 6.734670,19.877403 7.043651,20.274719 
	C7.066339,20.723932 7.087210,20.902882 7.042517,21.425674 
	C5.901204,26.084816 4.825453,30.400114 3.407297,34.780327 
	C2.376594,34.896828 1.688297,34.948414 1.000000,35.000000 
z"/>
<path fill="#E6CA8F" opacity="1.000000" stroke="none" 
	d="
M1.000000,104.000000 
	C1.000000,102.285622 1.000000,100.571251 1.369107,98.366058 
	C4.261095,97.198486 6.783975,96.521729 9.588099,95.875473 
	C10.250912,95.933426 10.632482,95.960884 11.047877,96.277924 
	C11.381902,97.047585 11.682100,97.527672 11.943724,98.293617 
	C11.603917,99.052094 11.302684,99.524704 10.677673,100.007477 
	C9.909205,101.011353 9.464514,102.005081 9.020369,103.310318 
	C9.029183,104.035851 9.037453,104.449860 8.629200,104.880981 
	C5.808453,104.598717 3.404226,104.299362 1.000000,104.000000 
z"/>
<path fill="#D6B656" opacity="1.000000" stroke="none" 
	d="
M9.306854,95.844971 
	C6.783975,96.521729 4.261095,97.198486 1.369107,97.937622 
	C1.000000,95.629440 1.000000,93.258888 1.299614,90.615448 
	C3.735001,91.214676 5.870774,92.086784 8.006546,92.958885 
	C8.173147,92.975616 8.339748,92.992340 8.778122,93.362045 
	C9.135548,94.425003 9.221201,95.134987 9.306854,95.844971 
z"/>
<path fill="#D1B04D" opacity="1.000000" stroke="none" 
	d="
M1.000000,104.416664 
	C3.404226,104.299362 5.808453,104.598717 8.833366,105.065842 
	C9.710382,105.497116 9.966711,105.760612 10.146758,106.325226 
	C9.663716,107.329338 9.256956,108.032349 8.850195,108.735367 
	C6.453650,108.902412 4.057106,109.069458 1.330281,109.118256 
	C1.000000,107.611107 1.000000,106.222221 1.000000,104.416664 
z"/>
<path fill="#D7B857" opacity="1.000000" stroke="none" 
	d="
M1.000000,81.444168 
	C4.486487,82.224571 8.547569,83.114906 4.688914,88.603027 
	C3.091236,88.943451 2.045618,88.971725 1.000000,89.000000 
	C1.000000,86.629440 1.000000,84.258888 1.000000,81.444168 
z"/>
<path fill="#E7CF8F" opacity="1.000000" stroke="none" 
	d="
M1.000000,35.416664 
	C1.688297,34.948414 2.376594,34.896828 3.499588,35.162251 
	C4.690555,36.383583 5.446825,37.287907 6.160050,38.571365 
	C6.082469,39.964596 6.047932,40.978699 6.013395,41.992802 
	C4.551285,41.373566 3.089175,40.754333 1.313532,40.067551 
	C1.000000,38.611111 1.000000,37.222221 1.000000,35.416664 
z"/>
<path fill="#E6CA8F" opacity="1.000000" stroke="none" 
	d="
M1.000000,89.250000 
	C2.045618,88.971725 3.091236,88.943451 4.526151,88.893005 
	C5.891266,90.018974 6.867083,91.167114 7.924724,92.637070 
	C5.870774,92.086784 3.735001,91.214676 1.299614,90.171288 
	C1.000000,90.000000 1.000000,89.500000 1.000000,89.250000 
z"/>
<path fill="#EAD192" opacity="1.000000" stroke="none" 
	d="
M2.070314,18.018187 
	C1.892818,20.851027 1.715322,23.683865 1.268913,26.758352 
	C1.000000,24.299986 1.000000,21.599974 1.268256,18.414644 
	C1.714447,17.958946 1.892380,17.988565 2.070314,18.018187 
z"/>
<path fill="#B37E53" opacity="1.000000" stroke="none" 
	d="
M2.318399,17.993668 
	C1.892380,17.988565 1.714447,17.958946 1.268256,17.964664 
	C1.000000,15.958328 1.000000,13.916656 1.000000,11.437492 
	C1.941209,11.463690 2.882419,11.927379 3.637096,12.752447 
	C3.320931,14.712871 3.191298,16.311914 3.061665,17.910959 
	C3.061665,17.910959 2.566484,17.969151 2.318399,17.993668 
z"/>
<path fill="#B37F57" opacity="1.000000" stroke="none" 
	d="
M2.057298,133.864960 
	C2.877028,134.104355 3.696758,134.343750 4.578215,135.044449 
	C4.105721,136.312485 3.571501,137.119232 2.697392,137.935608 
	C1.905002,137.963501 1.452501,137.981750 1.000000,138.000000 
	C1.000000,137.555557 1.000000,137.111099 1.236468,136.135391 
	C1.667723,135.024399 1.862511,134.444687 2.057298,133.864960 
z"/>
<path fill="#DBA47E" opacity="1.000000" stroke="none" 
	d="
M1.000000,138.250000 
	C1.452501,137.981750 1.905002,137.963501 2.889817,137.997910 
	C3.422130,138.050552 3.815905,138.144073 3.853999,138.308960 
	C3.892093,138.473846 3.937238,138.809280 3.937237,138.809265 
	C3.204042,138.888031 2.470848,138.966797 1.368827,139.022781 
	C1.000000,139.000000 1.000000,138.500000 1.000000,138.250000 
z"/>
<path fill="#A76B44" opacity="1.000000" stroke="none" 
	d="
M1.784694,133.833893 
	C1.862511,134.444687 1.667723,135.024399 1.236468,135.802063 
	C1.000000,135.555557 1.000000,135.111099 1.000000,134.333328 
	C1.170697,133.934280 1.341393,133.868546 1.784694,133.833893 
z"/>
<path fill="#B47B51" opacity="1.000000" stroke="none" 
	d="
M69.093094,101.020515 
	C65.115562,108.112724 58.947277,113.962685 56.674061,122.474030 
	C54.176262,122.466743 52.064945,122.225899 50.011566,121.578674 
	C50.216064,120.087830 50.362625,119.003372 50.720619,117.745430 
	C51.279808,116.698395 51.627567,115.824837 52.163528,114.692268 
	C53.253502,112.982498 54.155266,111.531746 55.340332,109.885658 
	C56.218678,108.461479 56.813713,107.232635 57.652462,105.841316 
	C58.600456,104.843567 59.304741,104.008293 60.275723,102.959084 
	C62.541615,100.622871 64.742683,99.294563 68.045265,100.953682 
	C68.627159,100.994293 68.860130,101.007401 69.093094,101.020515 
z"/>
<path fill="#9F623A" opacity="1.000000" stroke="none" 
	d="
M6.001668,134.999603 
	C10.246434,135.695908 14.491199,136.392197 19.270878,137.548553 
	C20.690973,143.644394 21.631083,144.396194 26.462852,142.992355 
	C28.907068,142.565231 30.961618,142.166367 33.381172,141.807373 
	C34.473816,141.836166 35.201450,141.825089 35.941223,142.132889 
	C35.960945,142.877213 35.968529,143.302643 35.794479,143.891937 
	C35.368122,144.278625 35.184021,144.543549 35.060547,144.850586 
	C34.305386,145.494202 33.550220,146.137802 32.162811,146.860245 
	C28.995947,145.853043 26.623331,145.251694 24.076677,147.292587 
	C23.107195,148.069534 21.310120,147.813812 19.890221,148.028748 
	C16.550474,144.037659 12.793515,140.621140 7.304968,138.780548 
	C6.972598,138.429504 6.969578,138.035233 6.941829,137.714386 
	C6.609942,136.595566 6.305805,135.797592 6.001668,134.999603 
z"/>
<path fill="#ECCF9D" opacity="1.000000" stroke="none" 
	d="
M67.696342,100.926186 
	C64.742683,99.294563 62.541615,100.622871 59.872536,102.909554 
	C53.487816,104.187408 48.229561,104.033012 45.368973,97.938812 
	C46.103386,97.342117 46.559921,96.798782 47.370239,96.341202 
	C54.216915,99.094131 62.520069,97.549194 66.418694,93.000435 
	C67.483963,92.667206 68.232201,92.341042 69.371124,92.014084 
	C70.543808,92.025963 71.325813,92.038612 72.073227,92.429649 
	C72.006439,93.820557 71.974236,94.833084 71.942032,95.845612 
	C71.942032,95.845612 71.523560,95.999405 70.957970,96.077103 
	C69.493698,97.745262 68.595016,99.335724 67.696342,100.926186 
z"/>
<path fill="#B57954" opacity="1.000000" stroke="none" 
	d="
M84.847160,54.047668 
	C87.776482,60.384342 89.802010,66.807739 86.047935,73.866920 
	C84.622612,74.002075 83.884216,73.990135 82.968872,73.663437 
	C82.258675,68.892067 81.725433,64.435471 81.543640,59.973473 
	C82.711746,59.195869 83.812248,58.560665 84.268806,57.614677 
	C84.770653,56.574837 84.679787,55.248936 84.847160,54.047668 
z"/>
<path fill="#C68E69" opacity="1.000000" stroke="none" 
	d="
M66.132324,42.952789 
	C66.468399,42.991959 66.726997,43.154430 67.017754,43.834961 
	C67.416138,44.197296 67.704895,44.164883 67.993652,44.132469 
	C71.557533,45.508213 75.121407,46.883953 78.918350,48.874294 
	C79.111023,50.973450 79.070633,52.458004 78.776459,53.983788 
	C78.351692,54.035851 78.180733,54.046696 77.727509,53.956566 
	C77.050758,53.804928 76.656273,53.754269 76.088715,53.371391 
	C73.949486,52.674885 71.983330,52.310604 69.832474,51.664726 
	C67.811005,50.614288 65.974243,49.845448 63.939667,48.969212 
	C63.484440,48.708344 63.269489,48.509087 63.371449,48.060677 
	C64.114990,46.859520 64.584084,45.861740 65.041344,44.559883 
	C65.009979,43.849514 64.990440,43.443222 65.261368,43.017334 
	C65.745331,42.982758 65.938828,42.967773 66.132324,42.952789 
z"/>
<path fill="#BB8459" opacity="1.000000" stroke="none" 
	d="
M23.713642,34.870632 
	C22.460571,32.849163 21.207499,30.827696 20.147488,28.252380 
	C20.571566,27.092178 20.802584,26.485826 21.033600,25.879473 
	C21.033600,25.879473 21.480076,25.974876 22.073338,25.995413 
	C23.151865,25.985285 23.637131,25.954622 24.122396,25.923960 
	C24.122396,25.923960 24.051033,25.898256 24.012890,26.212494 
	C24.319427,27.340353 24.664106,28.153976 25.008785,28.967602 
	C29.462587,29.214874 32.253510,32.011845 34.723221,35.878731 
	C32.476086,36.990639 30.228075,37.526478 27.727390,37.833366 
	C26.221024,36.693157 24.967333,35.781895 23.713642,34.870632 
z"/>
<path fill="#CE9972" opacity="1.000000" stroke="none" 
	d="
M27.980066,38.062317 
	C30.228075,37.526478 32.476086,36.990639 34.876247,36.184120 
	C37.472958,37.226620 39.917519,38.539799 42.910366,40.225494 
	C44.035419,41.138214 44.612183,41.678425 44.889160,42.418598 
	C43.412781,43.790756 42.236191,44.962952 40.727173,46.082802 
	C39.950108,45.970352 39.505463,45.910244 38.956184,45.519714 
	C37.574112,44.781593 36.296669,44.373898 34.717453,43.798012 
	C32.291111,42.775818 30.166542,41.921814 28.029865,41.013191 
	C28.017754,40.958565 27.971909,40.856491 27.878937,40.625771 
	C27.850664,39.617474 27.915365,38.839897 27.980066,38.062317 
z"/>
<path fill="#B57953" opacity="1.000000" stroke="none" 
	d="
M53.909958,128.996796 
	C50.858547,131.993073 47.807140,134.989349 44.306404,137.687592 
	C42.572144,136.927795 41.287216,136.466034 40.095787,135.679779 
	C41.943039,133.300613 43.696781,131.245926 45.677109,128.977051 
	C46.818485,127.677238 47.733280,126.591621 48.871613,125.790497 
	C50.700089,127.048927 52.305027,128.022858 53.909958,128.996796 
z"/>
<path fill="#C1845C" opacity="1.000000" stroke="none" 
	d="
M83.145828,73.978203 
	C83.884216,73.990135 84.622612,74.002075 85.730042,74.023727 
	C86.689011,75.707733 87.278938,77.382027 87.865311,79.054001 
	C86.911797,80.412300 85.961830,81.772911 85.113617,83.721008 
	C85.373856,84.580322 85.582169,84.806229 85.840309,84.986198 
	C84.635757,86.108826 83.431206,87.231445 81.829056,88.461731 
	C80.887451,88.020180 80.343452,87.470970 79.857529,86.612839 
	C79.908272,85.885292 79.900948,85.466660 80.222748,84.961472 
	C80.721153,83.593491 80.890434,82.312057 81.036201,80.635017 
	C81.723732,78.152336 82.434784,76.065269 83.145828,73.978203 
z"/>
<path fill="#BA805A" opacity="1.000000" stroke="none" 
	d="
M79.799446,86.921761 
	C80.343452,87.470970 80.887451,88.020180 81.647812,88.766922 
	C81.864166,88.964447 82.006813,89.396011 82.009918,89.951141 
	C82.003120,90.726128 81.993202,90.945976 81.983284,91.165825 
	C79.761208,94.398079 77.171486,96.923248 72.354446,95.901688 
	C71.974236,94.833084 72.006439,93.820557 72.404106,92.364456 
	C75.112854,90.254509 77.456154,88.588135 79.799446,86.921761 
z"/>
<path fill="#C58D6A" opacity="1.000000" stroke="none" 
	d="
M50.095478,40.969627 
	C51.777718,40.987427 53.459961,41.005219 55.584145,41.401695 
	C56.354679,42.544361 56.683266,43.308342 57.132339,44.321045 
	C57.493801,45.259209 57.734776,45.948647 57.537483,46.725170 
	C55.018837,46.855049 52.938461,46.897846 50.499931,46.945198 
	C49.421669,46.960148 48.701561,46.970543 47.946205,46.657116 
	C47.874981,45.900517 47.839001,45.467739 47.736752,44.823673 
	C47.514950,44.347252 47.294937,44.156414 46.970936,43.706440 
	C46.875904,42.929012 46.820385,42.485031 47.092415,41.911888 
	C48.311802,41.511696 49.203640,41.240662 50.095478,40.969627 
z"/>
<path fill="#AB714E" opacity="1.000000" stroke="none" 
	d="
M79.030251,53.942562 
	C79.070633,52.458004 79.111023,50.973450 79.111320,49.181286 
	C80.966255,50.368042 82.861275,51.862404 84.801727,53.702217 
	C84.679787,55.248936 84.770653,56.574837 84.268806,57.614677 
	C83.812248,58.560665 82.711746,59.195869 81.430878,59.604492 
	C80.321190,57.474796 79.675720,55.708679 79.030251,53.942562 
z"/>
<path fill="#B7815C" opacity="1.000000" stroke="none" 
	d="
M7.041833,20.004459 
	C6.734670,19.877403 6.476064,19.685064 6.128317,18.843773 
	C5.668390,16.565975 5.346162,14.871846 5.023934,13.177717 
	C8.143148,14.785680 11.262362,16.393642 14.040216,18.461205 
	C13.140384,18.941170 12.581910,18.961538 11.768703,18.983093 
	C11.344222,18.989384 11.174474,18.994486 10.663025,19.032314 
	C9.228159,19.378183 8.134995,19.691320 7.041833,20.004459 
z"/>
<path fill="#AA6F4A" opacity="1.000000" stroke="none" 
	d="
M53.961533,128.763809 
	C52.305027,128.022858 50.700089,127.048927 48.891777,125.471954 
	C49.110142,123.907639 49.531887,122.946342 49.953636,121.985054 
	C52.064945,122.225899 54.176262,122.466743 56.592148,122.843536 
	C56.996075,123.337273 56.896969,123.627251 56.124046,124.121597 
	C55.452023,124.963005 55.255367,125.532234 55.058716,126.101463 
	C55.058712,126.101463 55.038216,126.025948 54.788704,126.071472 
	C54.399727,126.766617 54.260265,127.416245 54.120804,128.065872 
	C54.120800,128.065872 54.013100,128.530823 53.961533,128.763809 
z"/>
<path fill="#B17B54" opacity="1.000000" stroke="none" 
	d="
M20.062187,148.380066 
	C21.310120,147.813812 23.107195,148.069534 24.076677,147.292587 
	C26.623331,145.251694 28.995947,145.853043 31.893564,146.995422 
	C28.469910,149.192184 24.737339,151.719711 20.062187,148.380066 
z"/>
<path fill="#CD976E" opacity="1.000000" stroke="none" 
	d="
M57.975754,46.638084 
	C57.734776,45.948647 57.493801,45.259209 57.397919,44.154808 
	C58.036892,42.877460 58.530773,42.015072 59.024658,41.152683 
	C61.274704,41.524143 63.524754,41.895607 65.953568,42.609932 
	C65.938828,42.967773 65.745331,42.982758 65.040970,43.184681 
	C64.333031,43.879292 64.135941,44.386971 63.584541,44.926548 
	C62.426804,45.684753 61.623386,46.411053 60.590065,47.021484 
	C59.565365,46.816441 58.770557,46.727264 57.975754,46.638084 
z"/>
<path fill="#A5653D" opacity="1.000000" stroke="none" 
	d="
M40.002285,136.004288 
	C41.287216,136.466034 42.572144,136.927795 43.957756,137.740143 
	C44.058445,138.090744 44.016998,138.042953 43.678108,138.051178 
	C41.232540,139.747147 39.125862,141.434875 37.019188,143.122604 
	C37.019188,143.122604 37.006329,143.553116 36.720245,143.706482 
	C36.434162,143.859833 35.976112,143.728073 35.976112,143.728073 
	C35.968529,143.302643 35.960945,142.877213 35.955048,141.791977 
	C37.305252,139.422882 38.653770,137.713577 40.002285,136.004288 
z"/>
<path fill="#C99168" opacity="1.000000" stroke="none" 
	d="
M11.004726,18.999586 
	C11.174474,18.994486 11.344222,18.989384 12.058704,19.202639 
	C13.258578,19.229725 13.913716,19.038454 14.568854,18.847183 
	C14.626379,18.674623 14.683905,18.502062 14.765114,18.857763 
	C14.928765,19.943710 15.068732,20.501392 15.208699,21.059076 
	C15.772395,20.660934 16.336092,20.262793 16.899788,19.864651 
	C17.077913,20.023190 17.256041,20.181730 17.201160,21.173651 
	C16.979044,23.007936 16.989937,24.008844 16.978249,25.277683 
	C16.943808,25.724474 16.931944,25.903334 16.654694,26.037432 
	C15.760958,25.660589 15.132609,25.328508 14.237841,24.782537 
	C12.987256,23.703775 12.003091,22.838902 11.026375,21.602451 
	C11.024124,20.487112 11.014425,19.743349 11.004726,18.999586 
z"/>
<path fill="#BC855F" opacity="1.000000" stroke="none" 
	d="
M37.354080,142.957321 
	C39.125862,141.434875 41.232540,139.747147 43.708714,138.043747 
	C43.898422,142.231262 40.068882,141.539566 37.354080,142.957321 
z"/>
<path fill="#9E6536" opacity="1.000000" stroke="none" 
	d="
M4.781532,13.115416 
	C5.346162,14.871846 5.668390,16.565975 6.003343,18.634577 
	C5.216778,18.747641 4.417490,18.486231 3.339934,18.067890 
	C3.191298,16.311914 3.320931,14.712871 3.746196,13.054961 
	C4.207594,13.015102 4.373362,13.034109 4.781532,13.115416 
z"/>
<path fill="#AC7248" opacity="1.000000" stroke="none" 
	d="
M16.920082,26.082193 
	C16.931944,25.903334 16.943808,25.724474 17.211905,25.182772 
	C17.718315,24.598640 17.968493,24.377352 18.543167,24.125011 
	C19.517933,24.056383 20.168196,24.018808 20.818460,23.981236 
	C20.882080,24.401182 20.945702,24.821131 21.021461,25.560276 
	C20.802584,26.485826 20.571566,27.092178 20.092800,27.917629 
	C19.430763,28.112209 19.016478,28.087687 18.199078,27.757069 
	C17.504004,26.994713 17.212042,26.538454 16.920082,26.082193 
z"/>
<path fill="#A56941" opacity="1.000000" stroke="none" 
	d="
M68.045265,100.953682 
	C68.595016,99.335724 69.493698,97.745262 70.745651,96.145035 
	C70.645531,97.667053 70.192146,99.198845 69.415924,100.875580 
	C68.860130,101.007401 68.627159,100.994293 68.045265,100.953682 
z"/>
<path fill="#D3A281" opacity="1.000000" stroke="none" 
	d="
M49.884430,40.615150 
	C49.203640,41.240662 48.311802,41.511696 46.830997,41.936165 
	C45.891003,42.132610 45.539974,42.175621 45.188946,42.218636 
	C44.612183,41.678425 44.035419,41.138214 43.248589,40.384804 
	C45.250141,40.201294 47.461758,40.230984 49.884430,40.615150 
z"/>
<path fill="#B0754D" opacity="1.000000" stroke="none" 
	d="
M58.646637,41.087051 
	C58.530773,42.015072 58.036892,42.877460 57.277431,43.906082 
	C56.683266,43.308342 56.354679,42.544361 56.001358,41.457966 
	C56.740623,41.097507 57.504620,41.059464 58.646637,41.087051 
z"/>
<path fill="#C3906D" opacity="1.000000" stroke="none" 
	d="
M20.808271,23.681675 
	C20.168196,24.018808 19.517933,24.056383 18.489330,23.627340 
	C18.120560,22.492052 18.130125,21.823381 18.139690,21.154711 
	C19.025822,21.897177 19.911953,22.639645 20.808271,23.681675 
z"/>
<path fill="#AF6E4D" opacity="1.000000" stroke="none" 
	d="
M16.881325,19.813438 
	C16.336092,20.262793 15.772395,20.660934 15.208699,21.059076 
	C15.068732,20.501392 14.928765,19.943710 15.036409,18.886805 
	C15.284020,18.387583 15.458418,18.421988 15.697512,18.743561 
	C16.129910,19.202866 16.323212,19.340599 16.516514,19.478331 
	C16.718885,19.474070 16.834333,19.568701 16.881325,19.813438 
z"/>
<path fill="#B57953" opacity="1.000000" stroke="none" 
	d="
M54.389786,127.927483 
	C54.260265,127.416245 54.399727,126.766617 54.824524,126.087204 
	C54.959496,126.634636 54.809132,127.211868 54.389786,127.927483 
z"/>
<path fill="#E0B18F" opacity="1.000000" stroke="none" 
	d="
M25.060783,28.672764 
	C24.664106,28.153976 24.319427,27.340353 24.035069,26.181728 
	C24.434523,26.683794 24.773651,27.530861 25.060783,28.672764 
z"/>
<path fill="#B57B53" opacity="1.000000" stroke="none" 
	d="
M6.969578,138.035233 
	C6.969578,138.035233 6.972598,138.429504 6.967945,138.626434 
	C6.203922,138.873550 5.444552,138.923752 4.311211,138.891617 
	C3.937238,138.809280 3.892093,138.473846 4.249320,138.268219 
	C5.394223,138.053467 6.181901,138.044357 6.969578,138.035233 
z"/>
<path fill="#E2A67F" opacity="1.000000" stroke="none" 
	d="
M17.897722,20.967400 
	C18.130125,21.823381 18.120560,22.492052 18.164831,23.658394 
	C17.968493,24.377352 17.718315,24.598640 17.234484,24.914841 
	C16.989937,24.008844 16.979044,23.007936 17.018829,21.481384 
	C17.264921,20.897190 17.460337,20.838638 17.897722,20.967400 
z"/>
<path fill="#BC8C64" opacity="1.000000" stroke="none" 
	d="
M35.794479,143.891937 
	C35.976112,143.728073 36.434162,143.859833 36.665764,143.914810 
	C36.494526,144.306656 36.091682,144.643524 35.374695,144.915497 
	C35.184021,144.543549 35.368122,144.278625 35.794479,143.891937 
z"/>
<path fill="#BC8B69" opacity="1.000000" stroke="none" 
	d="
M14.543360,18.821270 
	C13.913716,19.038454 13.258578,19.229725 12.313438,19.201450 
	C12.581910,18.961538 13.140384,18.941170 14.108467,18.821728 
	C14.518077,18.722651 14.517866,18.795355 14.543360,18.821270 
z"/>
<path fill="#B57953" opacity="1.000000" stroke="none" 
	d="
M55.334503,125.953140 
	C55.255367,125.532234 55.452023,124.963005 55.899906,124.215515 
	C55.970856,124.626442 55.790573,125.215630 55.334503,125.953140 
z"/>
<path fill="#E0B18F" opacity="1.000000" stroke="none" 
	d="
M24.006315,25.624977 
	C23.637131,25.954622 23.151865,25.985285 22.301586,25.998968 
	C22.587795,25.763323 23.239014,25.544659 24.006315,25.624977 
z"/>
<path fill="#C1845C" opacity="1.000000" stroke="none" 
	d="
M82.235184,91.061310 
	C81.993202,90.945976 82.003120,90.726128 82.035645,90.176956 
	C82.201195,90.217354 82.344139,90.587074 82.235184,91.061310 
z"/>
<path fill="#BA805A" opacity="1.000000" stroke="none" 
	d="
M85.855995,84.725540 
	C85.582169,84.806229 85.373856,84.580322 85.127655,84.093796 
	C85.317184,84.074371 85.594437,84.269623 85.855995,84.725540 
z"/>
<path fill="#BC8B69" opacity="1.000000" stroke="none" 
	d="
M15.721722,18.781265 
	C15.957806,18.698505 16.408773,18.899614 16.688128,19.289528 
	C16.323212,19.340599 16.129910,19.202866 15.721722,18.781265 
z"/>
<path fill="#A76E41" opacity="1.000000" stroke="none" 
	d="
M67.761261,44.059586 
	C67.704895,44.164883 67.416138,44.197296 67.089561,44.059219 
	C67.051743,43.888725 67.528877,43.986706 67.761261,44.059586 
z"/>
<path fill="#EFD8AC" opacity="1.000000" stroke="none" 
	d="
M15.998979,78.005112 
	C15.752466,75.274658 15.505955,72.544212 15.169125,68.813370 
	C17.951389,70.934875 19.596752,72.189484 21.516571,73.653366 
	C22.449656,70.912415 23.049721,69.149712 23.732227,66.718468 
	C24.182770,63.659660 24.550869,61.269390 25.151501,59.065228 
	C25.893841,59.838326 26.403646,60.425323 26.924984,61.355103 
	C27.302650,62.722446 27.668785,63.747005 27.960533,65.112457 
	C26.959208,66.562943 26.032274,67.672539 24.706833,69.259186 
	C28.049282,68.752296 30.523891,68.377014 33.130550,68.291946 
	C33.506084,69.388382 33.749573,70.194618 33.764130,71.234787 
	C33.357006,72.312584 33.178810,73.156448 32.849785,74.336075 
	C32.465786,76.114479 32.232613,77.557114 31.640331,78.988693 
	C29.558350,79.025711 26.873348,77.038322 26.996719,81.399529 
	C26.328234,84.532501 25.663816,87.266861 24.745913,89.883087 
	C23.994989,89.509766 23.497553,89.254578 22.643801,89.010170 
	C20.989445,89.125870 19.691406,89.230782 17.607578,89.399216 
	C18.620367,87.110306 19.308908,85.554207 20.002731,83.750626 
	C20.008015,83.503159 20.014820,83.008163 20.342804,82.914406 
	C21.468168,80.480408 22.265551,78.140167 23.062933,75.799927 
	C22.640018,75.615028 22.217102,75.430130 21.794188,75.245232 
	C20.527988,76.165916 19.261787,77.086601 17.662825,78.006767 
	C16.886368,78.005867 16.442673,78.005486 15.998979,78.005112 
M24.848541,75.520775 
	C24.907476,75.831306 24.966413,76.141830 25.025351,76.452362 
	C25.095980,76.144249 25.166609,75.836143 24.848541,75.520775 
z"/>
<path fill="#D2B24D" opacity="1.000000" stroke="none" 
	d="
M27.727390,37.833366 
	C27.915365,38.839897 27.850664,39.617474 27.525169,40.728546 
	C24.758635,42.723709 22.439301,44.869541 19.699873,45.924240 
	C16.291344,47.236546 15.979107,49.177391 17.073465,52.065670 
	C16.460455,53.353119 15.847443,54.640564 15.091802,56.227558 
	C11.019284,51.673798 13.609031,43.596817 23.396223,34.948441 
	C24.967333,35.781895 26.221024,36.693157 27.727390,37.833366 
z"/>
<path fill="#D1B454" opacity="1.000000" stroke="none" 
	d="
M16.654694,26.037432 
	C17.212042,26.538454 17.504004,26.994713 17.892155,27.704208 
	C15.350584,32.022209 12.712823,36.086975 9.647663,40.516346 
	C8.477180,41.242638 7.734095,41.604321 6.991010,41.966000 
	C6.991010,41.966000 6.502445,41.992493 6.257919,41.992645 
	C6.047932,40.978699 6.082469,39.964596 6.375070,38.384125 
	C7.095912,37.220352 7.558691,36.622952 8.308830,35.852737 
	C9.736982,33.788792 10.877775,31.897654 12.258373,29.746927 
	C13.166873,27.990368 13.835567,26.493397 14.504261,24.996428 
	C15.132609,25.328508 15.760958,25.660589 16.654694,26.037432 
z"/>
<path fill="#D6B85C" opacity="1.000000" stroke="none" 
	d="
M24.918966,58.879124 
	C24.550869,61.269390 24.182770,63.659660 23.836699,66.394249 
	C20.119879,67.589516 18.538010,66.089111 19.076267,62.322880 
	C19.540171,59.076912 20.033579,55.835159 20.993649,52.535614 
	C22.605621,53.293442 23.737885,54.107197 24.899910,55.319336 
	C24.926105,56.771523 24.922535,57.825325 24.918966,58.879124 
z"/>
<path fill="#ECD4A4" opacity="1.000000" stroke="none" 
	d="
M19.997448,83.998100 
	C19.308908,85.554207 18.620367,87.110306 17.607578,89.399216 
	C19.691406,89.230782 20.989445,89.125870 22.500088,89.328140 
	C22.473110,90.759605 22.233526,91.883881 21.595049,93.005920 
	C20.132401,93.002167 19.068644,93.000641 17.926334,92.664810 
	C16.234217,90.224472 14.620652,88.118446 13.007090,86.012428 
	C13.004936,85.258171 13.002784,84.503922 12.999748,83.372391 
	C13.460999,82.372917 13.923132,81.750717 14.775379,81.393150 
	C16.776144,82.437889 18.386797,83.217995 19.997448,83.998100 
z"/>
<path fill="#E6C876" opacity="1.000000" stroke="none" 
	d="
M17.382526,51.977516 
	C15.979107,49.177391 16.291344,47.236546 19.699873,45.924240 
	C22.439301,44.869541 24.758635,42.723709 27.618141,40.959267 
	C27.971909,40.856491 28.017754,40.958565 27.993313,41.362247 
	C27.606800,42.872810 27.244724,43.979691 26.588026,45.207920 
	C24.900316,46.254070 23.507229,47.178867 21.867409,48.254463 
	C21.459091,48.940052 21.297504,49.474850 21.094799,50.030193 
	C21.053679,50.050743 20.979977,49.995789 20.979977,49.995789 
	C19.883848,50.626984 18.787718,51.258175 17.382526,51.977516 
z"/>
<path fill="#CBAA37" opacity="1.000000" stroke="none" 
	d="
M22.114141,48.103668 
	C23.507229,47.178867 24.900316,46.254070 26.641266,45.525246 
	C27.002720,46.149830 27.016310,46.578445 26.744009,47.248444 
	C25.928795,49.966869 25.399471,52.443909 24.870148,54.920952 
	C23.737885,54.107197 22.605621,53.293442 21.243980,52.242203 
	C21.012875,51.558147 21.011145,51.111580 20.994698,50.330399 
	C20.979977,49.995789 21.053679,50.050743 21.284660,49.834099 
	C21.715141,49.112862 21.914640,48.608265 22.114141,48.103668 
z"/>
<path fill="#E7CD9A" opacity="1.000000" stroke="none" 
	d="
M8.846169,57.535454 
	C7.472623,57.493320 6.346331,57.184486 5.220037,56.875652 
	C6.083504,55.175888 6.946971,53.476128 7.810439,51.776363 
	C8.459695,52.025940 9.108951,52.275517 9.758206,52.525093 
	C9.536612,54.106312 9.315018,55.687531 8.846169,57.535454 
z"/>
<path fill="#EAD19D" opacity="1.000000" stroke="none" 
	d="
M20.002731,83.750626 
	C18.386797,83.217995 16.776144,82.437889 15.080233,81.327667 
	C15.176660,80.155342 15.358347,79.313118 15.769506,78.238007 
	C16.442673,78.005486 16.886368,78.005867 17.673134,78.354836 
	C18.682411,80.138336 19.348616,81.573250 20.014820,83.008163 
	C20.014820,83.008163 20.008015,83.503159 20.002731,83.750626 
z"/>
<path fill="#E7CF8F" opacity="1.000000" stroke="none" 
	d="
M7.213521,42.191383 
	C7.734095,41.604321 8.477180,41.242638 9.536860,40.831993 
	C9.047647,41.327606 8.241839,41.872185 7.213521,42.191383 
z"/>
<path fill="#D1AE4D" opacity="1.000000" stroke="none" 
	d="
M33.016167,141.767502 
	C30.961618,142.166367 28.907068,142.565231 26.379484,142.617096 
	C24.860767,135.844406 23.815084,129.418701 22.769402,122.993011 
	C23.344118,119.392120 23.918839,115.791237 25.080978,112.013092 
	C26.104973,111.907433 26.541548,111.979034 27.053858,112.440979 
	C27.234564,115.267578 27.245008,117.712303 27.462097,120.138527 
	C28.133739,127.644989 26.229393,135.828323 33.016167,141.767502 
z"/>
<path fill="#EDD7AB" opacity="1.000000" stroke="none" 
	d="
M26.978121,112.050629 
	C26.541548,111.979034 26.104973,111.907433 25.356516,111.717270 
	C24.938465,110.360329 24.832298,109.121956 24.693165,107.499046 
	C23.131754,108.466400 21.917521,109.218666 20.352604,109.611679 
	C20.001553,108.498238 20.001181,107.744026 20.153214,106.669373 
	C21.536085,103.899063 22.766556,101.449203 24.189610,98.782158 
	C24.921415,98.377335 25.460634,98.189690 26.307211,97.937180 
	C27.084648,97.244911 27.554728,96.617500 28.396145,95.992165 
	C29.510010,95.995140 30.252537,95.996040 30.981133,96.381638 
	C29.855497,99.166801 28.743792,101.567253 27.355267,104.565430 
	C28.915369,104.712402 30.457935,104.857727 31.960648,105.292557 
	C31.609354,106.056831 31.297911,106.531593 30.647736,107.101807 
	C29.866186,108.458969 29.423370,109.720688 28.688637,111.028168 
	C27.923851,111.399498 27.450985,111.725067 26.978121,112.050629 
z"/>
<path fill="#D2B454" opacity="1.000000" stroke="none" 
	d="
M6.653307,122.171921 
	C4.925946,122.059448 3.527553,121.817101 2.129158,121.574753 
	C3.147909,120.544479 4.081549,119.403374 5.220051,118.529037 
	C5.821144,118.067436 6.768330,117.982124 7.578430,117.881874 
	C9.524652,117.641029 11.482196,117.491669 13.435171,117.305405 
	C13.119258,119.806755 13.061440,122.380127 12.390942,124.782501 
	C11.986676,126.230980 10.629786,127.413567 9.700964,128.715637 
	C9.277271,128.604538 8.853580,128.493439 8.429887,128.382339 
	C8.530936,126.996223 8.856066,125.575386 8.648714,124.237038 
	C8.524996,123.438484 7.565860,122.769356 6.653307,122.171921 
z"/>
<path fill="#E9CB96" opacity="1.000000" stroke="none" 
	d="
M22.460573,123.105011 
	C23.815084,129.418701 24.860767,135.844406 25.989819,142.645355 
	C21.631083,144.396194 20.690973,143.644394 19.642235,137.662231 
	C20.179636,135.717789 21.896959,133.199219 21.417704,132.670059 
	C18.142572,129.053909 20.453497,126.226135 22.460573,123.105011 
z"/>
<path fill="#EEDBB0" opacity="1.000000" stroke="none" 
	d="
M20.000811,106.989822 
	C20.001181,107.744026 20.001553,108.498238 20.003210,109.629753 
	C17.459417,113.944916 13.634414,113.830109 9.370067,113.245529 
	C9.229193,112.054459 9.081089,110.802277 8.891591,109.142723 
	C9.256956,108.032349 9.663716,107.329338 10.490081,106.335106 
	C12.272207,106.364143 13.634729,106.684402 15.235632,107.213303 
	C16.982944,107.277908 18.491877,107.133865 20.000811,106.989822 
z"/>
<path fill="#A76B44" opacity="1.000000" stroke="none" 
	d="
M6.941829,137.714386 
	C6.181901,138.044357 5.394223,138.053467 4.211226,138.103333 
	C3.815905,138.144073 3.422130,138.050552 3.229706,137.988251 
	C3.571501,137.119232 4.105721,136.312485 4.818460,135.259033 
	C5.164061,134.981827 5.331143,134.951340 5.749947,134.960236 
	C6.305805,135.797592 6.609942,136.595566 6.941829,137.714386 
z"/>
<path fill="#F1DDB4" opacity="1.000000" stroke="none" 
	d="
M12.775441,86.289833 
	C14.620652,88.118446 16.234217,90.224472 17.666811,92.774483 
	C16.988609,93.481796 16.491379,93.745117 15.660396,94.085251 
	C13.889113,94.770813 12.451581,95.379578 11.014050,95.988342 
	C10.632482,95.960884 10.250912,95.933426 9.588099,95.875473 
	C9.221201,95.134987 9.135548,94.425003 9.029224,93.356750 
	C10.186967,90.854729 11.365380,88.710983 12.775441,86.289833 
z"/>
<path fill="#F0D9AC" opacity="1.000000" stroke="none" 
	d="
M14.237841,24.782537 
	C13.835567,26.493397 13.166873,27.990368 11.902802,29.761841 
	C10.212107,32.032745 9.116789,34.029148 8.021470,36.025551 
	C7.558691,36.622952 7.095912,37.220352 6.418114,38.004993 
	C5.446825,37.287907 4.690555,36.383583 3.841994,35.097336 
	C4.825453,30.400114 5.901204,26.084816 7.376606,21.443935 
	C8.857147,21.403580 9.938036,21.688805 11.018926,21.974030 
	C12.003091,22.838902 12.987256,23.703775 14.237841,24.782537 
z"/>
<path fill="#D4AA81" opacity="1.000000" stroke="none" 
	d="
M11.026375,21.602453 
	C9.938036,21.688805 8.857147,21.403580 7.442168,21.100092 
	C7.087210,20.902882 7.066339,20.723932 7.043651,20.274719 
	C8.134995,19.691320 9.228159,19.378183 10.663025,19.032314 
	C11.014425,19.743349 11.024124,20.487112 11.026375,21.602453 
z"/>
<path fill="#ECD4A4" opacity="1.000000" stroke="none" 
	d="
M14.997253,107.004662 
	C13.634729,106.684402 12.272207,106.364143 10.566362,106.033997 
	C9.966711,105.760612 9.710382,105.497116 9.249887,105.048744 
	C9.037453,104.449860 9.029183,104.035851 9.345466,103.227402 
	C10.113829,101.887756 10.557640,100.942543 11.001451,99.997322 
	C11.302684,99.524704 11.603917,99.052094 12.258972,98.330933 
	C13.742792,98.052971 14.872788,98.023552 16.259872,97.886215 
	C17.008133,97.514999 17.499304,97.251686 18.228642,97.225113 
	C19.357878,98.461952 20.248945,99.462059 21.140011,100.462166 
	C16.203388,99.320427 14.827890,100.906967 15.618649,105.176445 
	C15.720905,105.728546 15.219195,106.392509 14.997253,107.004662 
z"/>
<path fill="#EBD3A4" opacity="1.000000" stroke="none" 
	d="
M16.002785,97.994125 
	C14.872788,98.023552 13.742792,98.052971 12.297546,98.045074 
	C11.682100,97.527672 11.381902,97.047585 11.047876,96.277924 
	C12.451581,95.379578 13.889113,94.770813 15.662171,94.483643 
	C15.999393,95.868195 16.001089,96.931168 16.002785,97.994125 
z"/>
<path fill="#EBD3A4" opacity="1.000000" stroke="none" 
	d="
M10.677674,100.007477 
	C10.557640,100.942543 10.113829,101.887756 9.344919,102.915894 
	C9.464514,102.005081 9.909205,101.011353 10.677674,100.007477 
z"/>
<path fill="#EBD29D" opacity="1.000000" stroke="none" 
	d="
M50.011570,121.578674 
	C49.531887,122.946342 49.110142,123.907639 48.668236,125.187469 
	C47.733280,126.591621 46.818485,127.677238 45.256966,128.925598 
	C43.777512,129.054001 42.944782,129.019653 42.001823,128.665100 
	C41.500134,127.290436 41.108669,126.235954 40.939323,125.006584 
	C40.429592,124.564255 39.697735,124.296822 38.728649,123.906685 
	C38.038380,123.504837 37.585339,123.225693 37.082329,122.585464 
	C36.985649,121.498070 36.938946,120.771759 37.131775,119.827744 
	C36.858303,118.765717 36.345303,117.921410 35.555901,116.878929 
	C34.486153,114.802277 33.692799,112.923790 33.191704,110.889450 
	C34.646580,110.148285 35.809185,109.562988 37.029533,109.303162 
	C38.066425,110.749039 39.045574,111.869446 39.875977,113.311501 
	C40.297131,116.268524 40.867031,118.903908 41.436935,121.539291 
	C41.840416,121.514069 42.243896,121.488846 42.647373,121.463623 
	C43.104252,120.282722 43.561127,119.101830 44.470444,117.942535 
	C46.784985,117.949051 48.647087,117.933983 50.509186,117.918915 
	C50.362625,119.003372 50.216064,120.087830 50.011570,121.578674 
z"/>
<path fill="#D3B458" opacity="1.000000" stroke="none" 
	d="
M45.091099,97.992180 
	C48.229561,104.033012 53.487816,104.187408 59.605835,103.123489 
	C59.304741,104.008293 58.600456,104.843567 57.302876,105.849144 
	C56.138222,106.353951 55.566868,106.688454 54.558861,107.026077 
	C52.086216,106.976364 50.050220,106.923546 47.870026,106.632767 
	C47.139614,105.952927 46.553398,105.511063 45.690971,104.919373 
	C44.639359,104.470901 43.863953,104.172264 42.943676,103.579300 
	C41.474426,101.527168 40.150051,99.769363 38.848343,97.616531 
	C38.928608,96.171021 38.986206,95.120544 39.373882,94.111389 
	C41.499676,95.432541 43.295387,96.712364 45.091099,97.992180 
z"/>
<path fill="#ECD2A3" opacity="1.000000" stroke="none" 
	d="
M48.014225,106.870735 
	C50.050220,106.923546 52.086216,106.976364 54.560181,107.407791 
	C55.017773,108.551270 55.037403,109.316132 55.057030,110.080994 
	C54.155266,111.531746 53.253502,112.982498 51.802345,114.684433 
	C49.169022,113.955093 47.085087,112.974571 45.003075,111.620071 
	C45.002834,110.497849 45.000675,109.749603 44.999260,109.000679 
	C45.000000,109.000000 45.001591,108.998474 45.351540,108.982010 
	C46.472404,108.267281 47.243317,107.569008 48.014225,106.870735 
z"/>
<path fill="#D9B760" opacity="1.000000" stroke="none" 
	d="
M45.001152,111.994049 
	C47.085087,112.974571 49.169022,113.955093 51.614140,114.943451 
	C51.627567,115.824837 51.279808,116.698395 50.720619,117.745430 
	C48.647087,117.933983 46.784985,117.949051 44.320881,117.644287 
	C43.049347,115.891853 42.379822,114.459259 41.976044,112.789101 
	C43.161575,112.365715 44.081364,112.179886 45.001152,111.994049 
z"/>
<path fill="#E8CB90" opacity="1.000000" stroke="none" 
	d="
M55.340336,109.885658 
	C55.037403,109.316132 55.017773,108.551270 54.996830,107.404686 
	C55.566868,106.688454 56.138222,106.353951 57.059166,106.011620 
	C56.813713,107.232635 56.218678,108.461479 55.340336,109.885658 
z"/>
<path fill="#E9CB96" opacity="1.000000" stroke="none" 
	d="
M42.112053,128.985291 
	C42.944782,129.019653 43.777512,129.054001 45.030380,129.139801 
	C43.696781,131.245926 41.943039,133.300613 40.095787,135.679779 
	C38.653770,137.713577 37.305252,139.422882 35.942913,141.473083 
	C35.201450,141.825089 34.473816,141.836166 33.381172,141.807373 
	C26.229393,135.828323 28.133739,127.644989 27.462097,120.138527 
	C27.245008,117.712303 27.234564,115.267578 27.053856,112.440979 
	C27.450985,111.725067 27.923851,111.399498 28.952358,111.035309 
	C29.683681,111.000420 29.859365,111.004158 30.014050,111.421326 
	C31.121672,115.630508 29.516579,120.405113 34.035995,123.358475 
	C35.377052,125.776718 36.446938,128.058960 38.105457,129.770935 
	C38.621174,130.303268 40.731659,129.290634 42.112053,128.985291 
z"/>
<path fill="#CCAD48" opacity="1.000000" stroke="none" 
	d="
M66.101654,93.007492 
	C62.520069,97.549194 54.216915,99.094131 47.024582,96.257362 
	C45.282707,94.433022 44.240273,92.778267 43.528481,91.101532 
	C44.525330,91.072655 45.191540,91.065765 46.001736,91.255783 
	C46.376804,91.698090 46.658516,91.848831 47.331875,92.071335 
	C50.432518,92.751320 53.192142,93.264885 56.255127,93.828064 
	C57.100124,93.637032 57.641769,93.396408 58.529297,93.137711 
	C59.961395,92.827591 61.047607,92.535545 62.491802,92.224205 
	C63.564621,92.125427 64.279457,92.045944 65.200508,92.115341 
	C65.638367,92.511978 65.870010,92.759735 66.101654,93.007492 
z"/>
<path fill="#EFD7AB" opacity="1.000000" stroke="none" 
	d="
M79.857529,86.612839 
	C77.456154,88.588135 75.112854,90.254509 72.438690,91.986076 
	C71.325813,92.038612 70.543808,92.025963 69.118858,91.767746 
	C67.321625,91.331024 66.167343,91.139870 65.008881,90.584839 
	C65.006172,89.490410 65.007645,88.759865 65.292404,87.969986 
	C66.073044,87.391708 66.570404,86.872757 67.423958,86.256462 
	C70.178192,85.062653 72.576225,83.966202 75.072662,83.227097 
	C76.489861,84.037064 77.808647,84.489693 79.318939,84.969040 
	C79.510452,84.995758 79.893623,85.048035 79.893623,85.048035 
	C79.900948,85.466660 79.908272,85.885292 79.857529,86.612839 
z"/>
<path fill="#E9CF93" opacity="1.000000" stroke="none" 
	d="
M43.197834,91.123512 
	C44.240273,92.778267 45.282707,94.433022 46.670799,96.171616 
	C46.559921,96.798782 46.103386,97.342117 45.368973,97.938812 
	C43.295387,96.712364 41.499676,95.432541 39.382805,93.725464 
	C40.440372,92.573311 41.819103,91.848412 43.197834,91.123512 
z"/>
<path fill="#E9CF93" opacity="1.000000" stroke="none" 
	d="
M65.013062,90.948723 
	C66.167343,91.139870 67.321625,91.331024 68.728165,91.768524 
	C68.232201,92.341042 67.483963,92.667206 66.418694,93.000435 
	C65.870010,92.759735 65.638367,92.511978 65.202606,91.861023 
	C65.003349,91.288116 65.008202,91.118423 65.013062,90.948723 
z"/>
<path fill="#EBD0A2" opacity="1.000000" stroke="none" 
	d="
M79.127426,84.942314 
	C77.808647,84.489693 76.489861,84.037064 75.175179,82.995049 
	C75.411789,81.956284 75.644295,81.506905 76.119781,80.818718 
	C76.497749,76.341843 73.940773,78.236855 72.272507,78.947334 
	C69.869492,79.970734 68.049019,80.397194 67.907860,76.900070 
	C67.928810,76.897194 67.947144,76.935318 68.159088,76.832092 
	C68.638474,76.551186 68.848694,76.321213 69.304367,75.877930 
	C71.957611,73.037521 74.378883,70.412743 76.553581,67.597504 
	C76.780739,67.303444 75.548836,65.882301 75.000114,64.623070 
	C75.004799,61.840790 75.003265,59.419537 75.000862,56.999138 
	C75.000000,57.000000 74.998260,57.001701 75.339600,57.015343 
	C76.503693,58.400280 77.326447,59.771580 78.149208,61.142876 
	C78.433586,61.155277 78.717972,61.167675 79.002350,61.180073 
	C78.671486,58.805897 78.340622,56.431721 78.009766,54.057545 
	C78.180733,54.046696 78.351692,54.035851 78.776459,53.983788 
	C79.675720,55.708679 80.321190,57.474796 81.079422,59.609898 
	C81.725433,64.435471 82.258675,68.892067 82.968872,73.663437 
	C82.434784,76.065269 81.723732,78.152336 80.914085,80.932724 
	C80.252808,82.731468 79.690117,83.836891 79.127426,84.942314 
z"/>
<path fill="#ECCF9D" opacity="1.000000" stroke="none" 
	d="
M64.137474,49.076603 
	C65.974243,49.845448 67.811005,50.614288 69.827980,52.057472 
	C70.661469,54.154236 71.314758,55.576660 71.873535,57.346622 
	C70.213615,58.137951 68.648201,58.581745 67.150383,58.721375 
	C66.120956,57.288334 65.023933,56.159454 63.868797,54.692909 
	C63.750580,53.903080 63.690479,53.450916 63.716022,52.639053 
	C63.804981,51.544086 63.808296,50.808815 63.895592,49.825134 
	C64.032211,49.410011 64.084846,49.243309 64.137474,49.076603 
z"/>
<path fill="#EBD0A2" opacity="1.000000" stroke="none" 
	d="
M71.968040,56.999084 
	C71.314758,55.576660 70.661469,54.154236 70.012680,52.339066 
	C71.983330,52.310604 73.949486,52.674885 75.826645,53.637699 
	C75.491188,55.158054 75.244728,56.079880 74.998260,57.001701 
	C74.998260,57.001701 75.000000,57.000000 74.622009,56.997841 
	C73.485359,56.996819 72.726700,56.997952 71.968040,56.999084 
z"/>
<path fill="#EFDBAF" opacity="1.000000" stroke="none" 
	d="
M75.339600,57.015343 
	C75.244728,56.079880 75.491188,55.158054 75.999725,53.969917 
	C76.656273,53.754269 77.050758,53.804928 77.727501,53.956566 
	C78.340622,56.431721 78.671486,58.805897 79.002350,61.180073 
	C78.717972,61.167675 78.433586,61.155277 78.149208,61.142876 
	C77.326447,59.771580 76.503693,58.400280 75.339600,57.015343 
z"/>
<path fill="#A76E41" opacity="1.000000" stroke="none" 
	d="
M60.819969,47.137352 
	C61.623386,46.411053 62.426804,45.684753 63.864105,44.943405 
	C64.683060,44.906895 64.868118,44.885426 65.053177,44.863960 
	C64.584084,45.861740 64.114990,46.859520 63.055325,47.973495 
	C62.037968,48.026718 61.611172,47.963753 61.094284,47.709450 
	C61.004185,47.518108 60.819969,47.137356 60.819969,47.137352 
z"/>
<path fill="#CFAC5C" opacity="1.000000" stroke="none" 
	d="
M61.184380,47.900787 
	C61.611172,47.963753 62.037968,48.026718 62.780884,48.176868 
	C63.269489,48.509087 63.484440,48.708344 63.939667,48.969212 
	C64.084846,49.243309 64.032211,49.410011 63.563820,49.809799 
	C62.479366,50.041225 61.810669,50.039570 61.085804,49.682663 
	C61.081219,48.851868 61.132801,48.376328 61.184380,47.900787 
z"/>
<path fill="#C1845D" opacity="1.000000" stroke="none" 
	d="
M65.041344,44.559883 
	C64.868118,44.885426 64.683060,44.906895 64.218430,44.911503 
	C64.135941,44.386971 64.333031,43.879292 64.750511,43.204269 
	C64.990440,43.443222 65.009979,43.849514 65.041344,44.559883 
z"/>
<path fill="#EDD7A8" opacity="1.000000" stroke="none" 
	d="
M27.029900,47.007057 
	C27.016310,46.578445 27.002720,46.149830 26.935890,45.403893 
	C27.244724,43.979691 27.606800,42.872810 28.005424,41.416870 
	C30.166542,41.921814 32.291111,42.775818 34.738491,44.158775 
	C35.664204,47.587864 37.162216,47.408157 39.060818,45.850136 
	C39.505463,45.910244 39.950108,45.970352 40.990463,46.313789 
	C42.923874,47.151955 44.261566,47.706791 45.518723,48.404724 
	C45.438179,48.547825 45.311489,48.849010 45.110909,48.976357 
	C44.927738,49.671127 44.945145,50.238556 44.954193,51.097519 
	C44.952415,51.583374 44.958992,51.777699 44.782852,52.123409 
	C44.378304,52.501438 44.175159,52.743752 43.788952,53.135532 
	C43.334560,53.482403 43.147629,53.742664 42.951813,54.385078 
	C42.274914,56.188366 41.672607,57.656700 40.809860,59.087280 
	C40.374538,59.035469 40.199657,59.021412 39.788399,59.225426 
	C39.408432,60.063354 39.264843,60.683208 39.134354,61.652271 
	C38.429401,63.335037 37.711349,64.668602 36.626080,66.003304 
	C35.172073,66.670204 34.085289,67.335960 32.998501,68.001724 
	C30.523891,68.377014 28.049282,68.752296 24.706833,69.259186 
	C26.032274,67.672539 26.959208,66.562943 28.313395,65.095917 
	C31.662075,62.406918 34.387733,53.608166 32.901711,50.487675 
	C32.648811,49.956612 30.942551,50.117657 29.605610,49.893719 
	C28.545630,48.888008 27.787766,47.947533 27.029900,47.007057 
z"/>
<path fill="#E4C397" opacity="1.000000" stroke="none" 
	d="
M45.599262,48.261627 
	C44.261566,47.706791 42.923874,47.151955 41.322887,46.366131 
	C42.236191,44.962952 43.412781,43.790756 44.889160,42.418598 
	C45.539974,42.175621 45.891003,42.132610 46.503448,42.065323 
	C46.820385,42.485031 46.875904,42.929012 47.072060,43.895428 
	C47.374466,44.657043 47.571243,44.862743 47.803020,45.034958 
	C47.839001,45.467739 47.874981,45.900517 47.682594,46.668865 
	C47.278404,47.013378 47.102581,47.022327 46.715141,47.185692 
	C46.279972,47.613556 46.056427,47.886997 45.781277,48.201439 
	C45.729671,48.242432 45.599262,48.261627 45.599262,48.261627 
z"/>
<path fill="#E4C397" opacity="1.000000" stroke="none" 
	d="
M38.956184,45.519714 
	C37.162216,47.408157 35.664204,47.587864 35.040268,44.326965 
	C36.296669,44.373898 37.574112,44.781593 38.956184,45.519714 
z"/>
<path fill="#BA805A" opacity="1.000000" stroke="none" 
	d="
M79.318939,84.969040 
	C79.690117,83.836891 80.252808,82.731468 80.937607,81.328339 
	C80.890434,82.312057 80.721153,83.593491 80.222748,84.961472 
	C79.893623,85.048035 79.510452,84.995758 79.318939,84.969040 
z"/>
<path fill="#F2DAB1" opacity="1.000000" stroke="none" 
	d="
M61.094284,47.709446 
	C61.132801,48.376328 61.081219,48.851868 61.039448,49.905960 
	C61.049255,50.484512 60.975868,50.934597 60.672264,51.082054 
	C57.944267,53.506035 55.519867,55.782562 52.719498,58.028801 
	C48.465870,56.904686 50.558395,54.783855 51.235714,52.658470 
	C51.579865,51.578533 50.952564,50.189018 50.789135,48.606949 
	C50.828590,47.829842 50.843338,47.385242 50.858086,46.940639 
	C52.938461,46.897846 55.018837,46.855049 57.537483,46.725170 
	C58.770557,46.727264 59.565365,46.816441 60.590069,47.021488 
	C60.819969,47.137356 61.004185,47.518108 61.094284,47.709446 
z"/>
<path fill="#DDBA74" opacity="1.000000" stroke="none" 
	d="
M50.499931,46.945198 
	C50.843338,47.385242 50.828590,47.829842 50.510315,48.620132 
	C49.830776,48.984966 49.454758,49.004120 48.793915,48.993111 
	C48.003353,48.721302 47.497616,48.479660 46.985596,47.935791 
	C46.961792,47.432796 46.944275,47.232033 46.926762,47.031273 
	C47.102581,47.022327 47.278404,47.013378 47.717842,46.992683 
	C48.701561,46.970543 49.421669,46.960148 50.499931,46.945198 
z"/>
<path fill="#DDBA74" opacity="1.000000" stroke="none" 
	d="
M47.736752,44.823673 
	C47.571243,44.862743 47.374466,44.657043 47.111568,44.228870 
	C47.294937,44.156414 47.514950,44.347252 47.736752,44.823673 
z"/>
<path fill="#ECD4A4" opacity="1.000000" stroke="none" 
	d="
M43.528477,91.101532 
	C41.819103,91.848412 40.440372,92.573311 39.052719,93.684143 
	C38.986206,95.120544 38.928608,96.171021 38.487503,97.545441 
	C32.884811,96.587624 32.177547,97.068062 32.006710,102.049461 
	C31.972979,103.032906 32.000969,104.018463 32.000496,105.003052 
	C30.457935,104.857727 28.915369,104.712402 27.355267,104.565430 
	C28.743792,101.567253 29.855497,99.166801 31.135050,96.060081 
	C32.127678,93.576347 33.112522,91.849266 33.696106,89.995850 
	C33.920158,89.284279 33.474754,87.882889 32.888878,87.524849 
	C32.253922,87.136810 30.662485,87.243958 30.249214,87.753006 
	C28.670971,89.697006 27.399158,91.889786 25.788662,94.210052 
	C25.709560,95.620979 25.854706,96.811508 25.999851,98.002045 
	C25.460634,98.189690 24.921415,98.377335 23.962000,98.545563 
	C23.024918,97.347839 22.508030,96.169533 21.993080,94.743530 
	C21.995018,94.495834 21.997898,94.000443 22.324699,93.926208 
	C23.434134,92.568398 24.216766,91.284805 24.999401,90.001221 
	C25.663816,87.266861 26.328234,84.532501 27.328007,81.476700 
	C29.072969,81.539360 30.482574,81.923477 31.892181,82.307594 
	C31.927935,81.204979 31.963688,80.102371 31.999439,78.999756 
	C32.232613,77.557114 32.465786,76.114479 33.222504,74.335991 
	C34.491508,74.002396 35.236973,74.004646 35.974190,74.381126 
	C33.728680,80.828148 37.866138,82.754433 42.476055,84.400551 
	C43.908062,83.687538 45.677265,83.087257 47.061085,81.997566 
	C47.738895,81.463821 47.700630,80.020714 47.988190,78.615784 
	C47.988186,77.495262 47.986439,76.748146 48.355392,76.012527 
	C50.209019,76.701431 51.640728,77.708649 53.191467,77.949509 
	C54.382637,78.134514 55.723766,77.354057 57.255836,77.114555 
	C58.329082,77.180885 59.144691,77.135620 60.324329,77.132843 
	C62.125469,77.450760 63.562580,77.726189 65.141266,78.315697 
	C65.493317,79.941444 65.703796,81.253128 65.499077,82.663109 
	C63.181438,82.651146 61.217411,82.802551 59.390224,82.372536 
	C56.231853,81.629219 54.711014,82.483116 55.048729,86.265030 
	C55.376339,88.741608 55.696678,90.821198 55.999046,93.120087 
	C55.981079,93.339386 55.951771,93.778458 55.951771,93.778458 
	C53.192142,93.264885 50.432518,92.751320 47.184906,91.880905 
	C46.462029,91.288177 46.182304,91.133110 45.857746,91.058876 
	C45.191540,91.065765 44.525330,91.072655 43.528477,91.101532 
M49.847336,87.517448 
	C49.906872,87.830528 49.966408,88.143608 50.025940,88.456688 
	C50.096912,88.146156 50.167885,87.835632 49.847336,87.517448 
z"/>
<path fill="#D2B24D" opacity="1.000000" stroke="none" 
	d="
M29.907726,49.958954 
	C30.942551,50.117657 32.648811,49.956612 32.901711,50.487675 
	C34.387733,53.608166 31.662075,62.406918 28.387783,64.755035 
	C27.668785,63.747005 27.302650,62.722446 26.987051,60.966793 
	C27.994301,56.810120 28.951014,53.384537 29.907726,49.958954 
z"/>
<path fill="#E7CC8B" opacity="1.000000" stroke="none" 
	d="
M29.605610,49.893719 
	C28.951014,53.384537 27.994301,56.810120 26.975521,60.624008 
	C26.403646,60.425323 25.893841,59.838326 25.151501,59.065228 
	C24.922535,57.825325 24.926105,56.771523 24.899910,55.319336 
	C25.399471,52.443909 25.928795,49.966869 26.744009,47.248444 
	C27.787766,47.947533 28.545630,48.888008 29.605610,49.893719 
z"/>
<path fill="#ECD4A4" opacity="1.000000" stroke="none" 
	d="
M20.342804,82.914406 
	C19.348616,81.573250 18.682411,80.138336 18.005898,78.355354 
	C19.261787,77.086601 20.527988,76.165916 21.794188,75.245232 
	C22.217102,75.430130 22.640018,75.615028 23.062933,75.799927 
	C22.265551,78.140167 21.468168,80.480408 20.342804,82.914406 
z"/>
<path fill="#EDD7A8" opacity="1.000000" stroke="none" 
	d="
M31.640333,78.988693 
	C31.963688,80.102371 31.927935,81.204979 31.892181,82.307594 
	C30.482574,81.923477 29.072969,81.539360 27.332075,81.078079 
	C26.873348,77.038322 29.558350,79.025711 31.640333,78.988693 
z"/>
<path fill="#ECD4A4" opacity="1.000000" stroke="none" 
	d="
M33.130550,68.291939 
	C34.085289,67.335960 35.172073,66.670204 36.473175,66.308952 
	C36.157803,68.073189 35.628113,69.532906 34.822083,70.995224 
	C34.361515,70.998833 34.177288,70.999840 33.993057,71.000847 
	C33.749573,70.194618 33.506084,69.388382 33.130550,68.291939 
z"/>
<path fill="#EBD3A4" opacity="1.000000" stroke="none" 
	d="
M24.745914,89.883087 
	C24.216766,91.284805 23.434134,92.568398 22.323906,93.678139 
	C21.996315,93.504295 21.993942,93.008163 21.993942,93.008163 
	C22.233526,91.883881 22.473110,90.759605 22.856405,89.317352 
	C23.497553,89.254578 23.994989,89.509766 24.745914,89.883087 
z"/>
<path fill="#EDD7A8" opacity="1.000000" stroke="none" 
	d="
M33.764130,71.234787 
	C34.177288,70.999840 34.361515,70.998833 34.845856,71.157623 
	C35.145966,71.317421 35.101398,71.642776 35.176788,71.915283 
	C35.499928,72.456909 35.747677,72.726021 35.993149,73.248093 
	C35.988064,73.669662 35.985249,73.838287 35.982437,74.006905 
	C35.236973,74.004646 34.491508,74.002396 33.373329,74.000229 
	C33.178810,73.156448 33.357006,72.312584 33.764130,71.234787 
z"/>
<path fill="#EDD7A8" opacity="1.000000" stroke="none" 
	d="
M25.042889,75.524399 
	C25.166609,75.836143 25.095980,76.144249 25.025351,76.452362 
	C24.966413,76.141830 24.907476,75.831306 25.042889,75.524399 
z"/>
<path fill="#EDD198" opacity="1.000000" stroke="none" 
	d="
M8.308830,35.852737 
	C9.116789,34.029148 10.212107,32.032745 11.662995,30.021427 
	C10.877775,31.897654 9.736982,33.788792 8.308830,35.852737 
z"/>
<path fill="#EFD8AC" opacity="1.000000" stroke="none" 
	d="
M21.595049,93.005920 
	C21.993942,93.008163 21.996315,93.504295 21.997107,93.752365 
	C21.997898,94.000443 21.995018,94.495834 21.649385,94.753738 
	C20.199326,95.670555 19.094900,96.329468 17.990475,96.988380 
	C17.499304,97.251686 17.008133,97.514999 16.259872,97.886215 
	C16.001089,96.931168 15.999393,95.868195 15.995922,94.406837 
	C16.491379,93.745117 16.988609,93.481796 17.745365,93.108795 
	C19.068644,93.000641 20.132401,93.002167 21.595049,93.005920 
z"/>
<path fill="#D6B85C" opacity="1.000000" stroke="none" 
	d="
M21.867409,48.254463 
	C21.914640,48.608265 21.715141,49.112862 21.325779,49.813553 
	C21.297504,49.474850 21.459091,48.940052 21.867409,48.254463 
z"/>
<path fill="#ECD8AC" opacity="1.000000" stroke="none" 
	d="
M31.960646,105.292557 
	C32.000969,104.018463 31.972979,103.032906 32.006710,102.049461 
	C32.177547,97.068062 32.884811,96.587624 38.464836,97.940468 
	C40.150051,99.769363 41.474426,101.527168 42.810745,103.847443 
	C42.547943,104.934898 42.273205,105.459892 41.600178,105.988899 
	C39.791859,106.987839 38.381824,107.982765 36.971786,108.977692 
	C35.809185,109.562988 34.646580,110.148285 32.950123,110.776985 
	C31.938389,110.582893 31.460503,110.345406 30.988277,109.720161 
	C30.991449,108.557053 30.988958,107.781708 30.986469,107.006355 
	C31.297911,106.531593 31.609354,106.056831 31.960646,105.292557 
M35.539093,106.506653 
	C35.539093,106.506653 35.488518,106.527855 35.539093,106.506653 
z"/>
<path fill="#EBD3A4" opacity="1.000000" stroke="none" 
	d="
M18.228642,97.225113 
	C19.094900,96.329468 20.199326,95.670555 21.647448,95.001434 
	C22.508030,96.169533 23.024918,97.347839 23.769413,98.762741 
	C22.766556,101.449203 21.536085,103.899063 20.153214,106.669373 
	C18.491877,107.133865 16.982944,107.277908 15.235632,107.213303 
	C15.219195,106.392509 15.720905,105.728546 15.618649,105.176445 
	C14.827890,100.906967 16.203388,99.320427 21.140011,100.462166 
	C20.248945,99.462059 19.357878,98.461952 18.228642,97.225113 
z"/>
<path fill="#F0DAAD" opacity="1.000000" stroke="none" 
	d="
M26.012913,93.989655 
	C27.399158,91.889786 28.670971,89.697006 30.249214,87.753006 
	C30.662485,87.243958 32.253922,87.136810 32.888878,87.524849 
	C33.474754,87.882889 33.920158,89.284279 33.696106,89.995850 
	C33.112522,91.849266 32.127678,93.576347 31.148979,95.675385 
	C30.252537,95.996040 29.510010,95.995140 28.255535,95.738312 
	C27.166693,94.984818 26.589804,94.487236 26.012913,93.989655 
z"/>
<path fill="#EBD3A4" opacity="1.000000" stroke="none" 
	d="
M25.788664,94.210052 
	C26.589804,94.487236 27.166693,94.984818 27.884195,95.736252 
	C27.554728,96.617500 27.084648,97.244911 26.307211,97.937180 
	C25.854706,96.811508 25.709560,95.620979 25.788664,94.210052 
z"/>
<path fill="#EBD29D" opacity="1.000000" stroke="none" 
	d="
M30.647736,107.101807 
	C30.988958,107.781708 30.991449,108.557053 30.812653,109.849457 
	C30.406338,110.555893 30.207567,110.769691 30.035051,111.007896 
	C29.859365,111.004158 29.683681,111.000420 29.244278,110.989548 
	C29.423370,109.720688 29.866186,108.458969 30.647736,107.101807 
z"/>
<path fill="#D3B458" opacity="1.000000" stroke="none" 
	d="
M30.014050,111.421326 
	C30.207567,110.769691 30.406338,110.555893 30.806990,110.237213 
	C31.460503,110.345406 31.938389,110.582893 32.657860,110.932846 
	C33.692799,112.923790 34.486153,114.802277 35.596973,117.200798 
	C36.240376,118.495712 36.566307,119.270584 36.892242,120.045456 
	C36.938946,120.771759 36.985649,121.498070 36.688259,122.600441 
	C35.560059,122.985191 34.775951,122.993866 33.991844,123.002548 
	C29.516579,120.405113 31.121672,115.630508 30.014050,111.421326 
z"/>
<path fill="#E8CB90" opacity="1.000000" stroke="none" 
	d="
M37.029533,109.303162 
	C38.381824,107.982765 39.791859,106.987839 41.828499,106.216225 
	C43.302914,107.293480 44.150715,108.147415 44.998516,109.001358 
	C45.000675,109.749603 45.002834,110.497849 45.003075,111.620071 
	C44.081364,112.179886 43.161575,112.365715 41.698273,112.782211 
	C40.778080,113.005203 40.401405,112.997536 40.024727,112.989861 
	C39.045574,111.869446 38.066425,110.749039 37.029533,109.303162 
z"/>
<path fill="#D2B44F" opacity="1.000000" stroke="none" 
	d="
M34.035995,123.358475 
	C34.775951,122.993866 35.560059,122.985191 36.738235,122.961533 
	C37.585339,123.225693 38.038380,123.504837 38.892258,124.123207 
	C39.767799,124.702118 40.242500,124.941803 40.717205,125.181480 
	C41.108669,126.235954 41.500134,127.290436 42.001823,128.665100 
	C40.731659,129.290634 38.621174,130.303268 38.105457,129.770935 
	C36.446938,128.058960 35.377052,125.776718 34.035995,123.358475 
z"/>
<path fill="#E9CC96" opacity="1.000000" stroke="none" 
	d="
M39.875977,113.311501 
	C40.401405,112.997536 40.778080,113.005203 41.432526,113.019760 
	C42.379822,114.459259 43.049347,115.891853 43.868439,117.622696 
	C43.561127,119.101830 43.104252,120.282722 42.647373,121.463623 
	C42.243896,121.488846 41.840416,121.514069 41.436935,121.539291 
	C40.867031,118.903908 40.297131,116.268524 39.875977,113.311501 
z"/>
<path fill="#E9CC96" opacity="1.000000" stroke="none" 
	d="
M37.131775,119.827744 
	C36.566307,119.270584 36.240376,118.495712 35.873367,117.398972 
	C36.345303,117.921410 36.858303,118.765717 37.131775,119.827744 
z"/>
<path fill="#E9CC96" opacity="1.000000" stroke="none" 
	d="
M40.939323,125.006584 
	C40.242500,124.941803 39.767799,124.702118 39.129486,124.245918 
	C39.697735,124.296822 40.429592,124.564255 40.939323,125.006584 
z"/>
<path fill="#ECD2A3" opacity="1.000000" stroke="none" 
	d="
M44.999260,109.000679 
	C44.150715,108.147415 43.302914,107.293480 42.226784,106.212212 
	C42.273205,105.459892 42.547943,104.934898 42.955616,104.141769 
	C43.863953,104.172264 44.639359,104.470901 45.651970,105.253868 
	C45.593315,106.824959 45.297455,107.911720 45.001595,108.998474 
	C45.001591,108.998474 45.000000,109.000000 44.999260,109.000679 
z"/>
<path fill="#E8CB90" opacity="1.000000" stroke="none" 
	d="
M45.351543,108.982010 
	C45.297455,107.911720 45.593315,106.824959 45.928177,105.403702 
	C46.553398,105.511063 47.139614,105.952927 47.870026,106.632767 
	C47.243317,107.569008 46.472404,108.267281 45.351543,108.982010 
z"/>
<path fill="#F0DBB0" opacity="1.000000" stroke="none" 
	d="
M56.017017,92.900795 
	C55.696678,90.821198 55.376339,88.741608 55.300568,86.343864 
	C55.710461,86.085915 55.875782,86.146111 56.154869,86.369934 
	C56.449135,86.735001 56.661118,86.894691 57.327774,87.043518 
	C59.162624,87.066772 60.574284,87.059128 61.990837,87.480209 
	C62.041763,89.353783 62.087791,90.798637 62.133820,92.243500 
	C61.047607,92.535545 59.961395,92.827591 58.168472,93.081299 
	C56.980186,92.995567 56.498600,92.948181 56.017017,92.900795 
z"/>
<path fill="#ECCF9D" opacity="1.000000" stroke="none" 
	d="
M62.491798,92.224205 
	C62.087791,90.798637 62.041763,89.353783 62.366299,87.439758 
	C63.491264,86.979118 64.245667,86.987648 65.000519,87.254471 
	C65.003693,87.684952 65.006409,87.857132 65.009117,88.029312 
	C65.007645,88.759865 65.006172,89.490410 65.008881,90.584839 
	C65.008202,91.118423 65.003349,91.288116 64.996399,91.712143 
	C64.279457,92.045944 63.564621,92.125427 62.491798,92.224205 
z"/>
<path fill="#E9CF93" opacity="1.000000" stroke="none" 
	d="
M55.999046,93.120087 
	C56.498600,92.948181 56.980186,92.995567 57.822590,93.099365 
	C57.641769,93.396408 57.100124,93.637032 56.255127,93.828064 
	C55.951771,93.778458 55.981079,93.339386 55.999046,93.120087 
z"/>
<path fill="#E9CF93" opacity="1.000000" stroke="none" 
	d="
M46.001736,91.255783 
	C46.182304,91.133110 46.462029,91.288177 46.843891,91.714493 
	C46.658516,91.848831 46.376804,91.698090 46.001736,91.255783 
z"/>
<path fill="#CFB04B" opacity="1.000000" stroke="none" 
	d="
M65.000061,86.996170 
	C64.245667,86.987648 63.491264,86.979118 62.361404,87.011047 
	C60.574284,87.059128 59.162624,87.066772 57.244541,86.851044 
	C56.569565,86.381691 56.337231,86.241234 56.041107,86.206314 
	C55.875782,86.146111 55.710461,86.085915 55.293297,85.946884 
	C54.711014,82.483116 56.231853,81.629219 59.390224,82.372536 
	C61.217411,82.802551 63.181438,82.651146 65.861626,82.714493 
	C69.718513,82.130882 72.797653,81.594200 75.876793,81.057518 
	C75.644295,81.506905 75.411789,81.956284 75.076767,82.637711 
	C72.576225,83.966202 70.178192,85.062653 67.137398,86.198120 
	C65.996452,86.490143 65.498253,86.743156 65.000061,86.996170 
z"/>
<path fill="#E9CF93" opacity="1.000000" stroke="none" 
	d="
M65.000519,87.254471 
	C65.498253,86.743156 65.996452,86.490143 66.781204,86.295471 
	C66.570404,86.872757 66.073044,87.391708 65.292404,87.969986 
	C65.006409,87.857132 65.003693,87.684952 65.000519,87.254471 
z"/>
<path fill="#EFDBAF" opacity="1.000000" stroke="none" 
	d="
M71.873535,57.346622 
	C72.726700,56.997952 73.485359,56.996819 74.622871,56.996979 
	C75.003265,59.419537 75.004799,61.840790 74.941910,64.964798 
	C72.236168,67.740662 69.594849,69.813782 66.738556,71.720001 
	C66.002106,72.331352 65.480629,73.109604 64.547577,73.921616 
	C62.760296,73.977310 61.384586,73.999237 59.821129,73.795097 
	C59.088978,73.377609 58.544579,73.186172 57.813202,72.861481 
	C57.430340,72.320732 57.234459,71.913239 57.367332,71.368599 
	C59.204346,69.589394 60.712605,67.947327 62.554680,66.199051 
	C64.286591,63.737068 65.684692,61.381306 67.082787,59.025539 
	C68.648201,58.581745 70.213615,58.137951 71.873535,57.346622 
z"/>
<path fill="#D2B44F" opacity="1.000000" stroke="none" 
	d="
M66.953529,71.886902 
	C69.594849,69.813782 72.236168,67.740662 74.935684,65.325821 
	C75.548836,65.882301 76.780739,67.303444 76.553581,67.597504 
	C74.378883,70.412743 71.957611,73.037521 69.080750,75.964767 
	C68.261391,76.377357 68.058960,76.618256 67.947144,76.935318 
	C67.947144,76.935318 67.928810,76.897194 67.590851,76.926208 
	C66.501831,77.304016 65.750763,77.652824 64.999695,78.001625 
	C63.562580,77.726189 62.125469,77.450760 60.282616,76.776199 
	C59.813816,75.903625 59.750751,75.430176 59.800751,74.734085 
	C59.913815,74.511444 60.008881,74.021156 60.008881,74.021156 
	C61.384586,73.999237 62.760296,73.977310 64.868820,73.905739 
	C66.052277,73.199699 66.502899,72.543297 66.953529,71.886902 
z"/>
<path fill="#E9CF93" opacity="1.000000" stroke="none" 
	d="
M65.141266,78.315697 
	C65.750763,77.652824 66.501831,77.304016 67.569901,76.929085 
	C68.049019,80.397194 69.869492,79.970734 72.272507,78.947334 
	C73.940773,78.236855 76.497749,76.341843 76.119781,80.818718 
	C72.797653,81.594200 69.718513,82.130882 66.276825,82.616180 
	C65.703796,81.253128 65.493317,79.941444 65.141266,78.315697 
z"/>
<path fill="#E9CF93" opacity="1.000000" stroke="none" 
	d="
M68.159088,76.832092 
	C68.058960,76.618256 68.261391,76.377357 68.778069,76.125778 
	C68.848694,76.321213 68.638474,76.551186 68.159088,76.832092 
z"/>
<path fill="#CEAC3C" opacity="1.000000" stroke="none" 
	d="
M53.095470,58.059090 
	C55.519867,55.782562 57.944267,53.506035 60.742355,51.395332 
	C61.954159,52.040356 62.792267,52.519554 63.630379,52.998753 
	C63.690479,53.450916 63.750580,53.903080 63.665672,54.885025 
	C63.343670,55.938347 63.166679,56.461887 62.640717,57.033680 
	C61.139736,58.363350 60.153900,59.867508 58.799641,60.877834 
	C56.307964,62.736721 53.599586,64.305138 51.025978,65.624306 
	C51.745445,62.855690 52.420460,60.457390 53.095470,58.059090 
z"/>
<path fill="#D3B653" opacity="1.000000" stroke="none" 
	d="
M62.989689,56.985428 
	C63.166679,56.461887 63.343670,55.938347 63.723785,55.222691 
	C65.023933,56.159454 66.120956,57.288334 67.150383,58.721375 
	C65.684692,61.381306 64.286591,63.737068 62.443913,65.849808 
	C61.040173,65.092033 60.081017,64.577293 59.264458,63.749756 
	C60.601265,61.286453 61.795479,59.135941 62.989689,56.985428 
z"/>
<path fill="#C5A73D" opacity="1.000000" stroke="none" 
	d="
M63.716022,52.639053 
	C62.792267,52.519554 61.954159,52.040356 61.045959,51.247879 
	C60.975868,50.934597 61.049255,50.484512 61.095612,50.261211 
	C61.810669,50.039570 62.479366,50.041225 63.479839,50.058212 
	C63.808296,50.808815 63.804981,51.544086 63.716022,52.639053 
z"/>
<path fill="#D2B44F" opacity="1.000000" stroke="none" 
	d="
M35.101398,71.642776 
	C35.101398,71.642776 35.145966,71.317421 35.122192,71.155029 
	C35.628113,69.532906 36.157803,68.073189 36.840393,66.307816 
	C37.711349,64.668602 38.429401,63.335037 39.353348,61.627068 
	C39.559246,61.252655 40.000046,61.284096 40.228695,61.297920 
	C40.661663,60.582844 40.865986,59.853935 41.070305,59.125031 
	C41.672607,57.656700 42.274914,56.188366 43.170097,54.269104 
	C43.738079,53.610142 43.913986,53.337994 43.990704,53.001728 
	C44.175159,52.743752 44.378304,52.501438 44.997025,51.994118 
	C45.566185,51.432655 45.738457,51.151875 46.037704,50.712502 
	C45.880280,49.985615 45.595886,49.417313 45.311489,48.849010 
	C45.311489,48.849010 45.438179,48.547825 45.518723,48.404724 
	C45.599262,48.261627 45.729671,48.242432 46.072289,48.220081 
	C46.607227,48.211159 46.799557,48.224586 46.991882,48.238014 
	C47.497616,48.479660 48.003353,48.721302 48.700943,49.280972 
	C48.447002,51.139938 48.104626,52.720154 47.536987,54.214825 
	C45.405087,59.828423 43.199699,65.414116 40.926735,71.251312 
	C40.344685,71.934784 39.857738,72.377197 39.120872,72.596405 
	C38.234669,72.210747 37.598385,72.048294 36.715363,71.849571 
	C36.468620,71.813301 35.971138,71.849373 35.753296,71.799438 
	C35.535454,71.749512 35.101398,71.642776 35.101398,71.642776 
z"/>
<path fill="#ECD4A4" opacity="1.000000" stroke="none" 
	d="
M45.110909,48.976357 
	C45.595886,49.417313 45.880280,49.985615 45.800636,50.702614 
	C45.436596,50.851315 44.962551,50.805984 44.962551,50.805984 
	C44.945145,50.238556 44.927738,49.671127 45.110909,48.976357 
z"/>
<path fill="#DDBA74" opacity="1.000000" stroke="none" 
	d="
M40.809860,59.087280 
	C40.865986,59.853935 40.661663,60.582844 40.231133,60.915035 
	C40.011539,60.014668 40.018162,59.511013 40.024780,59.007359 
	C40.199657,59.021412 40.374538,59.035469 40.809860,59.087280 
z"/>
<path fill="#ECD4A4" opacity="1.000000" stroke="none" 
	d="
M39.788399,59.225426 
	C40.018162,59.511013 40.011539,60.014668 40.002483,60.901207 
	C40.000046,61.284096 39.559246,61.252655 39.340248,61.277863 
	C39.264843,60.683208 39.408432,60.063354 39.788399,59.225426 
z"/>
<path fill="#ECD4A4" opacity="1.000000" stroke="none" 
	d="
M43.788952,53.135532 
	C43.913986,53.337994 43.738079,53.610142 43.244694,53.934151 
	C43.147629,53.742664 43.334560,53.482403 43.788952,53.135532 
z"/>
<path fill="#DDBA74" opacity="1.000000" stroke="none" 
	d="
M44.954193,51.097519 
	C44.962551,50.805984 45.436596,50.851315 45.673664,50.861202 
	C45.738457,51.151875 45.566185,51.432655 45.179741,51.842735 
	C44.958992,51.777699 44.952415,51.583374 44.954193,51.097519 
z"/>
<path fill="#ECD4A4" opacity="1.000000" stroke="none" 
	d="
M46.985596,47.935791 
	C46.799557,48.224586 46.607227,48.211159 46.123894,48.179085 
	C46.056427,47.886997 46.279972,47.613556 46.715141,47.185692 
	C46.944275,47.232033 46.961792,47.432796 46.985596,47.935791 
z"/>
<path fill="#EACF93" opacity="1.000000" stroke="none" 
	d="
M41.021851,71.010269 
	C43.199699,65.414116 45.405087,59.828423 47.536987,54.214825 
	C48.104626,52.720154 48.447002,51.139938 48.985771,49.311134 
	C49.454758,49.004120 49.830776,48.984966 50.485611,48.952637 
	C50.952564,50.189018 51.579865,51.578533 51.235714,52.658470 
	C50.558395,54.783855 48.465870,56.904686 52.719498,58.028801 
	C52.420460,60.457390 51.745445,62.855690 50.659222,65.627502 
	C49.515533,66.015114 48.783058,66.029221 47.877064,65.758469 
	C45.579411,63.340191 44.879173,64.704323 44.002457,66.737747 
	C43.328934,68.299904 42.038139,69.595909 41.021851,71.010269 
z"/>
<path fill="#EED9AD" opacity="1.000000" stroke="none" 
	d="
M40.926739,71.251312 
	C42.038139,69.595909 43.328934,68.299904 44.002457,66.737747 
	C44.879173,64.704323 45.579411,63.340191 47.921951,66.110092 
	C50.353313,68.210503 52.566269,69.674454 54.825279,71.197388 
	C54.871334,71.256355 54.931293,71.393471 54.950222,71.736259 
	C55.645500,73.720345 56.321850,75.361649 56.998199,77.002945 
	C55.723766,77.354057 54.382637,78.134514 53.191467,77.949509 
	C51.640728,77.708649 50.209019,76.701431 48.012146,75.956268 
	C45.947243,75.417328 44.446434,74.339523 43.282864,74.626945 
	C41.794659,74.994568 40.578316,76.462753 39.244812,77.456657 
	C40.691139,78.072655 42.089336,78.952423 43.597839,79.227638 
	C44.999550,79.483368 46.518898,79.094337 47.986450,78.989182 
	C47.700630,80.020714 47.738895,81.463821 47.061085,81.997566 
	C45.677265,83.087257 43.908062,83.687538 42.476055,84.400551 
	C37.866138,82.754433 33.728680,80.828148 35.974190,74.381126 
	C35.985249,73.838287 35.988064,73.669662 35.990479,72.961617 
	C35.983768,72.231247 35.977451,72.040314 35.971138,71.849373 
	C35.971138,71.849373 36.468620,71.813301 36.944504,72.101418 
	C38.070522,72.532898 38.720661,72.676262 39.370796,72.819618 
	C39.857738,72.377197 40.344685,71.934784 40.926739,71.251312 
z"/>
<path fill="#F1DEB6" opacity="1.000000" stroke="none" 
	d="
M47.988190,78.615784 
	C46.518898,79.094337 44.999550,79.483368 43.597839,79.227638 
	C42.089336,78.952423 40.691139,78.072655 39.244812,77.456657 
	C40.578316,76.462753 41.794659,74.994568 43.282864,74.626945 
	C44.446434,74.339523 45.947243,75.417328 47.641449,75.944771 
	C47.986439,76.748146 47.988186,77.495262 47.988190,78.615784 
z"/>
<path fill="#E9CF93" opacity="1.000000" stroke="none" 
	d="
M57.255836,77.114548 
	C56.321850,75.361649 55.645500,73.720345 55.303017,71.677559 
	C56.104115,71.352623 56.571346,71.429184 57.038578,71.505745 
	C57.234459,71.913239 57.430340,72.320732 57.864944,73.145874 
	C58.631680,74.027924 59.159683,74.492332 59.687687,74.956734 
	C59.750751,75.430176 59.813816,75.903625 59.918591,76.733711 
	C59.144691,77.135620 58.329082,77.180885 57.255836,77.114548 
z"/>
<path fill="#E9CF93" opacity="1.000000" stroke="none" 
	d="
M50.043098,87.521271 
	C50.167885,87.835632 50.096912,88.146156 50.025940,88.456688 
	C49.966408,88.143608 49.906872,87.830528 50.043098,87.521271 
z"/>
<path fill="#ECD4A4" opacity="1.000000" stroke="none" 
	d="
M35.753296,71.799438 
	C35.977451,72.040314 35.983768,72.231247 35.992756,72.708664 
	C35.747677,72.726021 35.499928,72.456909 35.176788,71.915283 
	C35.101398,71.642776 35.535454,71.749512 35.753296,71.799438 
z"/>
<path fill="#E8CB90" opacity="1.000000" stroke="none" 
	d="
M35.513805,106.517258 
	C35.488518,106.527855 35.539093,106.506653 35.513805,106.517258 
z"/>
<path fill="#ECD4A4" opacity="1.000000" stroke="none" 
	d="
M56.154869,86.369934 
	C56.337231,86.241234 56.569565,86.381691 56.821346,86.820145 
	C56.661118,86.894691 56.449135,86.735001 56.154869,86.369934 
z"/>
<path fill="#CCA841" opacity="1.000000" stroke="none" 
	d="
M57.367332,71.368599 
	C56.571346,71.429184 56.104115,71.352623 55.284088,71.334770 
	C54.931293,71.393471 54.871334,71.256355 54.875992,70.825844 
	C56.294388,68.284401 57.708126,66.173477 59.121861,64.062546 
	C60.081017,64.577293 61.040173,65.092033 62.110092,65.956024 
	C60.712605,67.947327 59.204346,69.589394 57.367332,71.368599 
z"/>
<path fill="#EAD197" opacity="1.000000" stroke="none" 
	d="
M66.738556,71.720001 
	C66.502899,72.543297 66.052277,73.199699 65.280396,73.871971 
	C65.480629,73.109604 66.002106,72.331352 66.738556,71.720001 
z"/>
<path fill="#EAD197" opacity="1.000000" stroke="none" 
	d="
M59.800751,74.734085 
	C59.159683,74.492332 58.631680,74.027924 58.051929,73.279129 
	C58.544579,73.186172 59.088978,73.377609 59.821129,73.795097 
	C60.008881,74.021156 59.913815,74.511444 59.800751,74.734085 
z"/>
<path fill="#E2C777" opacity="1.000000" stroke="none" 
	d="
M59.264458,63.749756 
	C57.708126,66.173477 56.294388,68.284401 54.829933,70.766876 
	C52.566269,69.674454 50.353313,68.210503 48.095467,66.394936 
	C48.783058,66.029221 49.515533,66.015114 50.614769,65.997818 
	C53.599586,64.305138 56.307964,62.736721 58.799641,60.877834 
	C60.153900,59.867508 61.139736,58.363350 62.640717,57.033680 
	C61.795479,59.135941 60.601265,61.286453 59.264458,63.749756 
z"/>
<path fill="#ECD4A4" opacity="1.000000" stroke="none" 
	d="
M39.120872,72.596405 
	C38.720661,72.676262 38.070522,72.532898 37.191246,72.137688 
	C37.598385,72.048294 38.234669,72.210747 39.120872,72.596405 
z"/>
</svg>