<svg version="1.1" id="Layer_1" xmlns="http://www.w3.org/2000/svg" xmlns:xlink="http://www.w3.org/1999/xlink" x="0px" y="0px"
	 width="100%" viewBox="0 0 143 53" enable-background="new 0 0 143 53" xml:space="preserve">
<path fill="#ffffff" opacity="000000" stroke="none" 
	d="
M97.000000,54.000000 
	C64.666672,54.000000 32.833344,54.000000 1.000013,54.000000 
	C1.000009,36.333344 1.000009,18.666685 1.000004,1.000020 
	C48.666653,1.000013 96.333305,1.000013 143.999969,1.000007 
	C143.999969,18.666647 143.999969,36.333294 143.999985,53.999969 
	C128.500000,54.000000 113.000000,54.000000 97.000000,54.000000 
M37.675285,23.147575 
	C40.451904,23.712524 43.228523,24.277473 46.686359,24.800762 
	C48.798908,24.477228 50.911453,24.153694 53.550617,23.892223 
	C53.744553,23.607143 53.938488,23.322063 54.592522,23.001749 
	C54.592522,23.001749 55.029659,22.853945 55.741550,22.986109 
	C58.507713,21.029989 61.273876,19.073870 64.729706,16.808647 
	C68.557220,14.400156 70.880424,18.093334 74.169106,19.696777 
	C76.964584,22.198494 79.523079,25.225492 84.018181,24.869335 
	C86.164276,29.821842 90.447083,27.595518 94.802254,27.990047 
	C97.391914,27.229433 100.571793,27.160210 102.445389,25.560787 
	C106.074707,22.462563 109.276871,22.191946 113.581062,25.076391 
	C114.361435,25.755516 115.141815,26.434643 115.969048,27.027363 
	C115.969048,27.027363 115.884933,27.078236 116.214005,27.727287 
	C124.669815,33.348679 126.180618,31.010675 129.854324,27.695862 
	C125.294617,25.787996 120.707199,23.868538 116.011612,21.220062 
	C113.270569,17.345739 109.558739,15.220828 105.027634,17.186666 
	C100.804436,19.018917 96.990486,21.794441 92.325943,24.155174 
	C89.563347,23.396835 86.800743,22.638496 83.774147,21.253744 
	C80.887001,18.822092 77.999855,16.390440 74.757698,13.231763 
	C71.507904,12.875762 68.258118,12.519760 64.285614,12.018249 
	C61.503143,13.630107 58.720676,15.241965 55.192799,16.973162 
	C53.116013,17.706125 51.039227,18.439087 48.043159,19.016350 
	C42.375095,19.618492 36.346493,17.529434 30.972029,20.323111 
	C30.982317,20.795584 30.992605,21.268055 31.002893,21.740528 
	C32.990982,22.085407 34.979069,22.430288 37.675285,23.147575 
z"/>
<path fill="#CDC5BC" opacity="1.000000" stroke="none" 
	d="
M92.996399,24.154732 
	C96.990486,21.794441 100.804436,19.018917 105.027634,17.186666 
	C109.558739,15.220828 113.270569,17.345739 115.774200,21.720860 
	C114.690353,23.093578 113.843910,23.965500 112.997475,24.837421 
	C109.276871,22.191946 106.074707,22.462563 102.445389,25.560787 
	C100.571793,27.160210 97.391914,27.229433 94.345520,27.599825 
	C93.591324,26.191313 93.293861,25.173023 92.996399,24.154732 
z"/>
<path fill="#CCC2B8" opacity="1.000000" stroke="none" 
	d="
M113.289268,24.956905 
	C113.843910,23.965500 114.690353,23.093578 115.828285,22.085365 
	C120.707199,23.868538 125.294617,25.787996 129.854324,27.695862 
	C126.180618,31.010675 124.669815,33.348679 116.299774,27.341530 
	C116.697350,26.636312 117.009155,26.316854 117.320953,25.997396 
	C117.204620,25.892323 117.088295,25.787249 116.971962,25.682175 
	C116.622032,26.159370 116.272110,26.636568 115.922188,27.113768 
	C115.141815,26.434643 114.361435,25.755516 113.289268,24.956905 
z"/>
<path fill="#C7BEB5" opacity="1.000000" stroke="none" 
	d="
M64.040039,17.117748 
	C61.273876,19.073870 58.507713,21.029989 55.546616,22.575590 
	C55.547192,20.394655 55.742699,18.624239 55.938206,16.853823 
	C58.720676,15.241965 61.503143,13.630107 64.574890,12.445591 
	C64.589462,14.287872 64.314751,15.702810 64.040039,17.117748 
z"/>
<path fill="#C4BAB1" opacity="1.000000" stroke="none" 
	d="
M83.950592,24.109707 
	C79.523079,25.225492 76.964584,22.198494 74.236404,19.155254 
	C74.573372,17.062086 74.843040,15.510438 75.112709,13.958789 
	C77.999855,16.390440 80.887001,18.822092 83.888779,21.938425 
	C83.985802,23.118639 83.968193,23.614174 83.950592,24.109707 
z"/>
<path fill="#D1C8BC" opacity="1.000000" stroke="none" 
	d="
M74.935204,13.595276 
	C74.843040,15.510438 74.573372,17.062086 74.089355,18.838531 
	C70.880424,18.093334 68.557220,14.400156 64.384872,16.963198 
	C64.314751,15.702810 64.589462,14.287872 64.936249,12.518347 
	C68.258118,12.519760 71.507904,12.875762 74.935204,13.595276 
z"/>
<path fill="#BCB4AC" opacity="1.000000" stroke="none" 
	d="
M55.565502,16.913492 
	C55.742699,18.624239 55.547192,20.394655 55.190674,22.509508 
	C55.029659,22.853945 54.592522,23.001749 54.159065,23.125229 
	C53.449924,23.392073 53.216057,23.585890 53.024002,23.830160 
	C50.911453,24.153694 48.798908,24.477228 46.343941,24.526024 
	C45.998848,23.858091 45.996178,23.464893 46.219673,22.938190 
	C47.284702,21.593807 48.123569,20.382929 48.962440,19.172050 
	C51.039227,18.439087 53.116013,17.706125 55.565502,16.913492 
z"/>
<path fill="#D2CDC5" opacity="1.000000" stroke="none" 
	d="
M83.984390,24.489521 
	C83.968193,23.614174 83.985802,23.118639 84.020782,22.251633 
	C86.800743,22.638496 89.563347,23.396835 92.661171,24.154953 
	C93.293861,25.173023 93.591324,26.191313 93.941818,27.524197 
	C90.447083,27.595518 86.164276,29.821842 83.984390,24.489521 
z"/>
<path fill="#D2C9C3" opacity="1.000000" stroke="none" 
	d="
M48.502800,19.094200 
	C48.123569,20.382929 47.284702,21.593807 45.973755,22.660591 
	C42.392300,18.854763 39.044151,18.956242 36.967155,22.775167 
	C34.979069,22.430288 32.990982,22.085407 31.002893,21.740528 
	C30.992605,21.268055 30.982317,20.795584 30.972029,20.323111 
	C36.346493,17.529434 42.375095,19.618492 48.502800,19.094200 
z"/>
<path fill="#B5B2AE" opacity="1.000000" stroke="none" 
	d="
M37.321220,22.961372 
	C39.044151,18.956242 42.392300,18.854763 45.747593,22.794098 
	C45.996178,23.464893 45.998848,23.858091 46.003330,24.546856 
	C43.228523,24.277473 40.451904,23.712524 37.321220,22.961372 
z"/>
<path fill="#C7BEB5" opacity="1.000000" stroke="none" 
	d="
M53.287308,23.861191 
	C53.216057,23.585890 53.449924,23.392073 53.929016,23.142847 
	C53.938488,23.322063 53.744553,23.607143 53.287308,23.861191 
z"/>
<path fill="#CDC5BC" opacity="1.000000" stroke="none" 
	d="
M115.945618,27.070564 
	C116.272110,26.636568 116.622032,26.159370 116.971962,25.682175 
	C117.088295,25.787249 117.204620,25.892323 117.320953,25.997396 
	C117.009155,26.316854 116.697350,26.636312 116.135239,27.017004 
	C115.884933,27.078236 115.969048,27.027363 115.945618,27.070564 
z"/>
</svg>