<svg version="1.1" id="Layer_1" xmlns="http://www.w3.org/2000/svg" xmlns:xlink="http://www.w3.org/1999/xlink" x="0px" y="0px"
	 width="100%" viewBox="0 0 163 88" enable-background="new 0 0 163 88" xml:space="preserve">
<path fill="#ffffff" opacity="000000" stroke="none" 
	d="
M100.000000,89.000000 
	C66.666672,89.000000 33.833340,89.000000 1.000009,89.000000 
	C1.000006,59.666676 1.000006,30.333347 1.000003,1.000017 
	C55.333317,1.000011 109.666634,1.000011 163.999969,1.000006 
	C163.999969,30.333315 163.999969,59.666630 163.999985,88.999969 
	C142.833328,89.000000 121.666664,89.000000 100.000000,89.000000 
M98.393097,37.976582 
	C98.393097,37.976582 97.977066,38.138176 97.217583,38.008598 
	C94.146461,37.045513 91.075348,36.082428 87.402885,34.890907 
	C83.221985,32.705059 78.444885,31.185982 75.035454,28.137360 
	C71.908783,25.341572 69.130409,23.542688 64.178459,23.993092 
	C62.746426,24.205671 61.141422,24.079721 59.919712,24.703943 
	C57.639084,25.869217 55.715145,27.768545 53.395031,28.811068 
	C50.766079,29.992361 47.887928,31.180222 45.077850,31.284994 
	C38.425282,31.533031 31.745068,31.233839 25.084202,30.958319 
	C22.784767,30.863205 20.509504,30.183670 18.223200,29.771093 
	C18.002869,30.317469 17.782539,30.863846 17.562208,31.410221 
	C18.800940,32.269672 19.955559,33.682522 21.293999,33.885956 
	C25.494219,34.524357 29.869917,34.237606 33.983391,35.168015 
	C41.738655,36.922146 49.251999,36.108772 56.657043,33.897495 
	C58.680023,33.293396 60.307827,31.365953 62.572937,29.985739 
	C62.572937,29.985739 63.006390,29.832047 63.713009,29.786821 
	C65.797951,29.891657 67.882889,29.996490 70.217377,30.728212 
	C74.479576,35.325294 79.451027,38.582256 86.224335,39.720070 
	C92.151039,41.084244 98.077751,42.448418 104.772469,43.960884 
	C107.044350,43.309307 109.339615,42.723640 111.562920,41.935116 
	C111.896408,41.816841 111.893059,40.748840 112.831718,40.018257 
	C115.375595,38.945347 117.919464,37.872437 120.463341,36.799526 
	C116.092842,32.793274 112.477051,33.943764 108.131065,36.003460 
	C106.065842,36.626972 104.000618,37.250484 101.345833,37.953445 
	C100.949249,37.952045 100.552666,37.950645 99.934402,37.433849 
	C99.569092,37.605152 99.203789,37.776455 98.393097,37.976582 
M122.812691,69.011223 
	C125.206970,69.613983 127.601250,70.216751 130.722488,71.190063 
	C139.009232,73.770554 150.504562,73.794769 155.450363,70.668861 
	C150.747620,70.033989 146.806519,69.563522 142.886765,68.955536 
	C138.927368,68.341400 134.989105,67.590950 130.988098,66.170372 
	C127.006050,60.705326 121.768799,60.634560 115.073555,65.994247 
	C112.736328,65.983345 110.391556,65.864258 108.066422,66.026550 
	C107.355774,66.076157 106.699081,66.898781 106.017685,67.367393 
	C106.632515,68.216156 107.268692,69.812317 107.858803,69.795464 
	C112.583237,69.660530 117.298958,69.220665 122.812691,69.011223 
z"/>
<path fill="#D0C9C3" opacity="1.000000" stroke="none" 
	d="
M69.967834,30.101326 
	C67.882889,29.996490 65.797951,29.891657 63.343719,29.504940 
	C62.554642,28.711721 62.134853,28.200382 61.715065,27.689043 
	C61.849037,28.474634 61.983013,29.260227 62.116985,30.045818 
	C60.307827,31.365953 58.680023,33.293396 56.657043,33.897495 
	C49.251999,36.108772 41.738655,36.922146 33.983391,35.168015 
	C29.869917,34.237606 25.494219,34.524357 21.293999,33.885956 
	C19.955559,33.682522 18.800940,32.269672 17.562208,31.410221 
	C17.782539,30.863846 18.002869,30.317469 18.223200,29.771093 
	C20.509504,30.183670 22.784767,30.863205 25.084202,30.958319 
	C31.745068,31.233839 38.425282,31.533031 45.077850,31.284994 
	C47.887928,31.180222 50.766079,29.992361 53.395031,28.811068 
	C55.715145,27.768545 57.639084,25.869217 59.919712,24.703943 
	C61.141422,24.079721 62.746426,24.205671 64.580635,24.402500 
	C65.696716,25.879421 66.294975,27.054531 67.158630,27.982708 
	C67.945343,28.828196 69.020065,29.405699 69.967834,30.101326 
z"/>
<path fill="#CAC3BC" opacity="1.000000" stroke="none" 
	d="
M70.092606,30.414768 
	C69.020065,29.405699 67.945343,28.828196 67.158630,27.982708 
	C66.294975,27.054531 65.696716,25.879421 64.988640,24.472034 
	C69.130409,23.542688 71.908783,25.341572 75.035454,28.137360 
	C78.444885,31.185982 83.221985,32.705059 87.776108,35.309650 
	C88.581940,36.547333 89.014542,37.366272 89.640030,38.550350 
	C88.100159,38.749260 87.004066,38.890846 85.907967,39.032433 
	C79.451027,38.582256 74.479576,35.325294 70.092606,30.414768 
z"/>
<path fill="#D7CDC1" opacity="1.000000" stroke="none" 
	d="
M131.041595,66.900215 
	C134.989105,67.590950 138.927368,68.341400 142.886765,68.955536 
	C146.806519,69.563522 150.747620,70.033989 155.450363,70.668861 
	C150.504562,73.794769 139.009232,73.770554 130.322906,70.728004 
	C130.296082,69.144035 130.668839,68.022125 131.041595,66.900215 
z"/>
<path fill="#C9C4BD" opacity="1.000000" stroke="none" 
	d="
M122.017349,68.874161 
	C117.298958,69.220665 112.583237,69.660530 107.858803,69.795464 
	C107.268692,69.812317 106.632515,68.216156 106.017685,67.367393 
	C106.699081,66.898781 107.355774,66.076157 108.066422,66.026550 
	C110.391556,65.864258 112.736328,65.983345 115.893127,65.986176 
	C118.921822,65.790489 121.130943,65.602882 124.016899,65.357803 
	C123.106621,66.958595 122.561989,67.916374 122.017349,68.874161 
z"/>
<path fill="#D9D2C9" opacity="1.000000" stroke="none" 
	d="
M122.415024,68.942688 
	C122.561989,67.916374 123.106621,66.958595 124.016899,65.357803 
	C121.130943,65.602882 118.921822,65.790489 116.303520,65.972260 
	C121.768799,60.634560 127.006050,60.705326 131.014847,66.535294 
	C130.668839,68.022125 130.296082,69.144035 129.959427,70.542732 
	C127.601250,70.216751 125.206970,69.613983 122.415024,68.942688 
z"/>
<path fill="#D0C9C2" opacity="1.000000" stroke="none" 
	d="
M86.066147,39.376251 
	C87.004066,38.890846 88.100159,38.749260 89.640030,38.550350 
	C89.014542,37.366272 88.581940,36.547333 88.076782,35.423870 
	C91.075348,36.082428 94.146461,37.045513 97.425552,38.353241 
	C96.547554,40.177254 95.440277,41.715187 98.548836,41.951088 
	C100.363983,42.088844 102.194664,42.021965 104.016632,42.341393 
	C104.011429,43.027958 104.007942,43.420277 104.004456,43.812595 
	C98.077751,42.448418 92.151039,41.084244 86.066147,39.376251 
z"/>
<path fill="#D3CFC9" opacity="1.000000" stroke="none" 
	d="
M104.388458,43.886742 
	C104.007942,43.420277 104.011429,43.027958 104.228516,42.101921 
	C103.606544,40.336796 102.770966,39.105396 101.935394,37.873993 
	C104.000618,37.250484 106.065842,36.626972 108.803940,36.142105 
	C110.333054,37.560555 111.189285,38.840366 112.045525,40.120178 
	C111.893059,40.748840 111.896408,41.816841 111.562920,41.935116 
	C109.339615,42.723640 107.044350,43.309307 104.388458,43.886742 
z"/>
<path fill="#DED7CA" opacity="1.000000" stroke="none" 
	d="
M112.438622,40.069218 
	C111.189285,38.840366 110.333054,37.560555 109.186501,36.117302 
	C112.477051,33.943764 116.092842,32.793274 120.463341,36.799526 
	C117.919464,37.872437 115.375595,38.945347 112.438622,40.069218 
z"/>
<path fill="#C0BFBC" opacity="1.000000" stroke="none" 
	d="
M101.640610,37.913719 
	C102.770966,39.105396 103.606544,40.336796 104.230240,41.807674 
	C102.194664,42.021965 100.363983,42.088844 98.548836,41.951088 
	C95.440277,41.715187 96.547554,40.177254 97.805290,38.418030 
	C97.977066,38.138176 98.393097,37.976582 98.945236,37.981102 
	C99.716942,37.973495 99.936508,37.961372 100.156082,37.949245 
	C100.552666,37.950645 100.949249,37.952045 101.640610,37.913719 
z"/>
<path fill="#CAC3BC" opacity="1.000000" stroke="none" 
	d="
M62.344963,30.015778 
	C61.983013,29.260227 61.849037,28.474634 61.715065,27.689043 
	C62.134853,28.200382 62.554642,28.711721 62.990410,29.527554 
	C63.006390,29.832047 62.572937,29.985739 62.344963,30.015778 
z"/>
<path fill="#D3CFC9" opacity="1.000000" stroke="none" 
	d="
M100.045242,37.691547 
	C99.936508,37.961372 99.716942,37.973495 99.167931,37.966690 
	C99.203789,37.776455 99.569092,37.605152 100.045242,37.691547 
z"/>
</svg>