<svg version="1.1" id="Layer_1" xmlns="http://www.w3.org/2000/svg" xmlns:xlink="http://www.w3.org/1999/xlink" x="0px" y="0px"
	 width="100%" viewBox="0 0 193 88" enable-background="new 0 0 193 88" xml:space="preserve">
<path fill="#ffffff" opacity="000000" stroke="none" 
	d="
M118.000000,89.000000 
	C78.666679,89.000000 39.833351,89.000000 1.000021,89.000000 
	C1.000014,59.666683 1.000014,30.333366 1.000007,1.000036 
	C65.333305,1.000024 129.666611,1.000024 193.999939,1.000012 
	C193.999954,30.333296 193.999954,59.666592 193.999969,88.999939 
	C168.833328,89.000000 143.666672,89.000000 118.000000,89.000000 
M55.562004,22.959538 
	C55.765945,22.657145 55.969887,22.354753 56.086456,22.055622 
	C56.086456,22.055622 56.097321,22.142378 56.722904,21.834082 
	C58.813473,19.832790 60.904041,17.831501 63.716743,15.978904 
	C69.939453,22.900000 78.384445,24.567064 87.732803,25.976347 
	C88.477722,26.012897 89.222641,26.049448 90.404678,26.804117 
	C93.270325,26.822723 96.135979,26.841330 99.840759,27.000011 
	C106.209991,25.723530 112.579224,24.447048 118.955391,23.169176 
	C118.417992,19.880560 116.334785,18.453115 113.057899,19.032372 
	C107.688934,19.981440 102.352432,21.114075 96.280266,22.021841 
	C94.230881,22.399067 92.181488,22.776293 89.659637,22.982220 
	C89.106682,22.711077 88.553719,22.439936 87.193298,22.022379 
	C81.448631,20.239618 74.903488,20.319605 70.653557,15.044870 
	C69.068306,13.077366 67.629181,10.992138 65.948303,8.451020 
	C65.638847,8.352574 65.329391,8.254128 64.353874,8.016726 
	C63.906647,8.070968 63.459419,8.125209 62.337959,8.211040 
	C58.516678,12.115137 54.695400,16.019234 50.947750,19.945581 
	C50.947750,19.945581 50.929165,19.870941 50.243103,19.978146 
	C49.118374,20.636543 47.993645,21.294941 46.408455,21.994802 
	C46.408455,21.994802 45.974781,22.155029 45.447598,22.100266 
	C45.261326,22.388437 45.075050,22.676611 44.054176,22.991613 
	C41.700546,23.382244 39.346916,23.772875 36.187481,24.008413 
	C34.876148,23.901230 32.980412,24.312284 32.349941,23.601322 
	C28.721014,19.509104 24.378174,22.192085 20.361307,21.961142 
	C17.258757,21.782766 16.608841,23.715738 17.026052,26.110880 
	C17.369171,28.080662 18.251785,29.956469 19.116961,32.534439 
	C21.188379,26.778046 23.335516,25.998259 28.980188,27.349726 
	C32.563450,28.207642 36.315582,28.360254 40.804749,28.988964 
	C44.549572,27.701023 48.294395,26.413084 52.691414,25.016457 
	C53.500454,24.369215 54.309494,23.721973 55.044689,23.055298 
	C55.044689,23.055298 55.030411,23.130308 55.562004,22.959538 
M95.626450,45.974636 
	C96.072136,46.009708 96.517815,46.044781 97.187035,46.633190 
	C97.756096,46.765541 98.325150,46.897892 99.048004,47.545006 
	C99.356178,47.658039 99.664352,47.771076 100.611794,48.038036 
	C101.048485,48.072685 101.485168,48.107334 102.343597,48.807785 
	C107.909874,48.580238 113.476158,48.352692 119.780083,48.033501 
	C121.865807,46.724350 123.951530,45.415203 126.651848,44.011436 
	C127.065872,44.024555 127.479889,44.037674 128.205704,44.680748 
	C129.120850,44.825981 130.036011,44.971218 131.198730,45.697491 
	C132.131042,46.082973 133.063370,46.468452 134.408173,47.010342 
	C134.408173,47.010342 134.847351,47.052170 135.048096,47.550137 
	C135.356964,47.648602 135.665833,47.747070 136.691177,47.987637 
	C137.421265,48.006310 138.151352,48.024982 139.187576,48.713104 
	C147.833145,54.282990 157.290466,54.211548 166.901794,52.508293 
	C168.995514,52.137260 170.942612,50.938805 173.262070,50.786259 
	C177.574753,54.260548 182.450684,54.476017 187.490021,53.745911 
	C187.678329,53.181664 187.866623,52.617413 188.054932,52.053165 
	C184.006180,50.436104 179.957428,48.819042 175.407013,47.119999 
	C175.233078,47.400826 175.059158,47.681652 174.268173,48.002937 
	C173.859344,47.963623 173.450531,47.924309 172.583588,47.146244 
	C164.758652,47.417542 156.933731,47.688839 148.800095,47.255329 
	C146.201782,46.544235 143.603470,45.833141 140.327835,44.819759 
	C137.544098,43.939312 134.760345,43.058865 131.312744,41.801830 
	C130.730362,38.470268 129.427872,36.517120 125.179306,39.226677 
	C121.419853,41.472168 117.660408,43.717659 113.114090,45.986191 
	C111.086006,45.619778 109.057915,45.253365 106.652748,44.202442 
	C104.725899,43.587971 102.834961,42.714676 100.860863,42.440811 
	C99.277496,42.221146 97.593254,42.728657 95.454430,43.012230 
	C95.293457,43.065876 95.132492,43.119526 94.298225,43.041595 
	C94.522697,43.970646 94.747177,44.899693 95.626450,45.974636 
z"/>
<path fill="#C1BEBB" opacity="1.000000" stroke="none" 
	d="
M172.957230,50.121437 
	C170.942612,50.938805 168.995514,52.137260 166.901794,52.508293 
	C157.290466,54.211548 147.833145,54.282990 139.390289,48.380787 
	C141.391983,47.710400 143.190979,47.372330 145.318726,47.170635 
	C146.801239,47.524719 147.955017,47.742428 149.108795,47.960136 
	C156.933731,47.688839 164.758652,47.417542 172.799377,47.888359 
	C172.995850,49.127460 172.976532,49.624451 172.957230,50.121437 
z"/>
<path fill="#C7C0B6" opacity="1.000000" stroke="none" 
	d="
M66.123421,8.960590 
	C67.629181,10.992138 69.068306,13.077366 70.653557,15.044870 
	C74.903488,20.319605 81.448631,20.239618 87.541367,22.407612 
	C87.593430,23.804409 87.297424,24.815971 87.001411,25.827536 
	C78.384445,24.567064 69.939453,22.900000 63.356461,15.479803 
	C63.001514,12.713617 63.006855,10.446534 63.012192,8.179450 
	C63.459419,8.125209 63.906647,8.070968 64.844727,8.253465 
	C65.576485,8.683362 65.839096,8.840158 66.123421,8.960590 
z"/>
<path fill="#C6C3BD" opacity="1.000000" stroke="none" 
	d="
M39.991982,28.829163 
	C36.315582,28.360254 32.563450,28.207642 28.980188,27.349726 
	C23.335516,25.998259 21.188379,26.778046 19.116961,32.534439 
	C18.251785,29.956469 17.369171,28.080662 17.026052,26.110880 
	C16.608841,23.715738 17.258757,21.782766 20.361307,21.961142 
	C24.378174,22.192085 28.721014,19.509104 32.349941,23.601322 
	C32.980412,24.312284 34.876148,23.901230 36.613548,24.418571 
	C38.023739,26.162209 39.007858,27.495686 39.991982,28.829163 
z"/>
<path fill="#C8C2B8" opacity="1.000000" stroke="none" 
	d="
M97.002235,22.169291 
	C102.352432,21.114075 107.688934,19.981440 113.057899,19.032372 
	C116.334785,18.453115 118.417992,19.880560 118.955391,23.169176 
	C112.579224,24.447048 106.209991,25.723530 99.399948,26.599964 
	C98.306831,24.856377 97.654533,23.512833 97.002235,22.169291 
z"/>
<path fill="#C2B8B1" opacity="1.000000" stroke="none" 
	d="
M40.398365,28.909063 
	C39.007858,27.495686 38.023739,26.162209 37.016453,24.496119 
	C39.346916,23.772875 41.700546,23.382244 44.669800,22.866371 
	C45.557930,22.596014 45.787716,22.400646 45.974781,22.155029 
	C45.974781,22.155029 46.408455,21.994802 47.017250,21.982140 
	C48.727081,21.269966 49.828125,20.570454 50.929165,19.870941 
	C50.929165,19.870941 50.947750,19.945581 51.263237,19.936132 
	C52.799950,19.542507 54.021172,19.158331 55.516483,18.687933 
	C55.727234,19.941351 55.912277,21.041864 56.097321,22.142378 
	C56.097321,22.142378 56.086456,22.055622 55.906731,22.197212 
	C55.494808,22.602636 55.262611,22.866472 55.030411,23.130308 
	C55.030411,23.130308 55.044689,23.055298 54.726761,23.064686 
	C53.618961,23.757761 52.829090,24.441452 52.039215,25.125145 
	C48.294395,26.413084 44.549572,27.701023 40.398365,28.909063 
z"/>
<path fill="#D1C6B6" opacity="1.000000" stroke="none" 
	d="
M56.410110,21.988230 
	C55.912277,21.041864 55.727234,19.941351 55.516483,18.687933 
	C54.021172,19.158331 52.799950,19.542507 51.226421,19.925007 
	C54.695400,16.019234 58.516678,12.115137 62.675076,8.195246 
	C63.006855,10.446534 63.001514,12.713617 62.995392,15.405456 
	C60.904041,17.831501 58.813473,19.832790 56.410110,21.988230 
z"/>
<path fill="#CAC3BC" opacity="1.000000" stroke="none" 
	d="
M173.109650,50.453850 
	C172.976532,49.624451 172.995850,49.127460 173.028442,48.257732 
	C173.450531,47.924309 173.859344,47.963623 174.776215,47.897713 
	C175.536972,47.642803 175.745117,47.445965 175.908676,47.201981 
	C179.957428,48.819042 184.006180,50.436104 188.054932,52.053165 
	C187.866623,52.617413 187.678329,53.181664 187.490021,53.745911 
	C182.450684,54.476017 177.574753,54.260548 173.109650,50.453850 
z"/>
<path fill="#C0BCB8" opacity="1.000000" stroke="none" 
	d="
M113.900955,45.963146 
	C117.660408,43.717659 121.419853,41.472168 125.828232,39.172646 
	C126.330528,40.781097 126.183899,42.443573 126.037262,44.106049 
	C123.951530,45.415203 121.865807,46.724350 119.288345,47.723854 
	C117.164726,46.930523 115.532845,46.446835 113.900955,45.963146 
z"/>
<path fill="#BEBCB9" opacity="1.000000" stroke="none" 
	d="
M113.507523,45.974670 
	C115.532845,46.446835 117.164726,46.930523 118.919525,47.769680 
	C113.476158,48.352692 107.909874,48.580238 102.399170,48.227402 
	C103.979774,46.726994 105.504799,45.806973 107.029831,44.886951 
	C109.057915,45.253365 111.086006,45.619778 113.507523,45.974670 
z"/>
<path fill="#C0BCB8" opacity="1.000000" stroke="none" 
	d="
M144.989975,47.034264 
	C143.190979,47.372330 141.391983,47.710400 139.237213,48.046059 
	C138.151352,48.024982 137.421265,48.006310 136.171906,47.749249 
	C135.405762,47.320095 135.137344,47.167198 134.847351,47.052170 
	C134.847351,47.052170 134.408173,47.010342 134.181549,46.603859 
	C132.953674,45.837070 131.952423,45.476765 130.951157,45.116455 
	C130.036011,44.971218 129.120850,44.825981 128.345779,44.230385 
	C129.649445,43.246151 130.813019,42.712284 131.976608,42.178421 
	C134.760345,43.058865 137.544098,43.939312 140.779877,45.294868 
	C142.484604,46.191402 143.737289,46.612835 144.989975,47.034264 
z"/>
<path fill="#ACABAB" opacity="1.000000" stroke="none" 
	d="
M106.841293,44.544697 
	C105.504799,45.806973 103.979774,46.726994 102.188301,47.894501 
	C101.485168,48.107334 101.048485,48.072685 100.146362,47.780441 
	C99.434288,47.333736 99.172050,47.169533 98.894211,47.030243 
	C98.325150,46.897892 97.756096,46.765541 97.050415,46.021881 
	C96.593781,44.578201 96.273781,43.745834 95.953781,42.913467 
	C97.593254,42.728657 99.277496,42.221146 100.860863,42.440811 
	C102.834961,42.714676 104.725899,43.587971 106.841293,44.544697 
z"/>
<path fill="#C7C0B6" opacity="1.000000" stroke="none" 
	d="
M96.641251,22.095566 
	C97.654533,23.512833 98.306831,24.856377 98.980377,26.529926 
	C96.135979,26.841330 93.270325,26.822723 90.211868,25.956236 
	C90.056732,24.456741 90.094414,23.805130 90.132103,23.153519 
	C92.181488,22.776293 94.230881,22.399067 96.641251,22.095566 
z"/>
<path fill="#C7C3BD" opacity="1.000000" stroke="none" 
	d="
M131.644684,41.990124 
	C130.813019,42.712284 129.649445,43.246151 128.189880,43.915405 
	C127.479889,44.037674 127.065872,44.024555 126.344559,44.058743 
	C126.183899,42.443573 126.330528,40.781097 126.157730,39.030270 
	C129.427872,36.517120 130.730362,38.470268 131.644684,41.990124 
z"/>
<path fill="#C7C3BD" opacity="1.000000" stroke="none" 
	d="
M145.318726,47.170639 
	C143.737289,46.612835 142.484604,46.191402 141.118530,45.446011 
	C143.603470,45.833141 146.201782,46.544235 148.954437,47.607735 
	C147.955017,47.742428 146.801239,47.524719 145.318726,47.170639 
z"/>
<path fill="#C8C2B8" opacity="1.000000" stroke="none" 
	d="
M89.895874,23.067867 
	C90.094414,23.805130 90.056732,24.456741 89.993301,25.597176 
	C89.222641,26.049448 88.477722,26.012897 87.367111,25.901941 
	C87.297424,24.815971 87.593430,23.804409 87.945099,22.480820 
	C88.553719,22.439936 89.106682,22.711077 89.895874,23.067867 
z"/>
<path fill="#C7C3BD" opacity="1.000000" stroke="none" 
	d="
M131.074951,45.406975 
	C131.952423,45.476765 132.953674,45.837070 133.975311,46.525658 
	C133.063370,46.468452 132.131042,46.082973 131.074951,45.406975 
z"/>
<path fill="#D1C6B6" opacity="1.000000" stroke="none" 
	d="
M50.586136,19.924543 
	C49.828125,20.570454 48.727081,21.269966 47.247478,21.961407 
	C47.993645,21.294941 49.118374,20.636543 50.586136,19.924543 
z"/>
<path fill="#989596" opacity="1.000000" stroke="none" 
	d="
M95.704102,42.962845 
	C96.273781,43.745834 96.593781,44.578201 96.938644,45.745209 
	C96.517815,46.044781 96.072136,46.009708 95.301689,45.569748 
	C94.975121,44.500965 94.973320,43.837070 94.971519,43.173172 
	C95.132492,43.119526 95.293457,43.065876 95.704102,42.962845 
z"/>
<path fill="#B2ADA9" opacity="1.000000" stroke="none" 
	d="
M94.634872,43.107384 
	C94.973320,43.837070 94.975121,44.500965 94.974289,45.496803 
	C94.747177,44.899693 94.522697,43.970646 94.634872,43.107384 
z"/>
<path fill="#D1C6B6" opacity="1.000000" stroke="none" 
	d="
M52.365314,25.070801 
	C52.829090,24.441452 53.618961,23.757761 54.763680,23.074402 
	C54.309494,23.721973 53.500454,24.369215 52.365314,25.070801 
z"/>
<path fill="#D1C6B6" opacity="1.000000" stroke="none" 
	d="
M45.711189,22.127647 
	C45.787716,22.400646 45.557930,22.596014 45.087101,22.852957 
	C45.075050,22.676611 45.261326,22.388437 45.711189,22.127647 
z"/>
<path fill="#C1BEBB" opacity="1.000000" stroke="none" 
	d="
M175.657837,47.160988 
	C175.745117,47.445965 175.536972,47.642803 175.084747,47.877487 
	C175.059158,47.681652 175.233078,47.400826 175.657837,47.160988 
z"/>
<path fill="#D1C6B6" opacity="1.000000" stroke="none" 
	d="
M66.035858,8.705806 
	C65.839096,8.840158 65.576485,8.683362 65.177757,8.322943 
	C65.329391,8.254128 65.638847,8.352574 66.035858,8.705806 
z"/>
<path fill="#C7C3BD" opacity="1.000000" stroke="none" 
	d="
M134.947723,47.301155 
	C135.137344,47.167198 135.405762,47.320095 135.813660,47.678200 
	C135.665833,47.747070 135.356964,47.648602 134.947723,47.301155 
z"/>
<path fill="#BEBCB9" opacity="1.000000" stroke="none" 
	d="
M98.971107,47.287624 
	C99.172050,47.169533 99.434288,47.333736 99.826729,47.703476 
	C99.664352,47.771076 99.356178,47.658039 98.971107,47.287624 
z"/>
<path fill="#D1C6B6" opacity="1.000000" stroke="none" 
	d="
M55.296207,23.044922 
	C55.262611,22.866472 55.494808,22.602636 55.950417,22.195581 
	C55.969887,22.354753 55.765945,22.657145 55.296207,23.044922 
z"/>
</svg>