<svg version="1.1" id="Layer_1" xmlns="http://www.w3.org/2000/svg" xmlns:xlink="http://www.w3.org/1999/xlink" x="0px" y="0px"
	 width="100%" viewBox="0 0 122 55" enable-background="new 0 0 122 55" xml:space="preserve">
<path fill="#ffffff" opacity="000000" stroke="none" 
	d="
M81.000000,56.000000 
	C54.000004,56.000000 27.500010,56.000000 1.000011,56.000000 
	C1.000007,37.666676 1.000007,19.333349 1.000004,1.000018 
	C41.666653,1.000012 82.333305,1.000012 122.999969,1.000006 
	C122.999977,19.333315 122.999977,37.666630 122.999985,55.999969 
	C109.166664,56.000000 95.333336,56.000000 81.000000,56.000000 
M16.930788,20.967690 
	C16.930788,20.967690 16.907192,20.903921 16.258652,21.292484 
	C16.200577,22.486416 16.142500,23.680347 16.077225,25.022264 
	C17.626265,24.619869 18.780249,24.320099 20.030828,24.795122 
	C22.686831,24.475477 25.342831,24.155832 28.777920,23.988449 
	C31.640408,23.933596 34.468990,23.824423 35.624496,19.862803 
	C36.416286,19.181700 37.208076,18.500597 38.476620,17.970884 
	C38.636982,18.016542 38.797348,18.062201 39.188171,18.695368 
	C39.791870,18.741652 40.395573,18.787937 41.711926,18.982298 
	C45.776295,22.000509 49.840664,25.018723 54.315899,28.776104 
	C57.899548,28.237726 61.483192,27.699348 65.725136,27.048868 
	C66.486710,26.658333 67.248291,26.267799 68.665253,26.015324 
	C69.106941,25.969105 69.548630,25.922888 70.650497,26.182526 
	C75.269547,30.522186 81.285370,30.244894 87.360649,31.816988 
	C90.238770,32.173698 93.116882,32.530411 96.833580,33.034180 
	C104.387924,35.767868 113.924332,33.273491 114.814880,28.120771 
	C111.191833,28.120771 107.601387,28.120771 103.341324,27.978632 
	C102.889938,28.026413 102.438560,28.074194 101.445053,27.918116 
	C100.970169,27.671305 100.495285,27.424494 99.274307,27.269827 
	C97.843292,27.563198 96.412270,27.856569 94.214897,28.005165 
	C92.489792,27.630648 90.764687,27.256130 88.898819,26.377510 
	C88.592400,26.297773 88.285980,26.218035 87.249222,25.995865 
	C86.510147,26.044596 85.771080,26.093325 84.349541,25.877171 
	C78.955803,26.089993 75.051865,23.272240 71.176315,19.938316 
	C70.212402,19.109112 67.754120,20.017035 65.446701,20.066809 
	C65.245193,20.354406 65.043686,20.642006 64.917450,20.936062 
	C64.917450,20.936062 64.909203,20.860975 64.252769,21.188835 
	C61.170212,22.180965 58.087658,23.173096 54.295120,24.018843 
	C53.195671,22.926643 51.895214,21.973122 51.030136,20.719225 
	C46.226704,13.756829 37.577805,11.041421 31.355970,15.050035 
	C30.868334,15.687581 30.380699,16.325127 29.204924,17.022209 
	C28.863129,17.681124 28.521332,18.340040 27.800844,19.620686 
	C25.498268,19.733940 23.195690,19.847195 20.446865,20.024544 
	C20.446865,20.024544 20.014610,20.152599 19.343203,19.991243 
	C18.887842,20.035511 18.432484,20.079779 17.440212,20.088917 
	C17.247768,20.380707 17.055325,20.672497 16.930788,20.967690 
z"/>
<path fill="#C9C1B7" opacity="1.000000" stroke="none" 
	d="
M86.954102,31.114872 
	C81.285370,30.244894 75.269547,30.522186 70.267181,25.772514 
	C69.259201,25.534090 68.634537,25.705677 68.009865,25.877264 
	C67.248291,26.267799 66.486710,26.658333 65.382149,26.655128 
	C64.995842,24.461250 64.952522,22.661112 64.909203,20.860975 
	C64.909203,20.860975 64.917450,20.936062 65.095634,20.835690 
	C65.569267,20.601246 65.805565,20.398306 65.982719,20.126499 
	C67.754120,20.017035 70.212402,19.109112 71.176315,19.938316 
	C75.051865,23.272240 78.955803,26.089993 84.898323,26.201889 
	C86.291260,26.397171 87.135406,26.267735 87.979561,26.138298 
	C88.285980,26.218035 88.592400,26.297773 88.947388,26.981770 
	C88.315338,28.762310 87.634720,29.938591 86.954102,31.114872 
z"/>
<path fill="#CFC8BD" opacity="1.000000" stroke="none" 
	d="
M53.905033,28.036938 
	C49.840664,25.018723 45.776295,22.000509 41.292091,18.653671 
	C40.234074,18.252649 39.595898,18.180254 38.957718,18.107861 
	C38.797348,18.062201 38.636982,18.016542 38.212479,17.550323 
	C36.966625,16.419632 35.984917,15.709505 34.716301,15.042742 
	C33.952454,15.390716 33.475510,15.695324 32.786125,15.839706 
	C32.359623,15.398416 32.145569,15.117349 31.931515,14.836281 
	C37.577805,11.041421 46.226704,13.756829 51.030136,20.719225 
	C51.895214,21.973122 53.195671,22.926643 54.647835,24.444969 
	C54.635376,25.926378 54.270206,26.981657 53.905033,28.036938 
z"/>
<path fill="#D4C7B7" opacity="1.000000" stroke="none" 
	d="
M104.010948,28.120771 
	C107.601387,28.120771 111.191833,28.120771 114.814880,28.120771 
	C113.924332,33.273491 104.387924,35.767868 96.465271,32.694046 
	C96.128952,32.175812 96.160934,31.997717 96.604225,31.871189 
	C99.305977,31.922756 101.596420,31.922756 104.010948,31.922756 
	C104.010948,30.391806 104.010948,29.256289 104.010948,28.120771 
z"/>
<path fill="#D5CEC3" opacity="1.000000" stroke="none" 
	d="
M54.110466,28.406521 
	C54.270206,26.981657 54.635376,25.926378 55.002823,24.518162 
	C58.087658,23.173096 61.170212,22.180965 64.580986,21.024906 
	C64.952522,22.661112 64.995842,24.461250 65.053001,26.711178 
	C61.483192,27.699348 57.899548,28.237726 54.110466,28.406521 
M61.533985,27.502769 
	C61.533985,27.502769 61.487919,27.520697 61.533985,27.502769 
z"/>
<path fill="#C5C3BF" opacity="1.000000" stroke="none" 
	d="
M20.893116,19.960451 
	C23.195690,19.847195 25.498268,19.733940 28.371906,19.309843 
	C29.961201,19.000113 30.979429,19.001226 31.912285,19.321579 
	C30.550886,21.039272 29.274860,22.437729 27.998833,23.836187 
	C25.342831,24.155832 22.686831,24.475477 20.311096,24.322865 
	C20.691950,22.553886 20.792532,21.257170 20.893116,19.960451 
z"/>
<path fill="#D4CCC2" opacity="1.000000" stroke="none" 
	d="
M96.192917,31.819622 
	C96.160934,31.997717 96.128952,32.175812 96.045982,32.620518 
	C93.116882,32.530411 90.238770,32.173698 87.157379,31.465931 
	C87.634720,29.938591 88.315338,28.762310 89.017761,27.233822 
	C90.764687,27.256130 92.489792,27.630648 94.663811,28.395506 
	C95.472786,29.797106 95.832848,30.808365 96.192917,31.819622 
z"/>
<path fill="#BEB6AD" opacity="1.000000" stroke="none" 
	d="
M96.604225,31.871189 
	C95.832848,30.808365 95.472786,29.797106 95.046989,28.467896 
	C96.412270,27.856569 97.843292,27.563198 99.660408,27.516273 
	C100.313881,28.288990 100.581261,28.815260 100.848640,29.341530 
	C101.228149,28.935011 101.607658,28.528494 101.987175,28.121975 
	C102.438560,28.074194 102.889938,28.026413 103.676132,28.049702 
	C104.010948,29.256289 104.010948,30.391806 104.010948,31.922756 
	C101.596420,31.922756 99.305977,31.922756 96.604225,31.871189 
z"/>
<path fill="#C9C5BC" opacity="1.000000" stroke="none" 
	d="
M28.388378,23.912319 
	C29.274860,22.437729 30.550886,21.039272 31.913504,19.320341 
	C32.000095,18.999866 32.003658,18.996342 32.378483,18.998409 
	C33.503273,19.001894 34.253239,19.003311 35.011604,19.274776 
	C35.023914,19.724895 35.027821,19.904972 35.031731,20.085047 
	C34.468990,23.824423 31.640408,23.933596 28.388378,23.912319 
z"/>
<path fill="#BAB6B1" opacity="1.000000" stroke="none" 
	d="
M20.669991,19.992496 
	C20.792532,21.257170 20.691950,22.553886 20.262800,23.935467 
	C18.780249,24.320099 17.626265,24.619869 16.077225,25.022264 
	C16.142500,23.680347 16.200577,22.486416 16.663353,21.387243 
	C18.050238,21.038868 19.032425,20.595734 20.014610,20.152599 
	C20.014610,20.152599 20.446865,20.024544 20.669991,19.992496 
z"/>
<path fill="#D0C9BF" opacity="1.000000" stroke="none" 
	d="
M35.328114,19.973925 
	C35.027821,19.904972 35.023914,19.724895 35.010715,18.940102 
	C35.000420,17.889236 34.999416,17.443092 34.999306,16.664024 
	C35.001198,15.887193 35.002201,15.443284 35.003204,14.999376 
	C35.984917,15.709505 36.966625,16.419632 37.974098,17.474628 
	C37.208076,18.500597 36.416286,19.181700 35.328114,19.973925 
z"/>
<path fill="#C9C5BC" opacity="1.000000" stroke="none" 
	d="
M31.998878,19.001102 
	C30.979429,19.001226 29.961201,19.000113 28.561253,18.998978 
	C28.521332,18.340040 28.863129,17.681124 29.847355,17.041782 
	C30.993849,17.370220 31.497908,17.679087 32.001476,18.240128 
	C32.001877,18.660315 32.002769,18.828329 32.003658,18.996342 
	C32.003658,18.996342 32.000095,18.999866 31.998878,19.001102 
z"/>
<path fill="#A6A4A3" opacity="1.000000" stroke="none" 
	d="
M19.678905,20.071922 
	C19.032425,20.595734 18.050238,21.038868 16.987621,21.192963 
	C16.907192,20.903921 16.930788,20.967690 17.107431,20.857651 
	C17.578856,20.610611 17.809872,20.402756 17.977123,20.124046 
	C18.432484,20.079779 18.887842,20.035511 19.678905,20.071922 
z"/>
<path fill="#D4C7B7" opacity="1.000000" stroke="none" 
	d="
M101.716110,28.020046 
	C101.607658,28.528494 101.228149,28.935011 100.848640,29.341530 
	C100.581261,28.815260 100.313881,28.288990 100.033455,27.470201 
	C100.495285,27.424494 100.970169,27.671305 101.716110,28.020046 
z"/>
<path fill="#D0C9BF" opacity="1.000000" stroke="none" 
	d="
M32.001968,17.987953 
	C31.497908,17.679087 30.993849,17.370220 30.191425,17.012012 
	C30.380699,16.325127 30.868334,15.687581 31.643742,14.943158 
	C32.145569,15.117349 32.359623,15.398416 32.786926,16.089960 
	C33.000969,16.667273 33.001762,16.834105 32.869881,17.197960 
	C32.532410,17.642576 32.287327,17.840233 32.001968,17.987953 
z"/>
<path fill="#D5CEC3" opacity="1.000000" stroke="none" 
	d="
M68.337555,25.946293 
	C68.634537,25.705677 69.259201,25.534090 69.937096,25.619587 
	C69.548630,25.922888 69.106941,25.969105 68.337555,25.946293 
z"/>
<path fill="#D0C9BF" opacity="1.000000" stroke="none" 
	d="
M39.072945,18.401615 
	C39.595898,18.180254 40.234074,18.252649 40.935760,18.579634 
	C40.395573,18.787937 39.791870,18.741652 39.072945,18.401615 
z"/>
<path fill="#D4CCC2" opacity="1.000000" stroke="none" 
	d="
M87.614395,26.067081 
	C87.135406,26.267735 86.291260,26.397171 85.239555,26.334332 
	C85.771080,26.093325 86.510147,26.044596 87.614395,26.067081 
z"/>
<path fill="#D5CEC3" opacity="1.000000" stroke="none" 
	d="
M65.714706,20.096653 
	C65.805565,20.398306 65.569267,20.601246 65.057999,20.832462 
	C65.043686,20.642006 65.245193,20.354406 65.714706,20.096653 
z"/>
<path fill="#BAB6B1" opacity="1.000000" stroke="none" 
	d="
M17.708668,20.106482 
	C17.809872,20.402756 17.578856,20.610611 17.073479,20.855949 
	C17.055325,20.672497 17.247768,20.380707 17.708668,20.106482 
z"/>
<path fill="#C9C5BC" opacity="1.000000" stroke="none" 
	d="
M33.002552,17.000938 
	C33.001762,16.834105 33.000969,16.667273 32.999374,16.250185 
	C33.475510,15.695324 33.952454,15.390716 34.716301,15.042742 
	C35.002201,15.443284 35.001198,15.887193 34.666664,16.664822 
	C33.889603,16.999344 33.446079,17.000141 33.002552,17.000938 
z"/>
<path fill="#C9C1B7" opacity="1.000000" stroke="none" 
	d="
M61.510952,27.511734 
	C61.487919,27.520697 61.533985,27.502769 61.510952,27.511734 
z"/>
<path fill="#C5C3BF" opacity="1.000000" stroke="none" 
	d="
M32.869881,17.197960 
	C33.446079,17.000141 33.889603,16.999344 34.665771,16.997746 
	C34.999416,17.443092 35.000420,17.889236 35.002312,18.670055 
	C34.253239,19.003311 33.503273,19.001894 32.378483,18.998409 
	C32.002769,18.828329 32.001877,18.660315 32.001476,18.240128 
	C32.287327,17.840233 32.532410,17.642576 32.869881,17.197960 
z"/>
</svg>