<svg version="1.1" id="Layer_1" xmlns="http://www.w3.org/2000/svg" xmlns:xlink="http://www.w3.org/1999/xlink" x="0px" y="0px"
	 width="100%" viewBox="0 0 220 68" enable-background="new 0 0 220 68" xml:space="preserve">
<path fill="#ffffff" opacity="000000" stroke="none" 
	d="
M156.000000,69.000000 
	C104.000008,69.000000 52.500011,69.000000 1.000014,69.000000 
	C1.000009,46.333344 1.000009,23.666685 1.000005,1.000020 
	C74.333321,1.000013 147.666641,1.000013 220.999969,1.000007 
	C220.999969,23.666647 220.999969,46.333294 220.999985,68.999969 
	C199.500000,69.000000 178.000000,69.000000 156.000000,69.000000 
M67.917847,55.154369 
	C67.917847,55.154369 67.881012,55.101643 67.268463,54.966942 
	C65.914749,54.166157 64.190636,53.661510 63.272144,52.512745 
	C59.516735,47.815845 52.971870,46.365093 47.817978,50.607349 
	C44.110504,53.659035 40.091812,55.931583 34.296646,55.025486 
	C33.195705,55.411934 32.094761,55.798386 30.332321,55.856689 
	C27.801140,54.678024 25.269958,53.499355 22.738775,52.320686 
	C22.489061,52.859692 22.239346,53.398693 21.989632,53.937698 
	C23.886841,57.435631 27.191690,58.551708 31.805836,58.985920 
	C35.312565,62.227875 39.123089,61.519867 43.743694,59.998707 
	C46.682240,58.343231 49.472836,56.254017 52.610939,55.183563 
	C54.730797,54.460453 57.522678,54.637165 59.686230,55.373867 
	C62.621422,56.373318 65.243195,58.293217 68.724472,60.179688 
	C70.807861,60.378956 72.891251,60.578220 75.729385,60.905815 
	C81.809822,60.360859 88.185837,62.206238 94.034096,59.783714 
	C93.992722,58.916779 93.951355,58.049839 93.909981,57.182899 
	C87.609833,57.182899 81.309692,57.182899 74.241493,57.027416 
	C72.538666,56.668385 70.835846,56.309357 69.026375,55.512070 
	C68.649208,55.375648 68.272041,55.239227 67.917847,55.154369 
M155.786758,26.258505 
	C154.968475,25.118069 154.314194,23.798189 153.300461,22.871580 
	C150.503036,20.314583 148.792740,21.014891 147.142792,24.996960 
	C146.753250,25.971121 146.363693,26.945284 145.525711,28.014668 
	C145.525711,28.014668 145.069031,27.974810 144.932404,27.455763 
	C144.624878,27.368017 144.317352,27.280272 143.342392,27.053137 
	C142.891205,27.081120 142.440018,27.109102 141.214157,26.984535 
	C140.276184,27.222639 139.338196,27.460743 138.313446,27.089464 
	C137.916565,27.104553 137.519684,27.119644 136.597778,27.013708 
	C136.066055,27.060688 135.534348,27.107668 134.296875,26.810604 
	C130.144760,25.540171 125.992653,24.269739 121.839020,22.318108 
	C120.784271,21.258722 119.742836,20.185690 118.672462,19.142332 
	C114.236107,14.817953 111.380493,14.999950 106.322960,20.163393 
	C105.198639,22.065685 104.074326,23.967978 102.221642,25.987535 
	C96.475670,30.597385 90.713905,32.126385 83.446564,28.515369 
	C80.963966,27.281811 76.262871,24.661451 72.128677,29.757708 
	C76.683525,31.385485 80.828896,32.425201 84.555702,34.297901 
	C90.812393,37.441853 96.422989,36.173176 102.705246,32.840687 
	C105.602707,30.610638 109.530724,29.011070 108.807419,24.016191 
	C112.925072,21.201876 116.152359,22.639723 119.285133,26.801870 
	C124.813957,28.216316 130.342789,29.630760 136.181534,31.744223 
	C139.007294,32.495331 141.833038,33.246441 144.658798,33.997551 
	C144.795486,33.339073 144.932159,32.680595 145.700577,31.757263 
	C145.809204,30.860317 145.917831,29.963373 146.767807,28.988840 
	C147.510345,28.950478 148.252899,28.912115 149.717224,29.026001 
	C150.452850,29.070021 151.188477,29.114038 152.244644,29.754206 
	C154.157745,30.770878 156.070831,31.787550 158.795181,32.965019 
	C161.208908,33.264297 163.622635,33.563576 166.880386,33.998394 
	C170.591965,34.279564 174.303558,34.560734 178.495514,34.977486 
	C178.495514,34.977486 178.977463,34.847626 179.423355,34.994576 
	C179.423355,34.994576 179.889725,35.048607 180.352615,35.795765 
	C186.630142,35.713375 193.095154,37.409134 199.634888,34.114895 
	C202.169083,33.500217 204.703278,32.885540 207.237488,32.270866 
	C203.971252,27.577551 200.935043,29.214201 196.983017,30.990103 
	C191.695129,31.056976 186.407257,31.123848 180.476120,31.003696 
	C176.684418,30.297899 172.892715,29.592104 169.060638,28.934265 
	C169.060638,28.934265 169.122711,28.925909 168.909470,28.433393 
	C168.548492,28.604387 168.187531,28.775381 167.109741,28.935419 
	C165.065002,29.015360 163.020264,29.095303 160.340317,28.876013 
	C158.907486,28.216753 157.474640,27.557493 155.786758,26.258505 
z"/>
<path fill="#C9C3B8" opacity="1.000000" stroke="none" 
	d="
M67.999390,59.818314 
	C65.243195,58.293217 62.621422,56.373318 59.686230,55.373867 
	C57.522678,54.637165 54.730797,54.460453 52.610939,55.183563 
	C49.472836,56.254017 46.682240,58.343231 43.359138,59.592884 
	C42.838745,56.489834 41.189079,56.067627 39.275932,57.188637 
	C36.586166,58.764709 35.801086,57.133945 35.008465,55.150711 
	C40.091812,55.931583 44.110504,53.659035 47.817978,50.607349 
	C52.971870,46.365093 59.516735,47.815845 63.272144,52.512745 
	C64.190636,53.661510 65.914749,54.166157 67.592789,55.506111 
	C67.944550,57.302956 67.971970,58.560635 67.999390,59.818314 
z"/>
<path fill="#C6C3BC" opacity="1.000000" stroke="none" 
	d="
M102.007004,32.876484 
	C96.422989,36.173176 90.812393,37.441853 84.555702,34.297901 
	C80.828896,32.425201 76.683525,31.385485 72.128677,29.757708 
	C76.262871,24.661451 80.963966,27.281811 83.446564,28.515369 
	C90.713905,32.126385 96.475670,30.597385 102.592598,26.328657 
	C102.644707,28.738680 102.325859,30.807581 102.007004,32.876484 
z"/>
<path fill="#C8C5C0" opacity="1.000000" stroke="none" 
	d="
M146.026459,29.066429 
	C145.917831,29.963373 145.809204,30.860317 145.049896,31.894230 
	C141.556686,31.702534 138.714157,31.373869 135.871613,31.045206 
	C130.342789,29.630760 124.813957,28.216316 119.175262,26.139763 
	C119.990448,24.651539 120.915489,23.825424 121.840538,22.999308 
	C125.992653,24.269739 130.144760,25.540171 134.661682,27.277317 
	C135.342773,28.159492 135.659058,28.574957 135.975342,28.990423 
	C136.357834,28.371862 136.740326,27.753300 137.122803,27.134735 
	C137.519684,27.119644 137.916565,27.104553 138.732117,27.452154 
	C140.096817,27.588924 141.042816,27.363003 141.988831,27.137083 
	C142.440018,27.109102 142.891205,27.081120 143.822510,27.291920 
	C144.517136,27.749443 144.772598,27.897478 145.069031,27.974810 
	C145.069031,27.974810 145.525711,28.014668 145.757050,28.254074 
	C146.001083,28.684462 146.013779,28.875444 146.026459,29.066429 
z"/>
<path fill="#C9C6C2" opacity="1.000000" stroke="none" 
	d="
M121.839783,22.658707 
	C120.915489,23.825424 119.990448,24.651539 119.006653,25.808586 
	C116.152359,22.639723 112.925072,21.201876 108.279488,23.723604 
	C107.486122,22.245405 107.220695,21.059793 106.955261,19.874184 
	C111.380493,14.999950 114.236107,14.817953 118.672462,19.142332 
	C119.742836,20.185690 120.784271,21.258722 121.839783,22.658707 
z"/>
<path fill="#C7C5C3" opacity="1.000000" stroke="none" 
	d="
M181.119370,31.190720 
	C186.407257,31.123848 191.695129,31.056976 197.675064,31.189056 
	C198.579376,32.201756 198.791656,33.015499 199.003922,33.829247 
	C193.095154,37.409134 186.630142,35.713375 180.385483,35.102863 
	C180.652023,33.336880 180.885696,32.263798 181.119370,31.190720 
z"/>
<path fill="#CEC9C1" opacity="1.000000" stroke="none" 
	d="
M75.009544,57.182899 
	C81.309692,57.182899 87.609833,57.182899 93.909981,57.182899 
	C93.951355,58.049839 93.992722,58.916779 94.034096,59.783714 
	C88.185837,62.206238 81.809822,60.360859 75.194016,60.668381 
	C74.775612,59.348267 74.892578,58.265583 75.009544,57.182899 
z"/>
<path fill="#C2C0C0" opacity="1.000000" stroke="none" 
	d="
M180.797745,31.097206 
	C180.885696,32.263798 180.652023,33.336880 180.154037,34.729286 
	C179.889725,35.048607 179.423355,34.994576 179.096481,34.816677 
	C178.476440,34.497993 178.224945,34.565701 178.015137,34.841904 
	C174.303558,34.560734 170.591965,34.279564 166.617416,33.677380 
	C167.686523,32.872128 169.018600,32.387894 170.337036,31.908615 
	C169.915451,30.877773 169.508240,29.882040 169.101013,28.886309 
	C172.892715,29.592104 176.684418,30.297899 180.797745,31.097206 
z"/>
<path fill="#BFBAB3" opacity="1.000000" stroke="none" 
	d="
M34.652557,55.088097 
	C35.801086,57.133945 36.586166,58.764709 39.275932,57.188637 
	C41.189079,56.067627 42.838745,56.489834 42.991188,59.517265 
	C39.123089,61.519867 35.312565,62.227875 31.400236,58.574749 
	C30.994364,57.503998 30.994091,56.844414 30.993818,56.184837 
	C32.094761,55.798386 33.195705,55.411934 34.652557,55.088097 
z"/>
<path fill="#ADADAF" opacity="1.000000" stroke="none" 
	d="
M169.080826,28.910286 
	C169.508240,29.882040 169.915451,30.877773 170.337036,31.908615 
	C169.018600,32.387894 167.686523,32.872128 166.195404,33.609612 
	C163.622635,33.563576 161.208908,33.264297 158.470978,32.583794 
	C159.089676,31.193457 160.032593,30.184347 160.975525,29.175243 
	C163.020264,29.095303 165.065002,29.015360 167.792465,28.952229 
	C168.691025,28.954662 168.906876,28.940285 169.122711,28.925909 
	C169.122711,28.925909 169.060638,28.934265 169.080826,28.910286 
z"/>
<path fill="#CFCCC6" opacity="1.000000" stroke="none" 
	d="
M106.639114,20.018787 
	C107.220695,21.059793 107.486122,22.245405 107.901215,23.767017 
	C109.530724,29.011070 105.602707,30.610638 102.356125,32.858585 
	C102.325859,30.807581 102.644707,28.738680 102.956787,26.270025 
	C104.074326,23.967978 105.198639,22.065685 106.639114,20.018787 
z"/>
<path fill="#AFAFB0" opacity="1.000000" stroke="none" 
	d="
M151.924103,29.158054 
	C151.188477,29.114038 150.452850,29.070021 149.360153,28.590401 
	C148.624832,27.083090 148.246582,26.011381 147.868332,24.939674 
	C148.792740,21.014891 150.503036,20.314583 153.300461,22.871580 
	C154.314194,23.798189 154.968475,25.118069 155.671616,26.823196 
	C154.345688,27.977943 153.134888,28.567999 151.924103,29.158054 
z"/>
<path fill="#D1CABF" opacity="1.000000" stroke="none" 
	d="
M199.319397,33.972069 
	C198.791656,33.015499 198.579376,32.201756 198.132156,31.169743 
	C200.935043,29.214201 203.971252,27.577551 207.237488,32.270866 
	C204.703278,32.885540 202.169083,33.500217 199.319397,33.972069 
z"/>
<path fill="#C8BFB1" opacity="1.000000" stroke="none" 
	d="
M30.663071,56.020760 
	C30.994091,56.844414 30.994364,57.503998 30.995171,58.493370 
	C27.191690,58.551708 23.886841,57.435631 21.989632,53.937698 
	C22.239346,53.398693 22.489061,52.859692 22.738775,52.320686 
	C25.269958,53.499355 27.801140,54.678024 30.663071,56.020760 
z"/>
<path fill="#C6C3BC" opacity="1.000000" stroke="none" 
	d="
M152.084381,29.456129 
	C153.134888,28.567999 154.345688,27.977943 155.799133,27.143061 
	C157.474640,27.557493 158.907486,28.216753 160.657928,29.025627 
	C160.032593,30.184347 159.089676,31.193457 158.065338,32.503395 
	C156.070831,31.787550 154.157745,30.770878 152.084381,29.456129 
z"/>
<path fill="#C5C0B7" opacity="1.000000" stroke="none" 
	d="
M74.625519,57.105156 
	C74.892578,58.265583 74.775612,59.348267 74.816635,60.604218 
	C72.891251,60.578220 70.807861,60.378956 68.361931,59.999001 
	C67.971970,58.560635 67.944550,57.302956 67.899063,55.573460 
	C67.881012,55.101643 67.917847,55.154369 68.201759,55.361275 
	C68.701447,55.695560 68.917229,55.822941 69.133018,55.950325 
	C70.835846,56.309357 72.538666,56.668385 74.625519,57.105156 
z"/>
<path fill="#CFCAC1" opacity="1.000000" stroke="none" 
	d="
M136.026581,31.394714 
	C138.714157,31.373869 141.556686,31.702534 144.734039,32.026657 
	C144.932159,32.680595 144.795486,33.339073 144.658798,33.997551 
	C141.833038,33.246441 139.007294,32.495331 136.026581,31.394714 
z"/>
<path fill="#BFBAB3" opacity="1.000000" stroke="none" 
	d="
M147.505554,24.968317 
	C148.246582,26.011381 148.624832,27.083090 148.999268,28.514275 
	C148.252899,28.912115 147.510345,28.950478 146.397125,29.027634 
	C146.013779,28.875444 146.001083,28.684462 145.981262,28.206463 
	C146.363693,26.945284 146.753250,25.971121 147.505554,24.968317 
z"/>
<path fill="#CFCAC1" opacity="1.000000" stroke="none" 
	d="
M136.860291,27.074223 
	C136.740326,27.753300 136.357834,28.371862 135.975342,28.990423 
	C135.659058,28.574957 135.342773,28.159492 135.014557,27.449337 
	C135.534348,27.107668 136.066055,27.060688 136.860291,27.074223 
z"/>
<path fill="#CFCAC1" opacity="1.000000" stroke="none" 
	d="
M141.601501,27.060808 
	C141.042816,27.363003 140.096817,27.588924 138.775513,27.756844 
	C139.338196,27.460743 140.276184,27.222639 141.601501,27.060808 
z"/>
<path fill="#C7C5C3" opacity="1.000000" stroke="none" 
	d="
M178.255325,34.909691 
	C178.224945,34.565701 178.476440,34.497993 178.873535,34.743202 
	C178.977463,34.847626 178.495514,34.977486 178.255325,34.909691 
z"/>
<path fill="#C9C3B8" opacity="1.000000" stroke="none" 
	d="
M69.079697,55.731197 
	C68.917229,55.822941 68.701447,55.695560 68.190277,55.335495 
	C68.272041,55.239227 68.649208,55.375648 69.079697,55.731197 
z"/>
<path fill="#C2C0C0" opacity="1.000000" stroke="none" 
	d="
M169.016083,28.679651 
	C168.906876,28.940285 168.691025,28.954662 168.150879,28.957706 
	C168.187531,28.775381 168.548492,28.604387 169.016083,28.679651 
z"/>
<path fill="#BFBAB3" opacity="1.000000" stroke="none" 
	d="
M145.000717,27.715286 
	C144.772598,27.897478 144.517136,27.749443 144.156235,27.361614 
	C144.317352,27.280272 144.624878,27.368017 145.000717,27.715286 
z"/>
</svg>