<svg version="1.1" id="Layer_1" xmlns="http://www.w3.org/2000/svg" xmlns:xlink="http://www.w3.org/1999/xlink" x="0px" y="0px"
	 width="100%" viewBox="0 0 147 104" enable-background="new 0 0 147 104" xml:space="preserve">
<path fill="#ffffff" opacity="1.000000" stroke="none" 
	d="
M101.000000,105.000000 
	C67.333336,105.000000 34.166668,105.000000 1.000000,105.000000 
	C1.000000,70.333336 1.000000,35.666668 1.000000,1.000000 
	C50.000000,1.000000 99.000000,1.000000 148.000000,1.000000 
	C148.000000,35.666668 148.000000,70.333336 148.000000,105.000000 
	C132.500000,105.000000 117.000000,105.000000 101.000000,105.000000 
M90.051620,13.945730 
	C90.051620,13.945730 90.159584,13.926972 89.971992,13.405025 
	C89.649529,13.296318 89.327072,13.187611 88.598335,12.959322 
	C88.598335,12.959322 88.175056,12.945560 87.943909,12.474621 
	C87.639839,12.372693 87.335777,12.270765 86.434013,12.151324 
	C85.953262,12.496915 85.472511,12.842505 84.309227,13.044758 
	C81.750290,11.506917 77.944000,15.343191 75.170357,10.998879 
	C69.728821,11.309852 64.287277,11.620824 58.105305,11.979339 
	C52.828564,14.925708 53.573578,20.173626 52.875919,25.614025 
	C50.241516,29.381952 47.607109,33.149879 44.305481,37.216793 
	C41.516571,41.464264 38.733028,45.715267 35.934761,49.956566 
	C35.282925,50.944546 34.581062,51.899517 33.966125,52.897511 
	C33.966125,52.897511 33.959221,52.828083 33.361465,52.756680 
	C32.503113,53.141651 31.644762,53.526619 30.133226,53.990456 
	C29.056540,54.620319 27.979855,55.250187 26.270523,55.992409 
	C25.540487,56.619247 24.810452,57.246082 23.804512,57.354946 
	C22.932207,57.890251 22.059902,58.425560 21.041462,59.697399 
	C20.987267,60.444439 20.933071,61.191483 20.293758,62.006119 
	C19.504290,61.963326 18.714821,61.920528 17.128181,61.946777 
	C16.428471,62.213055 15.410436,62.271561 15.079510,62.778553 
	C12.477730,66.764618 14.327924,70.599770 20.440208,73.833221 
	C23.619932,73.913971 26.799656,73.994720 30.305723,74.679718 
	C31.205162,74.740685 32.104603,74.801651 33.634369,75.198059 
	C39.474125,80.287704 46.148193,83.149055 54.779755,82.998123 
	C57.186897,82.950729 59.594036,82.903336 62.781937,82.994545 
	C66.213097,81.008026 69.644257,79.021507 73.547829,76.961906 
	C73.547829,76.961906 74.004013,76.819069 74.690742,76.759003 
	C79.018623,74.828690 83.420265,73.043289 87.637924,70.896439 
	C89.315140,70.042709 90.584908,68.388535 92.759933,67.006592 
	C96.184944,64.718140 99.609962,62.429684 103.708138,59.826050 
	C104.746681,58.106770 105.785217,56.387486 107.084747,54.236141 
	C112.689545,53.160675 114.335098,50.281906 112.239265,44.475220 
	C111.034859,41.138306 110.312981,37.614410 108.949112,34.352280 
	C108.004211,32.092224 108.029152,28.610096 104.005829,28.290081 
	C103.712936,27.853157 103.420044,27.416235 103.022171,26.286110 
	C102.690437,25.520180 102.358704,24.754250 101.980255,23.247980 
	C101.352753,22.492163 100.725250,21.736347 99.811935,20.322464 
	C98.882729,20.270781 97.953514,20.219095 96.584503,20.007874 
	C96.584503,20.007874 96.121025,19.944122 96.020096,19.175657 
	C94.389824,17.771517 92.759552,16.367374 90.949196,14.438496 
	C90.646461,14.237887 90.343719,14.037280 90.051620,13.945730 
z"/>
<path fill="#EFD2A3" opacity="1.000000" stroke="none" 
	d="
M17.925352,61.877731 
	C18.714821,61.920528 19.504290,61.963326 20.845108,61.815048 
	C21.326838,60.736275 21.257217,59.848572 21.187595,58.960865 
	C22.059902,58.425560 22.932207,57.890251 24.056087,57.943150 
	C25.202024,58.683853 26.096388,58.836353 27.272415,59.123154 
	C29.341770,58.858887 31.129461,58.460323 32.930305,58.407227 
	C32.547516,60.027763 32.151569,61.302826 31.520823,63.334030 
	C37.781502,62.090710 43.346596,61.100948 48.833603,59.785461 
	C49.779518,59.558681 50.393707,57.948277 51.483788,57.090370 
	C52.537773,59.135303 53.269104,61.066868 53.790009,63.222515 
	C52.718338,63.976227 51.857090,64.505852 50.612797,65.104080 
	C46.405659,65.796837 42.599575,66.703117 38.751324,66.948746 
	C36.057999,67.120651 34.862019,68.120712 34.438061,70.623962 
	C33.119907,70.136124 32.085682,69.694962 30.626339,69.152359 
	C26.802229,69.319283 23.403238,69.587639 19.863754,69.521042 
	C19.123957,66.749977 18.524654,64.313850 17.925352,61.877731 
z"/>
<path fill="#CA9771" opacity="1.000000" stroke="none" 
	d="
M104.098129,28.844315 
	C108.029152,28.610096 108.004211,32.092224 108.949112,34.352280 
	C110.312981,37.614410 111.034859,41.138306 112.239265,44.475220 
	C114.335098,50.281906 112.689545,53.160675 107.084747,54.236141 
	C105.785217,56.387486 104.746681,58.106770 103.349258,59.619286 
	C102.047180,57.953068 101.103973,56.493614 100.112305,54.769173 
	C100.041168,54.326309 100.018509,54.148430 100.351654,53.955906 
	C102.903763,52.022758 105.212509,50.208935 107.189232,48.085964 
	C107.531303,47.718575 106.466881,46.041573 106.158463,44.699051 
	C106.195999,43.346588 106.127197,42.264557 106.076080,40.749741 
	C105.753944,37.049389 106.683182,33.155762 102.049515,31.697578 
	C102.762154,30.525898 103.430145,29.685106 104.098129,28.844315 
z"/>
<path fill="#CA956F" opacity="1.000000" stroke="none" 
	d="
M92.040169,67.098778 
	C90.584908,68.388535 89.315140,70.042709 87.637924,70.896439 
	C83.420265,73.043289 79.018623,74.828690 74.349854,76.430840 
	C74.155220,74.705254 74.301491,73.307831 74.445839,71.928757 
	C72.435471,72.282158 70.621574,72.601021 68.984947,72.673981 
	C69.815132,71.451515 70.468048,70.474945 71.433029,69.409775 
	C72.160736,69.205238 72.576363,69.089310 73.282501,68.881622 
	C74.398750,68.224190 75.224503,67.658508 76.445999,67.097412 
	C78.898552,66.699677 80.955360,66.297348 83.375343,65.917221 
	C86.795135,64.199707 89.851746,62.459991 93.216217,60.644978 
	C94.648659,59.983559 95.773254,59.397438 96.867744,59.177444 
	C95.238480,62.061974 93.639328,64.580376 92.040169,67.098778 
z"/>
<path fill="#BE8961" opacity="1.000000" stroke="none" 
	d="
M44.972706,36.917809 
	C47.607109,33.149879 50.241516,29.381952 53.298100,25.096220 
	C54.433193,22.967115 55.146103,21.355816 55.859013,19.744518 
	C56.123417,19.772738 56.387821,19.800957 56.652225,19.829176 
	C56.833218,21.984980 57.014206,24.140785 57.090469,26.600342 
	C56.308258,28.261940 55.630779,29.619787 54.705685,31.201521 
	C54.335342,32.281502 54.212616,33.137596 54.006355,34.237778 
	C53.871418,34.646000 53.820026,34.810131 53.546814,35.149693 
	C53.132637,35.858967 52.940273,36.392811 52.372765,36.949989 
	C49.205914,36.962685 47.767200,38.196770 48.122948,41.439339 
	C48.053356,42.168110 48.035236,42.586613 47.785042,43.230667 
	C46.438255,45.003410 45.323544,46.550602 43.948395,47.848343 
	C44.116207,44.038528 44.544456,40.478168 44.972706,36.917809 
z"/>
<path fill="#BF855F" opacity="1.000000" stroke="none" 
	d="
M54.013653,82.828430 
	C46.148193,83.149055 39.474125,80.287704 33.389694,74.755417 
	C33.910873,74.258606 34.681187,74.239441 35.441566,74.142403 
	C36.715137,73.979881 37.982372,73.767708 39.576122,73.761055 
	C45.936531,75.281357 51.973095,76.617035 57.989902,78.313019 
	C56.651318,80.058365 55.332485,81.443398 54.013653,82.828430 
z"/>
<path fill="#C7906B" opacity="1.000000" stroke="none" 
	d="
M54.396706,82.913277 
	C55.332485,81.443398 56.651318,80.058365 58.301804,78.180450 
	C60.427055,76.741821 62.220654,75.796074 64.344955,74.852188 
	C66.052994,74.209328 67.430336,73.564606 68.807678,72.919884 
	C70.621574,72.601021 72.435471,72.282158 74.445839,71.928757 
	C74.301491,73.307831 74.155220,74.705254 74.006485,76.460876 
	C74.004013,76.819069 73.547829,76.961906 73.013985,76.875717 
	C67.693748,76.577461 64.293465,78.759727 62.001179,82.855934 
	C59.594036,82.903336 57.186897,82.950729 54.396706,82.913277 
z"/>
<path fill="#BC8E6A" opacity="1.000000" stroke="none" 
	d="
M58.845741,11.931797 
	C64.287277,11.620824 69.728821,11.309852 75.577774,11.412491 
	C75.643280,13.168181 75.301376,14.510261 74.800232,15.958628 
	C74.410728,16.174442 74.216904,16.329496 73.623505,16.577417 
	C69.794815,16.079355 66.402153,15.533955 62.925545,14.656185 
	C61.509647,13.526476 60.177696,12.729136 58.845741,11.931797 
z"/>
<path fill="#D8B961" opacity="1.000000" stroke="none" 
	d="
M104.051979,28.567198 
	C103.430145,29.685106 102.762154,30.525898 101.883202,31.984905 
	C98.417511,35.161575 95.162788,37.720032 91.541512,40.229118 
	C90.436188,40.160053 89.697426,40.140358 88.962959,39.744873 
	C89.306717,38.193020 89.646164,37.016964 90.317627,35.850430 
	C91.758163,35.219738 92.866692,34.579525 94.243324,33.749210 
	C96.709473,31.376226 98.907509,29.193342 101.299438,26.991611 
	C101.493332,26.972763 101.878265,26.912663 102.190155,26.935604 
	C102.710403,26.965467 102.918777,26.972391 103.127151,26.979313 
	C103.420044,27.416235 103.712936,27.853157 104.051979,28.567198 
z"/>
<path fill="#C6906E" opacity="1.000000" stroke="none" 
	d="
M58.475525,11.955567 
	C60.177696,12.729136 61.509647,13.526476 62.608833,14.830929 
	C61.563587,17.564365 60.751110,19.790688 59.880775,22.344631 
	C58.947010,23.880365 58.071106,25.088478 57.195198,26.296589 
	C57.014206,24.140785 56.833218,21.984980 56.652225,19.829176 
	C56.387821,19.800957 56.123417,19.772738 55.859013,19.744518 
	C55.146103,21.355816 54.433193,22.967115 53.430046,24.774712 
	C53.573578,20.173626 52.828564,14.925708 58.475525,11.955567 
M58.461044,14.493531 
	C58.461044,14.493531 58.515312,14.469164 58.461044,14.493531 
z"/>
<path fill="#C6906C" opacity="1.000000" stroke="none" 
	d="
M44.639091,37.067299 
	C44.544456,40.478168 44.116207,44.038528 43.779732,48.128975 
	C42.356144,50.135738 40.840782,51.612419 38.873398,53.066936 
	C36.914989,52.986408 35.408600,52.928043 33.902214,52.869675 
	C34.581062,51.899517 35.282925,50.944546 35.934761,49.956566 
	C38.733028,45.715267 41.516571,41.464264 44.639091,37.067299 
z"/>
<path fill="#C38864" opacity="1.000000" stroke="none" 
	d="
M92.400055,67.052689 
	C93.639328,64.580376 95.238480,62.061974 97.043434,58.917820 
	C98.219742,57.206097 99.190254,56.120125 100.160767,55.034157 
	C101.103973,56.493614 102.047180,57.953068 103.012680,59.776875 
	C99.609962,62.429684 96.184944,64.718140 92.400055,67.052689 
z"/>
<path fill="#C88E6A" opacity="1.000000" stroke="none" 
	d="
M20.004246,69.855988 
	C23.403238,69.587639 26.802229,69.319283 30.546814,69.491791 
	C30.588066,71.313591 30.283724,72.694527 29.979380,74.075470 
	C26.799656,73.994720 23.619932,73.913971 20.215218,73.076233 
	C19.994900,71.498154 19.999573,70.677078 20.004246,69.855988 
z"/>
<path fill="#C48D68" opacity="1.000000" stroke="none" 
	d="
M33.934170,52.883595 
	C35.408600,52.928043 36.914989,52.986408 38.810654,53.388039 
	C39.137691,54.163185 39.075451,54.595066 38.775597,55.057384 
	C38.537983,55.087818 38.064846,55.162506 37.730911,55.172112 
	C35.903702,56.141731 34.410427,57.101749 32.917152,58.061760 
	C31.129461,58.460323 29.341770,58.858887 27.289822,58.734009 
	C26.984766,57.433723 26.943968,56.656887 26.903168,55.880051 
	C27.979855,55.250187 29.056540,54.620319 30.817131,53.968586 
	C32.320431,53.573837 33.139828,53.200962 33.959221,52.828083 
	C33.959221,52.828083 33.966125,52.897511 33.934170,52.883595 
z"/>
<path fill="#D2A185" opacity="1.000000" stroke="none" 
	d="
M19.863754,69.521042 
	C19.999573,70.677078 19.994900,71.498154 19.978462,72.728325 
	C14.327924,70.599770 12.477730,66.764618 15.079510,62.778553 
	C15.410436,62.271561 16.428471,62.213055 17.526768,61.912254 
	C18.524654,64.313850 19.123957,66.749977 19.863754,69.521042 
z"/>
<path fill="#C29169" opacity="1.000000" stroke="none" 
	d="
M84.991760,13.188097 
	C85.472511,12.842505 85.953262,12.496915 86.892044,12.331624 
	C87.598282,12.707429 87.873276,12.851974 88.175056,12.945560 
	C88.175056,12.945560 88.598335,12.959322 88.950951,13.212627 
	C89.552933,13.686391 89.838272,13.840071 90.159584,13.926972 
	C90.159584,13.926972 90.051620,13.945730 90.180084,14.122632 
	C90.582123,14.520766 90.855698,14.741999 91.129280,14.963232 
	C92.759552,16.367374 94.389824,17.771517 95.800636,19.622864 
	C95.035362,21.061279 94.489555,22.052486 93.698029,22.833656 
	C92.627426,21.461376 91.802536,20.299135 90.669434,18.964687 
	C89.245720,18.546944 88.130226,18.301407 86.856567,17.757999 
	C86.129532,16.036118 85.560646,14.612107 84.991760,13.188097 
z"/>
<path fill="#C99574" opacity="1.000000" stroke="none" 
	d="
M84.650497,13.116428 
	C85.560646,14.612107 86.129532,16.036118 86.636505,17.982368 
	C83.070686,17.729710 79.566788,16.954807 75.787521,16.096348 
	C75.327934,15.959304 75.143700,15.905822 74.959465,15.852339 
	C75.301376,14.510261 75.643280,13.168181 75.996979,11.472142 
	C77.944000,15.343191 81.750290,11.506917 84.650497,13.116428 
z"/>
<path fill="#BC7F57" opacity="1.000000" stroke="none" 
	d="
M30.142551,74.377594 
	C30.283724,72.694527 30.588066,71.313591 30.971931,69.593216 
	C32.085682,69.694962 33.119907,70.136124 34.847427,70.728653 
	C36.643616,70.940941 37.746506,71.001869 38.867199,71.382843 
	C39.007423,72.327400 39.129848,72.951912 39.252274,73.576431 
	C37.982372,73.767708 36.715137,73.979881 35.441566,74.142403 
	C34.681187,74.239441 33.910873,74.258606 33.074532,74.587692 
	C32.104603,74.801651 31.205162,74.740685 30.142551,74.377594 
z"/>
<path fill="#CA956F" opacity="1.000000" stroke="none" 
	d="
M62.391556,82.925240 
	C64.293465,78.759727 67.693748,76.577461 72.777779,76.912262 
	C69.644257,79.021507 66.213097,81.008026 62.391556,82.925240 
z"/>
<path fill="#D69C7E" opacity="1.000000" stroke="none" 
	d="
M93.943741,23.043695 
	C94.489555,22.052486 95.035362,21.061279 95.851105,20.007095 
	C96.121025,19.944122 96.584503,20.007874 96.869812,20.371674 
	C97.752647,21.134869 98.350182,21.534266 98.760559,22.190147 
	C97.989311,23.055119 97.405220,23.663609 96.511154,24.193798 
	C95.448708,23.758232 94.696220,23.400963 93.943741,23.043695 
z"/>
<path fill="#C79272" opacity="1.000000" stroke="none" 
	d="
M96.821121,24.272099 
	C97.405220,23.663609 97.989311,23.055119 98.915550,21.989986 
	C99.537712,21.349073 99.817726,21.164801 100.097748,20.980530 
	C100.725250,21.736347 101.352753,22.492163 101.980865,23.612455 
	C101.981468,23.976931 101.955811,24.015862 101.586273,24.000513 
	C100.093040,24.362171 98.969345,24.739180 97.640480,25.021492 
	C97.190956,24.745741 96.986221,24.527510 96.821121,24.272099 
z"/>
<path fill="#AB6F4A" opacity="1.000000" stroke="none" 
	d="
M26.586845,55.936230 
	C26.943968,56.656887 26.984766,57.433723 27.008158,58.599709 
	C26.096388,58.836353 25.202024,58.683853 24.194038,58.202133 
	C24.810452,57.246082 25.540487,56.619247 26.586845,55.936230 
z"/>
<path fill="#E0B095" opacity="1.000000" stroke="none" 
	d="
M99.954842,20.651497 
	C99.817726,21.164801 99.537712,21.349073 99.102707,21.733505 
	C98.350182,21.534266 97.752647,21.134869 97.089706,20.451443 
	C97.953514,20.219095 98.882729,20.270781 99.954842,20.651497 
z"/>
<path fill="#C6906C" opacity="1.000000" stroke="none" 
	d="
M33.660343,52.792381 
	C33.139828,53.200962 32.320431,53.573837 31.143724,53.929153 
	C31.644762,53.526619 32.503113,53.141651 33.660343,52.792381 
z"/>
<path fill="#DBA782" opacity="1.000000" stroke="none" 
	d="
M21.114529,59.329132 
	C21.257217,59.848572 21.326838,60.736275 21.137669,61.781250 
	C20.933071,61.191483 20.987267,60.444439 21.114529,59.329132 
z"/>
<path fill="#B98A6F" opacity="1.000000" stroke="none" 
	d="
M103.074661,26.632711 
	C102.918777,26.972391 102.710403,26.965467 102.232040,26.575869 
	C101.959976,25.467415 101.957893,24.741638 101.955811,24.015862 
	C101.955811,24.015862 101.981468,23.976931 102.004227,23.982626 
	C102.358704,24.754250 102.690437,25.520180 103.074661,26.632711 
z"/>
<path fill="#C99574" opacity="1.000000" stroke="none" 
	d="
M90.065788,13.665998 
	C89.838272,13.840071 89.552933,13.686391 89.154083,13.272417 
	C89.327072,13.187611 89.649529,13.296318 90.065788,13.665998 
z"/>
<path fill="#C99574" opacity="1.000000" stroke="none" 
	d="
M88.059479,12.710091 
	C87.873276,12.851974 87.598282,12.707429 87.190887,12.340382 
	C87.335777,12.270765 87.639839,12.372693 88.059479,12.710091 
z"/>
<path fill="#C99574" opacity="1.000000" stroke="none" 
	d="
M91.039238,14.700864 
	C90.855698,14.741999 90.582123,14.520766 90.174759,14.068103 
	C90.343719,14.037280 90.646461,14.237887 91.039238,14.700864 
z"/>
<path fill="#F0D9AB" opacity="1.000000" stroke="none" 
	d="
M39.013206,55.026951 
	C39.075451,54.595066 39.137691,54.163185 39.262680,53.410202 
	C40.840782,51.612419 42.356144,50.135738 44.040169,48.378426 
	C45.323544,46.550602 46.438255,45.003410 48.152927,43.221249 
	C49.241890,42.925632 49.730900,42.864986 50.564842,42.761559 
	C53.581402,42.794514 56.253025,42.870243 59.133247,42.868694 
	C59.606548,42.649979 59.827583,42.458218 60.437622,42.192337 
	C63.659676,41.290489 67.815071,43.922203 69.442139,38.994541 
	C73.571899,40.331192 77.287453,41.666862 80.950943,43.354355 
	C80.104485,45.908901 80.182999,47.509762 83.069328,48.057480 
	C84.177269,48.267723 85.099823,49.454861 86.106842,50.196861 
	C81.472931,50.091686 78.502831,51.967567 78.504417,56.269794 
	C78.505592,59.428097 77.678589,60.029743 74.813004,59.637486 
	C74.017548,59.528603 72.438324,60.791920 72.215813,61.676506 
	C71.577286,64.214973 71.449493,66.881927 71.120964,69.498375 
	C70.468048,70.474945 69.815132,71.451515 68.984947,72.673981 
	C67.430336,73.564606 66.052994,74.209328 64.336914,74.548553 
	C63.721577,73.502151 63.444984,72.761253 63.304840,71.736435 
	C64.064217,70.348183 64.687141,69.243851 65.634415,68.019623 
	C66.409393,66.138779 66.860031,64.377846 67.310677,62.616905 
	C66.184578,63.347782 65.058472,64.078659 63.673416,65.004318 
	C62.336918,65.875114 61.259377,66.551125 59.926609,66.957764 
	C59.257759,65.337624 58.844139,63.986858 58.395313,62.521130 
	C56.836258,62.690449 55.418343,62.844440 54.000431,62.998428 
	C53.269104,61.066868 52.537773,59.135303 51.161232,56.824318 
	C46.680489,56.619946 42.844959,56.795002 39.007431,56.646248 
	C39.008018,55.890606 39.010612,55.458778 39.013206,55.026951 
M62.898865,48.091026 
	C58.044102,48.383842 53.189339,48.676655 48.334576,48.969471 
	C48.122379,49.633598 47.910183,50.297729 47.697990,50.961857 
	C49.191513,51.995651 50.803879,54.034576 52.156269,53.874676 
	C56.205029,53.395977 60.152103,52.057236 64.738350,50.867599 
	C64.421844,49.964394 64.105331,49.061192 62.898865,48.091026 
z"/>
<path fill="#D6B65D" opacity="1.000000" stroke="none" 
	d="
M39.009434,56.970062 
	C42.844959,56.795002 46.680489,56.619946 50.838570,56.710945 
	C50.393707,57.948277 49.779518,59.558681 48.833603,59.785461 
	C43.346596,61.100948 37.781502,62.090710 31.520823,63.334030 
	C32.151569,61.302826 32.547516,60.027763 32.930309,58.407230 
	C34.410427,57.101749 35.903702,56.141731 37.736664,55.447018 
	C38.387379,56.131565 38.698406,56.550812 39.009434,56.970062 
z"/>
<path fill="#D8B860" opacity="1.000000" stroke="none" 
	d="
M38.849400,71.062798 
	C37.746506,71.001869 36.643616,70.940941 35.131355,70.775314 
	C34.862019,68.120712 36.057999,67.120651 38.751324,66.948746 
	C42.599575,66.703117 46.405659,65.796837 50.854362,65.300247 
	C52.839958,65.427803 54.200935,65.427803 57.132145,65.427803 
	C54.978840,67.247902 53.973961,68.097282 52.589516,69.023438 
	C47.756435,69.754410 43.302917,70.408607 38.849400,71.062798 
z"/>
<path fill="#E7CD88" opacity="1.000000" stroke="none" 
	d="
M52.969078,68.946671 
	C53.973961,68.097282 54.978840,67.247902 57.132145,65.427803 
	C54.200935,65.427803 52.839958,65.427803 51.237411,65.231636 
	C51.857090,64.505852 52.718338,63.976227 53.790009,63.222515 
	C55.418343,62.844440 56.836258,62.690449 58.395313,62.521130 
	C58.844139,63.986858 59.257759,65.337624 59.815533,67.246750 
	C58.936630,68.873787 57.913574,69.942451 56.569000,70.962723 
	C55.154678,70.258430 54.061878,69.602554 52.969078,68.946671 
z"/>
<path fill="#F2DEB3" opacity="1.000000" stroke="none" 
	d="
M71.433029,69.409775 
	C71.449493,66.881927 71.577286,64.214973 72.215813,61.676506 
	C72.438324,60.791920 74.017548,59.528603 74.813004,59.637486 
	C77.678589,60.029743 78.505592,59.428097 78.504417,56.269794 
	C78.502831,51.967567 81.472931,50.091686 86.106842,50.196861 
	C85.099823,49.454861 84.177269,48.267723 83.069328,48.057480 
	C80.182999,47.509762 80.104485,45.908901 81.286201,43.353058 
	C82.120590,42.996910 82.567680,42.993881 83.247162,43.173290 
	C87.389114,45.805565 86.989204,40.956673 88.958656,40.120663 
	C89.697426,40.140358 90.436188,40.160053 91.567245,40.613434 
	C91.969864,42.363014 91.980186,43.678917 91.748428,45.292198 
	C92.041870,47.350807 92.577400,49.112034 93.112930,50.873260 
	C95.757317,49.953629 98.401703,49.034000 101.340569,47.946388 
	C103.107407,46.842094 104.579765,45.905785 106.052124,44.969479 
	C106.466881,46.041573 107.531303,47.718575 107.189232,48.085964 
	C105.212509,50.208935 102.903763,52.022758 100.065109,53.715405 
	C96.189827,52.663185 93.203529,52.288116 92.638840,57.064407 
	C89.052803,59.108864 85.890656,60.663212 83.817070,54.085339 
	C83.469803,59.180428 83.240982,62.537724 83.012161,65.895020 
	C80.955360,66.297348 78.898552,66.699677 76.214684,66.861053 
	C74.722412,67.404533 73.857208,68.188957 72.992004,68.973389 
	C72.576363,69.089310 72.160736,69.205238 71.433029,69.409775 
M83.464386,46.493626 
	C83.464386,46.493626 83.515396,46.471619 83.464386,46.493626 
z"/>
<path fill="#EED59C" opacity="1.000000" stroke="none" 
	d="
M91.990509,44.994816 
	C91.980186,43.678917 91.969864,42.363014 91.933807,40.662804 
	C95.162788,37.720032 98.417511,35.161575 101.838547,32.315792 
	C106.683182,33.155762 105.753944,37.049389 105.712814,40.817772 
	C101.296333,42.585842 97.260796,43.853096 92.917267,45.082130 
	C92.403023,45.027546 92.196770,45.011181 91.990509,44.994816 
z"/>
<path fill="#D2B654" opacity="1.000000" stroke="none" 
	d="
M93.225266,45.120354 
	C97.260796,43.853096 101.296333,42.585842 105.695129,41.250557 
	C106.127197,42.264557 106.195999,43.346588 106.158463,44.699051 
	C104.579765,45.905785 103.107407,46.842094 100.952515,47.903603 
	C97.816071,47.315269 93.404442,51.343655 93.225266,45.120354 
z"/>
<path fill="#EACF9F" opacity="1.000000" stroke="none" 
	d="
M92.997864,57.000904 
	C93.203529,52.288116 96.189827,52.663185 99.709305,53.730045 
	C100.018509,54.148430 100.041168,54.326309 100.112297,54.769173 
	C99.190254,56.120125 98.219742,57.206097 97.073540,58.551693 
	C95.773254,59.397438 94.648659,59.983559 93.238907,60.278053 
	C92.968452,58.991253 92.983162,57.996078 92.997864,57.000904 
z"/>
<path fill="#F5E1BD" opacity="1.000000" stroke="none" 
	d="
M92.638840,57.064407 
	C92.983162,57.996078 92.968452,58.991253 92.931061,60.353352 
	C89.851746,62.459991 86.795135,64.199707 83.375343,65.917221 
	C83.240982,62.537724 83.469803,59.180428 83.817070,54.085339 
	C85.890656,60.663212 89.052803,59.108864 92.638840,57.064407 
z"/>
<path fill="#F0D9AB" opacity="1.000000" stroke="none" 
	d="
M73.282501,68.881630 
	C73.857208,68.188957 74.722412,67.404533 75.818939,66.856468 
	C75.224503,67.658508 74.398750,68.224190 73.282501,68.881630 
z"/>
<path fill="#F0DBAD" opacity="1.000000" stroke="none" 
	d="
M83.014763,42.990852 
	C82.567680,42.993881 82.120590,42.996910 81.338257,43.001236 
	C77.287453,41.666862 73.571899,40.331192 69.192047,38.967621 
	C68.363411,38.907215 68.199074,38.874722 67.971741,38.543022 
	C67.063614,36.436657 66.173485,35.254829 64.561569,38.025238 
	C62.087364,37.994141 60.049965,37.972240 57.982147,37.575653 
	C56.557365,36.458733 55.163002,35.716499 53.768635,34.974266 
	C53.820026,34.810131 53.871418,34.646000 54.252007,34.089745 
	C54.705235,32.790958 54.829266,31.884296 54.953300,30.977633 
	C55.630779,29.619787 56.308258,28.261940 57.090469,26.600342 
	C58.071106,25.088478 58.947010,23.880365 60.145416,22.225765 
	C60.984337,21.520893 61.500751,21.262510 62.069153,21.366871 
	C63.450703,23.130972 64.780273,24.532326 66.324379,26.135096 
	C66.694794,26.891905 66.850677,27.447300 66.681679,28.052963 
	C65.766960,28.736502 65.177124,29.369774 64.587296,30.003048 
	C65.409737,30.324986 66.232178,30.646923 67.418594,30.948261 
	C71.477211,30.004652 72.146317,27.257421 72.240273,23.880533 
	C73.282082,23.542751 74.045738,23.320139 74.852570,23.517616 
	C74.804848,25.911291 74.713951,27.884878 74.398346,29.969625 
	C74.405281,30.743975 74.636925,31.407162 75.169937,32.199448 
	C76.313667,32.543083 77.156036,32.757629 78.011589,33.313637 
	C78.662041,34.435368 79.299301,35.215630 79.966141,36.364235 
	C81.002083,38.818668 82.008423,40.904758 83.014763,42.990852 
z"/>
<path fill="#D8B75F" opacity="1.000000" stroke="none" 
	d="
M58.012566,37.950344 
	C60.049965,37.972240 62.087364,37.994141 64.798355,38.251808 
	C66.326210,38.605793 67.180473,38.724007 68.034729,38.842224 
	C68.199074,38.874722 68.363411,38.907215 68.777840,38.966637 
	C67.815071,43.922203 63.659676,41.290489 60.219589,42.246082 
	C59.292370,42.467091 59.077629,42.674541 58.924652,42.945976 
	C56.253025,42.870243 53.581402,42.794514 50.453682,42.496269 
	C49.389866,41.892193 48.782143,41.510632 48.174419,41.129070 
	C47.767200,38.196770 49.205914,36.962685 52.670849,37.216301 
	C54.900242,37.622971 56.456406,37.786659 58.012566,37.950344 
z"/>
<path fill="#EBD19D" opacity="1.000000" stroke="none" 
	d="
M57.982147,37.575653 
	C56.456406,37.786659 54.900242,37.622971 53.045998,37.192970 
	C52.940273,36.392811 53.132637,35.858967 53.546814,35.149693 
	C55.163002,35.716499 56.557365,36.458733 57.982147,37.575653 
z"/>
<path fill="#EBD19D" opacity="1.000000" stroke="none" 
	d="
M54.705685,31.201521 
	C54.829266,31.884296 54.705235,32.790958 54.335548,33.845657 
	C54.212616,33.137596 54.335342,32.281502 54.705685,31.201521 
z"/>
<path fill="#EBCD94" opacity="1.000000" stroke="none" 
	d="
M48.122948,41.439339 
	C48.782143,41.510632 49.389866,41.892193 50.108749,42.539047 
	C49.730900,42.864986 49.241890,42.925632 48.385002,42.995697 
	C48.035236,42.586613 48.053356,42.168110 48.122948,41.439339 
z"/>
<path fill="#EED1A5" opacity="1.000000" stroke="none" 
	d="
M52.589516,69.023438 
	C54.061878,69.602554 55.154678,70.258430 56.749924,71.272751 
	C59.224380,71.760910 61.196384,71.890633 63.168392,72.020355 
	C63.444984,72.761253 63.721577,73.502151 64.006210,74.546692 
	C62.220654,75.796074 60.427055,76.741821 58.321556,77.820145 
	C51.973095,76.617035 45.936531,75.281357 39.576122,73.761055 
	C39.129848,72.951912 39.007423,72.327400 38.867199,71.382843 
	C43.302917,70.408607 47.756435,69.754410 52.589516,69.023438 
z"/>
<path fill="#F6D7AB" opacity="1.000000" stroke="none" 
	d="
M62.017170,21.004128 
	C61.500751,21.262510 60.984337,21.520893 60.203278,21.898144 
	C60.751110,19.790688 61.563587,17.564365 62.692772,15.163298 
	C66.402153,15.533955 69.794815,16.079355 73.487442,16.931744 
	C72.838173,18.840881 71.888939,20.443035 70.771881,21.757759 
	C68.464241,18.465534 66.237389,16.553158 63.264809,20.927830 
	C62.684486,20.968288 62.350830,20.986208 62.017170,21.004128 
z"/>
<path fill="#E8CD8D" opacity="1.000000" stroke="none" 
	d="
M70.939705,22.045189 
	C71.888939,20.443035 72.838173,18.840881 73.923470,16.884403 
	C74.216904,16.329496 74.410728,16.174442 74.800232,15.958627 
	C75.143700,15.905822 75.327934,15.959304 75.767654,16.460945 
	C76.031944,17.895981 76.040749,18.882854 75.812958,20.132618 
	C75.320702,21.296177 75.065041,22.196850 74.809387,23.097525 
	C74.045738,23.320139 73.282082,23.542751 72.029236,23.690329 
	C71.339928,23.091925 71.139816,22.568558 70.939705,22.045189 
z"/>
<path fill="#EED59C" opacity="1.000000" stroke="none" 
	d="
M83.247162,43.173290 
	C82.008423,40.904758 81.002083,38.818668 80.029808,36.031605 
	C81.000908,34.211941 81.937935,33.093250 83.072784,32.262657 
	C85.415703,32.606747 87.560783,32.662735 89.770378,33.107315 
	C89.885132,34.277576 89.935379,35.059242 89.985611,35.840908 
	C89.646164,37.016964 89.306717,38.193020 88.962959,39.744873 
	C86.989204,40.956673 87.389114,45.805565 83.247162,43.173290 
z"/>
<path fill="#F0D4A1" opacity="1.000000" stroke="none" 
	d="
M96.511154,24.193800 
	C96.986221,24.527510 97.190956,24.745741 97.883011,25.232147 
	C99.255646,26.028484 100.180603,26.519472 101.105553,27.010460 
	C98.907509,29.193342 96.709473,31.376226 94.245880,33.330200 
	C93.452194,30.862362 95.632439,27.322468 91.007141,26.646381 
	C90.582840,24.543653 90.213150,22.819944 90.074722,20.913280 
	C90.529869,20.199181 90.753754,19.668037 90.977631,19.136894 
	C91.802536,20.299135 92.627426,21.461376 93.698029,22.833656 
	C94.696220,23.400963 95.448708,23.758232 96.511154,24.193800 
z"/>
<path fill="#F5E1B7" opacity="1.000000" stroke="none" 
	d="
M91.061737,27.025402 
	C95.632439,27.322468 93.452194,30.862362 93.977768,33.520302 
	C92.866692,34.579525 91.758163,35.219738 90.317627,35.850430 
	C89.935379,35.059242 89.885132,34.277576 89.821060,32.746098 
	C90.225403,30.339325 90.643570,28.682364 91.061737,27.025402 
z"/>
<path fill="#AD764F" opacity="1.000000" stroke="none" 
	d="
M101.299438,26.991611 
	C100.180603,26.519472 99.255646,26.028484 98.088165,25.326843 
	C98.969345,24.739180 100.093040,24.362171 101.586273,24.000513 
	C101.957893,24.741638 101.959976,25.467415 101.920158,26.552927 
	C101.878265,26.912663 101.493332,26.972763 101.299438,26.991611 
z"/>
<path fill="#BC8E6A" opacity="1.000000" stroke="none" 
	d="
M58.488178,14.481348 
	C58.515312,14.469164 58.461044,14.493531 58.488178,14.481348 
z"/>
<path fill="#F1CDA1" opacity="1.000000" stroke="none" 
	d="
M39.007431,56.646248 
	C38.698406,56.550812 38.387379,56.131565 38.070599,55.437412 
	C38.064846,55.162506 38.537983,55.087818 38.775597,55.057384 
	C39.010612,55.458778 39.008018,55.890606 39.007431,56.646248 
z"/>
<path fill="#F3DAAC" opacity="1.000000" stroke="none" 
	d="
M90.669426,18.964685 
	C90.753754,19.668037 90.529869,20.199181 89.756790,20.937609 
	C84.942741,20.746861 83.546448,22.761999 83.945541,26.863745 
	C84.106400,28.516975 83.261917,30.268026 82.874962,31.974558 
	C81.937935,33.093250 81.000908,34.211941 80.000214,35.663261 
	C79.299301,35.215630 78.662041,34.435368 78.304581,33.076485 
	C81.412437,26.654037 80.603752,22.625301 76.049561,19.869730 
	C76.040749,18.882854 76.031944,17.895981 76.043015,16.544506 
	C79.566788,16.954807 83.070686,17.729710 86.794662,18.280239 
	C88.130226,18.301407 89.245720,18.546944 90.669426,18.964685 
z"/>
<path fill="#D7BB5F" opacity="1.000000" stroke="none" 
	d="
M64.138870,51.054230 
	C60.152103,52.057236 56.205029,53.395977 52.156269,53.874676 
	C50.803879,54.034576 49.191513,51.995651 47.697990,50.961857 
	C47.910183,50.297729 48.122379,49.633598 48.334576,48.969471 
	C53.189339,48.676655 58.044102,48.383842 63.397766,48.482803 
	C63.977402,49.601131 64.058136,50.327682 64.138870,51.054230 
z"/>
<path fill="#D6B957" opacity="1.000000" stroke="none" 
	d="
M63.304840,71.736435 
	C61.196384,71.890633 59.224380,71.760910 57.071445,71.321152 
	C57.913574,69.942451 58.936630,68.873787 60.070763,67.516129 
	C61.259377,66.551125 62.336918,65.875114 63.920296,65.278336 
	C64.720779,66.284889 65.015427,67.212204 65.310074,68.139526 
	C64.687141,69.243851 64.064217,70.348183 63.304840,71.736435 
z"/>
<path fill="#E7CD88" opacity="1.000000" stroke="none" 
	d="
M65.634415,68.019623 
	C65.015427,67.212204 64.720779,66.284889 64.179253,65.083557 
	C65.058472,64.078659 66.184578,63.347782 67.310677,62.616905 
	C66.860031,64.377846 66.409393,66.138779 65.634415,68.019623 
z"/>
<path fill="#EBD092" opacity="1.000000" stroke="none" 
	d="
M64.438614,50.960915 
	C64.058136,50.327682 63.977402,49.601131 63.842751,48.516285 
	C64.105331,49.061192 64.421844,49.964394 64.438614,50.960915 
z"/>
<path fill="#EBCD94" opacity="1.000000" stroke="none" 
	d="
M59.133247,42.868694 
	C59.077629,42.674541 59.292370,42.467091 59.786907,42.269875 
	C59.827583,42.458218 59.606548,42.649979 59.133247,42.868694 
z"/>
<path fill="#ECD293" opacity="1.000000" stroke="none" 
	d="
M92.917267,45.082130 
	C93.404442,51.343655 97.816071,47.315269 100.658035,48.071583 
	C98.401703,49.034000 95.757317,49.953629 93.112930,50.873260 
	C92.577400,49.112034 92.041870,47.350807 91.748428,45.292198 
	C92.196770,45.011181 92.403023,45.027546 92.917267,45.082130 
z"/>
<path fill="#F0DBAD" opacity="1.000000" stroke="none" 
	d="
M83.489891,46.482620 
	C83.515396,46.471619 83.464386,46.493626 83.489891,46.482620 
z"/>
<path fill="#D4B75A" opacity="1.000000" stroke="none" 
	d="
M70.771881,21.757761 
	C71.139816,22.568558 71.339928,23.091925 71.751076,23.805496 
	C72.146317,27.257421 71.477211,30.004652 67.402855,30.578087 
	C67.017624,29.486572 67.012093,28.744633 67.006561,28.002695 
	C66.850677,27.447300 66.694794,26.891905 66.264320,25.791481 
	C65.163643,23.799398 64.337555,22.352345 63.511467,20.905289 
	C66.237389,16.553158 68.464241,18.465534 70.771881,21.757761 
z"/>
<path fill="#D9BD5F" opacity="1.000000" stroke="none" 
	d="
M75.812958,20.132618 
	C80.603752,22.625301 81.412437,26.654037 78.291389,32.735020 
	C77.156036,32.757629 76.313667,32.543083 75.178650,31.826138 
	C74.798347,30.835308 74.710701,30.346886 74.623047,29.858463 
	C74.713951,27.884878 74.804848,25.911291 74.852570,23.517616 
	C75.065041,22.196850 75.320702,21.296177 75.812958,20.132618 
z"/>
<path fill="#EBD19D" opacity="1.000000" stroke="none" 
	d="
M63.264809,20.927830 
	C64.337555,22.352345 65.163643,23.799398 66.049789,25.590069 
	C64.780273,24.532326 63.450703,23.130972 62.069153,21.366871 
	C62.350830,20.986208 62.684486,20.968288 63.264809,20.927830 
z"/>
<path fill="#EBD19D" opacity="1.000000" stroke="none" 
	d="
M66.681686,28.052963 
	C67.012093,28.744633 67.017624,29.486572 67.038879,30.598686 
	C66.232178,30.646923 65.409737,30.324986 64.587296,30.003048 
	C65.177124,29.369774 65.766960,28.736502 66.681686,28.052963 
z"/>
<path fill="#EBD19D" opacity="1.000000" stroke="none" 
	d="
M67.971741,38.543022 
	C67.180473,38.724007 66.326210,38.605793 65.235161,38.261009 
	C66.173485,35.254829 67.063614,36.436657 67.971741,38.543022 
z"/>
<path fill="#E8CD8D" opacity="1.000000" stroke="none" 
	d="
M74.398346,29.969625 
	C74.710701,30.346886 74.798347,30.835308 74.877274,31.697041 
	C74.636925,31.407162 74.405281,30.743975 74.398346,29.969625 
z"/>
<path fill="#DAC062" opacity="1.000000" stroke="none" 
	d="
M83.072784,32.262657 
	C83.261917,30.268026 84.106400,28.516975 83.945541,26.863745 
	C83.546448,22.761999 84.942741,20.746861 89.525528,21.120564 
	C90.213150,22.819944 90.582840,24.543653 91.007133,26.646381 
	C90.643570,28.682364 90.225403,30.339325 89.756546,32.357506 
	C87.560783,32.662735 85.415703,32.606747 83.072784,32.262657 
z"/>
</svg>