<svg version="1.1" id="Layer_1" xmlns="http://www.w3.org/2000/svg" xmlns:xlink="http://www.w3.org/1999/xlink" x="0px" y="0px"
	 width="100%" viewBox="0 0 374 145" enable-background="new 0 0 374 145" xml:space="preserve">
<path fill="#ffffff" opacity="1.000000" stroke="none" 
	d="
M251.000000,1.000000 
	C254.692917,1.000000 258.385834,1.000000 262.575745,1.248009 
	C263.339600,1.678897 263.606445,1.861775 263.911591,2.418506 
	C265.618073,4.071868 267.286224,5.351378 268.260925,6.099001 
	C267.854126,10.141100 267.510803,13.552183 267.094299,17.380207 
	C267.058197,19.205616 267.095306,20.614082 267.064148,22.344452 
	C267.048279,23.098984 267.100616,23.531612 267.091492,24.381840 
	C268.031921,32.402512 268.317780,40.193817 270.252106,47.551773 
	C271.935364,53.954697 275.797668,59.624237 282.123962,63.440090 
	C286.751984,68.496819 291.453857,64.577469 296.427185,64.107407 
	C298.537354,64.044189 300.279724,64.025429 302.245117,64.006302 
	C302.468170,64.005943 302.905640,64.093224 302.938507,64.461151 
	C303.629517,65.585442 304.287628,66.341797 305.125610,67.396736 
	C309.507874,72.142426 313.710266,76.589531 318.061401,81.350098 
	C319.377747,82.520683 320.663177,83.256393 321.693085,84.255493 
	C326.697205,89.110115 327.830536,89.285782 334.280579,85.828049 
	C335.400452,85.261436 336.212433,84.697601 337.344849,84.103096 
	C338.158325,83.750938 338.651367,83.429466 339.142212,83.120590 
	C339.139984,83.133186 339.166626,83.143143 339.465454,82.975578 
	C344.117310,79.747932 348.966919,77.110130 349.882874,70.755432 
	C350.341064,69.998413 350.691284,69.521484 351.352356,69.112579 
	C352.457306,68.126373 353.251373,67.072121 354.354370,65.919655 
	C355.116394,64.903961 355.569489,63.986481 356.362427,62.928062 
	C361.352570,61.193817 362.817932,57.269707 363.913635,52.643829 
	C363.930634,51.489571 363.879852,50.716953 364.013824,49.617889 
	C364.410889,47.869476 364.623260,46.447510 364.910034,44.703449 
	C365.033691,43.943539 365.082855,43.505718 365.436615,42.860226 
	C369.380127,33.281662 369.169952,24.328905 362.902771,15.655307 
	C361.636322,12.511265 360.317230,9.751768 359.005066,7.000429 
	C359.011993,7.008586 359.027863,6.993574 359.135315,6.666285 
	C360.161835,4.559330 361.080933,2.779666 362.000000,1.000001 
	C366.330200,1.000000 370.660370,1.000000 374.992920,1.000000 
	C374.995300,49.295124 374.995300,97.590248 374.995300,145.942688 
	C250.333328,145.942688 125.666664,145.942688 1.004254,145.942688 
	C1.004254,97.590874 1.004254,49.295437 1.006382,1.000000 
	C3.007069,1.000000 5.005630,1.000000 7.596682,1.318962 
	C9.114188,2.034583 10.039202,2.431242 11.280461,2.985324 
	C14.388498,5.053961 15.344948,9.685734 20.414188,8.879675 
	C22.889685,9.252192 24.961760,9.564073 27.375240,10.066171 
	C32.115162,11.214154 36.513680,12.171922 40.935062,13.093514 
	C40.957928,13.057340 40.885513,13.011710 40.972893,13.271531 
	C41.376648,13.661107 41.693020,13.790862 42.192177,13.987520 
	C42.374958,14.054424 42.761753,14.010519 42.937584,14.313545 
	C44.079437,14.417795 45.045456,14.219020 46.347443,13.991530 
	C47.129189,13.909864 47.574963,13.856912 48.342819,13.786755 
	C49.401314,13.842214 50.658703,13.694856 50.796211,14.020452 
	C52.951412,19.123636 57.841198,18.804972 62.378944,20.039221 
	C65.142921,20.778690 67.568298,21.329771 70.333694,21.925674 
	C71.128120,21.929155 71.582535,21.887815 72.294510,21.976048 
	C73.031189,22.354746 73.510307,22.603874 74.357025,22.909451 
	C75.466240,23.014799 76.207840,23.063704 77.112656,23.402536 
	C78.514641,24.076319 79.753426,24.460173 81.335739,25.022774 
	C86.063156,26.817192 90.447044,28.432863 95.036301,30.383694 
	C100.001068,33.350548 104.462578,31.327238 109.223259,29.879530 
	C109.663437,29.885292 109.838806,29.852625 110.397583,29.741646 
	C113.898903,28.786411 117.016830,27.909492 120.542374,27.025379 
	C123.978806,26.045120 127.007607,25.072054 130.357910,23.947010 
	C135.136612,24.741705 137.525421,21.549774 140.479141,19.172007 
	C143.075089,17.082239 146.152725,15.590843 149.416199,13.897068 
	C153.406509,12.604416 156.235352,15.201540 159.358353,15.694443 
	C166.453476,16.814266 173.768326,16.542063 181.458496,16.900307 
	C186.057877,16.955923 190.209946,17.174597 194.321487,16.861351 
	C197.274246,16.636391 200.172882,15.700830 203.312561,15.047102 
	C203.529449,15.011932 203.967834,15.042877 204.153564,15.386103 
	C212.234894,18.901302 219.593933,15.951681 225.906860,12.137324 
	C230.076569,9.617940 234.306259,7.733984 238.714645,5.963607 
	C242.813202,4.317651 246.905151,2.655195 251.000000,1.000000 
z"/>
<path fill="#ECD8AB" opacity="1.000000" stroke="none" 
	d="
M301.000000,1.000000 
	C311.354218,1.000000 321.708466,1.000000 332.566345,1.352555 
	C334.567108,3.830998 336.064240,5.956886 337.989929,8.691285 
	C335.339081,8.691285 333.436829,8.691285 331.534607,8.691285 
	C331.361694,9.157824 331.188782,9.624362 331.015869,10.090900 
	C333.383270,11.687911 335.750671,13.284923 338.309143,15.021702 
	C338.749268,15.360194 338.961121,15.592810 339.128662,16.165474 
	C339.416016,16.976151 339.710449,17.480669 340.005554,18.366381 
	C339.392792,20.848236 342.743073,24.212067 337.674011,24.848473 
	C336.218018,23.311966 334.962799,22.014906 334.025177,20.518780 
	C333.142639,19.110470 332.595093,17.492235 331.900177,15.966356 
	C331.455200,16.149725 331.010193,16.333094 330.565216,16.516462 
	C330.836243,22.379301 331.022949,28.248871 331.489655,34.096088 
	C331.545349,34.793560 333.126923,35.369240 334.078491,36.326141 
	C335.771759,36.767216 337.387695,36.883522 338.994080,37.354263 
	C337.986725,39.161175 336.988892,40.613651 335.617279,42.066277 
	C334.585938,43.125614 333.928406,44.184799 333.268860,45.544724 
	C333.523254,46.562706 333.779633,47.279957 334.032471,48.335110 
	C334.112793,49.115269 334.196655,49.557522 334.247803,50.291241 
	C334.503357,51.051586 334.791565,51.520466 335.078522,52.299534 
	C335.080902,53.023281 335.084564,53.436844 335.074890,54.212242 
	C335.733734,55.361469 336.405914,56.148853 337.071320,56.964439 
	C337.064575,56.992638 337.042175,56.939316 337.153259,57.161644 
	C337.462006,57.660992 337.716003,57.869228 338.182800,58.262585 
	C338.613678,59.255283 338.888123,59.994080 339.115906,61.204681 
	C339.129822,63.254673 339.190430,64.832863 339.220276,66.753708 
	C337.611359,70.701332 336.097534,68.316673 334.605591,66.759041 
	C334.149597,65.953247 333.659729,65.435165 333.071381,64.573578 
	C331.359528,61.476063 329.746124,58.722061 328.092957,55.595482 
	C327.678986,53.520115 327.304779,51.817329 326.953491,49.701233 
	C325.651642,45.860855 324.326904,42.433784 323.084167,38.658676 
	C323.885864,36.633373 324.605560,34.956116 325.813049,32.141987 
	C321.515533,32.671097 318.560272,33.034954 315.646759,33.393665 
	C315.359558,28.366795 314.318726,27.930580 309.542938,30.830105 
	C307.884491,31.837013 305.898590,32.304672 303.992950,32.688591 
	C302.615356,31.242720 301.307068,30.126877 299.998260,28.610147 
	C299.863647,25.604513 300.161194,22.441105 295.573914,25.078167 
	C294.139954,25.090492 293.097198,25.117941 292.040344,24.782951 
	C292.013947,23.937056 292.001678,23.453598 292.120361,22.690731 
	C292.523438,21.643484 292.795563,20.875647 293.320038,19.874851 
	C295.023346,16.119999 296.474304,12.598107 297.958923,8.730526 
	C297.999542,7.922487 298.006500,7.460138 298.351532,6.907948 
	C299.459747,4.878737 300.229858,2.939368 301.000000,1.000000 
z"/>
<path fill="#EAD2A5" opacity="1.000000" stroke="none" 
	d="
M73.000000,1.000000 
	C74.388893,1.000000 75.777779,1.000000 77.607437,1.399423 
	C78.018730,2.864735 77.989250,3.930623 77.609436,5.104434 
	C75.441536,7.906233 74.449814,10.334456 79.301285,11.063057 
	C79.745132,11.372858 79.929718,11.613512 80.034515,12.251322 
	C80.011124,13.067409 80.005867,13.533628 79.684570,14.037326 
	C78.580544,14.382912 77.792557,14.691020 76.685425,15.040241 
	C75.572578,15.733158 74.778885,16.384960 73.579391,17.038652 
	C71.829048,16.938730 70.484505,16.836920 68.812485,16.562706 
	C61.705776,14.468370 54.926563,12.546437 47.801697,10.441994 
	C45.312511,10.136536 43.168976,10.013590 40.768497,9.696782 
	C39.683815,9.256276 38.856075,9.009634 38.041718,8.416128 
	C39.370068,5.712844 40.685032,3.356422 42.000000,1.000000 
	C50.020901,1.000000 58.041798,1.000000 66.532043,1.394315 
	C67.480148,3.481649 67.712219,5.308026 68.528748,6.818445 
	C69.031044,7.747585 70.426460,8.193901 71.420868,8.857006 
	C71.923897,7.789148 72.554413,6.758953 72.884933,5.640134 
	C73.103539,4.900129 72.891655,4.032945 72.913315,2.852665 
	C72.969414,1.988420 72.984711,1.494210 73.000000,1.000000 
z"/>
<path fill="#EBD5A7" opacity="1.000000" stroke="none" 
	d="
M97.000000,1.000000 
	C102.022095,1.000000 107.044182,1.000000 112.573959,1.404428 
	C111.050148,6.537458 109.018654,11.266062 106.609299,16.000120 
	C104.163277,17.194368 102.095116,18.383160 98.970421,20.179255 
	C102.164322,21.667711 103.586227,22.330362 104.678864,23.071421 
	C103.898254,24.090586 103.446915,25.031342 102.774261,26.026558 
	C102.552948,26.081020 102.106735,26.174192 101.926056,25.862461 
	C100.491798,25.030148 99.238235,24.509563 98.028839,23.664864 
	C98.237656,22.455473 98.402298,21.570198 98.311775,22.056961 
	C95.727669,20.808863 93.856415,19.905062 92.000114,18.693592 
	C92.043671,17.977526 92.072273,17.569130 92.365356,16.928028 
	C94.086555,11.463547 95.543274,6.231773 97.000000,1.000000 
M96.501122,17.159767 
	C96.824409,17.098036 97.147705,17.036303 97.470993,16.974569 
	C97.149971,16.901367 96.828949,16.828167 96.501122,17.159767 
z"/>
<path fill="#ECD5A3" opacity="1.000000" stroke="none" 
	d="
M300.539368,1.000000 
	C300.229858,2.939368 299.459747,4.878737 298.005066,6.920500 
	C296.547455,7.682119 295.774323,8.341346 294.857666,9.296944 
	C294.097595,10.706701 293.481110,11.820086 292.536499,13.004982 
	C291.448944,14.320540 290.689514,15.564585 289.653503,16.979053 
	C288.576355,17.384653 287.775726,17.619831 286.983276,17.467234 
	C286.401581,12.145346 284.919647,11.005660 280.342682,11.942065 
	C278.560211,12.306742 276.771149,12.639100 274.945801,12.688440 
	C274.570801,11.914625 274.235107,11.438549 273.948853,10.527538 
	C273.665527,7.061737 273.332764,4.030868 273.000000,1.000000 
	C276.361298,1.000000 279.722565,1.000000 283.395691,1.308593 
	C282.248199,2.813732 280.788910,4.010278 279.272797,5.253398 
	C284.364624,8.457861 286.225647,7.596602 289.000000,1.000000 
	C292.692902,1.000000 296.385834,1.000000 300.539368,1.000000 
z"/>
<path fill="#C18D6C" opacity="1.000000" stroke="none" 
	d="
M250.535355,1.000000 
	C246.905151,2.655195 242.813202,4.317651 238.714645,5.963607 
	C234.306259,7.733984 230.076569,9.617940 225.906860,12.137324 
	C219.593933,15.951681 212.234894,18.901302 204.155441,15.030058 
	C204.069748,13.631499 204.167877,12.932211 204.447464,12.235315 
	C204.628906,12.237708 204.981979,12.153663 205.446136,12.186582 
	C214.308258,12.890210 221.918762,11.455370 227.712906,4.157059 
	C231.048874,3.075936 234.024429,2.037971 237.000000,1.000003 
	C241.356903,1.000000 245.713806,1.000000 250.535355,1.000000 
z"/>
<path fill="#EBD2A3" opacity="1.000000" stroke="none" 
	d="
M77.004578,14.999128 
	C77.792557,14.691020 78.580544,14.382912 80.021332,14.025553 
	C81.454102,13.369597 82.234062,12.762894 83.242699,11.854755 
	C83.314255,8.035548 83.157127,4.517774 83.000000,1.000000 
	C85.700012,1.000000 88.400032,1.000000 91.586121,1.404523 
	C91.039047,6.878075 90.005905,11.947104 88.632004,17.088238 
	C87.508629,18.578890 86.726006,19.997437 85.532120,21.377289 
	C83.751030,21.259483 82.381195,21.180368 80.754776,20.969242 
	C80.009537,20.538214 79.520889,20.239195 78.829025,19.731922 
	C78.075600,19.366983 77.525391,19.210302 76.957458,18.840221 
	C76.939735,18.626820 76.894249,18.201324 76.920952,17.801630 
	C76.966629,16.601000 76.985603,15.800065 77.004578,14.999128 
z"/>
<path fill="#EBD5A7" opacity="1.000000" stroke="none" 
	d="
M204.981979,12.153662 
	C204.981979,12.153663 204.628906,12.237708 204.088272,12.154776 
	C202.033218,12.041565 200.518784,12.011288 198.555359,12.004905 
	C195.412186,12.057186 192.718018,12.085574 189.811966,11.839864 
	C187.667877,10.710733 185.735641,9.855700 183.840637,8.613647 
	C184.298187,6.472050 184.718536,4.717473 185.343689,2.775542 
	C185.698975,2.058792 185.849487,1.529396 186.000000,1.000000 
	C186.444443,1.000000 186.888901,1.000000 187.689117,1.372556 
	C189.352432,2.506901 190.659958,3.268690 192.138062,4.324225 
	C194.137665,6.927684 195.954193,7.947285 198.178955,4.947940 
	C198.817642,4.086904 200.026108,3.648493 201.190155,3.206268 
	C201.581131,3.935805 201.755264,4.475375 201.754700,5.177942 
	C202.044434,5.598815 202.508865,5.856690 203.350342,6.100843 
	C204.480682,6.043669 205.233963,6.000216 206.213470,6.201013 
	C207.293533,6.631975 208.147385,6.818688 208.908356,7.345826 
	C207.537659,9.175387 206.259811,10.664524 204.981979,12.153662 
z"/>
<path fill="#E7CB9C" opacity="1.000000" stroke="none" 
	d="
M170.000000,1.000003 
	C173.030594,1.000000 176.061188,1.000000 179.496826,1.378364 
	C179.225464,4.734422 178.549042,7.712116 177.656967,10.786512 
	C177.441315,10.883216 177.018921,11.092041 176.625366,11.217180 
	C170.814514,10.957371 165.397217,10.572421 159.988617,9.765914 
	C160.035049,8.499206 160.072769,7.654055 160.379974,6.999680 
	C162.140625,7.281995 164.221848,8.035232 165.007050,7.335062 
	C166.983124,5.572991 168.374329,3.155032 170.000000,1.000003 
z"/>
<path fill="#EDD5AD" opacity="1.000000" stroke="none" 
	d="
M205.446136,12.186581 
	C206.259811,10.664524 207.537659,9.175387 209.139862,7.151000 
	C209.978973,5.744386 210.493698,4.873025 211.353867,4.059967 
	C213.415131,5.109877 215.130951,6.101482 217.781006,7.632985 
	C216.916962,4.415058 216.458481,2.707530 216.000000,1.000001 
	C217.714355,1.000000 219.428711,1.000000 221.623795,1.275807 
	C222.418137,1.841722 222.731735,2.131830 223.045349,2.421940 
	C223.363571,1.947961 223.681793,1.473982 224.000000,1.000001 
	C224.444443,1.000000 224.888901,1.000000 225.677032,1.364189 
	C226.464645,2.552322 226.908585,3.376266 227.352509,4.200213 
	C221.918762,11.455370 214.308258,12.890210 205.446136,12.186581 
z"/>
<path fill="#D0B054" opacity="1.000000" stroke="none" 
	d="
M106.987167,15.994665 
	C109.018654,11.266062 111.050148,6.537458 113.040817,1.404428 
	C114.388893,1.000000 115.777779,1.000000 117.573395,1.407037 
	C117.905807,3.168176 117.831497,4.522278 117.533936,6.150939 
	C115.790886,10.903310 114.271095,15.381121 112.489197,19.922787 
	C111.820038,20.327553 111.412971,20.668467 110.717598,21.141121 
	C109.323196,21.807465 108.217094,22.342070 107.098129,22.868500 
	C107.085266,22.860327 107.124687,22.838411 106.961472,22.555191 
	C104.995338,20.123381 105.210281,18.035521 106.987167,15.994665 
z"/>
<path fill="#E2C882" opacity="1.000000" stroke="none" 
	d="
M338.118073,14.881929 
	C335.750671,13.284923 333.383270,11.687911 331.015869,10.090900 
	C331.188782,9.624362 331.361694,9.157824 331.534607,8.691285 
	C333.436829,8.691285 335.339081,8.691285 337.989929,8.691285 
	C336.064240,5.956886 334.567108,3.830998 333.034973,1.352555 
	C335.700012,1.000000 338.400024,1.000000 341.736267,1.240406 
	C342.918823,2.291731 343.465149,3.102651 343.633606,3.954432 
	C339.924530,4.971244 340.446930,6.713547 342.452393,8.551611 
	C343.497528,9.509530 344.780762,10.207690 345.642761,11.089708 
	C344.922668,12.027876 344.516296,12.899509 343.780640,13.659752 
	C341.342529,12.627715 339.233734,11.707068 335.820770,10.217041 
	C337.060760,12.734962 337.589417,13.808445 338.118073,14.881929 
z"/>
<path fill="#E3C68C" opacity="1.000000" stroke="none" 
	d="
M344.011444,3.913570 
	C343.465149,3.102651 342.918823,2.291731 342.186279,1.240406 
	C346.356903,1.000000 350.713806,1.000000 355.519287,1.358028 
	C356.987854,3.475225 358.007874,5.234395 359.027893,6.993569 
	C359.027863,6.993574 359.011993,7.008586 358.979492,7.354643 
	C358.541473,8.785960 358.136017,9.871221 357.387207,10.978888 
	C355.399780,10.297034 353.755707,9.592774 351.873291,8.644809 
	C349.093750,6.905258 346.552612,5.409413 344.011444,3.913570 
z"/>
<path fill="#E4C38E" opacity="1.000000" stroke="none" 
	d="
M139.000000,1.000000 
	C141.042313,1.000000 143.084641,1.000000 145.601135,1.359709 
	C148.105896,3.808511 150.136490,5.897605 151.813080,8.047213 
	C149.935074,8.621811 148.411072,9.135894 146.669189,9.742537 
	C146.451324,9.835095 146.023819,10.038515 145.731628,10.067926 
	C144.956100,10.399733 144.472733,10.702127 143.650711,11.040343 
	C141.896194,11.645986 140.480347,12.215806 139.064667,12.370913 
	C139.043213,8.304132 139.021606,4.652066 139.000000,1.000000 
z"/>
<path fill="#CDB04A" opacity="1.000000" stroke="none" 
	d="
M88.972755,17.016132 
	C90.005905,11.947104 91.039047,6.878075 92.036102,1.404523 
	C93.388893,1.000000 94.777779,1.000000 96.583336,1.000000 
	C95.543274,6.231773 94.086555,11.463547 91.985718,16.886806 
	C90.585258,17.029352 89.828911,16.980413 89.035728,16.938625 
	C88.998886,16.945776 88.972755,17.016132 88.972755,17.016132 
z"/>
<path fill="#BD8964" opacity="1.000000" stroke="none" 
	d="
M272.600006,1.000000 
	C273.332764,4.030868 273.665527,7.061737 273.729431,10.632754 
	C273.082947,11.473860 272.705353,11.774817 271.955078,12.096703 
	C270.110779,13.732844 268.639160,15.348057 267.167542,16.963268 
	C267.510803,13.552183 267.854126,10.141100 268.260925,6.099001 
	C267.286224,5.351378 265.618073,4.071868 264.138763,2.290211 
	C264.551727,1.525375 264.775879,1.262688 265.000000,1.000000 
	C265.444458,1.000000 265.888885,1.000000 266.826202,1.195893 
	C267.879364,1.261191 268.439697,1.130596 269.000000,1.000000 
	C270.066681,1.000000 271.133331,1.000000 272.600006,1.000000 
z"/>
<path fill="#CFA95D" opacity="1.000000" stroke="none" 
	d="
M138.583328,1.000000 
	C139.021606,4.652066 139.043213,8.304132 138.911957,12.703854 
	C137.171814,16.570108 134.831085,18.476793 131.089539,17.810444 
	C131.036057,16.661461 131.022659,15.896787 131.420334,15.094460 
	C137.778275,12.871036 134.439835,8.600936 134.087479,4.601121 
	C134.057556,3.133896 134.028778,2.066948 134.000000,1.000000 
	C135.388885,1.000000 136.777786,1.000000 138.583328,1.000000 
z"/>
<path fill="#E1C49F" opacity="1.000000" stroke="none" 
	d="
M15.000000,1.000000 
	C20.354929,1.000000 25.709860,1.000000 31.539608,1.323121 
	C32.325386,3.160488 32.636349,4.674733 32.613846,6.156518 
	C31.834618,6.113795 31.388857,6.103531 30.526333,6.030010 
	C26.733585,5.684989 23.357599,5.403224 19.700567,4.968009 
	C18.034740,3.855966 16.649963,2.897374 15.207117,1.701762 
	C15.149050,1.464742 15.000000,1.000000 15.000000,1.000000 
z"/>
<path fill="#D1B359" opacity="1.000000" stroke="none" 
	d="
M82.583336,1.000000 
	C83.157127,4.517774 83.314255,8.035548 82.872589,11.815946 
	C81.533417,12.019531 80.793037,11.960493 80.052650,11.901454 
	C79.929718,11.613512 79.745132,11.372858 79.285255,10.677616 
	C78.700996,8.449331 78.330383,6.722921 77.959778,4.996511 
	C77.989250,3.930623 78.018730,2.864735 78.024109,1.399423 
	C79.388893,1.000000 80.777779,1.000000 82.583336,1.000000 
z"/>
<path fill="#D5B760" opacity="1.000000" stroke="none" 
	d="
M177.872620,10.689810 
	C178.549042,7.712116 179.225464,4.734422 179.950928,1.378364 
	C180.750000,1.000000 181.500000,1.000000 182.698685,1.315148 
	C183.811203,2.074496 184.475052,2.518695 185.138885,2.962895 
	C184.718536,4.717473 184.298187,6.472050 183.610016,8.750800 
	C182.903519,9.842698 182.464844,10.410422 181.609848,10.976414 
	C180.086563,10.879724 178.979584,10.784766 177.872620,10.689810 
z"/>
<path fill="#E7CB99" opacity="1.000000" stroke="none" 
	d="
M32.947311,6.188978 
	C32.636349,4.674733 32.325386,3.160488 32.007214,1.323121 
	C35.030594,1.000000 38.061188,1.000000 41.545891,1.000000 
	C40.685032,3.356422 39.370068,5.712844 37.721294,8.372625 
	C35.907429,7.846983 34.427372,7.017980 32.947311,6.188978 
z"/>
<path fill="#CCAA4D" opacity="1.000000" stroke="none" 
	d="
M169.562500,1.000003 
	C168.374329,3.155032 166.983124,5.572991 165.007050,7.335062 
	C164.221848,8.035232 162.140625,7.281995 160.407288,6.676629 
	C161.110092,4.441870 162.055054,2.720936 163.000000,1.000001 
	C165.041672,1.000000 167.083328,1.000000 169.562500,1.000003 
z"/>
<path fill="#CEAF43" opacity="1.000000" stroke="none" 
	d="
M152.167068,7.986700 
	C150.136490,5.897605 148.105896,3.808511 146.037659,1.359709 
	C149.030594,1.000000 152.061188,1.000000 155.516220,1.364798 
	C155.882248,3.818159 155.823853,5.906722 155.405029,7.998894 
	C154.085434,7.997236 153.126251,7.991968 152.167068,7.986700 
z"/>
<path fill="#EAD2A5" opacity="1.000000" stroke="none" 
	d="
M155.765442,7.995283 
	C155.823853,5.906722 155.882248,3.818159 155.970337,1.364798 
	C158.041672,1.000000 160.083328,1.000000 162.562500,1.000001 
	C162.055054,2.720936 161.110092,4.441870 160.137817,6.485854 
	C160.072769,7.654055 160.035049,8.499206 159.629471,9.747010 
	C158.096222,9.431537 156.930832,8.713409 155.765442,7.995283 
z"/>
<path fill="#E5CA89" opacity="1.000000" stroke="none" 
	d="
M200.973328,3.016303 
	C200.026108,3.648493 198.817642,4.086904 198.178955,4.947940 
	C195.954193,7.947285 194.137665,6.927684 192.149231,3.944894 
	C191.993225,2.514544 191.996613,1.757272 192.000000,1.000000 
	C194.700012,1.000000 197.400024,1.000000 200.555298,1.336071 
	C200.998154,2.120196 200.985748,2.568250 200.973328,3.016303 
z"/>
<path fill="#D1B359" opacity="1.000000" stroke="none" 
	d="
M288.583344,1.000000 
	C286.225647,7.596602 284.364624,8.457861 279.272797,5.253398 
	C280.788910,4.010278 282.248199,2.813732 283.853760,1.308593 
	C285.388885,1.000000 286.777802,1.000000 288.583344,1.000000 
z"/>
<path fill="#D1B451" opacity="1.000000" stroke="none" 
	d="
M72.872513,3.222701 
	C72.891655,4.032945 73.103539,4.900129 72.884933,5.640134 
	C72.554413,6.758953 71.923897,7.789148 71.420868,8.857006 
	C70.426460,8.193901 69.031044,7.747585 68.528748,6.818445 
	C67.712219,5.308026 67.480148,3.481649 67.000702,1.394315 
	C68.066673,1.000000 69.133339,1.000000 70.633690,1.315113 
	C71.669083,2.161051 72.270798,2.691876 72.872513,3.222701 
z"/>
<path fill="#A36C41" opacity="1.000000" stroke="none" 
	d="
M15.265184,1.938783 
	C16.649963,2.897374 18.034740,3.855966 19.706470,5.336780 
	C19.999203,6.845681 20.004988,7.832360 20.010771,8.819039 
	C15.344948,9.685734 14.388498,5.053961 11.278554,2.787238 
	C10.960402,2.431729 10.951334,2.035574 11.163608,1.903228 
	C11.645017,1.563380 11.853057,1.306419 12.000000,1.000000 
	C12.444445,1.000000 12.888889,1.000000 13.826385,1.217614 
	C14.634685,1.603080 14.949934,1.770931 15.265184,1.938783 
z"/>
<path fill="#EEDBB2" opacity="1.000000" stroke="none" 
	d="
M120.000000,1.000000 
	C121.389000,1.000000 122.777992,1.000000 124.593353,1.334070 
	C125.357040,2.445807 125.694359,3.223474 125.961853,4.356936 
	C125.354294,6.514866 124.816566,8.317002 123.955231,10.060142 
	C123.084709,9.665271 122.537804,9.329397 121.991280,8.597185 
	C121.327782,5.800565 120.663895,3.400282 120.000000,1.000000 
z"/>
<path fill="#D1B451" opacity="1.000000" stroke="none" 
	d="
M201.190170,3.206270 
	C200.985748,2.568250 200.998154,2.120196 201.005280,1.336071 
	C203.700012,1.000000 206.400024,1.000000 209.391968,1.279680 
	C208.451675,3.025160 207.219452,4.490960 205.987244,5.956761 
	C205.233963,6.000216 204.480682,6.043669 203.235657,5.866151 
	C202.472397,5.435102 202.200897,5.225021 201.929398,5.014943 
	C201.755264,4.475375 201.581131,3.935805 201.190170,3.206270 
z"/>
<path fill="#EAD2A5" opacity="1.000000" stroke="none" 
	d="
M215.583344,1.000001 
	C216.458481,2.707530 216.916962,4.415058 217.781006,7.632985 
	C215.130951,6.101482 213.415131,5.109877 211.351196,3.684732 
	C211.002075,2.500795 211.001038,1.750398 211.000000,1.000000 
	C212.388885,1.000000 213.777786,1.000000 215.583344,1.000001 
z"/>
<path fill="#E9D29A" opacity="1.000000" stroke="none" 
	d="
M126.031677,4.001141 
	C125.694359,3.223474 125.357040,2.445807 125.009857,1.334070 
	C127.700012,1.000000 130.400024,1.000000 133.550018,1.000000 
	C134.028778,2.066948 134.057556,3.133896 133.690186,4.600647 
	C132.248550,4.986773 131.203079,4.973096 130.110641,4.615861 
	C128.997177,0.055700 127.448601,3.007277 126.031677,4.001141 
z"/>
<path fill="#E7CB9C" opacity="1.000000" stroke="none" 
	d="
M227.712921,4.157055 
	C226.908585,3.376266 226.464645,2.552322 226.010345,1.364189 
	C229.361282,1.000000 232.722580,1.000000 236.541931,1.000003 
	C234.024429,2.037971 231.048874,3.075936 227.712921,4.157055 
z"/>
<path fill="#9C6538" opacity="1.000000" stroke="none" 
	d="
M359.135315,6.666280 
	C358.007874,5.234395 356.987854,3.475225 355.983948,1.358028 
	C357.714355,1.000000 359.428711,1.000000 361.571533,1.000001 
	C361.080933,2.779666 360.161835,4.559330 359.135315,6.666280 
z"/>
<path fill="#E9D29A" opacity="1.000000" stroke="none" 
	d="
M119.666672,1.000000 
	C120.663895,3.400282 121.327782,5.800565 121.660416,8.519707 
	C120.138504,7.851171 118.947845,6.863777 117.757187,5.876381 
	C117.831497,4.522278 117.905807,3.168176 117.990059,1.407037 
	C118.444443,1.000000 118.888893,1.000000 119.666672,1.000000 
z"/>
<path fill="#E5CA89" opacity="1.000000" stroke="none" 
	d="
M210.750000,1.000000 
	C211.001038,1.750398 211.002075,2.500795 211.005768,3.626428 
	C210.493698,4.873025 209.978973,5.744386 209.232727,6.810575 
	C208.147385,6.818688 207.293533,6.631975 206.213470,6.201011 
	C207.219452,4.490960 208.451675,3.025160 209.841949,1.279680 
	C210.000000,1.000000 210.500000,1.000000 210.750000,1.000000 
z"/>
<path fill="#E7CB99" opacity="1.000000" stroke="none" 
	d="
M191.600006,1.000000 
	C191.996613,1.757272 191.993225,2.514544 191.978668,3.651147 
	C190.659958,3.268690 189.352432,2.506901 188.022446,1.372556 
	C189.066666,1.000000 190.133347,1.000000 191.600006,1.000000 
z"/>
<path fill="#E4C38E" opacity="1.000000" stroke="none" 
	d="
M185.343689,2.775541 
	C184.475052,2.518695 183.811203,2.074496 183.073685,1.315148 
	C183.750000,1.000000 184.500000,1.000000 185.625000,1.000000 
	C185.849487,1.529396 185.698975,2.058792 185.343689,2.775541 
z"/>
<path fill="#C18D6C" opacity="1.000000" stroke="none" 
	d="
M10.951334,2.035574 
	C10.951334,2.035574 10.960402,2.431729 10.962309,2.629815 
	C10.039202,2.431242 9.114188,2.034583 8.094587,1.318962 
	C8.444445,1.000000 8.888889,1.000000 9.771399,1.216659 
	C10.408683,1.693282 10.655972,1.894034 10.951334,2.035574 
z"/>
<path fill="#E7CB99" opacity="1.000000" stroke="none" 
	d="
M72.913315,2.852666 
	C72.270798,2.691876 71.669083,2.161051 71.033684,1.315113 
	C71.444443,1.000000 71.888893,1.000000 72.666672,1.000000 
	C72.984711,1.494210 72.969414,1.988420 72.913315,2.852666 
z"/>
<path fill="#E7CB9C" opacity="1.000000" stroke="none" 
	d="
M223.666672,1.000001 
	C223.681793,1.473982 223.363571,1.947961 223.045349,2.421940 
	C222.731735,2.131830 222.418137,1.841722 222.052261,1.275807 
	C222.444443,1.000000 222.888901,1.000000 223.666672,1.000001 
z"/>
<path fill="#B77F55" opacity="1.000000" stroke="none" 
	d="
M264.666687,1.000000 
	C264.775879,1.262688 264.551727,1.525375 264.100433,1.916358 
	C263.606445,1.861775 263.339600,1.678897 263.036377,1.248009 
	C263.444458,1.000000 263.888885,1.000000 264.666687,1.000000 
z"/>
<path fill="#9C6538" opacity="1.000000" stroke="none" 
	d="
M11.163608,1.903228 
	C10.655972,1.894034 10.408683,1.693282 10.104733,1.216659 
	C10.444445,1.000000 10.888889,1.000000 11.666667,1.000000 
	C11.853057,1.306419 11.645017,1.563380 11.163608,1.903228 
z"/>
<path fill="#B77F55" opacity="1.000000" stroke="none" 
	d="
M268.666687,1.000000 
	C268.439697,1.130596 267.879364,1.261191 267.159546,1.195893 
	C267.444458,1.000000 267.888885,1.000000 268.666687,1.000000 
z"/>
<path fill="#9C6538" opacity="1.000000" stroke="none" 
	d="
M15.207117,1.701763 
	C14.949934,1.770931 14.634685,1.603080 14.159718,1.217614 
	C14.000000,1.000000 14.500000,1.000000 14.750000,1.000000 
	C15.000000,1.000000 15.149050,1.464742 15.207117,1.701763 
z"/>
<path fill="#CCAA4D" opacity="1.000000" stroke="none" 
	d="
M328.132751,55.968063 
	C329.746124,58.722061 331.359528,61.476063 332.812836,64.708511 
	C333.292419,65.806885 333.932068,66.426819 334.571716,67.046753 
	C336.097534,68.316673 337.611359,70.701332 339.510071,66.572556 
	C339.607971,64.276794 339.385284,62.504837 339.162598,60.732880 
	C338.888123,59.994080 338.613678,59.255283 338.087952,58.027214 
	C337.571838,57.338398 337.307007,57.138855 337.042175,56.939316 
	C337.042175,56.939316 337.064575,56.992638 337.018188,56.651653 
	C336.343933,55.490578 335.716064,54.670486 335.088196,53.850399 
	C335.084564,53.436844 335.080902,53.023281 335.427063,52.364777 
	C337.561615,52.735119 339.346344,53.350414 341.339905,54.181561 
	C342.010712,55.272942 342.472687,56.148476 343.001709,57.330837 
	C343.707672,58.077499 344.346558,58.517330 345.307922,58.976326 
	C346.057800,58.948208 346.485199,58.900921 346.976135,59.206757 
	C348.049286,61.392334 349.058899,63.224792 350.065491,65.405579 
	C350.388824,66.850784 350.715149,67.947670 351.041473,69.044556 
	C350.691284,69.521484 350.341064,69.998413 349.530273,70.739227 
	C344.558868,72.917107 339.122437,73.428764 336.699219,79.147636 
	C333.919586,80.236656 331.444885,81.145370 328.608337,82.028610 
	C324.826477,79.111916 321.406464,76.220703 318.290527,73.097717 
	C320.478241,72.956306 322.446716,72.736282 324.222260,73.221794 
	C326.106567,73.737030 327.738861,75.139175 329.614319,75.734520 
	C330.774750,76.102898 332.183411,75.689255 333.480652,75.626656 
	C333.095062,74.480957 332.905273,73.211678 332.278198,72.218399 
	C331.328339,70.713768 330.074341,69.401161 328.962463,67.672699 
	C328.973297,66.892487 328.971191,66.446541 329.211792,65.760574 
	C328.719330,63.102013 327.881897,60.706997 327.316742,58.249386 
	C327.164307,57.586544 327.838165,56.733700 328.132751,55.968063 
z"/>
<path fill="#B8825E" opacity="1.000000" stroke="none" 
	d="
M267.094330,17.380209 
	C268.639160,15.348057 270.110779,13.732844 271.900391,12.468809 
	C272.200073,13.571508 272.181793,14.323030 271.965942,15.334265 
	C271.843018,17.062840 271.917633,18.531702 271.987976,20.374531 
	C272.143677,21.477230 272.303619,22.205967 272.377716,23.216013 
	C272.533783,23.995819 272.775665,24.494316 273.022217,25.409384 
	C273.025757,27.211714 273.024628,28.597471 272.652252,30.098246 
	C269.889099,35.018524 270.460449,38.082520 274.183929,40.421093 
	C277.261719,47.813309 280.270111,54.830845 283.017578,62.012611 
	C282.490936,62.487259 282.225220,62.797672 281.959473,63.108086 
	C275.797668,59.624237 271.935364,53.954697 270.252106,47.551773 
	C268.317780,40.193817 268.031921,32.402512 267.264923,24.219982 
	C267.377380,23.101202 267.254883,22.561876 267.132385,22.022549 
	C267.095306,20.614082 267.058197,19.205616 267.094330,17.380209 
z"/>
<path fill="#BE8862" opacity="1.000000" stroke="none" 
	d="
M155.405029,7.998893 
	C156.930832,8.713409 158.096222,9.431537 159.620758,10.168569 
	C165.397217,10.572421 170.814514,10.957371 176.624329,11.587196 
	C178.342514,13.499949 179.668182,15.167828 180.993851,16.835705 
	C173.768326,16.542063 166.453476,16.814266 159.358353,15.694443 
	C156.235352,15.201540 153.406509,12.604416 149.396027,13.553698 
	C148.280533,11.982282 147.583801,10.816132 146.887070,9.649980 
	C148.411072,9.135894 149.935074,8.621811 151.813080,8.047215 
	C153.126251,7.991968 154.085434,7.997236 155.405029,7.998893 
z"/>
<path fill="#AE774D" opacity="1.000000" stroke="none" 
	d="
M362.850189,16.039852 
	C369.169952,24.328905 369.380127,33.281662 365.088989,42.807552 
	C363.317993,42.631210 362.199158,42.299866 361.189880,41.677803 
	C361.527679,40.593887 361.755981,39.800686 362.122437,38.702274 
	C362.693665,33.856815 364.343750,29.209423 361.378265,24.794304 
	C362.067291,21.742651 362.458740,18.891253 362.850189,16.039852 
z"/>
<path fill="#B77F55" opacity="1.000000" stroke="none" 
	d="
M181.458496,16.900309 
	C179.668182,15.167828 178.342514,13.499949 177.017883,11.462056 
	C177.018921,11.092041 177.441315,10.883216 177.656967,10.786512 
	C178.979584,10.784766 180.086563,10.879724 181.931610,11.135296 
	C185.121063,11.568595 187.572449,11.841278 190.023834,12.113960 
	C192.718018,12.085574 195.412186,12.057186 198.640732,12.327427 
	C200.481949,13.444797 201.788803,14.263537 203.095657,15.082275 
	C200.172882,15.700830 197.274246,16.636391 194.321487,16.861351 
	C190.209946,17.174597 186.057877,16.955923 181.458496,16.900309 
z"/>
<path fill="#AD7849" opacity="1.000000" stroke="none" 
	d="
M146.669189,9.742538 
	C147.583801,10.816132 148.280533,11.982282 148.997452,13.491802 
	C146.152725,15.590843 143.075089,17.082239 140.479141,19.172007 
	C137.525421,21.549774 135.136612,24.741705 130.218674,23.632687 
	C129.495392,22.836475 129.232849,22.202616 129.203857,21.434874 
	C130.001480,20.265577 130.565552,19.230164 131.129623,18.194750 
	C134.831085,18.476793 137.171814,16.570108 138.911804,13.118568 
	C140.480347,12.215806 141.896194,11.645986 143.839142,11.226781 
	C144.918777,10.931105 145.471298,10.484812 146.023819,10.038517 
	C146.023819,10.038515 146.451324,9.835095 146.669189,9.742538 
z"/>
<path fill="#B17A56" opacity="1.000000" stroke="none" 
	d="
M81.011368,21.101254 
	C82.381195,21.180368 83.751030,21.259483 85.830376,21.563993 
	C89.991158,22.873838 93.442429,23.958288 97.090836,25.317961 
	C98.512970,26.157722 99.737976,26.722260 100.855881,27.609459 
	C98.776169,28.637594 96.803551,29.343063 94.830925,30.048534 
	C90.447044,28.432863 86.063156,26.817192 81.336563,24.648098 
	C80.999687,23.096870 81.005531,22.099062 81.011368,21.101254 
z"/>
<path fill="#BE8862" opacity="1.000000" stroke="none" 
	d="
M317.986450,73.329491 
	C321.406464,76.220703 324.826477,79.111916 328.571167,82.364182 
	C328.028503,85.355911 328.440308,86.623650 331.573639,85.463394 
	C332.237030,85.217751 333.166046,85.689583 333.972687,85.830833 
	C327.830536,89.285782 326.697205,89.110115 321.693085,84.255493 
	C320.663177,83.256393 319.377747,82.520683 318.300842,81.131592 
	C317.973907,79.557930 317.471436,78.540947 317.158905,77.468605 
	C316.717804,75.955521 316.417297,74.401466 316.379913,72.933594 
	C317.130890,73.111343 317.558685,73.220413 317.986450,73.329491 
z"/>
<path fill="#AE774D" opacity="1.000000" stroke="none" 
	d="
M48.147346,10.624506 
	C54.926563,12.546437 61.705776,14.468370 68.767952,16.953564 
	C67.920029,18.244736 66.869057,19.202681 65.634315,19.631618 
	C64.542679,20.010839 63.246319,19.800743 62.040348,19.850834 
	C57.841198,18.804972 52.951412,19.123636 50.796211,14.020452 
	C50.658703,13.694856 49.401314,13.842214 48.345207,13.390849 
	C48.066132,12.216267 48.106739,11.420386 48.147346,10.624506 
z"/>
<path fill="#B47E58" opacity="1.000000" stroke="none" 
	d="
M316.056702,72.864922 
	C316.417297,74.401466 316.717804,75.955521 317.158905,77.468605 
	C317.471436,78.540947 317.973907,79.557930 318.152130,80.818130 
	C313.710266,76.589531 309.507874,72.142426 305.325531,67.073685 
	C306.155884,65.871124 306.966187,65.290207 308.044312,64.840210 
	C310.893646,67.602379 313.475159,70.233650 316.056702,72.864922 
z"/>
<path fill="#B8825E" opacity="1.000000" stroke="none" 
	d="
M337.004211,78.967331 
	C339.122437,73.428764 344.558868,72.917107 349.422272,71.019310 
	C348.966919,77.110130 344.117310,79.747932 339.405090,82.598915 
	C338.365387,81.248985 337.684784,80.108162 337.004211,78.967331 
z"/>
<path fill="#A56F3D" opacity="1.000000" stroke="none" 
	d="
M362.902771,15.655308 
	C362.458740,18.891253 362.067291,21.742651 361.014923,24.737064 
	C360.111450,24.848518 359.868835,24.816954 359.500092,24.594698 
	C359.067902,24.041428 358.761841,23.678846 358.552002,22.926361 
	C358.342346,18.676464 358.036438,14.816472 357.730530,10.956480 
	C358.136017,9.871221 358.541473,8.785960 358.972534,7.346486 
	C360.317230,9.751768 361.636322,12.511265 362.902771,15.655308 
z"/>
<path fill="#B77F55" opacity="1.000000" stroke="none" 
	d="
M282.123962,63.440094 
	C282.225220,62.797672 282.490936,62.487259 283.329102,61.967964 
	C284.925354,61.467144 285.949188,61.175209 287.333374,60.869690 
	C289.749176,60.246647 291.804565,59.637188 294.118896,59.168793 
	C294.923706,59.847832 295.469604,60.385803 296.013000,61.327354 
	C296.026764,62.537914 296.043091,63.344891 296.059387,64.151871 
	C291.453857,64.577469 286.751984,68.496819 282.123962,63.440094 
z"/>
<path fill="#B8825E" opacity="1.000000" stroke="none" 
	d="
M32.613846,6.156518 
	C34.427372,7.017980 35.907429,7.846983 37.707916,8.719488 
	C38.856075,9.009634 39.683815,9.256276 40.756714,10.101948 
	C40.971985,11.510548 40.942093,12.320119 40.912201,13.129689 
	C36.513680,12.171922 32.115162,11.214154 27.572090,9.831217 
	C28.599388,8.301787 29.771240,7.197527 30.943094,6.093267 
	C31.388857,6.103531 31.834618,6.113795 32.613846,6.156518 
z"/>
<path fill="#B8825E" opacity="1.000000" stroke="none" 
	d="
M363.845856,53.025467 
	C362.817932,57.269707 361.352570,61.193817 356.347931,62.581093 
	C355.962769,61.913090 355.931854,61.451115 356.053711,60.673729 
	C357.330933,57.490086 353.853394,52.599022 359.997375,52.205040 
	C361.330109,52.679081 362.587982,52.852272 363.845856,53.025467 
z"/>
<path fill="#A36C41" opacity="1.000000" stroke="none" 
	d="
M128.970306,21.568756 
	C129.232849,22.202616 129.495392,22.836475 129.897186,23.784660 
	C127.007607,25.072054 123.978806,26.045120 120.172348,26.997137 
	C118.601990,25.995352 117.809288,25.014616 117.352264,23.912142 
	C119.222115,23.228285 120.756279,22.666166 122.703224,22.111456 
	C125.067436,21.935493 127.018875,21.752125 128.970306,21.568756 
z"/>
<path fill="#BD8964" opacity="1.000000" stroke="none" 
	d="
M95.036301,30.383694 
	C96.803551,29.343063 98.776169,28.637594 101.082993,27.462055 
	C101.647034,26.719391 101.876884,26.446793 102.106735,26.174194 
	C102.106735,26.174192 102.552948,26.081020 103.163025,26.077126 
	C104.811104,25.991638 105.849106,25.910046 106.917488,26.170326 
	C107.618065,27.621832 108.288261,28.731464 108.958458,29.841099 
	C104.462578,31.327238 100.001068,33.350548 95.036301,30.383694 
z"/>
<path fill="#AA724B" opacity="1.000000" stroke="none" 
	d="
M336.699219,79.147636 
	C337.684784,80.108162 338.365387,81.248985 339.106293,82.766479 
	C339.166626,83.143143 339.139984,83.133186 338.821533,83.102661 
	C338.010223,83.426025 337.517334,83.779907 337.024445,84.133781 
	C336.212433,84.697601 335.400452,85.261436 334.280579,85.828049 
	C333.166046,85.689583 332.237030,85.217751 331.573639,85.463394 
	C328.440308,86.623650 328.028503,85.355911 328.933014,82.389664 
	C331.444885,81.145370 333.919586,80.236656 336.699219,79.147636 
z"/>
<path fill="#9C6538" opacity="1.000000" stroke="none" 
	d="
M363.913635,52.643829 
	C362.587982,52.852272 361.330109,52.679081 360.000061,51.782990 
	C360.312073,48.029568 360.696228,44.999046 361.080353,41.968521 
	C362.199158,42.299866 363.317993,42.631210 364.784424,43.015224 
	C365.082855,43.505718 365.033691,43.943539 364.588989,44.795040 
	C364.071991,46.787262 363.950562,48.365799 363.829102,49.944336 
	C363.879852,50.716953 363.930634,51.489571 363.913635,52.643829 
z"/>
<path fill="#AA724B" opacity="1.000000" stroke="none" 
	d="
M30.526333,6.030010 
	C29.771240,7.197527 28.599388,8.301787 27.230686,9.641001 
	C24.961760,9.564073 22.889685,9.252192 20.414188,8.879675 
	C20.004988,7.832360 19.999203,6.845681 19.987518,5.490231 
	C23.357599,5.403224 26.733585,5.684989 30.526333,6.030010 
z"/>
<path fill="#AA724B" opacity="1.000000" stroke="none" 
	d="
M109.223259,29.879528 
	C108.288261,28.731464 107.618065,27.621832 106.970291,25.994091 
	C106.992714,25.475986 107.057571,25.112919 107.412781,25.083439 
	C108.856659,24.631472 109.945320,24.208982 111.435028,23.794991 
	C112.904625,23.826046 113.973167,23.848608 115.017159,24.244919 
	C113.333122,26.352432 111.673645,28.086195 110.014175,29.819958 
	C109.838806,29.852625 109.663437,29.885292 109.223259,29.879528 
z"/>
<path fill="#B17A56" opacity="1.000000" stroke="none" 
	d="
M76.975182,19.053621 
	C77.525391,19.210302 78.075600,19.366983 78.762833,20.050579 
	C78.249718,21.422529 77.599586,22.267569 76.949448,23.112608 
	C76.207840,23.063704 75.466240,23.014799 74.314880,22.650742 
	C73.282394,22.172548 72.659676,22.009512 72.036949,21.846474 
	C71.582535,21.887815 71.128120,21.929155 70.357376,21.570957 
	C71.405151,20.091852 72.769249,19.012283 74.351265,17.946417 
	C74.569176,17.960119 74.992546,18.067120 75.038116,18.332264 
	C75.714188,18.749479 76.344688,18.901550 76.975182,19.053621 
z"/>
<path fill="#A36C41" opacity="1.000000" stroke="none" 
	d="
M40.935066,13.093514 
	C40.942093,12.320119 40.971985,11.510548 41.013664,10.295811 
	C43.168976,10.013590 45.312511,10.136536 47.801697,10.441994 
	C48.106739,11.420386 48.066132,12.216267 48.023129,13.408052 
	C47.574963,13.856912 47.129189,13.909864 45.940399,13.964228 
	C44.385506,13.980598 43.573631,13.995559 42.761753,14.010519 
	C42.761753,14.010519 42.374958,14.054424 42.063087,13.774555 
	C41.494431,13.276741 41.205860,13.115749 40.885513,13.011710 
	C40.885513,13.011710 40.957928,13.057340 40.935066,13.093514 
z"/>
<path fill="#B8825E" opacity="1.000000" stroke="none" 
	d="
M110.397583,29.741644 
	C111.673645,28.086195 113.333122,26.352432 115.349121,24.213415 
	C116.142624,23.883402 116.579605,23.958643 117.016586,24.033882 
	C117.809288,25.014616 118.601990,25.995352 119.764725,27.004330 
	C117.016830,27.909492 113.898903,28.786411 110.397583,29.741644 
z"/>
<path fill="#B17A56" opacity="1.000000" stroke="none" 
	d="
M296.427216,64.107407 
	C296.043091,63.344891 296.026764,62.537914 296.429047,61.288116 
	C298.501556,60.944950 300.155487,61.044609 301.873016,61.498478 
	C301.965118,62.570683 301.993591,63.288677 302.022064,64.006668 
	C300.279724,64.025429 298.537354,64.044189 296.427216,64.107407 
z"/>
<path fill="#B8825E" opacity="1.000000" stroke="none" 
	d="
M74.133354,17.932716 
	C72.769249,19.012283 71.405151,20.091852 70.017365,21.526138 
	C67.568298,21.329771 65.142921,20.778690 62.378944,20.039223 
	C63.246319,19.800743 64.542679,20.010839 65.634315,19.631618 
	C66.869057,19.202681 67.920029,18.244736 69.095444,17.125969 
	C70.484505,16.836920 71.829048,16.938730 73.607712,17.263985 
	C74.041840,17.487429 74.133354,17.932716 74.133354,17.932716 
z"/>
<path fill="#E4C38E" opacity="1.000000" stroke="none" 
	d="
M203.312561,15.047106 
	C201.788803,14.263537 200.481949,13.444797 199.089722,12.303534 
	C200.518784,12.011288 202.033218,12.041565 203.906830,12.152383 
	C204.167877,12.932211 204.069748,13.631499 203.969727,14.686832 
	C203.967834,15.042877 203.529449,15.011932 203.312561,15.047106 
z"/>
<path fill="#C18D6C" opacity="1.000000" stroke="none" 
	d="
M351.352356,69.112587 
	C350.715149,67.947670 350.388824,66.850784 350.324493,65.390701 
	C350.759644,65.019104 350.932800,65.010696 351.403809,64.984886 
	C352.097687,64.932579 352.493805,64.897682 353.035522,65.099533 
	C353.469238,65.563477 353.757324,65.790680 354.045410,66.017868 
	C353.251373,67.072121 352.457306,68.126373 351.352356,69.112587 
z"/>
<path fill="#B8825E" opacity="1.000000" stroke="none" 
	d="
M77.112656,23.402536 
	C77.599586,22.267569 78.249718,21.422529 78.966049,20.258835 
	C79.520889,20.239195 80.009537,20.538214 80.754776,20.969244 
	C81.005531,22.099062 80.999687,23.096870 80.993027,24.469353 
	C79.753426,24.460173 78.514641,24.076319 77.112656,23.402536 
z"/>
<path fill="#B47E58" opacity="1.000000" stroke="none" 
	d="
M354.354370,65.919662 
	C353.757324,65.790680 353.469238,65.563477 353.080322,64.788986 
	C352.991058,63.822067 353.002655,63.402435 353.005951,62.994339 
	C352.997650,63.005875 352.974243,63.021950 353.228882,62.900993 
	C353.734344,62.497810 353.985168,62.215584 354.439728,61.805275 
	C355.062622,61.447838 355.481781,61.218487 355.900940,60.989136 
	C355.931854,61.451115 355.962769,61.913090 356.008118,62.722034 
	C355.569489,63.986481 355.116394,64.903961 354.354370,65.919662 
z"/>
<path fill="#E3C68C" opacity="1.000000" stroke="none" 
	d="
M302.245117,64.006302 
	C301.993591,63.288677 301.965118,62.570683 302.219086,61.487560 
	C303.684448,61.962460 304.867310,62.802490 305.662933,63.733196 
	C304.485657,63.913654 303.695648,64.003441 302.905640,64.093224 
	C302.905640,64.093224 302.468170,64.005943 302.245117,64.006302 
z"/>
<path fill="#AE774D" opacity="1.000000" stroke="none" 
	d="
M364.013824,49.617889 
	C363.950562,48.365799 364.071991,46.787262 364.514526,45.117134 
	C364.623260,46.447510 364.410889,47.869476 364.013824,49.617889 
z"/>
<path fill="#AA724B" opacity="1.000000" stroke="none" 
	d="
M302.938507,64.461151 
	C303.695648,64.003441 304.485657,63.913654 305.971985,63.874527 
	C307.037689,64.186554 307.407074,64.447922 307.776489,64.709297 
	C306.966187,65.290207 306.155884,65.871124 305.145691,66.775101 
	C304.287628,66.341797 303.629517,65.585442 302.938507,64.461151 
z"/>
<path fill="#DEBC87" opacity="1.000000" stroke="none" 
	d="
M42.937584,14.313545 
	C43.573631,13.995559 44.385506,13.980598 45.604431,13.992941 
	C45.045456,14.219020 44.079437,14.417795 42.937584,14.313545 
z"/>
<path fill="#B8825E" opacity="1.000000" stroke="none" 
	d="
M72.294510,21.976048 
	C72.659676,22.009512 73.282394,22.172548 73.947266,22.594294 
	C73.510307,22.603874 73.031189,22.354746 72.294510,21.976048 
z"/>
<path fill="#B8825E" opacity="1.000000" stroke="none" 
	d="
M337.344849,84.103104 
	C337.517334,83.779907 338.010223,83.426025 338.823761,83.090065 
	C338.651367,83.429466 338.158325,83.750938 337.344849,84.103104 
z"/>
<path fill="#BD8964" opacity="1.000000" stroke="none" 
	d="
M267.064148,22.344452 
	C267.254883,22.561876 267.377380,23.101202 267.326416,23.802383 
	C267.100616,23.531612 267.048279,23.098984 267.064148,22.344452 
z"/>
<path fill="#BE8862" opacity="1.000000" stroke="none" 
	d="
M40.972893,13.271531 
	C41.205860,13.115749 41.494431,13.276741 41.880310,13.707651 
	C41.693020,13.790862 41.376648,13.661107 40.972893,13.271531 
z"/>
<path fill="#ECD5A9" opacity="1.000000" stroke="none" 
	d="
M286.973022,60.883270 
	C285.949188,61.175209 284.925354,61.467144 283.590027,61.803730 
	C280.270111,54.830845 277.261719,47.813309 274.230499,40.018852 
	C274.329834,38.177612 274.451965,37.113289 274.823395,35.911331 
	C274.490967,33.813690 273.909241,31.853678 273.251404,29.915686 
	C273.175323,29.937704 273.023529,29.983231 273.023529,29.983231 
	C273.024628,28.597471 273.025757,27.211714 273.205872,25.246201 
	C273.077789,24.089199 272.770660,23.511953 272.463531,22.934706 
	C272.303619,22.205967 272.143677,21.477230 272.361237,20.371298 
	C274.166931,19.668650 275.595093,19.343199 277.016785,19.418289 
	C277.101013,22.158264 276.576172,24.913338 280.737732,24.776192 
	C282.414551,24.846422 283.704010,24.906361 285.206726,25.199526 
	C286.256836,24.925667 287.093689,24.418579 287.927429,23.898350 
	C287.924347,23.885208 287.896881,23.860958 288.248352,23.864429 
	C289.729675,23.568645 290.859528,23.269394 291.989410,22.970142 
	C292.001678,23.453598 292.013947,23.937056 291.978821,25.104988 
	C291.556580,26.833529 291.181732,27.877592 290.469757,28.959053 
	C289.410553,29.968704 288.688477,30.940956 287.675049,32.114155 
	C286.071747,36.626034 284.455902,40.875484 283.566284,45.271889 
	C283.065033,47.749176 284.909637,48.417812 287.054749,47.159584 
	C288.181763,46.498505 289.189240,45.633564 290.211487,45.324081 
	C290.052643,48.905193 289.932983,52.022911 289.577942,55.358963 
	C288.552734,57.345959 287.762878,59.114616 286.973022,60.883270 
z"/>
<path fill="#EEDBB2" opacity="1.000000" stroke="none" 
	d="
M304.062256,33.018620 
	C305.898590,32.304672 307.884491,31.837013 309.542938,30.830105 
	C314.318726,27.930580 315.359558,28.366795 315.646759,33.393665 
	C318.560272,33.034954 321.515533,32.671097 325.813049,32.141987 
	C324.605560,34.956116 323.885864,36.633373 322.771271,38.854294 
	C320.567230,43.537720 317.958038,47.638153 321.847015,52.403709 
	C322.077911,53.465000 322.215912,54.176075 322.019135,55.024944 
	C321.043793,55.483322 320.403259,55.803905 319.449463,55.972298 
	C318.107147,52.875381 317.078094,49.930656 316.307739,46.747780 
	C317.041626,44.677094 317.516724,42.844555 317.993530,40.614761 
	C317.408936,35.336189 317.128510,35.224716 312.557800,38.147057 
	C311.454498,38.022591 310.716614,37.952221 309.968445,37.524303 
	C308.951447,36.458939 307.944672,35.751122 306.593658,35.041489 
	C305.788696,35.072250 305.327972,35.104828 304.727417,34.876953 
	C304.283997,34.106270 303.980438,33.596039 303.773956,33.073219 
	C303.871033,33.060631 304.062256,33.018620 304.062256,33.018620 
z"/>
<path fill="#CDB04A" opacity="1.000000" stroke="none" 
	d="
M338.309143,15.021698 
	C337.589417,13.808445 337.060760,12.734962 335.820770,10.217041 
	C339.233734,11.707068 341.342529,12.627715 344.043640,13.888659 
	C346.777863,16.141047 348.919739,18.053137 351.203522,20.289402 
	C352.304016,22.829016 353.307892,25.026213 354.210297,27.264322 
	C355.450378,30.339874 354.725159,32.159386 351.008362,31.567036 
	C349.690308,28.739864 348.404724,26.272120 346.983734,23.538189 
	C346.280792,22.472399 345.713257,21.672792 345.049316,20.580297 
	C344.335663,19.816904 343.718414,19.346401 342.957275,18.687618 
	C342.587311,18.272770 342.327667,18.095234 341.879639,17.696064 
	C340.861755,16.903368 339.998779,16.381342 339.135773,15.859315 
	C338.961121,15.592810 338.749268,15.360194 338.309143,15.021698 
z"/>
<path fill="#EEDBB2" opacity="1.000000" stroke="none" 
	d="
M334.001221,36.001373 
	C333.126923,35.369240 331.545349,34.793560 331.489655,34.096088 
	C331.022949,28.248871 330.836243,22.379301 330.565216,16.516462 
	C331.010193,16.333094 331.455200,16.149725 331.900177,15.966356 
	C332.595093,17.492235 333.142639,19.110470 334.025177,20.518780 
	C334.962799,22.014906 336.218018,23.311966 337.668396,25.247377 
	C336.668579,29.199657 335.334900,32.600517 334.001221,36.001373 
z"/>
<path fill="#EAD2A5" opacity="1.000000" stroke="none" 
	d="
M334.078522,36.326141 
	C335.334900,32.600517 336.668579,29.199657 338.007843,25.399895 
	C342.743073,24.212067 339.392792,20.848236 340.343689,18.367123 
	C341.132263,17.980026 341.583374,17.973379 342.034485,17.966732 
	C342.327667,18.095234 342.587311,18.272770 342.985474,19.020157 
	C343.820251,19.985048 344.483002,20.429121 345.145721,20.873190 
	C345.713257,21.672792 346.280792,22.472399 346.753937,23.825466 
	C345.509125,24.957247 344.312622,25.459999 343.217194,26.128443 
	C340.258545,27.933870 338.801697,30.065243 341.869629,33.279938 
	C340.824280,34.714798 339.913971,35.857311 339.003662,36.999825 
	C337.387695,36.883522 335.771759,36.767216 334.078522,36.326141 
z"/>
<path fill="#D1B451" opacity="1.000000" stroke="none" 
	d="
M322.353943,54.887150 
	C322.215912,54.176075 322.077911,53.465000 321.901917,51.961258 
	C321.994965,48.680588 322.125916,46.192589 322.325104,42.409000 
	C324.373932,45.836983 325.652252,47.975761 326.930573,50.114540 
	C327.304779,51.817329 327.678986,53.520115 328.092957,55.595482 
	C327.838165,56.733700 327.164307,57.586544 327.316742,58.249386 
	C327.881897,60.706997 328.719330,63.102013 328.966003,65.565399 
	C327.668091,64.400169 326.858673,63.190086 325.967468,61.650852 
	C324.708405,59.176849 323.531189,57.031998 322.353943,54.887150 
z"/>
<path fill="#ECD5A9" opacity="1.000000" stroke="none" 
	d="
M295.965118,25.093290 
	C300.161194,22.441105 299.863647,25.604513 299.696320,28.674160 
	C299.260742,30.425997 299.126587,31.712933 298.667236,32.957275 
	C297.468231,32.751785 296.594513,32.588894 294.096313,32.123158 
	C296.219299,35.139095 297.573273,37.062527 298.936707,39.322479 
	C298.944885,40.107853 298.943604,40.556698 298.578369,41.003696 
	C297.034058,40.999832 295.853760,40.997818 294.548340,40.619232 
	C294.263367,37.157249 294.103516,34.071835 294.265808,30.809793 
	C295.046997,28.786539 295.506073,26.939915 295.965118,25.093290 
z"/>
<path fill="#ECD5A3" opacity="1.000000" stroke="none" 
	d="
M338.994080,37.354263 
	C339.913971,35.857311 340.824280,34.714798 342.150513,33.310928 
	C343.034760,33.333305 343.503021,33.617039 344.102356,34.130127 
	C344.499359,34.582340 344.765350,34.805195 345.012604,35.019417 
	C344.993896,35.010788 344.982941,34.971039 344.971130,35.351704 
	C344.950867,36.493553 344.942444,37.254742 344.637390,38.162704 
	C343.225800,39.539925 342.110840,40.770367 340.683044,42.071053 
	C340.576447,43.089382 340.782715,44.037464 341.003937,45.367424 
	C341.350525,47.488022 341.682220,49.226730 341.721069,50.986679 
	C341.233307,51.025364 341.038361,51.042820 340.639252,50.864670 
	C339.924408,50.454544 339.413696,50.240021 338.905579,49.733418 
	C338.612030,48.960590 338.315887,48.479839 338.010376,47.672340 
	C337.659485,46.575676 337.317932,45.805759 336.953735,44.718822 
	C336.617737,43.623245 336.304382,42.844685 335.991028,42.066124 
	C336.988892,40.613651 337.986725,39.161175 338.994080,37.354263 
z"/>
<path fill="#D3B75A" opacity="1.000000" stroke="none" 
	d="
M292.864624,12.933472 
	C293.481110,11.820086 294.097595,10.706701 295.224121,9.298725 
	C296.464508,9.028159 297.194885,9.052185 297.925262,9.076213 
	C296.474304,12.598107 295.023346,16.119999 292.994812,19.855556 
	C291.984924,20.093395 291.552582,20.117571 291.087280,19.724277 
	C291.034790,18.474844 291.015320,17.642879 291.152252,16.542048 
	C291.827332,15.159945 292.345978,14.046711 292.864624,12.933472 
z"/>
<path fill="#E9D29A" opacity="1.000000" stroke="none" 
	d="
M326.953491,49.701233 
	C325.652252,47.975761 324.373932,45.836983 322.325104,42.409000 
	C322.125916,46.192589 321.994965,48.680588 321.809082,51.611042 
	C317.958038,47.638153 320.567230,43.537720 322.689270,39.202332 
	C324.326904,42.433784 325.651642,45.860855 326.953491,49.701233 
z"/>
<path fill="#E3C68C" opacity="1.000000" stroke="none" 
	d="
M298.942322,41.005547 
	C298.943604,40.556698 298.944885,40.107853 298.955444,38.896133 
	C298.973969,36.422131 298.983215,34.710999 298.992462,32.999870 
	C299.126587,31.712933 299.260742,30.425997 299.696838,29.075047 
	C301.307068,30.126877 302.615356,31.242720 303.992950,32.688591 
	C304.062256,33.018620 303.871033,33.060631 303.407654,33.101898 
	C302.304352,34.290234 301.262421,35.386311 301.109070,36.595097 
	C300.798889,39.040493 300.970642,41.547028 300.626221,44.023228 
	C299.884369,44.007545 299.460022,43.996986 299.025543,43.613716 
	C298.991058,42.495853 298.966675,41.750698 298.942322,41.005547 
z"/>
<path fill="#D6BF6B" opacity="1.000000" stroke="none" 
	d="
M295.573914,25.078167 
	C295.506073,26.939915 295.046997,28.786539 293.980682,30.673986 
	C292.574432,30.468552 291.775452,30.222298 290.947388,29.710423 
	C290.881165,29.270420 290.844025,29.096037 290.806915,28.921654 
	C291.181732,27.877592 291.556580,26.833529 291.992920,25.467426 
	C293.097198,25.117941 294.139954,25.090492 295.573914,25.078167 
z"/>
<path fill="#CDB04A" opacity="1.000000" stroke="none" 
	d="
M338.903015,50.025494 
	C339.413696,50.240021 339.924408,50.454544 340.662201,51.227982 
	C340.969910,52.513165 341.050507,53.239437 341.131104,53.965706 
	C339.346344,53.350414 337.561615,52.735119 335.428314,52.054588 
	C334.791565,51.520466 334.503357,51.051586 334.629822,50.290955 
	C336.330719,50.007965 337.616852,50.016727 338.903015,50.025494 
z"/>
<path fill="#CDB04A" opacity="1.000000" stroke="none" 
	d="
M336.976379,45.035843 
	C337.317932,45.805759 337.659485,46.575676 337.611267,47.672810 
	C336.159668,47.999088 335.097839,47.998150 334.036011,47.997208 
	C333.779633,47.279957 333.523254,46.562706 333.629974,45.472092 
	C334.987488,45.077770 335.981934,45.056812 336.976379,45.035843 
z"/>
<path fill="#E2C882" opacity="1.000000" stroke="none" 
	d="
M336.953735,44.718826 
	C335.981934,45.056812 334.987488,45.077770 333.631958,45.171356 
	C333.928406,44.184799 334.585938,43.125614 335.617249,42.066277 
	C336.304382,42.844685 336.617737,43.623245 336.953735,44.718826 
z"/>
<path fill="#E5CA89" opacity="1.000000" stroke="none" 
	d="
M291.120270,20.141747 
	C291.552582,20.117571 291.984924,20.093395 292.742462,20.088516 
	C292.795563,20.875647 292.523438,21.643484 292.120361,22.690731 
	C290.859528,23.269394 289.729675,23.568645 288.339111,23.567574 
	C289.092407,22.225412 290.106323,21.183578 291.120270,20.141747 
z"/>
<path fill="#CCAA4D" opacity="1.000000" stroke="none" 
	d="
M334.032471,48.335114 
	C335.097839,47.998150 336.159668,47.999088 337.620605,47.999557 
	C338.315887,48.479839 338.612030,48.960590 338.905579,49.733414 
	C337.616852,50.016727 336.330719,50.007965 334.662537,49.999489 
	C334.196655,49.557522 334.112793,49.115269 334.032471,48.335114 
z"/>
<path fill="#E9D29A" opacity="1.000000" stroke="none" 
	d="
M339.115906,61.204681 
	C339.385284,62.504837 339.607971,64.276794 339.540833,66.229904 
	C339.190430,64.832863 339.129822,63.254673 339.115906,61.204681 
z"/>
<path fill="#D1B451" opacity="1.000000" stroke="none" 
	d="
M334.605591,66.759048 
	C333.932068,66.426819 333.292419,65.806885 332.911316,65.052017 
	C333.659729,65.435165 334.149597,65.953247 334.605591,66.759048 
z"/>
<path fill="#E5CA89" opacity="1.000000" stroke="none" 
	d="
M297.958923,8.730522 
	C297.194885,9.052185 296.464508,9.028159 295.367676,9.002353 
	C295.774323,8.341346 296.547455,7.682119 297.666992,7.010341 
	C298.006500,7.460138 297.999542,7.922487 297.958923,8.730522 
z"/>
<path fill="#E2C882" opacity="1.000000" stroke="none" 
	d="
M341.879639,17.696064 
	C341.583374,17.973379 341.132263,17.980026 340.343018,17.985931 
	C339.710449,17.480669 339.416016,16.976151 339.128662,16.165472 
	C339.998779,16.381342 340.861755,16.903368 341.879639,17.696064 
z"/>
<path fill="#E9D29A" opacity="1.000000" stroke="none" 
	d="
M335.074890,54.212242 
	C335.716064,54.670486 336.343933,55.490578 337.024902,56.623451 
	C336.405914,56.148853 335.733734,55.361469 335.074890,54.212242 
z"/>
<path fill="#E9D29A" opacity="1.000000" stroke="none" 
	d="
M337.153259,57.161644 
	C337.307007,57.138855 337.571838,57.338398 337.931519,57.773312 
	C337.716003,57.869228 337.462006,57.660992 337.153259,57.161644 
z"/>
<path fill="#E7CB99" opacity="1.000000" stroke="none" 
	d="
M77.609436,5.104434 
	C78.330383,6.722921 78.700996,8.449331 79.087646,10.561183 
	C74.449814,10.334456 75.441536,7.906233 77.609436,5.104434 
z"/>
<path fill="#E7CB99" opacity="1.000000" stroke="none" 
	d="
M74.351265,17.946419 
	C74.133354,17.932716 74.041840,17.487429 74.013519,17.262096 
	C74.778885,16.384960 75.572578,15.733158 76.685425,15.040242 
	C76.985603,15.800065 76.966629,16.601000 76.605690,17.760862 
	C75.839996,18.102232 75.416275,18.084677 74.992546,18.067120 
	C74.992546,18.067120 74.569176,17.960119 74.351265,17.946419 
z"/>
<path fill="#E7CB99" opacity="1.000000" stroke="none" 
	d="
M80.034515,12.251322 
	C80.793037,11.960493 81.533417,12.019531 82.643906,12.117380 
	C82.234062,12.762894 81.454102,13.369597 80.337379,13.988075 
	C80.005867,13.533628 80.011124,13.067409 80.034515,12.251322 
z"/>
<path fill="#E7CB9C" opacity="1.000000" stroke="none" 
	d="
M96.893692,25.042736 
	C93.442429,23.958288 89.991158,22.873838 86.241638,21.602684 
	C86.726006,19.997437 87.508629,18.578890 88.632004,17.088238 
	C88.972755,17.016132 88.998886,16.945776 89.013550,17.286266 
	C89.243118,18.504259 89.458015,19.381758 89.672920,20.259258 
	C90.443665,19.839926 91.214409,19.420593 91.985153,19.001259 
	C93.856415,19.905062 95.727669,20.808863 98.311775,22.056961 
	C98.402298,21.570198 98.237656,22.455473 97.889542,23.881161 
	C97.435280,24.628628 97.164490,24.835684 96.893692,25.042736 
z"/>
<path fill="#E7CB9C" opacity="1.000000" stroke="none" 
	d="
M106.609299,16.000122 
	C105.210281,18.035521 104.995338,20.123381 106.609695,22.604481 
	C105.950142,22.955666 105.479141,22.974339 105.008133,22.993013 
	C103.586227,22.330362 102.164322,21.667711 98.970421,20.179255 
	C102.095116,18.383160 104.163277,17.194368 106.609299,16.000122 
z"/>
<path fill="#EDD5AD" opacity="1.000000" stroke="none" 
	d="
M104.678864,23.071421 
	C105.479141,22.974339 105.950142,22.955666 106.772919,22.887703 
	C107.124687,22.838411 107.085266,22.860327 107.065308,23.241627 
	C107.049423,24.119589 107.053497,24.616255 107.057571,25.112919 
	C107.057571,25.112919 106.992714,25.475986 106.939911,25.652222 
	C105.849106,25.910046 104.811104,25.991638 103.384338,26.022663 
	C103.446915,25.031342 103.898254,24.090586 104.678864,23.071421 
z"/>
<path fill="#EDD5AD" opacity="1.000000" stroke="none" 
	d="
M97.090836,25.317963 
	C97.164490,24.835684 97.435280,24.628628 97.845367,24.205276 
	C99.238235,24.509563 100.491798,25.030148 101.926056,25.862465 
	C101.876884,26.446793 101.647034,26.719391 101.190079,27.139393 
	C99.737976,26.722260 98.512970,26.157722 97.090836,25.317963 
z"/>
<path fill="#DEBC87" opacity="1.000000" stroke="none" 
	d="
M92.000114,18.693592 
	C91.214409,19.420593 90.443665,19.839926 89.672920,20.259258 
	C89.458015,19.381758 89.243118,18.504259 89.050392,17.279118 
	C89.828911,16.980413 90.585258,17.029352 91.721237,17.119511 
	C92.072273,17.569130 92.043671,17.977526 92.000114,18.693592 
z"/>
<path fill="#E7CB9C" opacity="1.000000" stroke="none" 
	d="
M96.504524,16.957367 
	C96.828949,16.828167 97.149971,16.901367 97.470993,16.974571 
	C97.147705,17.036303 96.824409,17.098036 96.504524,16.957367 
z"/>
<path fill="#EEDBB2" opacity="1.000000" stroke="none" 
	d="
M277.023285,19.017746 
	C275.595093,19.343199 274.166931,19.668650 272.365479,19.997334 
	C271.917633,18.531702 271.843018,17.062840 272.263153,15.266764 
	C273.500305,14.288428 274.242676,13.637304 274.985077,12.986181 
	C276.771149,12.639100 278.560211,12.306742 280.342682,11.942065 
	C284.919647,11.005660 286.401581,12.145346 286.689453,17.650093 
	C284.915375,18.788328 283.443268,19.355930 281.696045,19.685417 
	C279.955017,19.304119 278.489136,19.160933 277.023285,19.017746 
z"/>
<path fill="#CEAF43" opacity="1.000000" stroke="none" 
	d="
M281.971191,19.923531 
	C283.443268,19.355930 284.915375,18.788328 286.681274,18.037868 
	C287.775726,17.619831 288.576355,17.384653 289.920105,16.996170 
	C290.640747,16.832214 290.818298,16.821564 290.995850,16.810915 
	C291.015320,17.642879 291.034790,18.474844 291.087280,19.724277 
	C290.106323,21.183578 289.092407,22.225412 287.987671,23.564102 
	C287.896881,23.860958 287.924347,23.885208 287.601135,23.898308 
	C286.516418,24.263039 285.754913,24.614670 284.993439,24.966301 
	C283.704010,24.906361 282.414551,24.846422 280.606567,24.477905 
	C278.080444,21.585186 280.723145,21.063652 281.971191,19.923531 
z"/>
<path fill="#E5C794" opacity="1.000000" stroke="none" 
	d="
M274.945801,12.688441 
	C274.242676,13.637304 273.500305,14.288428 272.460693,15.007052 
	C272.181793,14.323030 272.200073,13.571508 272.273041,12.447880 
	C272.705353,11.774817 273.082947,11.473860 273.679993,11.067688 
	C274.235107,11.438549 274.570801,11.914625 274.945801,12.688441 
z"/>
<path fill="#E5CA89" opacity="1.000000" stroke="none" 
	d="
M291.152252,16.542048 
	C290.818298,16.821564 290.640747,16.832214 290.196655,16.825747 
	C290.689514,15.564585 291.448944,14.320540 292.536499,13.004986 
	C292.345978,14.046711 291.827332,15.159945 291.152252,16.542048 
z"/>
<path fill="#B8825E" opacity="1.000000" stroke="none" 
	d="
M75.038116,18.332264 
	C75.416275,18.084677 75.839996,18.102232 76.578987,18.160557 
	C76.894249,18.201324 76.939735,18.626820 76.957458,18.840221 
	C76.344688,18.901550 75.714188,18.749479 75.038116,18.332264 
z"/>
<path fill="#E4C38E" opacity="1.000000" stroke="none" 
	d="
M189.811966,11.839863 
	C187.572449,11.841278 185.121063,11.568595 182.347931,11.137030 
	C182.464844,10.410422 182.903519,9.842698 183.572815,9.137821 
	C185.735641,9.855700 187.667877,10.710733 189.811966,11.839863 
z"/>
<path fill="#E5CA89" opacity="1.000000" stroke="none" 
	d="
M201.754700,5.177940 
	C202.200897,5.225021 202.472397,5.435102 202.858597,5.879873 
	C202.508865,5.856690 202.044434,5.598815 201.754700,5.177940 
z"/>
<path fill="#EBD5A7" opacity="1.000000" stroke="none" 
	d="
M117.533936,6.150941 
	C118.947845,6.863777 120.138504,7.851171 121.660034,8.916045 
	C122.537804,9.329397 123.084709,9.665271 123.916428,10.456827 
	C123.601723,13.578483 123.002213,16.244455 121.962212,18.931273 
	C118.598244,19.254387 115.674767,19.556658 112.751297,19.858929 
	C114.271095,15.381121 115.790886,10.903310 117.533936,6.150941 
z"/>
<path fill="#EEDBB2" opacity="1.000000" stroke="none" 
	d="
M112.489197,19.922785 
	C115.674767,19.556658 118.598244,19.254387 121.899612,19.332130 
	C122.281830,20.509443 122.286140,21.306744 122.290443,22.104046 
	C120.756279,22.666166 119.222115,23.228285 117.352264,23.912144 
	C116.579605,23.958643 116.142624,23.883402 115.373688,23.839664 
	C113.973167,23.848608 112.904625,23.826046 111.426712,23.448078 
	C111.013542,22.398239 111.009727,21.703806 111.005905,21.009377 
	C111.412971,20.668467 111.820038,20.327553 112.489197,19.922785 
z"/>
<path fill="#E7CB9C" opacity="1.000000" stroke="none" 
	d="
M110.717598,21.141117 
	C111.009727,21.703806 111.013542,22.398239 111.025673,23.439583 
	C109.945320,24.208982 108.856659,24.631472 107.412781,25.083439 
	C107.053497,24.616255 107.049423,24.119589 107.078178,23.249800 
	C108.217094,22.342070 109.323196,21.807465 110.717598,21.141117 
z"/>
<path fill="#C8A734" opacity="1.000000" stroke="none" 
	d="
M343.633606,3.954431 
	C346.552612,5.409413 349.093750,6.905258 351.804352,8.984488 
	C351.640350,10.422304 351.306915,11.276736 350.657227,12.120699 
	C348.879456,11.747879 347.417969,11.385530 345.956451,11.023178 
	C344.780762,10.207690 343.497528,9.509530 342.452393,8.551611 
	C340.446930,6.713547 339.924530,4.971244 343.633606,3.954431 
z"/>
<path fill="#ECD5A3" opacity="1.000000" stroke="none" 
	d="
M345.642761,11.089711 
	C347.417969,11.385530 348.879456,11.747879 350.803650,12.409092 
	C352.227722,14.424050 353.189178,16.140146 354.043976,18.196861 
	C352.978760,19.013395 352.020203,19.489311 351.061646,19.965229 
	C348.919739,18.053137 346.777863,16.141047 344.372986,14.000049 
	C344.516296,12.899509 344.922668,12.027876 345.642761,11.089711 
z"/>
<path fill="#CCAA50" opacity="1.000000" stroke="none" 
	d="
M354.150635,17.856253 
	C353.189178,16.140146 352.227722,14.424050 351.119904,12.419561 
	C351.306915,11.276736 351.640350,10.422304 352.042725,9.228193 
	C353.755707,9.592774 355.399780,10.297034 357.387207,10.978888 
	C358.036438,14.816472 358.342346,18.676464 358.302979,22.756907 
	C356.688690,21.270325 355.419647,19.563293 354.150635,17.856253 
z"/>
<path fill="#BE8862" opacity="1.000000" stroke="none" 
	d="
M145.731628,10.067928 
	C145.471298,10.484812 144.918777,10.931105 144.177811,11.190959 
	C144.472733,10.702127 144.956100,10.399733 145.731628,10.067928 
z"/>
<path fill="#D1B359" opacity="1.000000" stroke="none" 
	d="
M122.703224,22.111454 
	C122.286140,21.306744 122.281830,20.509443 122.340118,19.311287 
	C123.002213,16.244455 123.601723,13.578483 124.240036,10.515823 
	C124.816566,8.317002 125.354294,6.514866 125.961853,4.356936 
	C127.448601,3.007277 128.997177,0.055700 129.919220,4.954766 
	C130.186234,8.802191 130.597748,11.967152 131.009247,15.132112 
	C131.022659,15.896787 131.036057,16.661461 131.089539,17.810444 
	C130.565552,19.230164 130.001480,20.265577 129.203857,21.434872 
	C127.018875,21.752125 125.067436,21.935493 122.703224,22.111454 
z"/>
<path fill="#E3C68C" opacity="1.000000" stroke="none" 
	d="
M131.420349,15.094460 
	C130.597748,11.967152 130.186234,8.802191 129.966156,5.298325 
	C131.203079,4.973096 132.248550,4.986773 133.691330,5.000924 
	C134.439835,8.600936 137.778275,12.871036 131.420349,15.094460 
z"/>
<path fill="#ECD5A9" opacity="1.000000" stroke="none" 
	d="
M322.019135,55.024940 
	C323.531189,57.031998 324.708405,59.176849 325.745605,61.872574 
	C326.720276,64.284615 327.834930,66.145790 328.949585,68.006966 
	C330.074341,69.401161 331.328339,70.713768 332.278198,72.218399 
	C332.905273,73.211678 333.095062,74.480957 333.480652,75.626656 
	C332.183411,75.689255 330.774750,76.102898 329.614319,75.734520 
	C327.738861,75.139175 326.106567,73.737030 324.222260,73.221794 
	C322.446716,72.736282 320.478241,72.956306 318.290527,73.097717 
	C317.558685,73.220413 317.130890,73.111343 316.379913,72.933594 
	C313.475159,70.233650 310.893646,67.602379 308.044312,64.840210 
	C307.407074,64.447922 307.037689,64.186554 306.359253,63.783852 
	C304.867310,62.802490 303.684448,61.962460 302.155487,61.133347 
	C300.155487,61.044609 298.501556,60.944950 296.431580,60.884537 
	C295.469604,60.385803 294.923706,59.847832 294.133118,58.756512 
	C293.840057,57.106312 293.791595,56.009457 293.822327,54.553627 
	C294.023834,53.469753 294.146210,52.744858 294.567780,52.105377 
	C296.982880,53.656731 298.126282,57.502228 301.948547,55.361736 
	C302.643707,56.903385 303.236633,58.126408 303.829559,59.349430 
	C304.363953,59.349964 304.898376,59.350498 305.432770,59.351032 
	C305.966125,56.976906 307.045624,54.573597 306.920685,52.234642 
	C306.649261,47.154896 305.762726,42.108017 305.416931,36.973564 
	C306.116760,36.280712 306.527344,35.662003 306.937927,35.043297 
	C307.944672,35.751122 308.951447,36.458939 309.972778,37.917950 
	C310.001709,39.450130 310.016022,40.231113 309.998535,41.442627 
	C312.000031,48.919518 313.885559,56.015930 316.236053,62.954819 
	C316.564240,63.923649 319.178131,64.118217 320.733917,64.671204 
	C320.845001,63.227879 321.169891,61.759987 321.007599,60.348083 
	C320.842499,58.911499 320.197540,57.530067 319.762726,56.124485 
	C320.403259,55.803905 321.043793,55.483322 322.019135,55.024940 
z"/>
<path fill="#C09D3A" opacity="1.000000" stroke="none" 
	d="
M356.053711,60.673729 
	C355.481781,61.218487 355.062622,61.447838 354.164642,61.908466 
	C353.448639,62.433815 353.211456,62.727886 352.974243,63.021954 
	C352.974243,63.021950 352.997650,63.005875 352.742859,62.896416 
	C352.027344,63.525410 351.566681,64.263855 351.106018,65.002304 
	C350.932800,65.010696 350.759644,65.019104 350.327454,65.042374 
	C349.058899,63.224792 348.049286,61.392334 347.166016,58.918510 
	C351.550720,55.957203 352.888855,52.840694 350.031281,48.502354 
	C349.798584,48.149055 349.977509,47.524632 350.269043,46.885986 
	C352.708405,45.157902 354.843903,43.570019 357.275330,41.816616 
	C359.042267,40.769894 360.513245,39.888691 361.984253,39.007484 
	C361.755981,39.800686 361.527679,40.593887 361.189880,41.677807 
	C360.696228,44.999046 360.312073,48.029568 359.925201,51.482140 
	C353.853394,52.599022 357.330933,57.490086 356.053711,60.673729 
M353.464905,48.488110 
	C353.464905,48.488110 353.518341,48.463741 353.464905,48.488110 
z"/>
<path fill="#ECD8AB" opacity="1.000000" stroke="none" 
	d="
M342.013916,50.965446 
	C341.682220,49.226730 341.350525,47.488022 341.005920,44.994656 
	C340.993958,43.493603 340.994934,42.747204 340.995880,42.000809 
	C342.110840,40.770367 343.225800,39.539925 344.883667,38.382538 
	C345.638489,39.295635 345.850433,40.135674 345.822693,41.202976 
	C346.398773,42.282982 347.214539,43.135731 348.076111,44.315796 
	C348.207062,45.289848 348.292206,45.936584 348.300354,46.953491 
	C347.144104,51.201492 346.064789,55.079327 344.985474,58.957161 
	C344.346558,58.517330 343.707672,58.077499 343.243774,57.097092 
	C342.950500,54.692825 342.482178,52.829136 342.013916,50.965446 
z"/>
<path fill="#E7CE95" opacity="1.000000" stroke="none" 
	d="
M345.307922,58.976326 
	C346.064789,55.079327 347.144104,51.201492 348.554993,47.052078 
	C349.246124,46.862392 349.605652,46.944286 349.965149,47.026184 
	C349.977509,47.524632 349.798584,48.149055 350.031281,48.502354 
	C352.888855,52.840694 351.550720,55.957203 347.102478,58.565384 
	C346.485199,58.900921 346.057800,58.948208 345.307922,58.976326 
z"/>
<path fill="#E7CE95" opacity="1.000000" stroke="none" 
	d="
M341.721069,50.986679 
	C342.482178,52.829136 342.950500,54.692825 343.176727,56.790260 
	C342.472687,56.148476 342.010712,55.272942 341.339905,54.181557 
	C341.050507,53.239437 340.969910,52.513165 340.866364,51.423584 
	C341.038361,51.042820 341.233307,51.025364 341.721069,50.986679 
z"/>
<path fill="#E9D29A" opacity="1.000000" stroke="none" 
	d="
M328.962494,67.672699 
	C327.834930,66.145790 326.720276,64.284615 325.827454,62.201721 
	C326.858673,63.190086 327.668091,64.400169 328.723267,65.805428 
	C328.971191,66.446541 328.973297,66.892487 328.962494,67.672699 
z"/>
<path fill="#AA724B" opacity="1.000000" stroke="none" 
	d="
M274.574097,36.048965 
	C274.451965,37.113289 274.329834,38.177612 274.161133,39.644173 
	C270.460449,38.082520 269.889099,35.018524 272.652252,30.098246 
	C273.023529,29.983231 273.175323,29.937704 273.159363,30.305603 
	C273.620270,32.465324 274.097198,34.257149 274.574097,36.048965 
z"/>
<path fill="#E5C794" opacity="1.000000" stroke="none" 
	d="
M272.377716,23.216015 
	C272.770660,23.511953 273.077789,24.089199 273.201233,24.829628 
	C272.775665,24.494316 272.533783,23.995819 272.377716,23.216015 
z"/>
<path fill="#C7A23F" opacity="1.000000" stroke="none" 
	d="
M362.122437,38.702278 
	C360.513245,39.888691 359.042267,40.769894 357.281738,41.405487 
	C356.695831,39.125328 356.399475,37.090786 356.156921,34.692413 
	C356.932587,31.904453 357.654480,29.480318 358.640320,26.951702 
	C359.179382,26.193829 359.454559,25.540440 359.701141,24.864380 
	C359.672577,24.841713 359.626221,24.785387 359.626221,24.785387 
	C359.868835,24.816954 360.111450,24.848518 360.717377,24.937321 
	C364.343750,29.209423 362.693665,33.856815 362.122437,38.702278 
z"/>
<path fill="#E5CA89" opacity="1.000000" stroke="none" 
	d="
M358.376373,27.056187 
	C357.654480,29.480318 356.932587,31.904453 355.876282,34.679504 
	C355.355408,35.019737 355.168945,35.009056 354.688263,34.866684 
	C353.276337,33.798813 352.158600,32.862633 351.040863,31.926458 
	C354.725159,32.159386 355.450378,30.339874 354.210297,27.264322 
	C353.307892,25.026213 352.304016,22.829016 351.203522,20.289400 
	C352.020203,19.489311 352.978760,19.013395 354.043945,18.196871 
	C355.419647,19.563293 356.688690,21.270325 358.206787,23.146811 
	C358.761841,23.678846 359.067902,24.041428 359.500092,24.594698 
	C359.626221,24.785387 359.672577,24.841713 359.407806,24.918335 
	C358.887482,25.682035 358.631927,26.369110 358.376373,27.056187 
z"/>
<path fill="#D5B760" opacity="1.000000" stroke="none" 
	d="
M293.743164,54.912605 
	C293.791595,56.009457 293.840057,57.106312 293.874237,58.615448 
	C291.804565,59.637188 289.749176,60.246647 287.333374,60.869690 
	C287.762878,59.114616 288.552734,57.345959 289.977234,55.316040 
	C291.655640,55.007385 292.699402,54.959995 293.743164,54.912605 
z"/>
<path fill="#DEBC87" opacity="1.000000" stroke="none" 
	d="
M351.403809,64.984894 
	C351.566681,64.263855 352.027344,63.525410 352.751160,62.884880 
	C353.002655,63.402435 352.991058,63.822067 352.934692,64.552246 
	C352.493805,64.897682 352.097687,64.932579 351.403809,64.984894 
z"/>
<path fill="#DEBC87" opacity="1.000000" stroke="none" 
	d="
M353.228882,62.900993 
	C353.211456,62.727886 353.448639,62.433815 353.960907,62.036552 
	C353.985168,62.215584 353.734344,62.497810 353.228882,62.900993 
z"/>
<path fill="#CEAF43" opacity="1.000000" stroke="none" 
	d="
M293.822327,54.553627 
	C292.699402,54.959995 291.655640,55.007385 290.212585,55.097702 
	C289.932983,52.022911 290.052643,48.905193 290.397461,45.107647 
	C290.265839,43.261486 290.049622,41.154266 289.530273,41.076714 
	C285.114655,40.417309 286.124603,38.220440 287.600372,35.585041 
	C288.230194,34.460350 288.483215,33.124653 289.084137,31.661255 
	C289.832703,30.950459 290.404572,30.463245 290.976471,29.976036 
	C291.775452,30.222298 292.574432,30.468552 293.658539,30.850615 
	C294.103516,34.071835 294.263367,37.157249 294.406799,40.920044 
	C294.589478,42.399704 294.788605,43.201988 294.940796,44.330254 
	C294.887817,45.094929 294.881775,45.533619 294.669128,46.287487 
	C294.397888,48.408432 294.333221,50.214195 294.268555,52.019962 
	C294.146210,52.744858 294.023834,53.469753 293.822327,54.553627 
z"/>
<path fill="#D5B760" opacity="1.000000" stroke="none" 
	d="
M288.907440,31.884838 
	C288.483215,33.124653 288.230194,34.460350 287.600372,35.585041 
	C286.124603,38.220440 285.114655,40.417309 289.530273,41.076714 
	C290.049622,41.154266 290.265839,43.261486 290.436646,44.644249 
	C289.189240,45.633564 288.181763,46.498505 287.054749,47.159584 
	C284.909637,48.417812 283.065033,47.749176 283.566284,45.271889 
	C284.455902,40.875484 286.071747,36.626034 287.910889,32.122032 
	C288.438049,31.928965 288.907440,31.884838 288.907440,31.884838 
z"/>
<path fill="#E5C794" opacity="1.000000" stroke="none" 
	d="
M281.696045,19.685417 
	C280.723145,21.063652 278.080444,21.585186 280.219147,24.467611 
	C276.576172,24.913338 277.101013,22.158264 277.016785,19.418287 
	C278.489136,19.160933 279.955017,19.304119 281.696045,19.685417 
z"/>
<path fill="#E5C794" opacity="1.000000" stroke="none" 
	d="
M274.823425,35.911335 
	C274.097198,34.257149 273.620270,32.465324 273.235443,30.283585 
	C273.909241,31.853678 274.490967,33.813690 274.823425,35.911335 
z"/>
<path fill="#E5C794" opacity="1.000000" stroke="none" 
	d="
M289.084137,31.661255 
	C288.907440,31.884838 288.438049,31.928965 288.202209,31.921085 
	C288.688477,30.940956 289.410553,29.968704 290.469757,28.959053 
	C290.844025,29.096037 290.881165,29.270420 290.947388,29.710419 
	C290.404572,30.463245 289.832703,30.950459 289.084137,31.661255 
z"/>
<path fill="#E5C794" opacity="1.000000" stroke="none" 
	d="
M285.206726,25.199528 
	C285.754913,24.614670 286.516418,24.263039 287.604218,23.911449 
	C287.093689,24.418579 286.256836,24.925667 285.206726,25.199528 
z"/>
<path fill="#D3B75A" opacity="1.000000" stroke="none" 
	d="
M319.449463,55.972294 
	C320.197540,57.530067 320.842499,58.911499 321.007599,60.348083 
	C321.169891,61.759987 320.845001,63.227879 320.733917,64.671204 
	C319.178131,64.118217 316.564240,63.923649 316.236053,62.954819 
	C313.885559,56.015930 312.000031,48.919518 310.352173,41.441063 
	C311.442413,41.026394 312.147247,41.043819 313.072083,41.250477 
	C313.492584,41.978058 313.693054,42.516411 313.912292,43.395676 
	C314.637054,44.819698 315.343048,45.902809 316.049011,46.985928 
	C317.078094,49.930656 318.107147,52.875381 319.449463,55.972294 
z"/>
<path fill="#D1B451" opacity="1.000000" stroke="none" 
	d="
M305.127655,37.047707 
	C305.762726,42.108017 306.649261,47.154896 306.920685,52.234642 
	C307.045624,54.573597 305.966125,56.976906 305.432770,59.351032 
	C304.898376,59.350498 304.363953,59.349964 303.829559,59.349430 
	C303.236633,58.126408 302.643707,56.903385 301.970581,54.993412 
	C301.834686,53.573505 301.778992,52.840546 301.778564,51.819347 
	C301.614441,51.014252 301.395050,50.497402 301.173889,49.606628 
	C301.104492,48.488407 301.036896,47.744114 300.994019,46.628342 
	C300.993713,45.514030 300.968689,44.771191 300.943665,44.028351 
	C300.970642,41.547028 300.798889,39.040493 301.109070,36.595097 
	C301.262421,35.386311 302.304352,34.290234 303.310547,33.114487 
	C303.980438,33.596039 304.283997,34.106270 304.748718,35.196541 
	C304.982452,36.200287 305.055054,36.623997 305.127655,37.047707 
z"/>
<path fill="#ECD8AB" opacity="1.000000" stroke="none" 
	d="
M313.893524,43.054760 
	C313.693054,42.516411 313.492584,41.978058 313.104919,40.890831 
	C312.919556,39.628353 312.921387,38.914757 312.923218,38.201157 
	C317.128510,35.224716 317.408936,35.336189 317.669434,40.680721 
	C316.193634,41.780880 315.043579,42.417820 313.893524,43.054760 
z"/>
<path fill="#E9D29A" opacity="1.000000" stroke="none" 
	d="
M313.912292,43.395676 
	C315.043579,42.417820 316.193634,41.780880 317.667786,41.077980 
	C317.516724,42.844555 317.041626,44.677094 316.307770,46.747772 
	C315.343048,45.902809 314.637054,44.819698 313.912292,43.395676 
z"/>
<path fill="#D6BF6B" opacity="1.000000" stroke="none" 
	d="
M312.557800,38.147057 
	C312.921387,38.914757 312.919556,39.628353 312.884888,40.701599 
	C312.147247,41.043819 311.442413,41.026394 310.383972,41.010536 
	C310.016022,40.231113 310.001709,39.450130 309.983063,38.275497 
	C310.716614,37.952221 311.454498,38.022591 312.557800,38.147057 
z"/>
<path fill="#E3C68C" opacity="1.000000" stroke="none" 
	d="
M305.416931,36.973564 
	C305.055054,36.623997 304.982452,36.200287 304.888550,35.456993 
	C305.327972,35.104828 305.788696,35.072250 306.593658,35.041481 
	C306.527344,35.662003 306.116760,36.280712 305.416931,36.973564 
z"/>
<path fill="#ECD8AB" opacity="1.000000" stroke="none" 
	d="
M351.008362,31.567032 
	C352.158600,32.862633 353.276337,33.798813 354.684814,35.235779 
	C354.678650,37.172840 354.381744,38.609116 353.674805,40.030464 
	C352.177307,40.009899 351.089874,40.004257 349.894470,39.684277 
	C348.185303,37.903633 346.584137,36.437332 344.982941,34.971035 
	C344.982941,34.971039 344.993896,35.010788 344.886658,34.789574 
	C344.510040,34.345829 344.240662,34.123306 343.971283,33.900780 
	C343.503021,33.617039 343.034760,33.333305 342.285583,33.018578 
	C338.801697,30.065243 340.258545,27.933870 343.217194,26.128443 
	C344.312622,25.459999 345.509125,24.957247 346.889343,24.091654 
	C348.404724,26.272120 349.690308,28.739864 351.008362,31.567032 
z"/>
<path fill="#E2C882" opacity="1.000000" stroke="none" 
	d="
M345.049316,20.580299 
	C344.483002,20.429121 343.820251,19.985048 343.129333,19.208437 
	C343.718414,19.346401 344.335663,19.816904 345.049316,20.580299 
z"/>
<path fill="#ECD8AB" opacity="1.000000" stroke="none" 
	d="
M298.667236,32.957275 
	C298.983215,34.710999 298.973969,36.422131 298.945984,38.559608 
	C297.573273,37.062527 296.219299,35.139095 294.096313,32.123158 
	C296.594513,32.588894 297.468231,32.751785 298.667236,32.957275 
z"/>
<path fill="#ECD8AB" opacity="1.000000" stroke="none" 
	d="
M294.987701,44.004269 
	C294.788605,43.201988 294.589478,42.399704 294.531921,41.296616 
	C295.853760,40.997818 297.034058,40.999832 298.578308,41.003696 
	C298.966675,41.750698 298.991058,42.495853 298.619690,43.619133 
	C297.145233,43.999592 296.066467,44.001930 294.987701,44.004269 
z"/>
<path fill="#CDB04A" opacity="1.000000" stroke="none" 
	d="
M344.971130,35.351700 
	C346.584137,36.437332 348.185303,37.903633 349.912598,39.974792 
	C350.333923,41.066017 350.629089,41.552387 350.989136,42.315880 
	C351.742981,42.410831 352.431885,42.228661 353.263245,41.806740 
	C353.632050,41.059792 353.858459,40.552597 354.084900,40.045399 
	C354.381744,38.609116 354.678650,37.172840 354.979004,35.367470 
	C355.168945,35.009056 355.355408,35.019737 355.822479,35.043327 
	C356.399475,37.090786 356.695831,39.125328 356.985779,41.570999 
	C354.843903,43.570019 352.708405,45.157902 350.269043,46.885986 
	C349.605652,46.944286 349.246124,46.862392 348.631989,46.681908 
	C348.292206,45.936584 348.207062,45.289848 348.051941,43.997543 
	C347.342133,42.559891 346.702240,41.767803 346.062378,40.975716 
	C345.850433,40.135674 345.638489,39.295635 345.180298,38.235764 
	C344.942444,37.254742 344.950867,36.493553 344.971130,35.351700 
z"/>
<path fill="#E7CE95" opacity="1.000000" stroke="none" 
	d="
M340.683044,42.071053 
	C340.994934,42.747204 340.993958,43.493603 340.991028,44.612770 
	C340.782715,44.037464 340.576447,43.089382 340.683044,42.071053 
z"/>
<path fill="#CDB04A" opacity="1.000000" stroke="none" 
	d="
M344.102356,34.130135 
	C344.240662,34.123306 344.510040,34.345829 344.905365,34.798203 
	C344.765350,34.805195 344.499359,34.582340 344.102356,34.130135 
z"/>
<path fill="#ECD5A9" opacity="1.000000" stroke="none" 
	d="
M294.940796,44.330254 
	C296.066467,44.001930 297.145233,43.999592 298.629822,43.991844 
	C299.460022,43.996986 299.884369,44.007545 300.626190,44.023228 
	C300.968689,44.771191 300.993713,45.514030 300.616455,46.567799 
	C298.434723,46.576588 296.655212,46.274448 294.875732,45.972309 
	C294.881775,45.533619 294.887817,45.094929 294.940796,44.330254 
z"/>
<path fill="#ECD8AB" opacity="1.000000" stroke="none" 
	d="
M294.669128,46.287487 
	C296.655212,46.274448 298.434723,46.576588 300.591736,46.939270 
	C301.036896,47.744114 301.104492,48.488407 300.949615,49.758244 
	C301.059204,50.891720 301.391235,51.499653 301.723297,52.107590 
	C301.778992,52.840546 301.834686,53.573505 301.868347,54.674786 
	C298.126282,57.502228 296.982880,53.656731 294.567780,52.105377 
	C294.333221,50.214195 294.397888,48.408432 294.669128,46.287487 
z"/>
<path fill="#CDB04A" opacity="1.000000" stroke="none" 
	d="
M353.491638,48.475925 
	C353.518341,48.463741 353.464905,48.488110 353.491638,48.475925 
z"/>
<path fill="#E7CE95" opacity="1.000000" stroke="none" 
	d="
M345.822693,41.202976 
	C346.702240,41.767803 347.342133,42.559891 348.006134,43.670227 
	C347.214539,43.135731 346.398773,42.282982 345.822693,41.202976 
z"/>
<path fill="#CCAA50" opacity="1.000000" stroke="none" 
	d="
M358.640320,26.951702 
	C358.631927,26.369110 358.887482,25.682035 359.436371,24.941004 
	C359.454559,25.540440 359.179382,26.193829 358.640320,26.951702 
z"/>
<path fill="#E3C68C" opacity="1.000000" stroke="none" 
	d="
M301.778564,51.819347 
	C301.391235,51.499653 301.059204,50.891720 300.951416,50.132168 
	C301.395050,50.497402 301.614441,51.014252 301.778564,51.819347 
z"/>
<path fill="#E7CE95" opacity="1.000000" stroke="none" 
	d="
M350.924255,42.038757 
	C350.629089,41.552387 350.333923,41.066017 350.020599,40.289135 
	C351.089874,40.004257 352.177307,40.009899 353.674805,40.030472 
	C353.858459,40.552597 353.632050,41.059792 352.896362,41.795036 
	C351.899445,42.028313 351.411865,42.033535 350.924255,42.038757 
z"/>
<path fill="#E5CA89" opacity="1.000000" stroke="none" 
	d="
M350.989136,42.315880 
	C351.411865,42.033535 351.899445,42.028313 352.753937,42.034790 
	C352.431885,42.228661 351.742981,42.410831 350.989136,42.315880 
z"/>
</svg>