<svg version="1.1" id="Layer_1" xmlns="http://www.w3.org/2000/svg" xmlns:xlink="http://www.w3.org/1999/xlink" x="0px" y="0px"
	 width="100%" viewBox="0 0 115 102" enable-background="new 0 0 115 102" xml:space="preserve">
<path fill="#ffffff" opacity="000000" stroke="none" 
	d="
M103.000000,1.000000 
	C107.327599,1.000000 111.655197,1.000000 115.987091,0.999999 
	C115.991394,34.949276 115.991394,68.898552 115.991394,102.923920 
	C77.768242,102.923920 39.536293,102.923920 1.000000,102.923920 
	C1.000000,69.646385 1.000000,36.291851 1.412172,2.518682 
	C3.203186,2.097372 4.582028,2.094696 6.069764,2.383224 
	C7.122471,3.411429 8.066285,4.148431 9.216037,4.950988 
	C9.421975,5.016544 9.853179,5.046479 9.909132,5.448541 
	C9.046121,11.559158 5.898330,17.137941 8.864518,23.425640 
	C9.563234,31.512835 10.359437,39.252777 11.098851,47.356110 
	C11.696728,49.201038 12.042042,50.954838 13.062557,52.114395 
	C16.478891,55.996181 17.694059,62.101307 24.153576,63.451134 
	C28.078550,65.751381 31.781033,67.236687 35.411591,63.022408 
	C36.117565,63.012711 36.521175,63.020020 36.973328,63.407703 
	C39.014568,64.485435 41.007263,65.182793 43.293579,66.032532 
	C44.372860,66.491928 45.158520,66.798950 46.091911,67.408142 
	C49.472038,71.177315 52.704430,74.644318 56.103470,78.419289 
	C58.772011,80.916939 61.192543,83.209435 63.796555,85.270058 
	C66.995750,87.801659 70.388611,89.558617 74.372070,85.919968 
	C76.102982,84.873886 77.542152,83.906822 79.003448,82.974442 
	C80.658546,81.918427 82.333466,80.893494 84.320412,79.832527 
	C85.797569,78.561790 86.954079,77.313576 88.072968,76.056999 
	C88.035339,76.048637 88.058174,76.122269 88.410706,76.067215 
	C92.529640,74.180542 93.688828,71.074829 93.431084,67.066483 
	C94.846252,66.048012 95.939293,65.082336 97.324844,63.991943 
	C98.462891,62.932014 99.308418,61.996792 100.464355,60.926048 
	C101.804596,58.863491 102.834427,56.936451 103.926178,54.641647 
	C104.003265,53.528027 104.018433,52.782166 104.317581,51.931076 
	C104.743286,51.252281 104.885010,50.678719 105.349998,49.955223 
	C105.733772,48.874092 105.794273,47.942890 105.925507,46.619522 
	C106.037132,45.166565 106.078026,44.105778 106.436523,42.828102 
	C106.146072,38.705589 111.363678,35.007256 107.194572,30.930090 
	C107.097267,30.834930 107.543182,30.093849 107.822296,29.718410 
	C110.241417,26.464396 109.200066,23.980028 106.067528,21.550941 
	C104.703415,17.437864 103.398170,13.704652 102.053177,9.577166 
	C101.966179,8.128645 101.918922,7.074398 101.936417,5.642088 
	C102.334114,3.842683 102.667053,2.421341 103.000000,1.000000 
z"/>
<path fill="#ECD8AA" opacity="1.000000" stroke="none" 
	d="
M42.000000,1.000000 
	C52.020893,1.000000 62.041790,1.000000 72.587067,1.342390 
	C74.590187,3.487049 76.068924,5.289319 77.696251,7.272676 
	C75.613335,7.885551 74.002899,8.359405 72.392464,8.833258 
	C72.251915,9.329927 72.111366,9.826597 71.970818,10.323267 
	C74.242271,11.560979 76.513718,12.798690 78.912628,14.314091 
	C79.707916,15.349380 80.375755,16.106981 81.046638,17.259060 
	C80.954308,20.265659 84.099419,23.776112 78.735275,24.760872 
	C72.773399,23.995876 76.604904,17.239418 72.663651,15.532729 
	C71.166214,17.948969 71.889275,33.763100 73.597557,35.593285 
	C73.883232,35.899349 74.523949,35.874023 75.081352,36.321899 
	C75.955597,36.982475 76.838242,37.199821 77.520653,37.693798 
	C78.430336,38.352287 79.184326,39.225872 80.015686,40.334808 
	C80.409172,41.266537 80.792175,41.870525 81.175171,42.474510 
	C81.775169,41.658371 82.375160,40.842228 82.981430,39.689896 
	C82.991814,38.905396 82.995903,38.457088 83.360992,38.059731 
	C85.140625,38.413029 86.559258,38.715374 88.029495,39.347481 
	C88.989365,40.798054 89.897636,41.918865 90.862411,43.291176 
	C90.956741,43.710300 90.994560,43.877926 91.021301,44.480019 
	C91.059814,46.940361 91.109383,48.966240 91.102570,51.379799 
	C90.041565,53.863899 89.036957,55.960320 87.706375,58.179070 
	C86.265182,58.513046 85.149956,58.724701 83.988846,58.577621 
	C83.311241,56.469410 82.679535,54.719940 81.963821,52.663002 
	C80.929802,51.231457 79.979805,50.107380 79.000404,48.667664 
	C78.915588,47.933075 78.860161,47.514114 78.804199,46.757942 
	C77.548119,45.643349 76.292557,44.865971 74.959274,43.756847 
	C73.068558,38.421932 69.465546,39.977718 65.745712,40.764893 
	C64.324257,40.352131 63.164364,40.177666 62.167488,39.708443 
	C63.444084,38.454716 64.914879,37.685772 65.558090,36.476608 
	C66.071693,35.511105 65.765083,32.960064 65.500603,32.912758 
	C63.488235,32.552834 61.330086,32.342766 59.376629,32.786797 
	C58.888687,32.897705 58.917358,35.556572 58.828796,37.051495 
	C58.770855,38.029530 58.929283,39.020378 58.667641,39.956715 
	C57.229424,38.940319 56.114357,37.972702 55.194702,36.758186 
	C55.578506,34.272511 55.766899,32.033726 55.955292,29.794945 
	C54.565861,29.757189 52.916855,29.214970 51.833637,29.772333 
	C47.937000,31.777330 52.341774,33.879074 51.626160,36.058395 
	C49.512787,36.406242 47.773960,36.694397 46.017902,37.017502 
	C46.000675,37.052452 45.922749,37.051819 45.960243,36.672176 
	C45.991051,35.530834 45.984367,34.769138 46.285156,33.996117 
	C47.198719,33.648579 47.804806,33.312355 48.410892,32.976135 
	C48.285141,32.758514 48.159386,32.540897 48.033634,32.323280 
	C47.321262,32.564720 46.608894,32.806164 45.651142,32.804058 
	C44.319069,31.697071 43.232380,30.833628 42.145687,29.970184 
	C41.710407,30.214155 41.275124,30.458126 40.839840,30.702097 
	C41.182209,33.125713 41.524578,35.549328 41.862930,38.441238 
	C42.465084,45.566471 40.568314,52.664875 45.857651,58.757946 
	C47.110794,56.311539 47.791294,53.814030 47.812950,51.310822 
	C47.842636,47.878532 47.372494,44.441917 47.489426,41.005035 
	C48.609791,41.009140 49.357285,41.015362 50.070412,41.434792 
	C50.710434,44.558743 51.384815,47.269485 52.058971,50.355793 
	C53.712517,53.804752 55.366291,56.878151 57.051254,60.294483 
	C57.763397,61.737934 58.444363,62.838448 58.776634,64.094749 
	C56.597488,65.218094 54.767040,66.185654 52.662483,66.988251 
	C51.115940,66.165085 49.843506,65.506882 48.348232,64.558823 
	C46.402668,63.561909 44.679943,62.854855 42.697845,61.871178 
	C39.982517,61.055202 37.526566,60.515850 34.931419,59.721970 
	C34.225254,58.955181 33.658276,58.442924 33.229073,57.580315 
	C33.871536,52.145050 34.376221,47.060139 34.925758,41.525314 
	C34.835644,38.075645 34.700680,35.075886 34.685524,31.738621 
	C34.918720,30.937912 35.032104,30.474714 35.518665,29.991894 
	C36.884247,28.931025 37.876652,27.889778 38.869057,26.848534 
	C37.759411,25.908142 36.659466,24.955992 35.537457,24.030590 
	C34.359985,23.059450 33.161366,22.113953 32.296665,21.106792 
	C33.057739,21.025486 33.494141,20.994637 34.304451,20.955235 
	C35.784588,18.965889 36.890812,16.985094 38.023521,14.757596 
	C38.049999,14.510891 38.138332,14.022573 38.488811,13.883841 
	C39.892860,9.496739 40.946430,5.248370 42.000000,1.000000 
z"/>
<path fill="#EDD5A5" opacity="1.000000" stroke="none" 
	d="
M13.000000,1.000000 
	C16.692909,1.000000 20.385818,1.000000 24.396101,1.193074 
	C24.799015,1.928960 24.884554,2.471774 24.857443,3.288790 
	C24.346699,4.191653 23.948605,4.820313 23.380169,5.717976 
	C24.489067,5.882212 25.242558,5.993809 26.074886,6.397730 
	C27.949017,5.820847 29.744307,4.951642 32.013622,3.852931 
	C32.593693,5.601397 33.326061,7.808928 34.026489,10.353313 
	C33.948669,11.139042 33.902782,11.587916 33.685780,12.158028 
	C33.301506,12.467580 33.134365,12.690422 32.713882,13.146507 
	C31.942724,14.897078 31.470919,16.448929 30.788082,18.241894 
	C29.378937,18.949812 28.180820,19.416616 27.005859,19.504814 
	C29.612595,12.377797 25.169882,10.315516 19.799088,12.205853 
	C18.590279,12.631314 17.272552,12.747317 15.855129,12.788904 
	C15.424562,12.363030 15.143828,12.154031 14.900496,11.556467 
	C14.591138,9.440388 14.244380,7.712873 13.939453,5.616816 
	C13.654190,3.832182 13.327095,2.416091 13.000000,1.000000 
z"/>
<path fill="#E8CE92" opacity="1.000000" stroke="none" 
	d="
M78.785172,14.036400 
	C76.513718,12.798690 74.242271,11.560979 71.970818,10.323267 
	C72.111366,9.826597 72.251915,9.329927 72.392464,8.833258 
	C74.002899,8.359405 75.613335,7.885551 77.696251,7.272676 
	C76.068924,5.289319 74.590187,3.487049 73.055725,1.342390 
	C73.444443,1.000000 73.888893,1.000000 74.801956,1.276587 
	C76.206039,2.309033 77.141502,3.064892 78.354408,4.007441 
	C80.087700,5.102828 81.543564,6.011525 83.301346,7.083183 
	C86.407654,8.820935 89.212021,10.395727 92.140923,12.273209 
	C93.189812,14.044012 94.114174,15.512126 94.848495,17.160152 
	C95.064445,17.892412 95.470421,18.444759 96.029770,19.285557 
	C96.481804,20.381401 96.780472,21.188793 96.767105,22.030479 
	C95.682487,22.350925 94.909889,22.637077 93.821640,22.788067 
	C92.537041,20.701279 91.568108,18.749653 90.714455,17.030247 
	C88.703636,16.028545 86.229012,15.370453 84.572578,13.831631 
	C82.272621,11.694992 80.649643,12.169894 78.785172,14.036400 
z"/>
<path fill="#EAD3A0" opacity="1.000000" stroke="none" 
	d="
M34.058426,10.016459 
	C33.326061,7.808928 32.593693,5.601397 32.013622,3.852931 
	C29.744307,4.951642 27.949017,5.820847 26.356899,6.206667 
	C27.373383,4.148854 28.186691,2.574427 29.000000,1.000000 
	C33.024544,1.000000 37.049088,1.000000 41.536816,1.000000 
	C40.946430,5.248370 39.892860,9.496739 38.450157,13.491914 
	C37.916733,11.706017 37.772446,10.173317 37.605591,8.400933 
	C36.063244,9.103382 35.060837,9.559920 34.058426,10.016459 
z"/>
<path fill="#EAD19C" opacity="1.000000" stroke="none" 
	d="
M81.000000,1.000000 
	C85.356903,1.000000 89.713799,1.000000 94.492882,1.319328 
	C94.605446,3.371029 94.295830,5.103401 93.735779,6.924675 
	C93.316399,7.066350 93.147453,7.119122 92.593376,7.115342 
	C89.137344,6.086227 86.066437,5.113665 82.719025,3.968061 
	C81.961678,2.863347 81.480835,1.931673 81.000000,1.000000 
z"/>
<path fill="#965C38" opacity="1.000000" stroke="none" 
	d="
M102.562500,1.000000 
	C102.667053,2.421341 102.334114,3.842683 101.559937,5.632919 
	C100.119362,5.990591 99.120018,5.979368 98.066818,5.626999 
	C97.341980,3.857236 96.670990,2.428618 96.000000,1.000000 
	C98.041664,1.000000 100.083336,1.000000 102.562500,1.000000 
z"/>
<path fill="#E6C996" opacity="1.000000" stroke="none" 
	d="
M95.750000,1.000000 
	C96.670990,2.428618 97.341980,3.857236 97.962143,5.889275 
	C97.864105,6.674466 97.816910,6.856237 97.545441,7.141738 
	C96.515778,7.176013 95.710388,7.106559 94.673416,6.995406 
	C94.441826,6.953707 93.986214,6.835772 93.986214,6.835773 
	C94.295830,5.103401 94.605446,3.371029 94.957535,1.319328 
	C95.000000,1.000000 95.500000,1.000000 95.750000,1.000000 
z"/>
<path fill="#C2A22E" opacity="1.000000" stroke="none" 
	d="
M80.625000,1.000000 
	C81.480835,1.931673 81.961678,2.863347 82.720306,4.314918 
	C82.998535,5.529951 82.998978,6.225086 82.999420,6.920223 
	C81.543564,6.011525 80.087700,5.102828 78.336296,3.656709 
	C78.027161,2.412858 78.013580,1.706429 78.000000,1.000000 
	C78.750000,1.000000 79.500000,1.000000 80.625000,1.000000 
z"/>
<path fill="#B47A51" opacity="1.000000" stroke="none" 
	d="
M12.666667,1.000000 
	C13.327095,2.416091 13.654190,3.832182 13.595933,5.568689 
	C12.091447,5.608230 10.972313,5.327354 9.853179,5.046479 
	C9.853179,5.046479 9.421975,5.016544 9.293375,4.642152 
	C9.776517,3.178507 10.388258,2.089253 11.000000,1.000000 
	C11.444445,1.000000 11.888889,1.000000 12.666667,1.000000 
z"/>
<path fill="#CCB149" opacity="1.000000" stroke="none" 
	d="
M28.625000,1.000000 
	C28.186691,2.574427 27.373383,4.148854 26.278061,5.914344 
	C25.242558,5.993809 24.489067,5.882212 23.380169,5.717976 
	C23.948605,4.820313 24.346699,4.191653 25.083786,3.100326 
	C25.615189,2.091773 25.807594,1.545887 26.000000,1.000000 
	C26.750000,1.000000 27.500000,1.000000 28.625000,1.000000 
z"/>
<path fill="#C79166" opacity="1.000000" stroke="none" 
	d="
M10.750000,1.000000 
	C10.388258,2.089253 9.776517,3.178507 9.087437,4.576597 
	C8.066285,4.148431 7.122471,3.411429 6.087756,2.110486 
	C5.997903,1.364363 5.998951,1.182182 6.000000,1.000000 
	C6.000000,1.000000 6.500000,1.000000 6.951125,1.221073 
	C8.268167,1.294764 9.134083,1.147382 10.000000,1.000000 
	C10.000000,1.000000 10.500000,1.000000 10.750000,1.000000 
z"/>
<path fill="#D1B345" opacity="1.000000" stroke="none" 
	d="
M77.625000,1.000000 
	C78.013580,1.706429 78.027161,2.412858 78.058861,3.470020 
	C77.141502,3.064892 76.206039,2.309033 75.135284,1.276587 
	C75.750000,1.000000 76.500000,1.000000 77.625000,1.000000 
z"/>
<path fill="#BA8659" opacity="1.000000" stroke="none" 
	d="
M5.502610,1.000000 
	C5.998951,1.182182 5.997903,1.364363 5.978863,1.819283 
	C4.582028,2.094696 3.203186,2.097372 1.412172,2.050024 
	C2.335073,1.666667 3.670146,1.333333 5.502610,1.000000 
z"/>
<path fill="#E4C676" opacity="1.000000" stroke="none" 
	d="
M25.750000,1.000000 
	C25.807594,1.545887 25.615189,2.091773 25.196438,2.826123 
	C24.884554,2.471774 24.799015,1.928960 24.856737,1.193074 
	C25.000000,1.000000 25.500000,1.000000 25.750000,1.000000 
z"/>
<path fill="#BA8659" opacity="1.000000" stroke="none" 
	d="
M9.625000,1.000000 
	C9.134083,1.147382 8.268167,1.294764 7.201125,1.221073 
	C7.750000,1.000000 8.500000,1.000000 9.625000,1.000000 
z"/>
<path fill="#B57E5B" opacity="1.000000" stroke="none" 
	d="
M23.965170,63.153667 
	C17.694059,62.101307 16.478891,55.996181 13.062557,52.114395 
	C12.042042,50.954838 11.696728,49.201038 11.397657,47.268082 
	C12.494850,44.569614 13.236447,42.322563 14.199396,40.046329 
	C14.420747,40.017147 14.864540,39.974277 14.937912,40.230869 
	C15.060689,40.658382 15.110094,40.829304 15.107582,41.396656 
	C16.036673,44.702129 16.788612,47.715424 18.053713,50.495171 
	C19.840088,54.420292 22.005939,58.172707 24.000965,62.287727 
	C23.983297,62.768887 23.974234,62.961277 23.965170,63.153667 
z"/>
<path fill="#BB835D" opacity="1.000000" stroke="none" 
	d="
M13.978045,40.075512 
	C13.236447,42.322563 12.494850,44.569614 11.454446,46.904694 
	C10.359437,39.252777 9.563234,31.512835 9.007298,23.090271 
	C9.177612,20.844496 8.678740,19.131956 9.156692,17.759624 
	C9.648092,16.348680 11.092841,15.269767 12.080143,14.478479 
	C12.671931,19.946894 13.303984,24.982386 13.576439,30.134937 
	C11.490571,33.679928 10.834715,37.024914 13.978045,40.075512 
z"/>
<path fill="#AB7248" opacity="1.000000" stroke="none" 
	d="
M106.126396,21.930809 
	C109.200066,23.980028 110.241417,26.464396 107.822296,29.718410 
	C107.543182,30.093849 107.097267,30.834930 107.194572,30.930090 
	C111.363678,35.007256 106.146072,38.705589 106.152283,42.815510 
	C105.360832,43.012253 105.171257,43.004700 104.731514,42.865540 
	C103.991249,42.173836 103.501144,41.613743 103.135681,40.752472 
	C103.189316,39.299316 103.118324,38.147346 103.160782,36.701714 
	C103.483574,35.611706 103.692902,34.815357 103.925598,33.586002 
	C103.632729,30.104153 103.316505,27.055307 103.200607,23.763691 
	C104.309425,22.990883 105.217911,22.460846 106.126396,21.930809 
z"/>
<path fill="#BD845F" opacity="1.000000" stroke="none" 
	d="
M74.090103,86.014290 
	C70.388611,89.558617 66.995750,87.801659 63.796555,85.270058 
	C61.192543,83.209435 58.772011,80.916939 56.214394,78.145401 
	C56.782425,76.015961 57.406185,74.468391 58.275406,72.972931 
	C58.682076,73.069733 58.843285,73.114410 59.158344,73.449043 
	C62.255852,77.111671 64.011635,82.225479 70.028564,81.431007 
	C69.861145,83.007736 69.713898,84.217400 69.530045,85.727776 
	C71.271255,85.837181 72.680679,85.925735 74.090103,86.014290 
z"/>
<path fill="#A87047" opacity="1.000000" stroke="none" 
	d="
M74.372070,85.919968 
	C72.680679,85.925735 71.271255,85.837181 69.530045,85.727776 
	C69.713898,84.217400 69.861145,83.007736 70.238365,81.292389 
	C70.656502,80.512810 70.844681,80.238914 71.251816,79.957802 
	C71.470772,79.950592 71.904716,79.885193 72.280769,79.914215 
	C74.438057,79.291138 76.219299,78.639038 78.364563,77.977699 
	C80.135139,76.958664 81.541695,75.948875 82.969269,74.970505 
	C82.990273,75.001923 82.940117,74.941010 83.281609,74.956421 
	C84.413513,74.630020 85.203926,74.288223 86.103790,73.739410 
	C86.406273,73.274986 86.653358,73.089592 87.164276,72.861511 
	C87.635742,72.552780 87.832382,72.306808 88.215958,71.877525 
	C88.965057,71.471115 89.462196,71.196030 89.954483,71.281036 
	C89.319138,73.134842 88.688660,74.628555 88.058182,76.122269 
	C88.058174,76.122269 88.035339,76.048637 87.680283,76.040894 
	C84.422676,75.746078 83.827141,77.466370 83.999763,79.855042 
	C82.333466,80.893494 80.658546,81.918427 79.003448,82.974442 
	C77.542152,83.906822 76.102982,84.873886 74.372070,85.919968 
z"/>
<path fill="#B27C56" opacity="1.000000" stroke="none" 
	d="
M58.029945,72.920822 
	C57.406185,74.468391 56.782425,76.015961 56.047745,77.837418 
	C52.704430,74.644318 49.472038,71.177315 46.269615,67.100853 
	C47.056747,65.943825 47.813908,65.396248 48.571068,64.848679 
	C49.843506,65.506882 51.115940,66.165085 52.830017,67.267403 
	C54.857750,69.447952 56.443848,71.184387 58.029945,72.920822 
z"/>
<path fill="#A36B3D" opacity="1.000000" stroke="none" 
	d="
M106.067528,21.550945 
	C105.217911,22.460846 104.309425,22.990883 102.844299,23.702272 
	C100.870872,19.675318 99.454086,15.467011 98.256676,11.065293 
	C98.748444,10.594692 99.020836,10.317502 99.642853,10.029007 
	C100.692627,10.002281 101.392776,9.986859 102.092926,9.971438 
	C103.398170,13.704652 104.703415,17.437864 106.067528,21.550945 
M99.461792,12.492202 
	C99.461792,12.492202 99.514847,12.468530 99.461792,12.492202 
z"/>
<path fill="#B98360" opacity="1.000000" stroke="none" 
	d="
M12.120409,14.045558 
	C11.092841,15.269767 9.648092,16.348680 9.156692,17.759624 
	C8.678740,19.131956 9.177612,20.844496 9.104784,22.743019 
	C5.898330,17.137941 9.046121,11.559158 9.909132,5.448541 
	C10.972313,5.327354 12.091447,5.608230 13.554102,5.937231 
	C14.244380,7.712873 14.591138,9.440388 14.677427,11.709097 
	C14.194842,12.724344 13.972727,13.198397 13.715467,13.663006 
	C13.680326,13.653563 13.613259,13.681823 13.358608,13.718119 
	C12.776108,13.851463 12.448258,13.948511 12.120409,14.045558 
z"/>
<path fill="#AF7B4B" opacity="1.000000" stroke="none" 
	d="
M24.153576,63.451134 
	C23.974234,62.961277 23.983297,62.768887 24.381870,62.296249 
	C26.481049,60.666027 28.190722,59.316059 30.299030,57.989082 
	C31.495544,57.984943 32.293419,57.957806 33.091297,57.930668 
	C33.658276,58.442924 34.225254,58.955181 34.610699,59.800064 
	C34.655853,61.101593 34.882542,62.070503 35.109230,63.039413 
	C31.781033,67.236687 28.078550,65.751381 24.153576,63.451134 
z"/>
<path fill="#B9845B" opacity="1.000000" stroke="none" 
	d="
M103.864250,55.009415 
	C102.834427,56.936451 101.804596,58.863491 100.182022,60.809586 
	C99.047546,60.548683 98.505814,60.268730 98.005585,59.645210 
	C98.037567,57.592281 98.028038,55.882923 98.025803,53.901558 
	C98.039070,53.448246 98.045052,53.266941 98.423325,53.065662 
	C99.295944,53.015862 99.796265,52.986031 100.477959,52.949600 
	C100.659325,52.943001 101.021423,52.968090 101.160233,53.243580 
	C102.154106,54.015850 103.009178,54.512630 103.864250,55.009415 
z"/>
<path fill="#A8724D" opacity="1.000000" stroke="none" 
	d="
M35.411591,63.022408 
	C34.882542,62.070503 34.655853,61.101593 34.749886,60.054588 
	C37.526566,60.515850 39.982517,61.055202 42.709572,62.211746 
	C42.991230,63.511333 43.001793,64.193733 42.644215,64.902870 
	C40.492313,64.295509 38.708553,63.661415 36.924789,63.027325 
	C36.521175,63.020020 36.117565,63.012711 35.411591,63.022408 
z"/>
<path fill="#AF7C54" opacity="1.000000" stroke="none" 
	d="
M88.410706,76.067215 
	C88.688660,74.628555 89.319138,73.134842 89.837723,70.988358 
	C90.763199,69.154617 91.800575,67.973640 92.905563,66.874435 
	C92.973167,66.956200 93.108955,67.119278 93.108955,67.119278 
	C93.688828,71.074829 92.529640,74.180542 88.410706,76.067215 
z"/>
<path fill="#A9734E" opacity="1.000000" stroke="none" 
	d="
M43.012356,64.876137 
	C43.001793,64.193733 42.991230,63.511333 42.968941,62.488365 
	C44.679943,62.854855 46.402668,63.561909 48.348232,64.558823 
	C47.813908,65.396248 47.056747,65.943825 46.121883,66.798691 
	C45.158520,66.798950 44.372860,66.491928 43.303734,65.781616 
	C43.017635,65.210938 43.014996,65.043541 43.012356,64.876137 
z"/>
<path fill="#AD7C57" opacity="1.000000" stroke="none" 
	d="
M97.032333,64.116653 
	C95.939293,65.082336 94.846252,66.048012 93.431084,67.066483 
	C93.108955,67.119278 92.973167,66.956200 93.074921,66.673737 
	C93.424141,65.930687 93.671616,65.470108 93.975067,64.702957 
	C94.081421,63.984837 94.131798,63.573292 94.382851,62.934517 
	C94.724403,62.133808 94.865288,61.560333 95.003387,60.993736 
	C95.000603,61.000614 94.986618,61.005733 95.319763,61.055649 
	C96.100189,61.066872 96.547485,61.028183 96.998489,61.380371 
	C97.012238,62.553051 97.022285,63.334850 97.032333,64.116653 
z"/>
<path fill="#A8724B" opacity="1.000000" stroke="none" 
	d="
M102.053177,9.577164 
	C101.392776,9.986859 100.692627,10.002281 99.502686,9.720009 
	C98.598503,8.627547 98.184105,7.832779 97.769714,7.038010 
	C97.816910,6.856237 97.864105,6.674466 98.015991,6.230420 
	C99.120018,5.979368 100.119362,5.990591 101.495186,6.010983 
	C101.918922,7.074398 101.966179,8.128645 102.053177,9.577164 
z"/>
<path fill="#AF7C54" opacity="1.000000" stroke="none" 
	d="
M84.320412,79.832520 
	C83.827141,77.466370 84.422676,75.746078 87.717911,76.049255 
	C86.954079,77.313576 85.797569,78.561790 84.320412,79.832520 
z"/>
<path fill="#BB8765" opacity="1.000000" stroke="none" 
	d="
M42.644215,64.902870 
	C43.014996,65.043541 43.017635,65.210938 43.010117,65.629242 
	C41.007263,65.182793 39.014568,64.485435 36.973328,63.407700 
	C38.708553,63.661415 40.492313,64.295509 42.644215,64.902870 
z"/>
<path fill="#AB7150" opacity="1.000000" stroke="none" 
	d="
M103.926178,54.641651 
	C103.009178,54.512630 102.154106,54.015850 101.392715,53.017204 
	C101.654495,51.673725 101.822586,50.832108 102.222778,50.155647 
	C102.969261,50.871010 103.483658,51.421211 104.009872,51.985771 
	C104.021698,52.000130 104.033592,52.036304 104.033592,52.036304 
	C104.018433,52.782166 104.003265,53.528027 103.926178,54.641651 
z"/>
<path fill="#BE8D6B" opacity="1.000000" stroke="none" 
	d="
M97.324844,63.991943 
	C97.022285,63.334850 97.012238,62.553051 97.115570,61.173744 
	C97.422325,60.315769 97.667374,60.119949 97.964081,59.988777 
	C98.505814,60.268730 99.047546,60.548683 99.871613,60.945103 
	C99.308418,61.996792 98.462891,62.932014 97.324844,63.991943 
z"/>
<path fill="#C89C7E" opacity="1.000000" stroke="none" 
	d="
M105.854774,47.011688 
	C105.794273,47.942890 105.733772,48.874092 105.321747,49.669540 
	C104.944893,49.344116 104.919563,49.154449 104.837418,48.752739 
	C104.665497,48.265324 104.498123,48.026585 104.272942,47.528183 
	C104.254906,46.837574 104.242416,46.443275 104.419373,46.074524 
	C104.608818,46.100075 104.991142,46.098488 105.096985,46.283173 
	C105.391785,46.683132 105.609100,46.864407 105.854774,47.011688 
z"/>
<path fill="#B07F5A" opacity="1.000000" stroke="none" 
	d="
M105.925507,46.619522 
	C105.609100,46.864407 105.391785,46.683132 105.093063,45.893723 
	C104.982758,44.545437 104.982216,43.771294 104.981674,42.997150 
	C105.171257,43.004700 105.360832,43.012253 105.834663,43.032394 
	C106.078026,44.105778 106.037132,45.166565 105.925507,46.619522 
z"/>
<path fill="#B07F5A" opacity="1.000000" stroke="none" 
	d="
M104.894226,48.964779 
	C104.919563,49.154449 104.944893,49.344116 104.998474,49.819469 
	C104.885010,50.678719 104.743286,51.252281 104.317581,51.931076 
	C104.033592,52.036304 104.021698,52.000130 104.002792,51.617058 
	C104.012840,50.497173 104.041794,49.760361 104.276627,49.009018 
	C104.482513,48.994492 104.894226,48.964779 104.894226,48.964779 
z"/>
<path fill="#EED9AE" opacity="1.000000" stroke="none" 
	d="
M66.007263,41.003185 
	C69.465546,39.977718 73.068558,38.421932 74.958046,44.131657 
	C75.092049,45.587849 75.149551,46.337486 75.180481,47.405598 
	C75.425468,48.489021 75.697021,49.253971 76.076149,50.288544 
	C76.496582,51.048702 76.809448,51.539238 77.089493,52.427536 
	C77.766640,54.720383 78.291519,56.712601 79.224495,58.490677 
	C81.274315,62.397221 82.642868,66.095619 77.684174,69.002151 
	C76.296196,68.536026 75.211685,68.237900 74.072708,67.549942 
	C72.330750,63.112686 70.643250,59.065269 68.940773,54.717758 
	C68.584679,53.953575 68.243553,53.489491 67.869431,52.701458 
	C67.770416,51.948620 67.704399,51.519730 67.689270,50.725086 
	C67.168968,48.524250 66.597771,46.689159 66.022202,44.468960 
	C66.014313,43.056961 66.010788,42.030071 66.007263,41.003185 
z"/>
<path fill="#EBD2A3" opacity="1.000000" stroke="none" 
	d="
M12.080143,14.478479 
	C12.448258,13.948511 12.776108,13.851463 13.459260,14.146086 
	C14.033604,16.228134 14.252645,17.918509 14.367356,18.803751 
	C17.239473,21.458942 20.104267,13.345958 21.687740,20.086576 
	C18.705263,23.896618 22.269911,23.762871 24.476639,24.675014 
	C27.206711,23.341934 29.599554,22.008028 31.980320,20.794609 
	C31.968241,20.915096 31.971987,21.157249 31.971987,21.157249 
	C33.161366,22.113953 34.359985,23.059450 35.537457,24.030590 
	C36.659466,24.955992 37.759411,25.908142 38.869057,26.848534 
	C37.876652,27.889778 36.884247,28.931025 35.428528,29.680580 
	C33.287197,29.888411 31.609169,30.387936 29.780659,30.580135 
	C25.899723,25.824961 24.118883,25.910919 21.566275,30.440245 
	C19.545904,34.025173 17.303377,37.484901 15.159498,41.000225 
	C15.110094,40.829304 15.060689,40.658382 14.992300,39.795834 
	C14.627557,36.075432 14.281796,33.046654 13.936036,30.017879 
	C13.303984,24.982386 12.671931,19.946894 12.080143,14.478479 
z"/>
<path fill="#EAD4A6" opacity="1.000000" stroke="none" 
	d="
M80.005188,40.007065 
	C79.184326,39.225872 78.430336,38.352287 77.520653,37.693798 
	C76.838242,37.199821 75.955597,36.982475 75.382423,36.133751 
	C76.739136,32.085117 77.875511,28.544710 79.011887,25.004299 
	C84.099419,23.776112 80.954308,20.265659 81.357452,17.417953 
	C84.101341,19.458872 86.537468,21.735376 88.658051,24.163765 
	C84.675446,25.942934 80.586159,27.170172 80.564308,32.339752 
	C81.465950,32.577545 82.229599,32.778946 82.995346,33.399193 
	C82.998299,35.214954 82.999146,36.611866 83.000000,38.008778 
	C82.995903,38.457088 82.991814,38.905396 82.610725,39.682091 
	C81.490883,40.009338 80.748039,40.008198 80.005188,40.007065 
z"/>
<path fill="#CDAF44" opacity="1.000000" stroke="none" 
	d="
M47.116554,41.007156 
	C47.372494,44.441917 47.842636,47.878532 47.812950,51.310822 
	C47.791294,53.814030 47.110794,56.311539 45.857651,58.757946 
	C40.568314,52.664875 42.465084,45.566471 42.135418,38.303635 
	C43.582199,37.482433 44.752476,37.267124 45.922749,37.051819 
	C45.922749,37.051819 46.000675,37.052452 45.991714,37.374123 
	C46.360687,38.799580 46.738621,39.903366 47.116554,41.007156 
z"/>
<path fill="#C8AB3E" opacity="1.000000" stroke="none" 
	d="
M88.973595,24.011879 
	C86.537468,21.735376 84.101341,19.458872 81.354401,17.023476 
	C80.375755,16.106981 79.707916,15.349380 78.912628,14.314090 
	C80.649643,12.169894 82.272621,11.694992 84.572578,13.831631 
	C86.229012,15.370453 88.703636,16.028545 90.714455,17.030247 
	C91.568108,18.749653 92.537041,20.701279 93.820419,23.072823 
	C94.147377,23.681709 94.159889,23.870672 94.134537,24.280910 
	C94.096672,24.502186 94.149399,24.948067 94.128502,25.308693 
	C95.067375,27.789915 96.027138,29.910509 96.997063,32.017853 
	C97.007225,32.004597 97.021500,31.974298 96.624672,31.988300 
	C95.170647,31.962425 94.113449,31.922548 93.002815,31.532196 
	C91.624115,28.791771 90.298851,26.401825 88.973595,24.011879 
z"/>
<path fill="#EFDBB3" opacity="1.000000" stroke="none" 
	d="
M78.735275,24.760870 
	C77.875511,28.544710 76.739136,32.085117 75.301682,35.813683 
	C74.523949,35.874023 73.883232,35.899349 73.597557,35.593285 
	C71.889275,33.763100 71.166214,17.948969 72.663651,15.532729 
	C76.604904,17.239418 72.773399,23.995876 78.735275,24.760870 
z"/>
<path fill="#CDAD4D" opacity="1.000000" stroke="none" 
	d="
M77.987625,69.170151 
	C82.642868,66.095619 81.274315,62.397221 79.224495,58.490677 
	C78.291519,56.712601 77.766640,54.720383 77.441772,52.478706 
	C79.233864,52.411568 80.640846,52.691017 82.047821,52.970470 
	C82.679535,54.719940 83.311241,56.469410 83.844986,58.894516 
	C83.584503,62.459072 81.365494,65.651115 84.993668,67.991089 
	C85.000412,67.999870 85.018196,68.013313 85.026810,68.347824 
	C85.685509,69.779747 86.335587,70.877159 86.985092,72.225212 
	C86.974510,72.642639 86.964500,72.809433 86.954483,72.976227 
	C86.653358,73.089592 86.406273,73.274986 85.819191,73.635521 
	C84.659622,73.537865 83.894089,73.337082 82.911819,72.930557 
	C82.581734,71.671371 82.468391,70.617912 82.419769,70.166000 
	C80.716843,69.783379 79.352234,69.476761 77.987625,69.170151 
z"/>
<path fill="#C9A444" opacity="1.000000" stroke="none" 
	d="
M84.986923,67.982315 
	C81.365494,65.651115 83.584503,62.459072 83.890884,59.253250 
	C85.149956,58.724701 86.265182,58.513046 87.852081,58.499165 
	C89.483528,60.114029 90.643295,61.531124 91.897049,63.261475 
	C92.633713,64.053001 93.276405,64.531265 93.919090,65.009537 
	C93.671616,65.470108 93.424141,65.930687 93.007309,66.591965 
	C91.800575,67.973640 90.763199,69.154617 89.842583,70.628273 
	C89.462196,71.196030 88.965057,71.471115 87.971626,71.868423 
	C87.475342,71.990646 86.985672,71.974571 86.985672,71.974571 
	C86.335587,70.877159 85.685509,69.779747 85.121445,68.298172 
	C85.207458,67.914001 85.216072,67.648476 85.216072,67.648476 
	C85.216072,67.648476 84.986923,67.982315 84.986923,67.982315 
z"/>
<path fill="#EEDBB3" opacity="1.000000" stroke="none" 
	d="
M58.990795,40.005489 
	C58.929283,39.020378 58.770855,38.029530 58.828796,37.051495 
	C58.917358,35.556572 58.888687,32.897705 59.376629,32.786797 
	C61.330086,32.342766 63.488235,32.552834 65.500603,32.912758 
	C65.765083,32.960064 66.071693,35.511105 65.558090,36.476608 
	C64.914879,37.685772 63.444084,38.454716 62.165482,40.111267 
	C62.006367,41.883358 62.012280,42.957859 61.993507,44.446365 
	C61.988056,46.245716 62.007290,47.631065 61.962498,48.991463 
	C61.898468,48.966507 61.774586,48.906979 61.384155,48.933754 
	C59.938156,49.035187 58.882580,49.109848 57.791721,49.206871 
	C57.756435,49.229233 57.673229,49.236813 57.761459,48.858383 
	C58.230061,45.655132 58.610428,42.830311 58.990795,40.005489 
z"/>
<path fill="#EFDAB4" opacity="1.000000" stroke="none" 
	d="
M58.275406,72.972931 
	C56.443848,71.184387 54.857750,69.447952 53.104122,67.432373 
	C54.767040,66.185654 56.597488,65.218094 59.120266,64.111816 
	C60.502239,63.958820 61.191883,63.944538 62.233742,63.959862 
	C63.055584,64.003441 63.525219,64.017418 64.154518,64.312195 
	C64.874596,65.728149 65.435005,66.863312 65.695877,68.140747 
	C64.260727,69.489334 63.125122,70.695648 61.667725,71.964249 
	C60.565453,72.404060 59.784973,72.781578 59.004494,73.159088 
	C58.843285,73.114410 58.682076,73.069733 58.275406,72.972931 
z"/>
<path fill="#EDD6A3" opacity="1.000000" stroke="none" 
	d="
M58.667641,39.956715 
	C58.610428,42.830311 58.230061,45.655132 57.475201,48.734787 
	C56.494034,47.901413 55.887356,46.813206 55.158016,45.399696 
	C54.514698,43.736362 54.002350,42.395035 53.471657,41.061005 
	C52.385796,38.331417 51.241341,39.843586 50.104774,41.021584 
	C49.357285,41.015362 48.609791,41.009140 47.489426,41.005035 
	C46.738621,39.903366 46.360687,38.799580 46.008942,37.339169 
	C47.773960,36.694397 49.512787,36.406242 51.916397,36.191048 
	C53.387215,36.511036 54.193253,36.758060 54.999287,37.005085 
	C56.114357,37.972702 57.229424,38.940319 58.667641,39.956715 
z"/>
<path fill="#CFB24C" opacity="1.000000" stroke="none" 
	d="
M33.229073,57.580315 
	C32.293419,57.957806 31.495544,57.984943 30.327282,57.555008 
	C30.004854,55.068108 30.052813,53.038280 30.320158,50.690651 
	C30.724045,48.529205 30.908543,46.685566 31.083118,44.483047 
	C31.082821,43.400787 31.092445,42.677399 31.480818,41.962555 
	C32.866680,41.972477 33.873795,41.973850 34.880905,41.975224 
	C34.376221,47.060139 33.871536,52.145050 33.229073,57.580315 
z"/>
<path fill="#BD9B37" opacity="1.000000" stroke="none" 
	d="
M91.803070,62.948215 
	C90.643295,61.531124 89.483528,60.114029 88.178055,58.376839 
	C89.036957,55.960320 90.041565,53.863899 91.439804,51.441048 
	C93.259819,52.504997 94.686218,53.895374 96.044464,55.639709 
	C95.646416,57.664360 95.316513,59.335045 94.986618,61.005733 
	C94.986618,61.005733 95.000603,61.000614 94.699753,60.949646 
	C93.923340,61.255203 93.447777,61.611729 92.752777,62.099400 
	C92.289925,62.469769 92.046494,62.708992 91.803070,62.948215 
z"/>
<path fill="#BE992C" opacity="1.000000" stroke="none" 
	d="
M96.112610,55.285748 
	C94.686218,53.895374 93.259819,52.504997 91.496193,51.053371 
	C91.109383,48.966240 91.059814,46.940361 91.390717,44.445503 
	C92.513565,43.983471 93.255936,43.990414 94.118179,44.278526 
	C94.397202,45.762291 94.556366,46.964890 94.724617,48.236134 
	C97.203926,47.168369 99.742035,45.585800 100.012695,50.278122 
	C100.016113,50.499485 100.012505,50.942245 99.749283,51.085121 
	C99.007729,51.847210 98.529381,52.466419 98.051041,53.085632 
	C98.045052,53.266941 98.039070,53.448246 97.777145,54.018463 
	C97.051674,54.700169 96.582138,54.992958 96.112610,55.285748 
z"/>
<path fill="#D0B250" opacity="1.000000" stroke="none" 
	d="
M55.280678,45.725002 
	C55.887356,46.813206 56.494034,47.901413 57.386971,49.113213 
	C57.673229,49.236813 57.756435,49.229233 57.813660,49.583046 
	C58.280453,52.294338 58.690022,54.651817 58.766075,57.079895 
	C57.961731,58.084183 57.490898,59.017864 57.020069,59.951546 
	C55.366291,56.878151 53.712517,53.804752 52.290005,50.121712 
	C53.441071,48.249714 54.360874,46.987358 55.280678,45.725002 
z"/>
<path fill="#D6BB5E" opacity="1.000000" stroke="none" 
	d="
M34.026489,10.353313 
	C35.060837,9.559920 36.063244,9.103382 37.605591,8.400933 
	C37.772446,10.173317 37.916733,11.706017 38.099678,13.630646 
	C38.138332,14.022573 38.049999,14.510891 37.728111,14.916117 
	C36.247662,17.202158 35.089100,19.082973 33.930538,20.963787 
	C33.494141,20.994637 33.057739,21.025486 32.296665,21.106792 
	C31.971987,21.157249 31.968241,20.915096 31.963282,20.497818 
	C31.638586,19.387285 31.318850,18.694033 30.999111,18.000780 
	C31.470919,16.448929 31.942724,14.897078 32.913010,13.056488 
	C33.658321,12.584046 33.806793,12.340393 33.856895,12.036791 
	C33.902782,11.587916 33.948669,11.139042 34.026489,10.353313 
z"/>
<path fill="#CAAB3B" opacity="1.000000" stroke="none" 
	d="
M34.925758,41.525314 
	C33.873795,41.973850 32.866680,41.972477 31.239994,41.930710 
	C30.620422,41.890320 30.138477,41.849049 30.270618,41.527290 
	C31.574699,38.289761 31.085867,35.858212 28.394863,33.821018 
	C28.963099,33.031261 29.464100,32.508827 30.353851,31.991774 
	C32.016972,32.023479 33.291344,32.049805 34.565716,32.076130 
	C34.700680,35.075886 34.835644,38.075645 34.925758,41.525314 
z"/>
<path fill="#EBD49C" opacity="1.000000" stroke="none" 
	d="
M93.056252,31.882675 
	C94.113449,31.922548 95.170647,31.962425 96.732468,32.257050 
	C97.303635,32.693024 97.370163,32.874252 97.325035,33.414375 
	C97.128952,34.518749 97.044533,35.264225 96.914322,36.403282 
	C96.870522,37.850838 96.872513,38.904823 96.687706,40.178532 
	C95.770958,41.019684 95.041008,41.641109 93.937302,42.214386 
	C92.644325,42.457382 91.725121,42.748531 90.805908,43.039680 
	C89.897636,41.918865 88.989365,40.798054 88.409821,39.343048 
	C89.498016,39.004410 90.257492,38.999973 91.364746,38.979973 
	C93.008736,38.156261 94.304962,37.348118 95.506844,36.598789 
	C94.511063,34.682430 93.783653,33.282551 93.056252,31.882675 
z"/>
<path fill="#EFDBB3" opacity="1.000000" stroke="none" 
	d="
M55.194702,36.758186 
	C54.193253,36.758060 53.387215,36.511036 52.290939,36.131355 
	C52.341774,33.879074 47.937000,31.777330 51.833637,29.772333 
	C52.916855,29.214970 54.565861,29.757189 55.955292,29.794945 
	C55.766899,32.033726 55.578506,34.272511 55.194702,36.758186 
z"/>
<path fill="#E6D099" opacity="1.000000" stroke="none" 
	d="
M91.016968,38.995537 
	C90.257492,38.999973 89.498016,39.004410 88.358215,39.013283 
	C86.559258,38.715374 85.140625,38.413029 83.360992,38.059731 
	C82.999146,36.611866 82.998299,35.214954 83.245934,33.394913 
	C83.661377,32.968121 83.828339,32.964458 84.395294,32.970413 
	C85.862061,32.988903 86.928825,32.997772 88.049637,33.345360 
	C89.074776,35.454563 90.045868,37.225048 91.016968,38.995537 
z"/>
<path fill="#D4BC63" opacity="1.000000" stroke="none" 
	d="
M55.158016,45.399696 
	C54.360874,46.987358 53.441071,48.249714 52.290234,49.746151 
	C51.384815,47.269485 50.710434,44.558743 50.070412,41.434788 
	C51.241341,39.843586 52.385796,38.331417 53.471657,41.061005 
	C54.002350,42.395035 54.514698,43.736362 55.158016,45.399696 
z"/>
<path fill="#DFC682" opacity="1.000000" stroke="none" 
	d="
M45.960243,36.672173 
	C44.752476,37.267124 43.582199,37.482433 42.139435,37.835342 
	C41.524578,35.549328 41.182209,33.125713 40.839840,30.702097 
	C41.275124,30.458126 41.710407,30.214155 42.145687,29.970184 
	C43.232380,30.833628 44.319069,31.697071 45.671543,33.043777 
	C45.937325,33.527046 45.977680,34.007439 45.977680,34.007439 
	C45.984367,34.769138 45.991051,35.530834 45.960243,36.672173 
z"/>
<path fill="#CAAA3F" opacity="1.000000" stroke="none" 
	d="
M57.051254,60.294483 
	C57.490898,59.017864 57.961731,58.084183 58.776356,57.398273 
	C60.017014,58.790035 60.913879,59.934029 61.840012,61.433903 
	C61.873360,62.503277 61.877441,63.216766 61.881527,63.930256 
	C61.191883,63.944538 60.502239,63.958820 59.468964,63.956032 
	C58.444363,62.838448 57.763397,61.737934 57.051254,60.294483 
z"/>
<path fill="#EDD6A3" opacity="1.000000" stroke="none" 
	d="
M62.018188,44.032364 
	C62.012280,42.957859 62.006367,41.883358 62.002460,40.406029 
	C63.164364,40.177666 64.324257,40.352131 65.745712,40.764893 
	C66.010788,42.030071 66.014313,43.056961 65.754868,44.378319 
	C64.333992,44.459312 63.176090,44.245838 62.018188,44.032364 
z"/>
<path fill="#CFB24C" opacity="1.000000" stroke="none" 
	d="
M34.685524,31.738621 
	C33.291344,32.049805 32.016972,32.023479 30.353809,31.716805 
	C29.953728,31.253460 29.942436,31.070459 29.931143,30.887459 
	C31.609169,30.387936 33.287197,29.888411 35.055359,29.700203 
	C35.032104,30.474714 34.918720,30.937912 34.685524,31.738621 
z"/>
<path fill="#D5B85A" opacity="1.000000" stroke="none" 
	d="
M81.963814,52.663002 
	C80.640846,52.691017 79.233864,52.411568 77.474609,52.080948 
	C76.809448,51.539238 76.496582,51.048702 76.398483,50.243057 
	C77.418770,49.613064 78.224281,49.298180 79.029800,48.983299 
	C79.979805,50.107380 80.929802,51.231457 81.963814,52.663002 
z"/>
<path fill="#C6A63D" opacity="1.000000" stroke="none" 
	d="
M79.000404,48.667664 
	C78.224281,49.298180 77.418770,49.613064 76.290924,49.973434 
	C75.697021,49.253971 75.425468,48.489021 75.539566,47.378845 
	C76.885063,47.054131 77.844894,47.074642 78.804733,47.095158 
	C78.860161,47.514114 78.915588,47.933075 79.000404,48.667664 
z"/>
<path fill="#EAD3A0" opacity="1.000000" stroke="none" 
	d="
M34.304451,20.955235 
	C35.089100,19.082973 36.247662,17.202158 37.701630,15.162822 
	C36.890812,16.985094 35.784588,18.965889 34.304451,20.955235 
z"/>
<path fill="#D6B75D" opacity="1.000000" stroke="none" 
	d="
M78.804199,46.757942 
	C77.844894,47.074642 76.885063,47.054131 75.566132,47.060371 
	C75.149551,46.337486 75.092049,45.587849 75.035782,44.463402 
	C76.292557,44.865971 77.548119,45.643349 78.804199,46.757942 
z"/>
<path fill="#E6D099" opacity="1.000000" stroke="none" 
	d="
M80.015686,40.334808 
	C80.748039,40.008198 81.490883,40.009338 82.604446,40.018280 
	C82.375160,40.842228 81.775169,41.658371 81.175171,42.474510 
	C80.792175,41.870525 80.409172,41.266537 80.015686,40.334808 
z"/>
<path fill="#E4C879" opacity="1.000000" stroke="none" 
	d="
M90.862411,43.291176 
	C91.725121,42.748531 92.644325,42.457382 93.868591,42.498795 
	C94.115204,43.220024 94.056755,43.608688 93.998306,43.997356 
	C93.255936,43.990414 92.513565,43.983471 91.401779,44.011040 
	C90.994560,43.877926 90.956741,43.710300 90.862411,43.291176 
z"/>
<path fill="#EFDBB3" opacity="1.000000" stroke="none" 
	d="
M46.285156,33.996117 
	C45.977680,34.007439 45.937325,33.527046 45.916924,33.287323 
	C46.608894,32.806164 47.321262,32.564720 48.033634,32.323280 
	C48.159386,32.540897 48.285141,32.758514 48.410892,32.976135 
	C47.804806,33.312355 47.198719,33.648579 46.285156,33.996117 
z"/>
<path fill="#EFDCB4" opacity="1.000000" stroke="none" 
	d="
M22.001953,19.985388 
	C20.104267,13.345958 17.239473,21.458942 14.367356,18.803751 
	C14.252645,17.918509 14.033604,16.228134 13.713911,14.109791 
	C13.613259,13.681823 13.680326,13.653563 14.030262,13.733418 
	C14.921787,13.544108 15.463376,13.274944 16.004965,13.005779 
	C17.272552,12.747317 18.590279,12.631314 19.799088,12.205853 
	C25.169882,10.315516 29.612595,12.377797 26.649220,19.580055 
	C25.550482,20.150932 24.831535,20.267962 23.769897,20.276016 
	C22.952120,20.106491 22.477036,20.045938 22.001953,19.985388 
z"/>
<path fill="#C6A636" opacity="1.000000" stroke="none" 
	d="
M24.112591,20.384989 
	C24.831535,20.267962 25.550482,20.150932 26.626064,19.958664 
	C28.180820,19.416616 29.378937,18.949812 30.788082,18.241894 
	C31.318850,18.694033 31.638586,19.387285 31.975361,20.377331 
	C29.599554,22.008028 27.206711,23.341934 24.441830,24.321253 
	C24.084059,22.772772 24.098326,21.578880 24.112591,20.384989 
z"/>
<path fill="#EBD2A3" opacity="1.000000" stroke="none" 
	d="
M15.855129,12.788905 
	C15.463376,13.274944 14.921787,13.544108 14.065404,13.742861 
	C13.972727,13.198397 14.194842,12.724344 14.640028,12.097662 
	C15.143828,12.154031 15.424562,12.363030 15.855129,12.788905 
z"/>
<path fill="#EAD3A0" opacity="1.000000" stroke="none" 
	d="
M33.685780,12.158028 
	C33.806793,12.340393 33.658321,12.584046 33.212357,12.857770 
	C33.134365,12.690422 33.301506,12.467580 33.685780,12.158028 
z"/>
<path fill="#C8A445" opacity="1.000000" stroke="none" 
	d="
M97.436699,33.055485 
	C97.370163,32.874252 97.303635,32.693024 97.129303,32.243046 
	C97.021500,31.974298 97.007225,32.004597 97.298874,31.809345 
	C100.150017,28.262970 98.764091,25.121628 97.079132,21.996185 
	C96.780472,21.188793 96.481804,20.381401 96.039917,18.992735 
	C95.610634,17.934387 95.324585,17.457312 95.038528,16.980236 
	C94.114174,15.512126 93.189812,14.044012 92.282707,11.947811 
	C92.526146,9.937113 92.752327,8.554503 92.978500,7.171895 
	C93.147453,7.119122 93.316399,7.066350 93.735779,6.924674 
	C93.986214,6.835772 94.441826,6.953707 94.708649,7.356796 
	C95.996086,8.926158 97.016693,10.092430 98.037308,11.258703 
	C99.454086,15.467011 100.870872,19.675318 102.643974,23.945045 
	C103.316505,27.055307 103.632729,30.104153 103.595802,33.632343 
	C102.164032,34.406673 101.085403,34.701660 99.867142,34.744225 
	C98.963898,34.013031 98.200302,33.534260 97.436699,33.055485 
z"/>
<path fill="#C6A42F" opacity="1.000000" stroke="none" 
	d="
M92.593369,7.115342 
	C92.752327,8.554503 92.526146,9.937113 92.158180,11.645121 
	C89.212021,10.395727 86.407654,8.820935 83.301346,7.083183 
	C82.998978,6.225086 82.998535,5.529951 82.996811,4.487959 
	C86.066437,5.113665 89.137344,6.086227 92.593369,7.115342 
z"/>
<path fill="#E7CD90" opacity="1.000000" stroke="none" 
	d="
M96.767105,22.030479 
	C98.764091,25.121628 100.150017,28.262970 97.288712,31.822601 
	C96.027138,29.910509 95.067375,27.789915 94.232201,25.216953 
	C94.500763,24.488129 94.439293,24.253143 94.172401,24.059633 
	C94.159889,23.870672 94.147377,23.681709 94.136078,23.207989 
	C94.909889,22.637077 95.682487,22.350925 96.767105,22.030479 
z"/>
<path fill="#E7CD90" opacity="1.000000" stroke="none" 
	d="
M94.848495,17.160152 
	C95.324585,17.457312 95.610634,17.934387 95.886536,18.704285 
	C95.470421,18.444759 95.064445,17.892412 94.848495,17.160152 
z"/>
<path fill="#E2C287" opacity="1.000000" stroke="none" 
	d="
M98.256668,11.065292 
	C97.016693,10.092430 95.996086,8.926158 94.940239,7.398495 
	C95.710388,7.106559 96.515778,7.176013 97.545433,7.141739 
	C98.184105,7.832779 98.598503,8.627547 99.153069,9.731314 
	C99.020836,10.317502 98.748444,10.594692 98.256668,11.065292 
z"/>
<path fill="#EED8AD" opacity="1.000000" stroke="none" 
	d="
M29.780659,30.580133 
	C29.942436,31.070459 29.953728,31.253460 29.965061,31.711426 
	C29.464100,32.508827 28.963099,33.031261 28.081856,34.047417 
	C27.479904,36.056084 27.258192,37.571022 26.785870,39.279522 
	C26.427525,40.294296 26.319790,41.115517 26.014063,42.261318 
	C24.921770,44.660271 23.874737,46.768188 27.047169,48.300819 
	C28.098742,49.430328 29.099754,50.219391 30.100769,51.008453 
	C30.052813,53.038280 30.004854,55.068108 29.928646,57.532013 
	C28.190722,59.316059 26.481049,60.666027 24.390472,62.007477 
	C22.005939,58.172707 19.840088,54.420292 18.053713,50.495171 
	C16.788612,47.715424 16.036673,44.702129 15.107582,41.396656 
	C17.303377,37.484901 19.545904,34.025173 21.566275,30.440245 
	C24.118883,25.910919 25.899723,25.824961 29.780659,30.580133 
z"/>
<path fill="#AC744C" opacity="1.000000" stroke="none" 
	d="
M13.576439,30.134937 
	C14.281796,33.046654 14.627557,36.075432 14.918928,39.539242 
	C14.864540,39.974277 14.420747,40.017147 14.199395,40.046329 
	C10.834715,37.024914 11.490571,33.679928 13.576439,30.134937 
z"/>
<path fill="#A36C37" opacity="1.000000" stroke="none" 
	d="
M104.731514,42.865540 
	C104.982216,43.771294 104.982758,44.545437 104.987213,45.709034 
	C104.991142,46.098488 104.608818,46.100075 104.041000,46.062790 
	C102.972946,46.014587 102.472702,46.003670 101.958084,45.666016 
	C101.943344,44.903160 101.942986,44.467037 101.962120,43.772858 
	C101.981506,43.342426 101.981400,43.170063 101.990173,42.671738 
	C102.011528,41.911705 102.024002,41.477627 102.280121,41.045410 
	C102.523766,41.047272 103.011032,41.053658 103.011032,41.053658 
	C103.501144,41.613743 103.991249,42.173836 104.731514,42.865540 
z"/>
<path fill="#CEAB47" opacity="1.000000" stroke="none" 
	d="
M100.006783,34.996643 
	C101.085403,34.701660 102.164032,34.406673 103.572449,34.065350 
	C103.692902,34.815357 103.483574,35.611706 102.932632,36.892738 
	C102.393456,37.926720 102.195885,38.476021 101.751648,39.013069 
	C101.504997,39.000820 101.011505,38.979771 100.960709,38.639763 
	C100.608879,37.198715 100.307831,36.097679 100.006783,34.996643 
z"/>
<path fill="#C09348" opacity="1.000000" stroke="none" 
	d="
M101.998306,39.025322 
	C102.195885,38.476021 102.393456,37.926720 102.819183,37.186394 
	C103.118324,38.147346 103.189316,39.299316 103.135674,40.752472 
	C103.011032,41.053658 102.523766,41.047272 102.268929,40.708443 
	C102.008827,39.921520 102.003563,39.473419 101.998306,39.025322 
z"/>
<path fill="#CCAB51" opacity="1.000000" stroke="none" 
	d="
M59.158340,73.449036 
	C59.784973,72.781578 60.565453,72.404060 62.035477,72.011742 
	C66.015556,74.109482 71.119736,74.331047 71.032860,79.965012 
	C70.844681,80.238914 70.656502,80.512810 70.258530,80.925323 
	C64.011635,82.225479 62.255852,77.111671 59.158340,73.449036 
z"/>
<path fill="#C7A644" opacity="1.000000" stroke="none" 
	d="
M77.684174,69.002151 
	C79.352234,69.476761 80.716843,69.783379 82.419769,70.166000 
	C82.468391,70.617912 82.581734,71.671371 82.867195,73.228760 
	C83.006256,74.135475 82.973183,74.538239 82.940117,74.941010 
	C82.940117,74.941010 82.990273,75.001923 82.648468,74.974129 
	C81.878853,74.970863 81.451042,74.995399 80.801926,74.800209 
	C79.724327,75.059097 78.868034,75.537704 78.007294,76.344818 
	C78.002075,77.111198 78.001305,77.549072 78.000542,77.986938 
	C76.219299,78.639038 74.438057,79.291138 72.346664,79.552704 
	C74.464539,76.299583 74.411522,73.229752 72.848312,69.691208 
	C72.968918,68.902985 73.040520,68.453232 73.366104,67.991127 
	C73.789124,67.965767 73.958145,67.952766 74.127167,67.939774 
	C75.211685,68.237900 76.296196,68.536026 77.684174,69.002151 
z"/>
<path fill="#EDD6A7" opacity="1.000000" stroke="none" 
	d="
M72.799316,70.029694 
	C74.411522,73.229752 74.464539,76.299583 71.970612,79.523682 
	C71.904716,79.885193 71.470772,79.950592 71.251816,79.957802 
	C71.119736,74.331047 66.015556,74.109482 62.357269,71.949448 
	C63.125122,70.695648 64.260727,69.489334 66.031906,68.140518 
	C67.115372,67.996109 67.563271,67.994217 68.336861,68.069252 
	C70.041466,68.774025 71.420395,69.401855 72.799316,70.029694 
z"/>
<path fill="#AF7C54" opacity="1.000000" stroke="none" 
	d="
M81.023232,75.019928 
	C81.451042,74.995399 81.878853,74.970863 82.627457,74.942703 
	C81.541695,75.948875 80.135139,76.958664 78.364563,77.977707 
	C78.001305,77.549072 78.002075,77.111198 78.338486,76.329193 
	C79.457161,75.663353 80.240196,75.341637 81.023232,75.019928 
z"/>
<path fill="#AF7C54" opacity="1.000000" stroke="none" 
	d="
M83.281609,74.956421 
	C82.973183,74.538239 83.006256,74.135475 83.083939,73.434494 
	C83.894089,73.337082 84.659622,73.537865 85.709747,73.842537 
	C85.203926,74.288223 84.413513,74.630020 83.281609,74.956421 
z"/>
<path fill="#AF7C54" opacity="1.000000" stroke="none" 
	d="
M86.985092,72.225212 
	C86.985672,71.974571 87.475342,71.990646 87.719666,71.999756 
	C87.832382,72.306808 87.635742,72.552780 87.164276,72.861511 
	C86.964500,72.809433 86.974510,72.642639 86.985092,72.225212 
z"/>
<path fill="#A8724B" opacity="1.000000" stroke="none" 
	d="
M99.488319,12.480366 
	C99.514847,12.468530 99.461792,12.492202 99.488319,12.480366 
z"/>
<path fill="#E4BF8F" opacity="1.000000" stroke="none" 
	d="
M96.044464,55.639709 
	C96.582138,54.992958 97.051674,54.700169 97.769852,54.290474 
	C98.028038,55.882923 98.037567,57.592281 98.005585,59.645210 
	C97.667374,60.119949 97.422325,60.315769 97.111855,60.782867 
	C96.547485,61.028183 96.100189,61.066872 95.319763,61.055649 
	C95.316513,59.335045 95.646416,57.664360 96.044464,55.639709 
z"/>
<path fill="#A0693C" opacity="1.000000" stroke="none" 
	d="
M100.012505,50.942245 
	C100.012505,50.942245 100.016113,50.499485 100.283768,50.264168 
	C100.732025,50.017002 100.912628,50.005146 101.317581,49.989784 
	C101.541939,49.986279 101.990677,49.990490 101.990677,49.990490 
	C101.822586,50.832108 101.654495,51.673725 101.253914,52.741714 
	C101.021423,52.968090 100.659325,52.943001 100.430466,52.614105 
	C100.138580,51.837555 100.075546,51.389900 100.012505,50.942245 
z"/>
<path fill="#CEA461" opacity="1.000000" stroke="none" 
	d="
M99.749283,51.085121 
	C100.075546,51.389900 100.138580,51.837555 100.249100,52.620705 
	C99.796265,52.986031 99.295944,53.015862 98.423325,53.065659 
	C98.529381,52.466419 99.007729,51.847210 99.749283,51.085121 
z"/>
<path fill="#DEB27C" opacity="1.000000" stroke="none" 
	d="
M91.897049,63.261475 
	C92.046494,62.708992 92.289925,62.469769 92.914520,62.335011 
	C93.591187,62.680233 93.886681,62.920994 94.182175,63.161751 
	C94.131798,63.573292 94.081421,63.984837 93.975067,64.702957 
	C93.276405,64.531265 92.633713,64.053001 91.897049,63.261475 
z"/>
<path fill="#E4BF8F" opacity="1.000000" stroke="none" 
	d="
M94.382851,62.934517 
	C93.886681,62.920994 93.591187,62.680233 93.133957,62.203865 
	C93.447777,61.611729 93.923340,61.255203 94.702530,60.942772 
	C94.865288,61.560333 94.724403,62.133808 94.382851,62.934517 
z"/>
<path fill="#915A31" opacity="1.000000" stroke="none" 
	d="
M102.222771,50.155647 
	C101.990677,49.990490 101.541939,49.986279 101.348175,49.649353 
	C101.427094,48.205872 101.699776,47.099316 101.972458,45.992752 
	C102.472702,46.003670 102.972946,46.014587 103.851555,46.037239 
	C104.242416,46.443275 104.254906,46.837574 104.194382,47.823936 
	C104.104500,48.618515 104.087624,48.821030 104.070755,49.023544 
	C104.041794,49.760361 104.012840,50.497173 103.990967,51.602699 
	C103.483658,51.421211 102.969261,50.871010 102.222771,50.155647 
z"/>
<path fill="#AB7150" opacity="1.000000" stroke="none" 
	d="
M104.276634,49.009018 
	C104.087624,48.821030 104.104500,48.618515 104.199921,48.120243 
	C104.498123,48.026585 104.665497,48.265324 104.837418,48.752739 
	C104.894226,48.964779 104.482513,48.994492 104.276634,49.009018 
z"/>
<path fill="#CCAE49" opacity="1.000000" stroke="none" 
	d="
M74.072708,67.549942 
	C73.958145,67.952766 73.789124,67.965767 73.147102,67.729767 
	C71.110336,65.990334 69.546562,64.499916 67.920525,62.670860 
	C65.830376,57.857140 63.802479,53.382061 61.774586,48.906979 
	C61.774586,48.906979 61.898468,48.966507 62.322235,48.987103 
	C64.376793,49.702080 66.007584,50.396458 67.638374,51.090836 
	C67.704399,51.519730 67.770416,51.948620 67.701210,52.895687 
	C68.029236,53.948524 68.492485,54.483189 68.955742,55.017853 
	C70.643250,59.065269 72.330750,63.112686 74.072708,67.549942 
z"/>
<path fill="#D6BC64" opacity="1.000000" stroke="none" 
	d="
M67.689270,50.725086 
	C66.007584,50.396458 64.376793,49.702080 62.386269,49.012054 
	C62.007290,47.631065 61.988056,46.245716 61.993507,44.446365 
	C63.176090,44.245838 64.333992,44.459312 65.759232,44.763428 
	C66.597771,46.689159 67.168968,48.524250 67.689270,50.725086 
z"/>
<path fill="#D6BC64" opacity="1.000000" stroke="none" 
	d="
M68.940773,54.717758 
	C68.492485,54.483189 68.029236,53.948524 67.734207,53.219631 
	C68.243553,53.489491 68.584679,53.953575 68.940773,54.717758 
z"/>
<path fill="#CFB059" opacity="1.000000" stroke="none" 
	d="
M23.769897,20.276016 
	C24.098326,21.578880 24.084059,22.772772 24.104603,24.320423 
	C22.269911,23.762871 18.705263,23.896618 21.687740,20.086576 
	C22.477036,20.045938 22.952120,20.106491 23.769897,20.276016 
z"/>
<path fill="#EED9AC" opacity="1.000000" stroke="none" 
	d="
M91.364746,38.979969 
	C90.045868,37.225048 89.074776,35.454563 87.979858,33.032211 
	C86.569122,32.573826 85.282211,32.767311 83.995293,32.960796 
	C83.828339,32.964458 83.661377,32.968121 83.243835,32.976067 
	C82.229599,32.778946 81.465950,32.577545 80.564308,32.339752 
	C80.586159,27.170172 84.675446,25.942934 88.658051,24.163763 
	C90.298851,26.401825 91.624115,28.791771 93.002815,31.532196 
	C93.783653,33.282551 94.511063,34.682430 95.506844,36.598789 
	C94.304962,37.348118 93.008736,38.156261 91.364746,38.979969 
z"/>
<path fill="#E8CE92" opacity="1.000000" stroke="none" 
	d="
M94.134537,24.280910 
	C94.439293,24.253143 94.500763,24.488129 94.253098,24.856327 
	C94.149399,24.948067 94.096672,24.502186 94.134537,24.280910 
z"/>
<path fill="#CDAD4D" opacity="1.000000" stroke="none" 
	d="
M84.993668,67.991089 
	C84.986923,67.982315 85.216072,67.648476 85.216072,67.648476 
	C85.216072,67.648476 85.207458,67.914001 85.112823,67.963654 
	C85.018196,68.013313 85.000412,67.999870 84.993668,67.991089 
z"/>
<path fill="#EDD6A3" opacity="1.000000" stroke="none" 
	d="
M61.384155,48.933754 
	C63.802479,53.382061 65.830376,57.857140 67.712692,62.907608 
	C67.715134,64.986107 67.863159,66.489212 68.011177,67.992325 
	C67.563271,67.994217 67.115372,67.996109 66.331436,67.998238 
	C65.435005,66.863312 64.874596,65.728149 64.142578,63.955204 
	C63.250900,62.570953 62.530823,61.824486 61.810745,61.078018 
	C60.913879,59.934029 60.017014,58.790035 59.109867,57.327667 
	C58.690022,54.651817 58.280453,52.294338 57.848946,49.560684 
	C58.882580,49.109848 59.938156,49.035187 61.384155,48.933754 
z"/>
<path fill="#E9D29A" opacity="1.000000" stroke="none" 
	d="
M61.840012,61.433903 
	C62.530823,61.824486 63.250900,62.570953 63.982914,63.674408 
	C63.525219,64.017418 63.055584,64.003441 62.233742,63.959862 
	C61.877441,63.216766 61.873360,62.503277 61.840012,61.433903 
z"/>
<path fill="#ECD39A" opacity="1.000000" stroke="none" 
	d="
M30.320156,50.690651 
	C29.099754,50.219391 28.098742,49.430328 27.180653,48.034367 
	C27.847845,46.622353 28.432108,45.817234 29.363098,45.001076 
	C30.170897,44.940662 30.631968,44.891293 31.093040,44.841927 
	C30.908543,46.685566 30.724045,48.529205 30.320156,50.690651 
z"/>
<path fill="#DEBF67" opacity="1.000000" stroke="none" 
	d="
M31.083118,44.483047 
	C30.631968,44.891293 30.170897,44.940662 29.354218,44.631313 
	C29.011843,43.535389 29.025078,42.798183 29.314892,42.015984 
	C29.773808,41.930344 29.956142,41.889694 30.138477,41.849049 
	C30.138477,41.849049 30.620422,41.890320 30.861246,41.922165 
	C31.092445,42.677399 31.082821,43.400787 31.083118,44.483047 
z"/>
<path fill="#C5A13B" opacity="1.000000" stroke="none" 
	d="
M101.958084,45.666016 
	C101.699776,47.099316 101.427094,48.205872 101.123817,49.652859 
	C100.912628,50.005146 100.732025,50.017002 100.280350,50.042809 
	C99.742035,45.585800 97.203926,47.168369 94.724617,48.236134 
	C94.556366,46.964890 94.397202,45.762291 94.118179,44.278526 
	C94.056755,43.608688 94.115204,43.220024 94.242355,42.546944 
	C95.041008,41.641109 95.770958,41.019684 96.970314,40.201672 
	C97.627647,40.015347 97.815567,40.025604 98.137878,40.234241 
	C98.483360,40.679615 98.736023,40.871998 99.155479,41.267151 
	C99.846710,42.020424 100.412720,42.516312 101.106453,43.211609 
	C101.429817,43.663940 101.665970,43.870575 101.942627,44.030918 
	C101.942986,44.467037 101.943344,44.903160 101.958084,45.666016 
z"/>
<path fill="#D4B54B" opacity="1.000000" stroke="none" 
	d="
M30.270618,41.527290 
	C29.956142,41.889694 29.773808,41.930344 29.300949,41.995815 
	C29.010427,42.020638 28.982286,41.980553 28.936220,41.683029 
	C28.272263,40.618996 27.654371,39.852478 27.036480,39.085964 
	C27.258192,37.571022 27.479904,36.056084 28.014622,34.314743 
	C31.085867,35.858212 31.574699,38.289761 30.270618,41.527290 
z"/>
<path fill="#C6A338" opacity="1.000000" stroke="none" 
	d="
M99.030266,41.009769 
	C98.736023,40.871998 98.483360,40.679615 98.180145,39.906525 
	C97.712044,38.256847 97.336082,37.133274 96.960114,36.009705 
	C97.044533,35.264225 97.128952,34.518749 97.325035,33.414375 
	C98.200302,33.534260 98.963898,34.013031 99.867142,34.744225 
	C100.307831,36.097679 100.608879,37.198715 100.737274,38.818573 
	C100.053169,39.894855 99.541718,40.452312 99.030266,41.009769 
z"/>
<path fill="#CDAD48" opacity="1.000000" stroke="none" 
	d="
M96.914322,36.403282 
	C97.336082,37.133274 97.712044,38.256847 98.045746,39.708138 
	C97.815567,40.025604 97.627647,40.015347 97.157112,39.981945 
	C96.872513,38.904823 96.870522,37.850838 96.914322,36.403282 
z"/>
<path fill="#EAD4A6" opacity="1.000000" stroke="none" 
	d="
M84.395294,32.970413 
	C85.282211,32.767311 86.569122,32.573826 87.925812,32.693489 
	C86.928825,32.997772 85.862061,32.988903 84.395294,32.970413 
z"/>
<path fill="#D0B354" opacity="1.000000" stroke="none" 
	d="
M29.024370,42.040810 
	C29.025078,42.798183 29.011843,43.535389 29.007490,44.642357 
	C28.432108,45.817234 27.847845,46.622353 27.130096,47.693924 
	C23.874737,46.768188 24.921770,44.660271 26.358631,42.276909 
	C27.594889,41.972130 28.288588,41.976341 28.982286,41.980553 
	C28.982286,41.980553 29.010427,42.020638 29.024370,42.040810 
z"/>
<path fill="#CAAA33" opacity="1.000000" stroke="none" 
	d="
M28.936220,41.683029 
	C28.288588,41.976341 27.594889,41.972130 26.556622,41.952324 
	C26.319790,41.115517 26.427525,40.294296 26.785870,39.279522 
	C27.654371,39.852478 28.272263,40.618996 28.936220,41.683029 
z"/>
<path fill="#BA9230" opacity="1.000000" stroke="none" 
	d="
M99.155479,41.267151 
	C99.541718,40.452312 100.053169,39.894855 100.788063,39.158585 
	C101.011505,38.979771 101.504997,39.000820 101.751648,39.013069 
	C102.003563,39.473419 102.008827,39.921520 102.025284,40.706585 
	C102.024002,41.477627 102.011528,41.911705 101.739624,42.674065 
	C101.313034,43.005638 101.145889,43.008919 100.978737,43.012203 
	C100.412720,42.516312 99.846710,42.020424 99.155479,41.267151 
z"/>
<path fill="#B88541" opacity="1.000000" stroke="none" 
	d="
M101.106453,43.211609 
	C101.145889,43.008919 101.313034,43.005638 101.730736,43.000023 
	C101.981400,43.170063 101.981506,43.342426 101.962120,43.772858 
	C101.665970,43.870575 101.429817,43.663940 101.106453,43.211609 
z"/>
<path fill="#E9D29A" opacity="1.000000" stroke="none" 
	d="
M68.336861,68.069260 
	C67.863159,66.489212 67.715134,64.986107 67.774948,63.246246 
	C69.546562,64.499916 71.110336,65.990334 72.893112,67.742126 
	C73.040520,68.453232 72.968918,68.902985 72.848312,69.691208 
	C71.420395,69.401855 70.041466,68.774025 68.336861,68.069260 
z"/>
<path fill="#CDAD4D" opacity="1.000000" stroke="none" 
	d="
M80.801926,74.800201 
	C80.240196,75.341637 79.457161,75.663353 78.342941,76.000687 
	C78.868034,75.537704 79.724327,75.059097 80.801926,74.800201 
z"/>
</svg>