<svg version="1.1" id="Layer_1" xmlns="http://www.w3.org/2000/svg" xmlns:xlink="http://www.w3.org/1999/xlink" x="0px" y="0px"
	 width="100%" viewBox="0 0 250 62" enable-background="new 0 0 250 62" xml:space="preserve">
<path fill="#ffffff" opacity="1.000000" stroke="none" 
	d="
M244.000000,1.000002 
	C246.330643,1.000000 248.661270,1.000000 250.993927,1.000000 
	C250.995956,21.640099 250.995956,42.280201 250.995956,62.960152 
	C167.789505,62.960152 84.578987,62.960152 1.000000,62.960152 
	C1.000000,43.313972 1.000000,23.625643 1.366392,3.539767 
	C2.474968,3.056438 3.217153,2.970659 4.239292,2.941761 
	C4.705084,2.956995 4.890924,2.915346 5.325760,2.957784 
	C5.770164,3.324597 5.965571,3.607322 6.149451,4.201903 
	C6.475176,5.043725 6.812428,5.573690 7.524924,6.693324 
	C7.816393,5.162575 7.928617,4.573191 8.318238,4.022841 
	C9.041406,4.388309 9.487175,4.714742 10.075045,5.377950 
	C12.110373,10.361040 16.939659,8.072638 20.378845,10.063490 
	C25.115499,11.212124 29.511255,12.169978 33.929413,13.091848 
	C33.951817,13.055862 33.878128,13.013938 33.966888,13.273963 
	C34.372398,13.666407 34.689148,13.798824 35.181145,13.996885 
	C35.356392,14.062528 35.727795,14.016188 35.921638,14.331672 
	C37.071056,14.716476 38.026630,14.785796 39.378838,14.916836 
	C40.843525,14.940907 41.911579,14.903260 43.336372,14.939671 
	C44.420155,15.055864 45.147202,15.098001 45.907406,15.536102 
	C46.122597,16.521055 46.203632,17.565180 46.501694,17.631327 
	C51.657433,18.775484 56.839882,19.799313 62.355148,21.023567 
	C66.460365,22.423134 70.226913,23.648584 74.376389,24.952377 
	C78.445564,26.166420 82.549324,26.623966 85.729469,28.581779 
	C91.971161,32.424393 97.909454,31.762224 104.102493,29.141508 
	C104.081627,29.123032 104.105186,29.166601 104.446983,29.095417 
	C105.901215,28.363535 107.013649,27.702837 108.566841,27.033077 
	C112.049911,26.692850 115.092224,26.361685 118.431488,25.898895 
	C119.827141,25.241863 120.925850,24.716450 122.392479,24.118935 
	C124.880760,23.840446 127.521889,24.364668 129.025421,23.292944 
	C133.853989,19.851116 138.262192,15.819557 142.899277,11.692762 
	C142.989929,10.931121 143.013840,10.492215 143.344452,10.036533 
	C144.059677,10.039720 144.468185,10.059682 145.060913,10.409643 
	C146.862976,12.160723 148.350281,14.600576 150.121185,14.827552 
	C158.034164,15.841747 166.028061,16.224617 174.457397,16.899963 
	C181.284729,16.920397 187.647400,16.876356 194.455536,16.901897 
	C199.088745,16.571009 203.860062,18.589907 207.438049,14.020578 
	C208.871628,14.017946 209.914352,14.036244 211.120850,14.401806 
	C213.845901,14.022482 216.494385,13.506073 218.936508,12.492434 
	C220.462143,11.859195 221.539429,10.174552 223.055862,9.485093 
	C228.003494,7.235642 233.060410,5.226525 238.414185,2.950587 
	C240.502060,2.184149 242.251022,1.592076 244.000000,1.000002 
z"/>
<path fill="#EBD5A7" opacity="1.000000" stroke="none" 
	d="
M90.000000,1.000000 
	C95.022095,1.000000 100.044182,1.000000 105.573959,1.404429 
	C104.048096,6.537343 102.014549,11.265827 99.604782,15.999347 
	C97.427757,17.179512 95.626961,18.354645 93.826164,19.529778 
	C94.551216,20.353851 95.276276,21.177923 96.001022,22.392437 
	C96.001503,23.819962 96.002289,24.857044 95.776215,25.964514 
	C95.549355,26.034901 95.088966,26.152065 94.911095,25.843075 
	C93.485497,25.018724 92.237762,24.503365 91.033508,23.663881 
	C91.240547,22.454407 91.404106,21.569057 91.313858,22.057581 
	C88.729988,20.808729 86.860260,19.905035 85.003838,18.694092 
	C85.045998,17.979151 85.074844,17.571459 85.368729,16.931417 
	C87.089180,11.466046 88.544594,6.233023 90.000000,1.000000 
M89.840179,16.500578 
	C89.902008,16.824377 89.963829,17.148178 90.025658,17.471977 
	C90.098953,17.150455 90.172256,16.828934 89.840179,16.500578 
z"/>
<path fill="#ECD6AA" opacity="1.000000" stroke="none" 
	d="
M51.000000,1.000000 
	C53.700962,1.000000 56.401924,1.000000 59.546745,1.401540 
	C60.276466,3.241358 60.203648,4.913365 60.946728,6.053711 
	C61.726128,7.249788 63.287998,7.935985 64.507896,8.845020 
	C64.972229,7.571055 65.436554,6.297090 66.129425,4.818851 
	C66.238640,3.409718 66.119324,2.204859 66.000000,1.000000 
	C67.388893,1.000000 68.777779,1.000000 70.602699,1.375334 
	C71.028389,2.501941 71.018051,3.253215 70.677124,4.080090 
	C69.895958,5.102869 69.445381,6.050047 68.624893,7.115828 
	C67.836334,10.153352 67.417702,13.072274 66.996231,16.257603 
	C66.996078,16.701527 66.998764,16.879047 66.593620,17.052456 
	C64.833923,16.940853 63.482052,16.833366 61.802879,16.554071 
	C60.005360,16.140574 58.535141,15.898883 57.033653,15.348688 
	C56.246185,14.930583 55.489983,14.820982 54.343304,14.662247 
	C52.399353,14.326566 50.845875,14.040020 49.224373,13.548972 
	C49.156345,13.344470 49.027187,12.931813 49.023075,12.530369 
	C49.679310,8.419283 50.339657,4.709642 51.000000,1.000000 
z"/>
<path fill="#EBD2A3" opacity="1.000000" stroke="none" 
	d="
M66.999069,15.991198 
	C67.417702,13.072274 67.836334,10.153352 68.644081,7.477019 
	C70.013519,8.481975 70.993835,9.244340 72.156502,10.236204 
	C72.876419,11.024900 73.413994,11.584099 74.021240,12.400293 
	C74.742737,12.486353 75.394562,12.315414 76.189949,11.797390 
	C76.222336,7.966869 76.111168,4.483434 76.000000,1.000000 
	C78.700012,1.000000 81.400032,1.000000 84.583679,1.404593 
	C84.030060,6.881769 82.992805,11.954350 81.618027,17.096771 
	C80.501373,18.570864 79.722252,19.975121 78.531189,21.343122 
	C76.747314,21.238504 75.375374,21.170141 73.708954,20.936119 
	C71.955597,19.807409 70.496727,18.844357 68.962250,17.586384 
	C68.257454,16.858040 67.628258,16.424618 66.999069,15.991198 
z"/>
<path fill="#EDD4AD" opacity="1.000000" stroke="none" 
	d="
M210.957062,14.054543 
	C209.914352,14.036244 208.871628,14.017946 207.164001,13.703695 
	C203.006317,13.300130 199.513550,13.192517 196.084641,12.745325 
	C198.099808,10.606956 200.051117,8.808167 202.234253,6.814125 
	C202.981110,5.745996 203.496185,4.873119 204.363647,4.060991 
	C206.719803,5.155723 208.723557,6.189705 211.616928,7.682744 
	C210.360977,4.475472 209.680481,2.737736 209.000000,1.000000 
	C210.714157,1.000000 212.428329,1.000000 214.623459,1.275857 
	C215.418045,1.841883 215.731674,2.132053 216.045288,2.422219 
	C216.363510,1.948141 216.681747,1.474067 217.000000,0.999996 
	C217.444443,1.000000 217.888885,1.000000 218.676514,1.361829 
	C219.454849,2.544932 219.890030,3.366206 220.188461,4.502041 
	C218.545135,6.006159 216.889862,7.052299 215.569336,8.421329 
	C213.890091,10.162261 212.482025,12.164789 210.957062,14.054543 
z"/>
<path fill="#ECD3A8" opacity="1.000000" stroke="none" 
	d="
M202.002441,7.009379 
	C200.051117,8.808167 198.099808,10.606956 195.963425,12.971369 
	C195.501785,13.736644 195.225204,13.936296 194.723145,14.061384 
	C194.497665,13.986822 194.040283,13.858710 194.024338,13.524542 
	C193.750809,12.371296 193.493240,11.552219 193.235657,10.733143 
	C192.815491,11.223709 192.395309,11.714274 191.529602,12.163574 
	C188.398209,12.118618 185.712357,12.114927 182.812744,11.833797 
	C180.672150,10.705012 178.745316,9.853667 176.852295,8.614212 
	C177.309402,6.467657 177.732712,4.709212 178.357407,2.763807 
	C178.705872,2.051230 178.852936,1.525615 179.000000,0.999999 
	C179.444443,1.000000 179.888901,1.000000 180.688690,1.372587 
	C182.350906,2.506948 183.657745,3.268723 185.135529,4.324325 
	C187.130981,6.921361 188.944916,7.959239 191.173920,4.958878 
	C191.813660,4.097744 193.017212,3.655471 194.207230,3.260125 
	C195.642365,4.362906 196.832520,5.226708 198.286713,6.314594 
	C199.701294,6.695579 200.851868,6.852480 202.002441,7.009379 
z"/>
<path fill="#E7CB9C" opacity="1.000000" stroke="none" 
	d="
M163.000000,1.000003 
	C166.030594,1.000000 169.061188,1.000000 172.496918,1.378652 
	C172.220627,4.739704 171.539215,7.722104 170.646622,10.796064 
	C170.435425,10.887626 170.021439,11.086810 169.627502,11.211185 
	C163.817215,10.946962 158.400848,10.558365 152.991882,9.752352 
	C153.033432,8.498110 153.067596,7.661283 153.372437,7.013842 
	C155.137634,7.293416 157.223404,8.046016 158.010422,7.343549 
	C159.986572,5.579674 161.375565,3.157938 163.000000,1.000003 
z"/>
<path fill="#C3906E" opacity="1.000000" stroke="none" 
	d="
M211.120850,14.401806 
	C212.482025,12.164789 213.890091,10.162261 215.569336,8.421329 
	C216.889862,7.052299 218.545135,6.006159 220.548553,4.457845 
	C224.030258,3.066058 227.015137,2.033029 230.000000,1.000000 
	C232.041672,1.000000 234.083328,1.000000 236.685059,1.271608 
	C237.521820,2.070461 237.798553,2.597706 238.075287,3.124952 
	C233.060410,5.226525 228.003494,7.235642 223.055862,9.485093 
	C221.539429,10.174552 220.462143,11.859195 218.936508,12.492434 
	C216.494385,13.506073 213.845901,14.022482 211.120850,14.401806 
z"/>
<path fill="#D0B054" opacity="1.000000" stroke="none" 
	d="
M99.981003,15.994313 
	C102.014549,11.265827 104.048096,6.537343 106.040817,1.404429 
	C107.388893,1.000000 108.777779,1.000000 110.573257,1.406706 
	C110.907036,3.166535 110.834229,4.519659 110.537834,6.147769 
	C108.802414,10.904398 107.290581,15.386039 105.513931,19.933403 
	C104.840843,20.346577 104.432571,20.694029 103.732201,21.163471 
	C102.330505,21.791889 101.220917,22.298319 99.973679,22.618374 
	C99.600960,22.223425 99.332680,22.074793 99.003540,21.654057 
	C99.310936,19.546110 99.645973,17.770212 99.981003,15.994313 
z"/>
<path fill="#ECD4AC" opacity="1.000000" stroke="none" 
	d="
M36.000000,1.000000 
	C38.700630,1.000000 41.401260,1.000000 44.555370,1.420916 
	C45.668846,5.279565 46.328842,8.717299 46.724052,12.162495 
	C46.284653,12.196181 46.110031,12.222405 45.633011,12.086894 
	C43.866222,11.402075 42.401840,10.878992 40.518402,10.242306 
	C38.073692,10.045384 36.048035,9.962067 33.769558,9.681509 
	C32.692093,9.239388 31.867453,8.994507 31.054022,8.405630 
	C32.710155,5.707757 34.355076,3.353878 36.000000,1.000000 
z"/>
<path fill="#E4C28E" opacity="1.000000" stroke="none" 
	d="
M144.876709,10.079643 
	C144.468185,10.059682 144.059677,10.039720 143.181183,9.818782 
	C141.813660,9.767842 140.916122,9.917880 139.655548,10.050734 
	C136.908722,10.954171 134.524918,11.874793 132.118225,12.348227 
	C132.063553,8.267358 132.031769,4.633679 132.000000,1.000000 
	C134.042313,1.000000 136.084641,1.000000 138.598358,1.370592 
	C140.205170,2.941987 141.398483,4.094069 142.460892,5.356322 
	C143.699036,6.827387 144.822723,8.394797 145.715134,9.953787 
	C145.248352,10.017997 145.062531,10.048820 144.876709,10.079643 
z"/>
<path fill="#CFB04B" opacity="1.000000" stroke="none" 
	d="
M81.955559,17.026934 
	C82.992805,11.954350 84.030060,6.881769 85.033661,1.404593 
	C86.388893,1.000000 87.777779,1.000000 89.583336,1.000000 
	C88.544594,6.233023 87.089180,11.466046 84.987831,16.890053 
	C83.582878,17.034065 82.823860,16.987093 82.027359,16.949036 
	C81.989883,16.957951 81.955559,17.026934 81.955559,17.026934 
z"/>
<path fill="#E5CA9A" opacity="1.000000" stroke="none" 
	d="
M35.533882,1.000000 
	C34.355076,3.353878 32.710155,5.707757 30.714031,8.360165 
	C28.226469,7.798517 26.090111,6.938341 23.632296,6.005059 
	C22.881227,5.839735 22.451616,5.747518 21.946552,5.321638 
	C21.580734,3.658650 21.290367,2.329325 21.000000,1.000000 
	C25.689257,1.000000 30.378511,1.000000 35.533882,1.000000 
z"/>
<path fill="#CFA95D" opacity="1.000000" stroke="none" 
	d="
M131.583344,1.000000 
	C132.031769,4.633679 132.063553,8.267358 131.852005,12.596575 
	C129.106262,14.911263 126.603836,16.530413 124.070351,17.769848 
	C124.029869,16.634684 124.020447,15.879238 124.421814,15.087831 
	C130.775406,12.864151 127.435562,8.597616 127.083710,4.600058 
	C127.055870,3.133268 127.027939,2.066634 127.000000,1.000000 
	C128.388885,1.000000 129.777786,1.000000 131.583344,1.000000 
z"/>
<path fill="#DEBF9A" opacity="1.000000" stroke="none" 
	d="
M20.539364,1.000000 
	C21.290367,2.329325 21.580734,3.658650 21.536015,5.417506 
	C17.444933,5.578416 13.688939,5.309795 9.932945,5.041174 
	C9.487175,4.714742 9.041406,4.388309 8.225204,3.806910 
	C7.290174,3.664644 6.725576,3.777346 6.160978,3.890047 
	C5.965571,3.607322 5.770164,3.324597 5.530793,2.700868 
	C6.657886,1.906576 7.828943,1.453288 9.000000,1.000000 
	C12.692909,1.000000 16.385818,1.000000 20.539364,1.000000 
z"/>
<path fill="#CCAD46" opacity="1.000000" stroke="none" 
	d="
M145.996078,9.920401 
	C144.822723,8.394797 143.699036,6.827387 142.460892,5.356322 
	C141.398483,4.094069 140.205170,2.941987 139.034882,1.370592 
	C142.030594,1.000000 145.061188,1.000000 148.516266,1.377448 
	C148.933472,4.487782 148.926224,7.220667 148.553925,9.959421 
	C147.457947,9.950327 146.727005,9.935363 145.996078,9.920401 
z"/>
<path fill="#D5B362" opacity="1.000000" stroke="none" 
	d="
M170.857819,10.704505 
	C171.539215,7.722104 172.220627,4.739704 172.951019,1.378652 
	C173.750000,1.000000 174.500000,1.000000 175.701141,1.315071 
	C176.820206,2.070352 177.488098,2.510561 178.156006,2.950769 
	C177.732712,4.709212 177.309402,6.467657 176.619690,8.750261 
	C175.914398,9.844613 175.475525,10.414804 174.618134,10.984270 
	C173.085663,10.890531 171.971741,10.797518 170.857819,10.704505 
z"/>
<path fill="#E5CA95" opacity="1.000000" stroke="none" 
	d="
M46.988838,12.155033 
	C46.328842,8.717299 45.668846,5.279565 45.004425,1.420916 
	C46.714359,1.000000 48.428715,1.000000 50.571537,1.000000 
	C50.339657,4.709642 49.679310,8.419283 48.737122,12.526871 
	C47.966465,12.668223 47.477654,12.411628 46.988838,12.155033 
z"/>
<path fill="#CDAE4E" opacity="1.000000" stroke="none" 
	d="
M162.562500,1.000003 
	C161.375565,3.157938 159.986572,5.579674 158.010422,7.343549 
	C157.223404,8.046016 155.137634,7.293416 153.397797,6.688844 
	C154.101639,4.449643 155.050827,2.724824 156.000000,1.000003 
	C158.041672,1.000000 160.083328,1.000000 162.562500,1.000003 
z"/>
<path fill="#D1B359" opacity="1.000000" stroke="none" 
	d="
M73.951569,12.143295 
	C73.413994,11.584099 72.876419,11.024900 72.178612,9.850081 
	C71.681488,7.491137 71.344597,5.747813 71.007706,4.004488 
	C71.018051,3.253215 71.028389,2.501941 71.019363,1.375334 
	C72.388893,1.000000 73.777779,1.000000 75.583336,1.000000 
	C76.111168,4.483434 76.222336,7.966869 75.841049,11.766761 
	C74.882912,12.103244 74.417244,12.123269 73.951569,12.143295 
z"/>
<path fill="#EDD3A6" opacity="1.000000" stroke="none" 
	d="
M155.562500,1.000003 
	C155.050827,2.724824 154.101639,4.449643 153.127106,6.499459 
	C153.067596,7.661283 153.033432,8.498110 152.585419,9.740316 
	C151.087357,10.081647 150.003159,10.017600 148.918961,9.953552 
	C148.926224,7.220667 148.933472,4.487782 148.970367,1.377448 
	C151.041672,1.000000 153.083328,1.000000 155.562500,1.000003 
z"/>
<path fill="#E6CA8B" opacity="1.000000" stroke="none" 
	d="
M193.962265,3.021147 
	C193.017212,3.655471 191.813660,4.097744 191.173920,4.958878 
	C188.944916,7.959239 187.130981,6.921361 185.147278,3.945002 
	C184.992050,2.514568 184.996033,1.757284 185.000000,1.000000 
	C187.700012,1.000000 190.400024,1.000000 193.553223,1.336911 
	C193.991714,2.122931 193.976990,2.572040 193.962265,3.021147 
z"/>
<path fill="#CFB250" opacity="1.000000" stroke="none" 
	d="
M65.900887,5.023125 
	C65.436554,6.297090 64.972229,7.571055 64.507896,8.845020 
	C63.287998,7.935985 61.726128,7.249788 60.946728,6.053711 
	C60.203648,4.913365 60.276466,3.241358 59.995300,1.401540 
	C61.066669,1.000000 62.133339,1.000000 63.613251,1.328982 
	C64.651283,2.779684 65.276085,3.901405 65.900887,5.023125 
z"/>
<path fill="#F0DAB2" opacity="1.000000" stroke="none" 
	d="
M113.000000,1.000000 
	C114.389000,1.000000 115.777992,1.000000 117.593636,1.333776 
	C118.356422,2.445231 118.692566,3.222910 118.959198,4.356380 
	C118.350037,6.511783 117.810371,8.311394 116.948181,10.053886 
	C116.081177,9.662723 115.536697,9.328676 114.992325,8.598213 
	C114.328293,5.801198 113.664146,3.400598 113.000000,1.000000 
z"/>
<path fill="#D1B352" opacity="1.000000" stroke="none" 
	d="
M194.207230,3.260127 
	C193.976990,2.572040 193.991714,2.122931 194.003204,1.336911 
	C196.700012,1.000000 199.400024,1.000000 202.389252,1.286307 
	C201.126541,3.078582 199.574615,4.584549 198.022690,6.090513 
	C196.832520,5.226708 195.642365,4.362906 194.207230,3.260127 
z"/>
<path fill="#E7D2A5" opacity="1.000000" stroke="none" 
	d="
M208.583344,1.000000 
	C209.680481,2.737736 210.360977,4.475472 211.616928,7.682744 
	C208.723557,6.189705 206.719803,5.155723 204.360825,3.685963 
	C204.003738,2.500124 204.001877,1.750062 204.000000,1.000000 
	C205.388885,1.000000 206.777786,1.000000 208.583344,1.000000 
z"/>
<path fill="#E8D09B" opacity="1.000000" stroke="none" 
	d="
M119.028702,4.000587 
	C118.692566,3.222910 118.356422,2.445231 118.010139,1.333776 
	C120.700012,1.000000 123.400032,1.000000 126.550018,1.000000 
	C127.027939,2.066634 127.055870,3.133268 126.687698,4.599965 
	C125.249557,4.987604 124.207512,4.975180 123.117355,4.618804 
	C122.001984,0.064522 120.450127,2.993347 119.028702,4.000587 
z"/>
<path fill="#E9C99E" opacity="1.000000" stroke="none" 
	d="
M229.541931,1.000000 
	C227.015137,2.033029 224.030258,3.066058 220.685303,4.143283 
	C219.890030,3.366206 219.454849,2.544932 219.009842,1.361829 
	C222.361282,1.000000 225.722580,1.000000 229.541931,1.000000 
z"/>
<path fill="#E8D09B" opacity="1.000000" stroke="none" 
	d="
M112.666672,1.000000 
	C113.664146,3.400598 114.328293,5.801198 114.661285,8.520885 
	C113.140556,7.850908 111.950989,6.861844 110.761421,5.872781 
	C110.834229,4.519659 110.907036,3.166535 110.989914,1.406706 
	C111.444443,1.000000 111.888893,1.000000 112.666672,1.000000 
z"/>
<path fill="#E6CA8B" opacity="1.000000" stroke="none" 
	d="
M203.750000,1.000000 
	C204.001877,1.750062 204.003738,2.500124 204.008423,3.625214 
	C203.496185,4.873119 202.981110,5.745996 202.234253,6.814127 
	C200.851868,6.852480 199.701294,6.695579 198.286713,6.314597 
	C199.574615,4.584549 201.126541,3.078582 202.839233,1.286307 
	C203.000000,1.000000 203.500000,1.000000 203.750000,1.000000 
z"/>
<path fill="#E6CE99" opacity="1.000000" stroke="none" 
	d="
M184.600006,1.000000 
	C184.996033,1.757284 184.992050,2.514568 184.976349,3.651174 
	C183.657745,3.268723 182.350906,2.506948 181.022034,1.372587 
	C182.066666,1.000000 183.133347,1.000000 184.600006,1.000000 
z"/>
<path fill="#AD7A5C" opacity="1.000000" stroke="none" 
	d="
M238.414185,2.950587 
	C237.798553,2.597706 237.521820,2.070461 237.122559,1.271608 
	C239.041672,1.000000 241.083328,1.000000 243.562500,1.000002 
	C242.251022,1.592076 240.502060,2.184149 238.414185,2.950587 
z"/>
<path fill="#E5CA95" opacity="1.000000" stroke="none" 
	d="
M66.129425,4.818851 
	C65.276085,3.901405 64.651283,2.779684 64.013245,1.328982 
	C64.444443,1.000000 64.888893,1.000000 65.666672,1.000000 
	C66.119324,2.204859 66.238640,3.409718 66.129425,4.818851 
z"/>
<path fill="#985F3B" opacity="1.000000" stroke="none" 
	d="
M8.571537,1.000000 
	C7.828943,1.453288 6.657886,1.906576 5.281796,2.616780 
	C4.890924,2.915346 4.705084,2.956995 4.152717,2.688965 
	C3.524126,1.919523 3.262063,1.459762 3.000000,1.000000 
	C4.714358,1.000000 6.428717,1.000000 8.571537,1.000000 
z"/>
<path fill="#E4C491" opacity="1.000000" stroke="none" 
	d="
M178.357407,2.763808 
	C177.488098,2.510561 176.820206,2.070352 176.076141,1.315071 
	C176.750000,1.000000 177.500000,1.000000 178.625000,0.999999 
	C178.852936,1.525615 178.705872,2.051230 178.357407,2.763808 
z"/>
<path fill="#BB916E" opacity="1.000000" stroke="none" 
	d="
M2.500000,1.000000 
	C3.262063,1.459762 3.524126,1.919523 3.872763,2.632082 
	C3.217153,2.970659 2.474968,3.056438 1.366392,3.071109 
	C1.333333,2.333333 1.666667,1.666667 2.500000,1.000000 
z"/>
<path fill="#E9C99E" opacity="1.000000" stroke="none" 
	d="
M216.666656,0.999996 
	C216.681747,1.474067 216.363510,1.948141 216.045288,2.422219 
	C215.731674,2.132053 215.418045,1.841883 215.052216,1.275857 
	C215.444443,1.000000 215.888901,1.000000 216.666656,0.999996 
z"/>
<path fill="#B37D5A" opacity="1.000000" stroke="none" 
	d="
M74.003433,21.101776 
	C75.375374,21.170141 76.747314,21.238504 78.828934,21.532850 
	C83.366783,23.131422 87.194962,24.504011 91.318726,26.034126 
	C92.772530,26.178455 93.930748,26.165260 95.088966,26.152065 
	C95.088966,26.152065 95.549355,26.034901 96.168198,26.016571 
	C97.835640,25.948257 98.884239,25.898275 99.969238,26.237995 
	C101.378204,27.471794 102.750786,28.315889 104.123367,29.159985 
	C97.909454,31.762224 91.971161,32.424393 85.729469,28.581779 
	C82.549324,26.623966 78.445564,26.166420 74.378418,24.574764 
	C73.999496,23.113131 74.001465,22.107454 74.003433,21.101776 
z"/>
<path fill="#BF8963" opacity="1.000000" stroke="none" 
	d="
M148.553925,9.959422 
	C150.003159,10.017600 151.087357,10.081647 152.578033,10.157731 
	C158.400848,10.558365 163.817215,10.946962 169.625610,11.581841 
	C171.342682,13.497244 172.667709,15.166367 173.992737,16.835487 
	C166.028061,16.224617 158.034164,15.841747 150.121185,14.827552 
	C148.350281,14.600576 146.862976,12.160723 145.060913,10.409643 
	C145.062531,10.048820 145.248352,10.017997 145.715134,9.953787 
	C146.727005,9.935363 147.457947,9.950327 148.553925,9.959422 
z"/>
<path fill="#B27D51" opacity="1.000000" stroke="none" 
	d="
M124.101410,18.149559 
	C126.603836,16.530413 129.106262,14.911263 131.874893,13.043764 
	C134.524918,11.874793 136.908722,10.954171 139.722443,10.364786 
	C141.045761,11.135848 141.939148,11.575671 142.832550,12.015496 
	C138.262192,15.819557 133.853989,19.851116 129.025421,23.292944 
	C127.521889,24.364668 124.880760,23.840446 122.389313,23.690090 
	C122.020767,22.761982 122.023308,22.190615 122.252289,21.476919 
	C123.019615,20.272913 123.560509,19.211235 124.101410,18.149559 
z"/>
<path fill="#B67F54" opacity="1.000000" stroke="none" 
	d="
M174.457397,16.899963 
	C172.667709,15.166367 171.342682,13.497244 170.019562,11.457466 
	C170.021439,11.086810 170.435425,10.887626 170.646622,10.796066 
	C171.971741,10.797518 173.085663,10.890531 174.939484,11.140663 
	C178.128418,11.568933 180.577469,11.840085 183.026505,12.111236 
	C185.712357,12.114927 188.398209,12.118618 191.660614,12.404249 
	C192.838196,13.077028 193.439240,13.467868 194.040283,13.858708 
	C194.040283,13.858710 194.497665,13.986822 194.601746,14.321681 
	C194.473907,15.381799 194.241989,16.107058 194.010071,16.832317 
	C187.647400,16.876356 181.284729,16.920397 174.457397,16.899963 
z"/>
<path fill="#AC744E" opacity="1.000000" stroke="none" 
	d="
M49.292397,13.753474 
	C50.845875,14.040020 52.399353,14.326566 54.502739,14.874633 
	C55.723404,15.309834 56.394161,15.483513 57.064919,15.657192 
	C58.535141,15.898883 60.005360,16.140574 61.772202,16.968277 
	C62.051376,18.652678 62.033932,19.751064 62.016487,20.849451 
	C56.839882,19.799313 51.657433,18.775484 46.501694,17.631327 
	C46.203632,17.565180 46.122597,16.521055 45.973228,15.461414 
	C46.005901,14.990762 46.140247,14.843814 46.474968,14.842981 
	C47.637257,14.479257 48.464828,14.116365 49.292397,13.753474 
z"/>
<path fill="#AD7851" opacity="1.000000" stroke="none" 
	d="
M104.102493,29.141508 
	C102.750786,28.315889 101.378204,27.471794 99.994690,26.042496 
	C99.983757,25.457294 100.032990,25.064255 100.395737,25.044296 
	C101.839577,24.688366 102.920670,24.352394 104.414162,23.932278 
	C107.878914,23.660814 110.931259,23.473495 114.060242,23.553747 
	C114.724297,24.196468 115.311714,24.571617 116.111313,25.189545 
	C116.927162,25.631723 117.530853,25.831120 118.134537,26.030518 
	C115.092224,26.361685 112.049911,26.692850 108.182571,27.027416 
	C106.273430,27.742746 105.189308,28.454674 104.105186,29.166601 
	C104.105186,29.166601 104.081627,29.123032 104.102493,29.141508 
z"/>
<path fill="#B88059" opacity="1.000000" stroke="none" 
	d="
M62.355148,21.023567 
	C62.033932,19.751064 62.051376,18.652678 62.099499,17.140083 
	C63.482052,16.833366 64.833923,16.940853 66.786957,17.265511 
	C67.938026,17.615553 68.487938,17.748428 69.037849,17.881302 
	C70.496727,18.844357 71.955597,19.807409 73.708954,20.936119 
	C74.001465,22.107454 73.999496,23.113131 73.995499,24.496422 
	C70.226913,23.648584 66.460365,22.423134 62.355148,21.023567 
z"/>
<path fill="#BA845D" opacity="1.000000" stroke="none" 
	d="
M23.953751,6.078166 
	C26.090111,6.938341 28.226469,7.798517 30.702820,8.704159 
	C31.867453,8.994507 32.692093,9.239388 33.759613,10.088095 
	C33.970661,11.503891 33.938835,12.315862 33.907009,13.127833 
	C29.511255,12.169978 25.115499,11.212124 20.576492,9.829056 
	C21.606741,8.295283 22.780247,7.186725 23.953751,6.078166 
z"/>
<path fill="#BC8661" opacity="1.000000" stroke="none" 
	d="
M194.455551,16.901899 
	C194.241989,16.107058 194.473907,15.381799 194.827240,14.396244 
	C195.225204,13.936296 195.501785,13.736644 195.899567,13.310949 
	C199.513550,13.192517 203.006317,13.300130 206.773132,13.724625 
	C203.860062,18.589907 199.088745,16.571009 194.455551,16.901899 
z"/>
<path fill="#AB714D" opacity="1.000000" stroke="none" 
	d="
M23.632296,6.005059 
	C22.780247,7.186725 21.606741,8.295283 20.235592,9.638277 
	C16.939659,8.072638 12.110373,10.361040 10.075045,5.377950 
	C13.688939,5.309795 17.444933,5.578416 21.611465,5.751169 
	C22.451616,5.747518 22.881227,5.839735 23.632296,6.005059 
z"/>
<path fill="#9F6843" opacity="1.000000" stroke="none" 
	d="
M33.929413,13.091848 
	C33.938835,12.315862 33.970661,11.503891 34.012436,10.285334 
	C36.048035,9.962067 38.073692,10.045384 40.532452,10.605414 
	C40.984013,12.059456 41.002468,13.036785 40.677048,14.023541 
	C39.874756,14.036851 39.416351,14.040733 38.554577,13.987994 
	C37.343407,13.959644 36.535599,13.987916 35.727795,14.016188 
	C35.727795,14.016188 35.356392,14.062528 35.055965,13.778791 
	C34.463070,13.334683 34.170597,13.174311 33.878128,13.013939 
	C33.878128,13.013938 33.951817,13.055862 33.929413,13.091848 
z"/>
<path fill="#9F693D" opacity="1.000000" stroke="none" 
	d="
M118.431488,25.898895 
	C117.530853,25.831120 116.927162,25.631723 116.152649,24.878765 
	C116.012871,23.907784 116.043922,23.490368 116.355270,22.811474 
	C118.432327,22.239750 120.229088,21.929499 122.025856,21.619247 
	C122.023308,22.190615 122.020767,22.761982 122.021393,23.762194 
	C120.925850,24.716450 119.827141,25.241863 118.431488,25.898895 
z"/>
<path fill="#AC7651" opacity="1.000000" stroke="none" 
	d="
M41.020927,14.014114 
	C41.002468,13.036785 40.984013,12.059456 40.951508,10.719018 
	C42.401840,10.878992 43.866222,11.402075 45.649090,12.411310 
	C46.025131,13.546247 46.082691,14.195030 46.140247,14.843814 
	C46.140247,14.843814 46.005901,14.990762 45.940079,15.065450 
	C45.147202,15.098001 44.420155,15.055864 43.311626,14.702177 
	C42.293739,14.265121 41.657333,14.139618 41.020927,14.014114 
z"/>
<path fill="#A87146" opacity="1.000000" stroke="none" 
	d="
M142.899277,11.692760 
	C141.939148,11.575671 141.045761,11.135848 140.085464,10.381970 
	C140.916122,9.917880 141.813660,9.767842 142.874481,9.835558 
	C143.013840,10.492215 142.989929,10.931121 142.899277,11.692760 
z"/>
<path fill="#B37D5A" opacity="1.000000" stroke="none" 
	d="
M104.446983,29.095417 
	C105.189308,28.454674 106.273430,27.742746 107.741821,27.036480 
	C107.013649,27.702837 105.901215,28.363535 104.446983,29.095417 
z"/>
<path fill="#BD885E" opacity="1.000000" stroke="none" 
	d="
M40.677044,14.023541 
	C41.657333,14.139618 42.293739,14.265121 42.954895,14.628119 
	C41.911579,14.903260 40.843525,14.940907 39.379646,14.714012 
	C38.983829,14.449470 38.957943,14.044616 38.957943,14.044616 
	C39.416351,14.040733 39.874756,14.036851 40.677044,14.023541 
z"/>
<path fill="#A57455" opacity="1.000000" stroke="none" 
	d="
M6.149451,4.201903 
	C6.725576,3.777346 7.290174,3.664644 7.947806,3.767874 
	C7.928617,4.573191 7.816393,5.162575 7.524924,6.693324 
	C6.812428,5.573690 6.475176,5.043725 6.149451,4.201903 
z"/>
<path fill="#D6AA86" opacity="1.000000" stroke="none" 
	d="
M38.554577,13.987994 
	C38.957943,14.044616 38.983829,14.449470 38.983017,14.652293 
	C38.026630,14.785796 37.071056,14.716476 35.921638,14.331672 
	C36.535599,13.987916 37.343407,13.959644 38.554577,13.987994 
z"/>
<path fill="#BA8662" opacity="1.000000" stroke="none" 
	d="
M33.966888,13.273964 
	C34.170597,13.174311 34.463070,13.334683 34.880714,13.713150 
	C34.689148,13.798824 34.372398,13.666407 33.966888,13.273964 
z"/>
<path fill="#E7CB9F" opacity="1.000000" stroke="none" 
	d="
M91.023132,25.876600 
	C87.194962,24.504011 83.366783,23.131422 79.240875,21.569103 
	C79.722252,19.975121 80.501373,18.570864 81.618027,17.096771 
	C81.955559,17.026934 81.989883,16.957951 82.006523,17.296125 
	C82.241074,18.510876 82.458984,19.387453 82.676895,20.264029 
	C83.448105,19.843132 84.219315,19.422237 84.990524,19.001343 
	C86.860260,19.905035 88.729988,20.808729 91.313858,22.057581 
	C91.404106,21.569057 91.240547,22.454407 91.033539,23.979004 
	C91.001106,25.037701 91.012115,25.457151 91.023132,25.876600 
z"/>
<path fill="#E7CB9F" opacity="1.000000" stroke="none" 
	d="
M99.604782,15.999348 
	C99.645973,17.770212 99.310936,19.546110 98.624168,21.660976 
	C97.515404,22.000629 96.758362,22.001312 96.001328,22.001995 
	C95.276276,21.177923 94.551216,20.353851 93.826164,19.529778 
	C95.626961,18.354645 97.427757,17.179512 99.604782,15.999348 
z"/>
<path fill="#EFD5AF" opacity="1.000000" stroke="none" 
	d="
M96.001022,22.392437 
	C96.758362,22.001312 97.515404,22.000629 98.651810,21.993027 
	C99.332680,22.074793 99.600960,22.223425 99.939034,22.995800 
	C100.039017,24.061153 100.036003,24.562704 100.032990,25.064255 
	C100.032990,25.064255 99.983757,25.457294 99.958298,25.652794 
	C98.884239,25.898275 97.835640,25.948257 96.395058,25.946182 
	C96.002289,24.857044 96.001503,23.819962 96.001022,22.392437 
z"/>
<path fill="#DEBC87" opacity="1.000000" stroke="none" 
	d="
M85.003838,18.694092 
	C84.219315,19.422237 83.448105,19.843132 82.676895,20.264029 
	C82.458984,19.387453 82.241074,18.510876 82.044006,17.287209 
	C82.823860,16.987093 83.582878,17.034065 84.722794,17.122402 
	C85.074844,17.571459 85.045998,17.979151 85.003838,18.694092 
z"/>
<path fill="#EFD5AF" opacity="1.000000" stroke="none" 
	d="
M91.318726,26.034126 
	C91.012115,25.457151 91.001106,25.037701 90.990067,24.303127 
	C92.237762,24.503365 93.485497,25.018724 94.911095,25.843075 
	C93.930748,26.165260 92.772530,26.178455 91.318726,26.034126 
z"/>
<path fill="#E7CB9F" opacity="1.000000" stroke="none" 
	d="
M90.042870,16.503994 
	C90.172256,16.828934 90.098953,17.150455 90.025658,17.471977 
	C89.963829,17.148178 89.902008,16.824377 90.042870,16.503994 
z"/>
<path fill="#E5CA95" opacity="1.000000" stroke="none" 
	d="
M70.677124,4.080090 
	C71.344597,5.747813 71.681488,7.491137 71.996269,9.620583 
	C70.993835,9.244340 70.013519,8.481975 69.014008,7.358418 
	C69.445381,6.050047 69.895958,5.102869 70.677124,4.080090 
z"/>
<path fill="#BD885E" opacity="1.000000" stroke="none" 
	d="
M46.474968,14.842981 
	C46.082691,14.195030 46.025131,13.546247 45.951492,12.573047 
	C46.110031,12.222405 46.284653,12.196181 46.724052,12.162495 
	C47.477654,12.411628 47.966465,12.668223 48.741234,12.928316 
	C49.027187,12.931813 49.156345,13.344470 49.224373,13.548972 
	C48.464828,14.116365 47.637257,14.479257 46.474968,14.842981 
z"/>
<path fill="#E5CA95" opacity="1.000000" stroke="none" 
	d="
M57.033653,15.348688 
	C56.394161,15.483513 55.723404,15.309834 54.893211,14.923767 
	C55.489983,14.820982 56.246185,14.930583 57.033653,15.348688 
z"/>
<path fill="#E5CA95" opacity="1.000000" stroke="none" 
	d="
M68.962250,17.586382 
	C68.487938,17.748428 67.938026,17.615553 67.194778,17.269623 
	C66.998764,16.879047 66.996078,16.701527 66.996231,16.257601 
	C67.628258,16.424618 68.257454,16.858040 68.962250,17.586382 
z"/>
<path fill="#E5CA95" opacity="1.000000" stroke="none" 
	d="
M74.021240,12.400293 
	C74.417244,12.123269 74.882912,12.103244 75.697487,12.113848 
	C75.394562,12.315414 74.742737,12.486353 74.021240,12.400293 
z"/>
<path fill="#E4C491" opacity="1.000000" stroke="none" 
	d="
M182.812744,11.833797 
	C180.577469,11.840085 178.128418,11.568933 175.358032,11.141390 
	C175.475525,10.414804 175.914398,9.844613 176.585876,9.138371 
	C178.745316,9.853667 180.672150,10.705012 182.812744,11.833797 
z"/>
<path fill="#E4C491" opacity="1.000000" stroke="none" 
	d="
M194.024338,13.524540 
	C193.439240,13.467868 192.838196,13.077028 192.106140,12.445515 
	C192.395309,11.714274 192.815491,11.223709 193.235657,10.733143 
	C193.493240,11.552219 193.750809,12.371296 194.024338,13.524540 
z"/>
<path fill="#ECD6A7" opacity="1.000000" stroke="none" 
	d="
M110.537834,6.147768 
	C111.950989,6.861844 113.140556,7.850908 114.661163,8.917301 
	C115.536697,9.328676 116.081177,9.662723 116.909607,10.451208 
	C116.592690,13.565722 115.991821,16.225798 114.951843,18.913031 
	C111.601402,19.249353 108.690079,19.558516 105.778748,19.867680 
	C107.290581,15.386039 108.802414,10.904398 110.537834,6.147768 
z"/>
<path fill="#F2DAB9" opacity="1.000000" stroke="none" 
	d="
M105.513931,19.933403 
	C108.690079,19.558516 111.601402,19.249353 114.885902,19.316862 
	C115.163040,20.763506 115.067009,21.833477 114.716606,22.979706 
	C114.302696,23.132700 114.143150,23.209436 113.983612,23.286175 
	C110.931259,23.473495 107.878914,23.660814 104.417343,23.559971 
	C104.013519,22.528364 104.018913,21.784922 104.024300,21.041481 
	C104.432571,20.694029 104.840843,20.346577 105.513931,19.933403 
z"/>
<path fill="#E7CB9F" opacity="1.000000" stroke="none" 
	d="
M103.732201,21.163469 
	C104.018913,21.784922 104.013519,22.528364 104.004944,23.644115 
	C102.920670,24.352394 101.839577,24.688366 100.395737,25.044296 
	C100.036003,24.562704 100.039017,24.061153 100.076675,23.182175 
	C101.220917,22.298319 102.330505,21.791889 103.732201,21.163469 
z"/>
<path fill="#D1B25C" opacity="1.000000" stroke="none" 
	d="
M114.970978,22.903448 
	C115.067009,21.833477 115.163040,20.763506 115.325012,19.289703 
	C115.991821,16.225798 116.592690,13.565722 117.232124,10.508327 
	C117.810371,8.311394 118.350037,6.511783 118.959206,4.356379 
	C120.450127,2.993347 122.001984,0.064522 122.925179,4.957138 
	C123.191086,8.800880 123.601051,11.962337 124.011017,15.123793 
	C124.020447,15.879238 124.029869,16.634684 124.070351,17.769844 
	C123.560509,19.211235 123.019615,20.272913 122.252289,21.476919 
	C120.229088,21.929499 118.432327,22.239750 116.078331,22.772793 
	C115.337730,22.964874 115.154350,22.934162 114.970978,22.903448 
z"/>
<path fill="#E5C68D" opacity="1.000000" stroke="none" 
	d="
M124.421799,15.087831 
	C123.601051,11.962337 123.191086,8.800880 122.973297,5.301090 
	C124.207512,4.975180 125.249557,4.987604 126.687607,5.000120 
	C127.435562,8.597616 130.775406,12.864151 124.421799,15.087831 
z"/>
<path fill="#B4845A" opacity="1.000000" stroke="none" 
	d="
M114.716599,22.979706 
	C115.154350,22.934162 115.337730,22.964874 115.798035,23.034267 
	C116.043922,23.490368 116.012871,23.907784 115.940475,24.635983 
	C115.311714,24.571617 114.724297,24.196468 114.060242,23.553747 
	C114.143150,23.209436 114.302696,23.132700 114.716599,22.979706 
z"/>
</svg>